%TF.GenerationSoftware,KiCad,Pcbnew,8.0.1*%
%TF.CreationDate,2024-08-10T06:31:29+02:00*%
%TF.ProjectId,2024-04-23 PCBV1.1,32303234-2d30-4342-9d32-332050434256,rev?*%
%TF.SameCoordinates,Original*%
%TF.FileFunction,Soldermask,Bot*%
%TF.FilePolarity,Negative*%
%FSLAX46Y46*%
G04 Gerber Fmt 4.6, Leading zero omitted, Abs format (unit mm)*
G04 Created by KiCad (PCBNEW 8.0.1) date 2024-08-10 06:31:29*
%MOMM*%
%LPD*%
G01*
G04 APERTURE LIST*
G04 Aperture macros list*
%AMRoundRect*
0 Rectangle with rounded corners*
0 $1 Rounding radius*
0 $2 $3 $4 $5 $6 $7 $8 $9 X,Y pos of 4 corners*
0 Add a 4 corners polygon primitive as box body*
4,1,4,$2,$3,$4,$5,$6,$7,$8,$9,$2,$3,0*
0 Add four circle primitives for the rounded corners*
1,1,$1+$1,$2,$3*
1,1,$1+$1,$4,$5*
1,1,$1+$1,$6,$7*
1,1,$1+$1,$8,$9*
0 Add four rect primitives between the rounded corners*
20,1,$1+$1,$2,$3,$4,$5,0*
20,1,$1+$1,$4,$5,$6,$7,0*
20,1,$1+$1,$6,$7,$8,$9,0*
20,1,$1+$1,$8,$9,$2,$3,0*%
G04 Aperture macros list end*
%ADD10C,1.600000*%
%ADD11O,1.600000X1.600000*%
%ADD12RoundRect,0.250000X0.620000X0.620000X-0.620000X0.620000X-0.620000X-0.620000X0.620000X-0.620000X0*%
%ADD13C,1.740000*%
%ADD14C,4.500000*%
%ADD15C,7.000000*%
%ADD16R,1.700000X1.700000*%
%ADD17C,1.700000*%
%ADD18R,3.000000X2.500000*%
%ADD19O,3.000000X2.500000*%
%ADD20RoundRect,0.250000X0.620000X-0.620000X0.620000X0.620000X-0.620000X0.620000X-0.620000X-0.620000X0*%
%ADD21R,2.000000X2.000000*%
%ADD22C,2.000000*%
%ADD23R,1.600000X1.600000*%
%ADD24RoundRect,0.250000X-0.620000X0.620000X-0.620000X-0.620000X0.620000X-0.620000X0.620000X0.620000X0*%
%ADD25R,2.000000X1.905000*%
%ADD26O,2.000000X1.905000*%
%ADD27R,2.600000X2.600000*%
%ADD28C,2.600000*%
%ADD29RoundRect,0.250000X-0.620000X-0.620000X0.620000X-0.620000X0.620000X0.620000X-0.620000X0.620000X0*%
%ADD30O,2.400000X2.800000*%
%ADD31R,1.800000X1.800000*%
%ADD32C,1.800000*%
G04 APERTURE END LIST*
D10*
%TO.C,R2*%
X120040000Y-109220000D03*
D11*
X120040000Y-111760000D03*
%TD*%
D10*
%TO.C,R4*%
X67970000Y-105410000D03*
D11*
X67970000Y-102870000D03*
%TD*%
D12*
%TO.C,J4*%
X68580000Y-43180000D03*
D13*
X66040000Y-43180000D03*
X63500000Y-43180000D03*
X60960000Y-43180000D03*
%TD*%
D10*
%TO.C,R9*%
X95910000Y-147320000D03*
D11*
X98450000Y-147320000D03*
%TD*%
D12*
%TO.C,J16*%
X160020000Y-43180000D03*
D13*
X157480000Y-43180000D03*
%TD*%
D10*
%TO.C,Difflock1*%
X147320000Y-64770000D03*
X149860000Y-64770000D03*
X152400000Y-64770000D03*
X154940000Y-64770000D03*
X157480000Y-64770000D03*
X160020000Y-64770000D03*
X162560000Y-64770000D03*
X162560000Y-52070000D03*
X160020000Y-52070000D03*
X157480000Y-52070000D03*
X154940000Y-52070000D03*
X152400000Y-52070000D03*
X149860000Y-52070000D03*
X147320000Y-52070000D03*
%TD*%
%TO.C,R12*%
X115905000Y-147320000D03*
D11*
X118445000Y-147320000D03*
%TD*%
D14*
%TO.C,H3*%
X43840000Y-152400000D03*
D15*
X43840000Y-152400000D03*
%TD*%
D16*
%TO.C,SW3*%
X42200000Y-128980000D03*
D17*
X42200000Y-122480000D03*
X46700000Y-128980000D03*
X46700000Y-122480000D03*
%TD*%
D10*
%TO.C,U1*%
X145832500Y-142240000D03*
X100112500Y-116840000D03*
X100112500Y-142240000D03*
X102652500Y-142240000D03*
X105192500Y-142240000D03*
X107732500Y-142240000D03*
X110272500Y-142240000D03*
X112812500Y-142240000D03*
X115352500Y-142240000D03*
X117892500Y-142240000D03*
X120432500Y-142240000D03*
X122972500Y-142240000D03*
X125512500Y-142240000D03*
X128052500Y-142240000D03*
X130592500Y-142240000D03*
X133132500Y-142240000D03*
X135672500Y-142240000D03*
X138212500Y-142240000D03*
X140752500Y-142240000D03*
X143292500Y-142240000D03*
X145832500Y-116840000D03*
X143292500Y-116840000D03*
X140752500Y-116840000D03*
X138212500Y-116840000D03*
X135672500Y-116840000D03*
X133132500Y-116840000D03*
X130592500Y-116840000D03*
X128052500Y-116840000D03*
X125512500Y-116840000D03*
X122972500Y-116840000D03*
X120432500Y-116840000D03*
X117892500Y-116840000D03*
X112812500Y-116840000D03*
X110272500Y-116840000D03*
X107732500Y-116840000D03*
X105192500Y-116840000D03*
X102652500Y-116840000D03*
X115352500Y-116840000D03*
%TD*%
D18*
%TO.C,Q1*%
X87630000Y-125350000D03*
D19*
X87630000Y-130810000D03*
X87630000Y-136270000D03*
%TD*%
D20*
%TO.C,J7*%
X157480000Y-116840000D03*
D13*
X157480000Y-114300000D03*
X157480000Y-111760000D03*
%TD*%
D10*
%TO.C,U3*%
X134010000Y-88900000D03*
X134010000Y-91440000D03*
X134010000Y-81280000D03*
X134010000Y-93980000D03*
X134010000Y-96520000D03*
X134010000Y-99060000D03*
X134010000Y-101600000D03*
X134010000Y-78740000D03*
X134010000Y-86360000D03*
X134010000Y-83820000D03*
%TD*%
D16*
%TO.C,SW2*%
X42200000Y-118260000D03*
D17*
X42200000Y-111760000D03*
X46700000Y-118260000D03*
X46700000Y-111760000D03*
%TD*%
D21*
%TO.C,C10*%
X48340000Y-43180000D03*
D22*
X53340000Y-43180000D03*
%TD*%
D14*
%TO.C,H1*%
X43840000Y-49530000D03*
D15*
X43840000Y-49530000D03*
%TD*%
D10*
%TO.C,R1*%
X113690000Y-109220000D03*
D11*
X113690000Y-111760000D03*
%TD*%
D23*
%TO.C,U2*%
X99720000Y-73660000D03*
D11*
X99720000Y-76200000D03*
X99720000Y-78740000D03*
X99720000Y-81280000D03*
X99720000Y-83820000D03*
X99720000Y-86360000D03*
X99720000Y-88900000D03*
X99720000Y-91440000D03*
X99720000Y-93980000D03*
X99720000Y-96520000D03*
X99720000Y-99060000D03*
X99720000Y-101600000D03*
X99720000Y-104140000D03*
X99720000Y-106680000D03*
X107340000Y-106680000D03*
X107340000Y-104140000D03*
X107340000Y-101600000D03*
X107340000Y-99060000D03*
X107340000Y-96520000D03*
X107340000Y-93980000D03*
X107340000Y-91440000D03*
X107340000Y-88900000D03*
X107340000Y-86360000D03*
X107340000Y-83820000D03*
X107340000Y-81280000D03*
X107340000Y-78740000D03*
X107340000Y-76200000D03*
X107340000Y-73660000D03*
%TD*%
D20*
%TO.C,J1*%
X157480000Y-78740000D03*
D13*
X157480000Y-76200000D03*
X157480000Y-73660000D03*
X157480000Y-71120000D03*
%TD*%
D20*
%TO.C,J8*%
X157480000Y-129540000D03*
D13*
X157480000Y-127000000D03*
X157480000Y-124460000D03*
%TD*%
D10*
%TO.C,ClutchB1*%
X124460000Y-64770000D03*
X127000000Y-64770000D03*
X129540000Y-64770000D03*
X132080000Y-64770000D03*
X134620000Y-64770000D03*
X137160000Y-64770000D03*
X139700000Y-64770000D03*
X139700000Y-52070000D03*
X137160000Y-52070000D03*
X134620000Y-52070000D03*
X132080000Y-52070000D03*
X129540000Y-52070000D03*
X127000000Y-52070000D03*
X124460000Y-52070000D03*
%TD*%
%TO.C,DC/DC2*%
X71120000Y-119380000D03*
X73660000Y-119380000D03*
X76200000Y-119380000D03*
%TD*%
%TO.C,R3*%
X74320000Y-105410000D03*
D11*
X74320000Y-102870000D03*
%TD*%
D20*
%TO.C,J6*%
X157480000Y-104140000D03*
D13*
X157480000Y-101600000D03*
X157480000Y-99060000D03*
%TD*%
D20*
%TO.C,J12*%
X157505000Y-142240000D03*
D13*
X157505000Y-139700000D03*
X157505000Y-137160000D03*
%TD*%
D12*
%TO.C,J14*%
X114300000Y-43180000D03*
D13*
X111760000Y-43180000D03*
%TD*%
D10*
%TO.C,A1*%
X71120000Y-52080000D03*
X68580000Y-52080000D03*
X66040000Y-52080000D03*
X63500000Y-52080000D03*
X60960000Y-52080000D03*
X58420000Y-52080000D03*
X55880000Y-52080000D03*
X53340000Y-52080000D03*
X53340000Y-64780000D03*
X55880000Y-64780000D03*
X58420000Y-64780000D03*
X60960000Y-64780000D03*
X63500000Y-64780000D03*
X66040000Y-64780000D03*
X68580000Y-64780000D03*
X71120000Y-64780000D03*
%TD*%
D12*
%TO.C,J15*%
X137160000Y-43180000D03*
D13*
X134620000Y-43180000D03*
%TD*%
D10*
%TO.C,R13*%
X115905000Y-152400000D03*
D11*
X118445000Y-152400000D03*
%TD*%
D24*
%TO.C,J3*%
X45720000Y-58420000D03*
D13*
X45720000Y-60960000D03*
X45720000Y-63500000D03*
%TD*%
D25*
%TO.C,Q2*%
X123525000Y-152400000D03*
D26*
X123525000Y-149860000D03*
X123525000Y-147320000D03*
%TD*%
D10*
%TO.C,R8*%
X80670000Y-105410000D03*
D11*
X80670000Y-102870000D03*
%TD*%
D24*
%TO.C,J2*%
X45720000Y-137160000D03*
D13*
X45720000Y-139700000D03*
X45720000Y-142240000D03*
%TD*%
D27*
%TO.C,J18*%
X66040000Y-149860000D03*
D28*
X73540000Y-149860000D03*
X81040000Y-149860000D03*
X88540000Y-149860000D03*
%TD*%
D10*
%TO.C,U6*%
X45720000Y-69850000D03*
X91440000Y-95250000D03*
X91440000Y-69850000D03*
X88900000Y-69850000D03*
X86360000Y-69850000D03*
X83820000Y-69850000D03*
X81280000Y-69850000D03*
X78740000Y-69850000D03*
X76200000Y-69850000D03*
X73660000Y-69850000D03*
X71120000Y-69850000D03*
X68580000Y-69850000D03*
X66040000Y-69850000D03*
X63500000Y-69850000D03*
X60960000Y-69850000D03*
X58420000Y-69850000D03*
X55880000Y-69850000D03*
X53340000Y-69850000D03*
X50800000Y-69850000D03*
X48260000Y-69850000D03*
X45720000Y-95250000D03*
X48260000Y-95250000D03*
X50800000Y-95250000D03*
X53340000Y-95250000D03*
X55880000Y-95250000D03*
X58420000Y-95250000D03*
X60960000Y-95250000D03*
X63500000Y-95250000D03*
X66040000Y-95250000D03*
X68580000Y-95250000D03*
X71120000Y-95250000D03*
X73660000Y-95250000D03*
X78740000Y-95250000D03*
X81280000Y-95250000D03*
X83820000Y-95250000D03*
X86360000Y-95250000D03*
X88900000Y-95250000D03*
X76200000Y-95250000D03*
%TD*%
%TO.C,R18*%
X139090000Y-109220000D03*
D11*
X139090000Y-111760000D03*
%TD*%
D29*
%TO.C,J17*%
X53340000Y-149980000D03*
D13*
X55880000Y-149980000D03*
%TD*%
D29*
%TO.C,J11*%
X131470000Y-149860000D03*
D13*
X134010000Y-149860000D03*
%TD*%
D21*
%TO.C,C11*%
X99140000Y-43180000D03*
D22*
X104140000Y-43180000D03*
%TD*%
D21*
%TO.C,C9*%
X144860000Y-43180000D03*
D22*
X149860000Y-43180000D03*
%TD*%
D10*
%TO.C,R10*%
X95910000Y-152400000D03*
D11*
X98450000Y-152400000D03*
%TD*%
D12*
%TO.C,J13*%
X91440000Y-43180000D03*
D13*
X88900000Y-43180000D03*
%TD*%
D29*
%TO.C,J10*%
X141630000Y-149860000D03*
D13*
X144170000Y-149860000D03*
X146710000Y-149860000D03*
%TD*%
D10*
%TO.C,R19*%
X145440000Y-109220000D03*
D11*
X145440000Y-111760000D03*
%TD*%
D16*
%TO.C,SW1*%
X42200000Y-107390000D03*
D17*
X42200000Y-100890000D03*
X46700000Y-107390000D03*
X46700000Y-100890000D03*
%TD*%
D21*
%TO.C,C14*%
X54690000Y-139700000D03*
D22*
X59690000Y-139700000D03*
%TD*%
D20*
%TO.C,J5*%
X157480000Y-91440000D03*
D13*
X157480000Y-88900000D03*
X157480000Y-86360000D03*
%TD*%
D30*
%TO.C,F1*%
X69660000Y-136160000D03*
X77660000Y-136160000D03*
%TD*%
D10*
%TO.C,DC/DC1*%
X55880000Y-119380000D03*
X58420000Y-119380000D03*
X60960000Y-119380000D03*
%TD*%
%TO.C,R16*%
X126390000Y-109220000D03*
D11*
X126390000Y-111760000D03*
%TD*%
D10*
%TO.C,U4*%
X114960000Y-88900000D03*
X114960000Y-91440000D03*
X114960000Y-81280000D03*
X114960000Y-93980000D03*
X114960000Y-96520000D03*
X114960000Y-99060000D03*
X114960000Y-101600000D03*
X114960000Y-78740000D03*
X114960000Y-86360000D03*
X114960000Y-83820000D03*
%TD*%
D14*
%TO.C,H2*%
X132080000Y-71120000D03*
D15*
X132080000Y-71120000D03*
%TD*%
D31*
%TO.C,D1*%
X52730000Y-104140000D03*
D32*
X55270000Y-104140000D03*
%TD*%
D10*
%TO.C,R17*%
X132740000Y-109220000D03*
D11*
X132740000Y-111760000D03*
%TD*%
D21*
%TO.C,C1*%
X76280000Y-43180000D03*
D22*
X81280000Y-43180000D03*
%TD*%
D29*
%TO.C,J9*%
X104140000Y-149860000D03*
D13*
X106680000Y-149860000D03*
%TD*%
D10*
%TO.C,R5*%
X61620000Y-105410000D03*
D11*
X61620000Y-102870000D03*
%TD*%
D10*
%TO.C,ClutchA1*%
X101625000Y-64770000D03*
X104165000Y-64770000D03*
X106705000Y-64770000D03*
X109245000Y-64770000D03*
X111785000Y-64770000D03*
X114325000Y-64770000D03*
X116865000Y-64770000D03*
X116865000Y-52070000D03*
X114325000Y-52070000D03*
X111785000Y-52070000D03*
X109245000Y-52070000D03*
X106705000Y-52070000D03*
X104165000Y-52070000D03*
X101625000Y-52070000D03*
%TD*%
D21*
%TO.C,C12*%
X122000000Y-43180000D03*
D22*
X127000000Y-43180000D03*
%TD*%
D10*
%TO.C,R11*%
X87020000Y-105410000D03*
D11*
X87020000Y-102870000D03*
%TD*%
D10*
%TO.C,R15*%
X153060000Y-148590000D03*
D11*
X153060000Y-151130000D03*
%TD*%
D14*
%TO.C,H4*%
X159410000Y-152400000D03*
D15*
X159410000Y-152400000D03*
%TD*%
D10*
%TO.C,R6*%
X86385000Y-110490000D03*
D11*
X73685000Y-110490000D03*
%TD*%
D10*
%TO.C,Shifter1*%
X78740000Y-64770000D03*
X81280000Y-64770000D03*
X83820000Y-64770000D03*
X86360000Y-64770000D03*
X88900000Y-64770000D03*
X91440000Y-64770000D03*
X93980000Y-64770000D03*
X93980000Y-52070000D03*
X91440000Y-52070000D03*
X88900000Y-52070000D03*
X86360000Y-52070000D03*
X83820000Y-52070000D03*
X81280000Y-52070000D03*
X78740000Y-52070000D03*
%TD*%
M02*
