M48
; DRILL file {KiCad 8.0.1} date 2024-08-10T06:31:27+0200
; FORMAT={-:-/ absolute / inch / decimal}
; #@! TF.CreationDate,2024-08-10T06:31:27+02:00
; #@! TF.GenerationSoftware,Kicad,Pcbnew,8.0.1
; #@! TF.FileFunction,Plated,1,2,PTH
FMAT,2
INCH
; #@! TA.AperFunction,Plated,PTH,ViaDrill
T1C0.0157
; #@! TA.AperFunction,Plated,PTH,ComponentDrill
T2C0.0315
; #@! TA.AperFunction,Plated,PTH,ComponentDrill
T3C0.0354
; #@! TA.AperFunction,Plated,PTH,ComponentDrill
T4C0.0394
; #@! TA.AperFunction,Plated,PTH,ComponentDrill
T5C0.0429
; #@! TA.AperFunction,Plated,PTH,ComponentDrill
T6C0.0433
; #@! TA.AperFunction,Plated,PTH,ComponentDrill
T7C0.0551
; #@! TA.AperFunction,Plated,PTH,ComponentDrill
T8C0.0591
; #@! TA.AperFunction,Plated,PTH,ComponentDrill
T9C0.0630
; #@! TA.AperFunction,Plated,PTH,ComponentDrill
T10C0.1378
%
G90
G05
T1
X1.6Y-2.15
X1.6Y-5.25
X1.6Y-5.75
X1.9Y-3.65
X1.9Y-4.45
X1.9Y-4.875
X1.95Y-2.15
X1.95Y-5.75
X1.95Y-6.1
X2.0Y-4.45
X2.125Y-4.55
X2.2Y-2.975
X2.2Y-3.55
X2.225Y-1.5
X2.225Y-1.825
X2.3Y-4.025
X2.35Y-5.75
X2.35Y-6.1
X2.55Y-4.025
X2.575Y-4.675
X2.7Y-2.975
X2.7Y-3.55
X2.7Y-4.5
X2.725Y-5.725
X2.875Y-1.5
X2.875Y-1.825
X3.025Y-5.575
X3.05Y-4.175
X3.175Y-4.65
X3.2Y-5.575
X3.2Y-5.725
X3.225Y-5.15
X3.3Y-2.975
X3.3Y-3.55
X3.35Y-1.5
X3.35Y-5.725
X3.475Y-5.725
X3.55Y-4.025
X3.6Y-3.15
X3.6Y-5.425
X3.6Y-5.725
X3.725Y-5.425
X3.75Y-1.5
X3.75Y-1.85
X3.875Y-5.9
X3.95Y-5.3
X3.95Y-6.05
X4.025Y-4.4
X4.075Y-3.0
X4.075Y-3.7
X4.075Y-4.0
X4.225Y-4.4
X4.25Y-1.5
X4.25Y-4.7
X4.3Y-3.45
X4.375Y-2.85
X4.4Y-6.15
X4.45Y-3.75
X4.6Y-4.275
X4.6Y-5.9
X4.675Y-1.5
X4.675Y-1.85
X4.75Y-4.875
X4.75Y-5.35
X4.85Y-4.275
X4.95Y-3.925
X4.975Y-6.0
X5.025Y-5.6923
X5.075Y-3.925
X5.1Y-4.275
X5.2Y-3.925
X5.25Y-4.7
X5.375Y-3.75
X5.375Y-3.85
X5.375Y-3.95
X5.375Y-4.05
X5.375Y-4.25
X5.425Y-5.8
X5.55Y-1.5
X5.55Y-1.85
X5.55Y-5.35
X5.75Y-4.7
X5.85Y-5.6
X6.0Y-4.7
X6.05Y-1.5
X6.4Y-1.9
X6.4Y-3.25
X6.4Y-3.75
X6.4Y-4.25
X6.4Y-4.75
X6.4Y-5.25
X6.4Y-5.75
T2
X2.426Y-4.05
X2.426Y-4.15
X2.676Y-4.05
X2.676Y-4.15
X2.901Y-4.35
X2.926Y-4.05
X2.926Y-4.15
X3.176Y-4.05
X3.176Y-4.15
X3.401Y-4.35
X3.426Y-4.05
X3.426Y-4.15
X3.776Y-5.8
X3.776Y-6.0
X3.876Y-5.8
X3.876Y-6.0
X3.926Y-2.9
X3.926Y-3.0
X3.926Y-3.1
X3.926Y-3.2
X3.926Y-3.3
X3.926Y-3.4
X3.926Y-3.5
X3.926Y-3.6
X3.926Y-3.7
X3.926Y-3.8
X3.926Y-3.9
X3.926Y-4.0
X3.926Y-4.1
X3.926Y-4.2
X4.226Y-2.9
X4.226Y-3.0
X4.226Y-3.1
X4.226Y-3.2
X4.226Y-3.3
X4.226Y-3.4
X4.226Y-3.5
X4.226Y-3.6
X4.226Y-3.7
X4.226Y-3.8
X4.226Y-3.9
X4.226Y-4.0
X4.226Y-4.1
X4.226Y-4.2
X4.476Y-4.3
X4.476Y-4.4
X4.5632Y-5.8
X4.5632Y-6.0
X4.6632Y-5.8
X4.6632Y-6.0
X4.726Y-4.3
X4.726Y-4.4
X4.976Y-4.3
X4.976Y-4.4
X5.226Y-4.3
X5.226Y-4.4
X5.476Y-4.3
X5.476Y-4.4
X5.726Y-4.3
X5.726Y-4.4
X6.026Y-5.85
X6.026Y-5.95
T3
X2.076Y-4.1
X2.176Y-4.1
T4
X1.6614Y-3.972
X1.6614Y-4.228
X1.6614Y-4.4
X1.6614Y-4.6559
X1.6614Y-4.822
X1.6614Y-5.078
X1.8Y-2.75
X1.8Y-3.75
X1.8386Y-3.972
X1.8386Y-4.228
X1.8386Y-4.4
X1.8386Y-4.6559
X1.8386Y-4.822
X1.8386Y-5.078
X1.9Y-2.75
X1.9Y-3.75
X1.9031Y-1.7
X2.0Y-2.75
X2.0Y-3.75
X2.1Y-1.7
X2.1Y-2.0504
X2.1Y-2.5504
X2.1Y-2.75
X2.1Y-3.75
X2.1531Y-5.5
X2.2Y-2.0504
X2.2Y-2.5504
X2.2Y-2.75
X2.2Y-3.75
X2.2Y-4.7
X2.3Y-2.0504
X2.3Y-2.5504
X2.3Y-2.75
X2.3Y-3.75
X2.3Y-4.7
X2.35Y-5.5
X2.4Y-2.0504
X2.4Y-2.5504
X2.4Y-2.75
X2.4Y-3.75
X2.4Y-4.7
X2.5Y-2.0504
X2.5Y-2.5504
X2.5Y-2.75
X2.5Y-3.75
X2.6Y-2.0504
X2.6Y-2.5504
X2.6Y-2.75
X2.6Y-3.75
X2.7Y-2.0504
X2.7Y-2.5504
X2.7Y-2.75
X2.7Y-3.75
X2.8Y-2.0504
X2.8Y-2.5504
X2.8Y-2.75
X2.8Y-3.75
X2.8Y-4.7
X2.9Y-2.75
X2.9Y-3.75
X2.9Y-4.7
X3.0Y-2.75
X3.0Y-3.75
X3.0Y-4.7
X3.0031Y-1.7
X3.1Y-2.05
X3.1Y-2.55
X3.1Y-2.75
X3.1Y-3.75
X3.2Y-1.7
X3.2Y-2.05
X3.2Y-2.55
X3.2Y-2.75
X3.2Y-3.75
X3.3Y-2.05
X3.3Y-2.55
X3.3Y-2.75
X3.3Y-3.75
X3.4Y-2.05
X3.4Y-2.55
X3.4Y-2.75
X3.4Y-3.75
X3.5Y-2.05
X3.5Y-2.55
X3.5Y-2.75
X3.5Y-3.75
X3.6Y-2.05
X3.6Y-2.55
X3.6Y-2.75
X3.6Y-3.75
X3.7Y-2.05
X3.7Y-2.55
X3.9031Y-1.7
X3.9414Y-4.6
X3.9414Y-5.6
X4.001Y-2.05
X4.001Y-2.55
X4.0414Y-4.6
X4.0414Y-5.6
X4.1Y-1.7
X4.101Y-2.05
X4.101Y-2.55
X4.1414Y-4.6
X4.1414Y-5.6
X4.201Y-2.05
X4.201Y-2.55
X4.2414Y-4.6
X4.2414Y-5.6
X4.301Y-2.05
X4.301Y-2.55
X4.3414Y-4.6
X4.3414Y-5.6
X4.401Y-2.05
X4.401Y-2.55
X4.4414Y-4.6
X4.4414Y-5.6
X4.501Y-2.05
X4.501Y-2.55
X4.526Y-3.1
X4.526Y-3.2
X4.526Y-3.3
X4.526Y-3.4
X4.526Y-3.5
X4.526Y-3.6
X4.526Y-3.7
X4.526Y-3.8
X4.526Y-3.9
X4.526Y-4.0
X4.5414Y-4.6
X4.5414Y-5.6
X4.601Y-2.05
X4.601Y-2.55
X4.6414Y-4.6
X4.6414Y-5.6
X4.7414Y-4.6
X4.7414Y-5.6
X4.8031Y-1.7
X4.8414Y-4.6
X4.8414Y-5.6
X4.9Y-2.05
X4.9Y-2.55
X4.9414Y-4.6
X4.9414Y-5.6
X5.0Y-1.7
X5.0Y-2.05
X5.0Y-2.55
X5.0414Y-4.6
X5.0414Y-5.6
X5.1Y-2.05
X5.1Y-2.55
X5.1414Y-4.6
X5.1414Y-5.6
X5.2Y-2.05
X5.2Y-2.55
X5.2414Y-4.6
X5.2414Y-5.6
X5.276Y-3.1
X5.276Y-3.2
X5.276Y-3.3
X5.276Y-3.4
X5.276Y-3.5
X5.276Y-3.6
X5.276Y-3.7
X5.276Y-3.8
X5.276Y-3.9
X5.276Y-4.0
X5.3Y-2.05
X5.3Y-2.55
X5.3414Y-4.6
X5.3414Y-5.6
X5.4Y-2.05
X5.4Y-2.55
X5.4414Y-4.6
X5.4414Y-5.6
X5.5Y-2.05
X5.5Y-2.55
X5.5414Y-4.6
X5.5414Y-5.6
X5.6414Y-4.6
X5.6414Y-5.6
X5.7031Y-1.7
X5.7414Y-4.6
X5.7414Y-5.6
X5.8Y-2.05
X5.8Y-2.55
X5.9Y-1.7
X5.9Y-2.05
X5.9Y-2.55
X6.0Y-2.05
X6.0Y-2.55
X6.1Y-2.05
X6.1Y-2.55
X6.2Y-2.05
X6.2Y-2.55
X6.3Y-2.05
X6.3Y-2.55
X6.4Y-2.05
X6.4Y-2.55
T5
X1.8Y-2.3
X1.8Y-2.4
X1.8Y-2.5
X1.8Y-5.4
X1.8Y-5.5
X1.8Y-5.6
X2.1Y-5.9047
X2.2Y-5.9047
X2.4Y-1.7
X2.5Y-1.7
X2.6Y-1.7
X2.7Y-1.7
X3.5Y-1.7
X3.6Y-1.7
X4.1Y-5.9
X4.2Y-5.9
X4.4Y-1.7
X4.5Y-1.7
X5.176Y-5.9
X5.276Y-5.9
X5.3Y-1.7
X5.4Y-1.7
X5.576Y-5.9
X5.676Y-5.9
X5.776Y-5.9
X6.2Y-1.7
X6.2Y-2.8
X6.2Y-2.9
X6.2Y-3.0
X6.2Y-3.1
X6.2Y-3.4
X6.2Y-3.5
X6.2Y-3.6
X6.2Y-3.9
X6.2Y-4.0
X6.2Y-4.1
X6.2Y-4.4
X6.2Y-4.5
X6.2Y-4.6
X6.2Y-4.9
X6.2Y-5.0
X6.2Y-5.1
X6.201Y-5.4
X6.201Y-5.5
X6.201Y-5.6
X6.3Y-1.7
T6
X4.8632Y-5.8
X4.8632Y-5.9
X4.8632Y-6.0
T7
X2.6Y-5.9
X2.8953Y-5.9
X3.1906Y-5.9
X3.4858Y-5.9
T8
X3.45Y-4.935
X3.45Y-5.15
X3.45Y-5.365
T9
X2.7425Y-5.3606
X3.0575Y-5.3606
T10
X1.726Y-1.95
X1.726Y-6.0
X5.2Y-2.8
X6.276Y-6.0
M30
