%TF.GenerationSoftware,KiCad,Pcbnew,8.0.1*%
%TF.CreationDate,2024-08-10T06:31:25+02:00*%
%TF.ProjectId,2024-04-23 PCBV1.1,32303234-2d30-4342-9d32-332050434256,rev?*%
%TF.SameCoordinates,Original*%
%TF.FileFunction,Drillmap*%
%TF.FilePolarity,Positive*%
%FSLAX45Y45*%
G04 Gerber Fmt 4.5, Leading zero omitted, Abs format (unit mm)*
G04 Created by KiCad (PCBNEW 8.0.1) date 2024-08-10 06:31:25*
%MOMM*%
%LPD*%
G01*
G04 APERTURE LIST*
%ADD10C,0.100000*%
%ADD11C,0.200000*%
G04 APERTURE END LIST*
D10*
X3876000Y-3556000D02*
X16476000Y-3556000D01*
X16476000Y-15756000D01*
X3876000Y-15756000D01*
X3876000Y-3556000D01*
D11*
X4131777Y-16072484D02*
X4131777Y-15872484D01*
X4131777Y-15872484D02*
X4179396Y-15872484D01*
X4179396Y-15872484D02*
X4207967Y-15882008D01*
X4207967Y-15882008D02*
X4227015Y-15901055D01*
X4227015Y-15901055D02*
X4236539Y-15920103D01*
X4236539Y-15920103D02*
X4246063Y-15958198D01*
X4246063Y-15958198D02*
X4246063Y-15986769D01*
X4246063Y-15986769D02*
X4236539Y-16024865D01*
X4236539Y-16024865D02*
X4227015Y-16043912D01*
X4227015Y-16043912D02*
X4207967Y-16062960D01*
X4207967Y-16062960D02*
X4179396Y-16072484D01*
X4179396Y-16072484D02*
X4131777Y-16072484D01*
X4331777Y-16072484D02*
X4331777Y-15939150D01*
X4331777Y-15977246D02*
X4341301Y-15958198D01*
X4341301Y-15958198D02*
X4350824Y-15948674D01*
X4350824Y-15948674D02*
X4369872Y-15939150D01*
X4369872Y-15939150D02*
X4388920Y-15939150D01*
X4455586Y-16072484D02*
X4455586Y-15939150D01*
X4455586Y-15872484D02*
X4446063Y-15882008D01*
X4446063Y-15882008D02*
X4455586Y-15891531D01*
X4455586Y-15891531D02*
X4465110Y-15882008D01*
X4465110Y-15882008D02*
X4455586Y-15872484D01*
X4455586Y-15872484D02*
X4455586Y-15891531D01*
X4579396Y-16072484D02*
X4560348Y-16062960D01*
X4560348Y-16062960D02*
X4550824Y-16043912D01*
X4550824Y-16043912D02*
X4550824Y-15872484D01*
X4684158Y-16072484D02*
X4665110Y-16062960D01*
X4665110Y-16062960D02*
X4655586Y-16043912D01*
X4655586Y-16043912D02*
X4655586Y-15872484D01*
X4912729Y-16072484D02*
X4912729Y-15872484D01*
X4912729Y-15872484D02*
X4979396Y-16015341D01*
X4979396Y-16015341D02*
X5046063Y-15872484D01*
X5046063Y-15872484D02*
X5046063Y-16072484D01*
X5227015Y-16072484D02*
X5227015Y-15967722D01*
X5227015Y-15967722D02*
X5217491Y-15948674D01*
X5217491Y-15948674D02*
X5198444Y-15939150D01*
X5198444Y-15939150D02*
X5160348Y-15939150D01*
X5160348Y-15939150D02*
X5141301Y-15948674D01*
X5227015Y-16062960D02*
X5207967Y-16072484D01*
X5207967Y-16072484D02*
X5160348Y-16072484D01*
X5160348Y-16072484D02*
X5141301Y-16062960D01*
X5141301Y-16062960D02*
X5131777Y-16043912D01*
X5131777Y-16043912D02*
X5131777Y-16024865D01*
X5131777Y-16024865D02*
X5141301Y-16005817D01*
X5141301Y-16005817D02*
X5160348Y-15996293D01*
X5160348Y-15996293D02*
X5207967Y-15996293D01*
X5207967Y-15996293D02*
X5227015Y-15986769D01*
X5322253Y-15939150D02*
X5322253Y-16139150D01*
X5322253Y-15948674D02*
X5341301Y-15939150D01*
X5341301Y-15939150D02*
X5379396Y-15939150D01*
X5379396Y-15939150D02*
X5398444Y-15948674D01*
X5398444Y-15948674D02*
X5407967Y-15958198D01*
X5407967Y-15958198D02*
X5417491Y-15977246D01*
X5417491Y-15977246D02*
X5417491Y-16034388D01*
X5417491Y-16034388D02*
X5407967Y-16053436D01*
X5407967Y-16053436D02*
X5398444Y-16062960D01*
X5398444Y-16062960D02*
X5379396Y-16072484D01*
X5379396Y-16072484D02*
X5341301Y-16072484D01*
X5341301Y-16072484D02*
X5322253Y-16062960D01*
X5503205Y-16053436D02*
X5512729Y-16062960D01*
X5512729Y-16062960D02*
X5503205Y-16072484D01*
X5503205Y-16072484D02*
X5493682Y-16062960D01*
X5493682Y-16062960D02*
X5503205Y-16053436D01*
X5503205Y-16053436D02*
X5503205Y-16072484D01*
X5503205Y-15948674D02*
X5512729Y-15958198D01*
X5512729Y-15958198D02*
X5503205Y-15967722D01*
X5503205Y-15967722D02*
X5493682Y-15958198D01*
X5493682Y-15958198D02*
X5503205Y-15948674D01*
X5503205Y-15948674D02*
X5503205Y-15967722D01*
M02*
