%TF.GenerationSoftware,KiCad,Pcbnew,8.0.1*%
%TF.CreationDate,2024-08-10T06:45:48+02:00*%
%TF.ProjectId,2024-05-23 RC PCB,32303234-2d30-4352-9d32-332052432050,rev?*%
%TF.SameCoordinates,Original*%
%TF.FileFunction,Drillmap*%
%TF.FilePolarity,Positive*%
%FSLAX45Y45*%
G04 Gerber Fmt 4.5, Leading zero omitted, Abs format (unit mm)*
G04 Created by KiCad (PCBNEW 8.0.1) date 2024-08-10 06:45:48*
%MOMM*%
%LPD*%
G01*
G04 APERTURE LIST*
%ADD10C,0.050000*%
%ADD11C,0.200000*%
%ADD12C,0.100000*%
%ADD13C,0.109000*%
%ADD14C,0.350000*%
G04 APERTURE END LIST*
D10*
X7481000Y-2590000D02*
X15681000Y-2590000D01*
X15681000Y-9090000D01*
X7481000Y-9090000D01*
X7481000Y-2590000D01*
D11*
D12*
X7726929Y-8743071D02*
X7766929Y-8783071D01*
X7766929Y-8743071D02*
X7726929Y-8783071D01*
X7727100Y-3663000D02*
X7767100Y-3703000D01*
X7767100Y-3663000D02*
X7727100Y-3703000D01*
X7727100Y-4806000D02*
X7767100Y-4846000D01*
X7767100Y-4806000D02*
X7727100Y-4846000D01*
X7727100Y-5949000D02*
X7767100Y-5989000D01*
X7767100Y-5949000D02*
X7727100Y-5989000D01*
X7727100Y-7346000D02*
X7767100Y-7386000D01*
X7767100Y-7346000D02*
X7727100Y-7386000D01*
X8489100Y-2964500D02*
X8529100Y-3004500D01*
X8529100Y-2964500D02*
X8489100Y-3004500D01*
X8489100Y-4450400D02*
X8529100Y-4490400D01*
X8529100Y-4450400D02*
X8489100Y-4490400D01*
X8666900Y-5364800D02*
X8706900Y-5404800D01*
X8706900Y-5364800D02*
X8666900Y-5404800D01*
X8806600Y-8679500D02*
X8846600Y-8719500D01*
X8846600Y-8679500D02*
X8806600Y-8719500D01*
X9886100Y-8044500D02*
X9926100Y-8084500D01*
X9926100Y-8044500D02*
X9886100Y-8084500D01*
X9911329Y-3028000D02*
X9951329Y-3068000D01*
X9951329Y-3028000D02*
X9911329Y-3068000D01*
X9911329Y-3282071D02*
X9951329Y-3322071D01*
X9951329Y-3282071D02*
X9911329Y-3322071D01*
X9911329Y-3536071D02*
X9951329Y-3576071D01*
X9951329Y-3536071D02*
X9911329Y-3576071D01*
X10013100Y-6012500D02*
X10053100Y-6052500D01*
X10053100Y-6012500D02*
X10013100Y-6052500D01*
X10140100Y-7473000D02*
X10180100Y-7513000D01*
X10180100Y-7473000D02*
X10140100Y-7513000D01*
X10890000Y-5314000D02*
X10930000Y-5354000D01*
X10930000Y-5314000D02*
X10890000Y-5354000D01*
X10890000Y-6076000D02*
X10930000Y-6116000D01*
X10930000Y-6076000D02*
X10890000Y-6116000D01*
X10902100Y-5695000D02*
X10942100Y-5735000D01*
X10942100Y-5695000D02*
X10902100Y-5735000D01*
X10902100Y-6965000D02*
X10942100Y-7005000D01*
X10942100Y-6965000D02*
X10902100Y-7005000D01*
X11727600Y-3091500D02*
X11767600Y-3131500D01*
X11767600Y-3091500D02*
X11727600Y-3131500D01*
X12235600Y-3091500D02*
X12275600Y-3131500D01*
X12275600Y-3091500D02*
X12235600Y-3131500D01*
X12362600Y-7790500D02*
X12402600Y-7830500D01*
X12402600Y-7790500D02*
X12362600Y-7830500D01*
X12743600Y-3091500D02*
X12783600Y-3131500D01*
X12783600Y-3091500D02*
X12743600Y-3131500D01*
X12934100Y-6711000D02*
X12974100Y-6751000D01*
X12974100Y-6711000D02*
X12934100Y-6751000D01*
X12959500Y-3536000D02*
X12999500Y-3576000D01*
X12999500Y-3536000D02*
X12959500Y-3576000D01*
X13188100Y-8616000D02*
X13228100Y-8656000D01*
X13228100Y-8616000D02*
X13188100Y-8656000D01*
X13378600Y-3790000D02*
X13418600Y-3830000D01*
X13418600Y-3790000D02*
X13378600Y-3830000D01*
X13416529Y-5568071D02*
X13456529Y-5608071D01*
X13456529Y-5568071D02*
X13416529Y-5608071D01*
X13416529Y-5822071D02*
X13456529Y-5862071D01*
X13456529Y-5822071D02*
X13416529Y-5862071D01*
X13416529Y-6076071D02*
X13456529Y-6116071D01*
X13456529Y-6076071D02*
X13416529Y-6116071D01*
X13416700Y-6330000D02*
X13456700Y-6370000D01*
X13456700Y-6330000D02*
X13416700Y-6370000D01*
X13416700Y-6584000D02*
X13456700Y-6624000D01*
X13456700Y-6584000D02*
X13416700Y-6624000D01*
X13823100Y-2964500D02*
X13863100Y-3004500D01*
X13863100Y-2964500D02*
X13823100Y-3004500D01*
X14204100Y-7574600D02*
X14244100Y-7614600D01*
X14244100Y-7574600D02*
X14204100Y-7614600D01*
X14381729Y-5491871D02*
X14421729Y-5531871D01*
X14421729Y-5491871D02*
X14381729Y-5531871D01*
X14648600Y-6838000D02*
X14688600Y-6878000D01*
X14688600Y-6838000D02*
X14648600Y-6878000D01*
X14648600Y-8743000D02*
X14688600Y-8783000D01*
X14688600Y-8743000D02*
X14648600Y-8783000D01*
X9184100Y-2921000D02*
G75*
G02*
X9104100Y-2921000I-40000J0D01*
G01*
X9104100Y-2921000D02*
G75*
G02*
X9184100Y-2921000I40000J0D01*
G01*
X9184100Y-4191000D02*
G75*
G02*
X9104100Y-4191000I-40000J0D01*
G01*
X9104100Y-4191000D02*
G75*
G02*
X9184100Y-4191000I40000J0D01*
G01*
X9184100Y-4635500D02*
G75*
G02*
X9104100Y-4635500I-40000J0D01*
G01*
X9104100Y-4635500D02*
G75*
G02*
X9184100Y-4635500I40000J0D01*
G01*
X9184100Y-5905500D02*
G75*
G02*
X9104100Y-5905500I-40000J0D01*
G01*
X9104100Y-5905500D02*
G75*
G02*
X9184100Y-5905500I40000J0D01*
G01*
X9692100Y-2921000D02*
G75*
G02*
X9612100Y-2921000I-40000J0D01*
G01*
X9612100Y-2921000D02*
G75*
G02*
X9692100Y-2921000I40000J0D01*
G01*
X9692100Y-4191000D02*
G75*
G02*
X9612100Y-4191000I-40000J0D01*
G01*
X9612100Y-4191000D02*
G75*
G02*
X9692100Y-4191000I40000J0D01*
G01*
X9692100Y-4635500D02*
G75*
G02*
X9612100Y-4635500I-40000J0D01*
G01*
X9612100Y-4635500D02*
G75*
G02*
X9692100Y-4635500I40000J0D01*
G01*
X9692100Y-5905500D02*
G75*
G02*
X9612100Y-5905500I-40000J0D01*
G01*
X9612100Y-5905500D02*
G75*
G02*
X9692100Y-5905500I40000J0D01*
G01*
X11216000Y-3937000D02*
G75*
G02*
X11136000Y-3937000I-40000J0D01*
G01*
X11136000Y-3937000D02*
G75*
G02*
X11216000Y-3937000I40000J0D01*
G01*
X11216000Y-5207000D02*
G75*
G02*
X11136000Y-5207000I-40000J0D01*
G01*
X11136000Y-5207000D02*
G75*
G02*
X11216000Y-5207000I40000J0D01*
G01*
X11331000Y-6731071D02*
G75*
G02*
X11251000Y-6731071I-40000J0D01*
G01*
X11251000Y-6731071D02*
G75*
G02*
X11331000Y-6731071I40000J0D01*
G01*
X11331000Y-7289000D02*
G75*
G02*
X11251000Y-7289000I-40000J0D01*
G01*
X11251000Y-7289000D02*
G75*
G02*
X11331000Y-7289000I40000J0D01*
G01*
X11724000Y-3937000D02*
G75*
G02*
X11644000Y-3937000I-40000J0D01*
G01*
X11644000Y-3937000D02*
G75*
G02*
X11724000Y-3937000I40000J0D01*
G01*
X11724000Y-5207000D02*
G75*
G02*
X11644000Y-5207000I-40000J0D01*
G01*
X11644000Y-5207000D02*
G75*
G02*
X11724000Y-5207000I40000J0D01*
G01*
X12232000Y-3937000D02*
G75*
G02*
X12152000Y-3937000I-40000J0D01*
G01*
X12152000Y-3937000D02*
G75*
G02*
X12232000Y-3937000I40000J0D01*
G01*
X12232000Y-5207000D02*
G75*
G02*
X12152000Y-5207000I-40000J0D01*
G01*
X12152000Y-5207000D02*
G75*
G02*
X12232000Y-5207000I40000J0D01*
G01*
X12601000Y-6731071D02*
G75*
G02*
X12521000Y-6731071I-40000J0D01*
G01*
X12521000Y-6731071D02*
G75*
G02*
X12601000Y-6731071I40000J0D01*
G01*
X12601000Y-7289000D02*
G75*
G02*
X12521000Y-7289000I-40000J0D01*
G01*
X12521000Y-7289000D02*
G75*
G02*
X12601000Y-7289000I40000J0D01*
G01*
X12740000Y-3937000D02*
G75*
G02*
X12660000Y-3937000I-40000J0D01*
G01*
X12660000Y-3937000D02*
G75*
G02*
X12740000Y-3937000I40000J0D01*
G01*
X12740000Y-5207000D02*
G75*
G02*
X12660000Y-5207000I-40000J0D01*
G01*
X12660000Y-5207000D02*
G75*
G02*
X12740000Y-5207000I40000J0D01*
G01*
X8890100Y-6173000D02*
X8890100Y-6273000D01*
X8840100Y-6223000D02*
X8940100Y-6223000D01*
X8890100Y-7189000D02*
X8890100Y-7289000D01*
X8840100Y-7239000D02*
X8940100Y-7239000D01*
X9144100Y-6173000D02*
X9144100Y-6273000D01*
X9094100Y-6223000D02*
X9194100Y-6223000D01*
X9144100Y-7189000D02*
X9144100Y-7289000D01*
X9094100Y-7239000D02*
X9194100Y-7239000D01*
X9398100Y-6173000D02*
X9398100Y-6273000D01*
X9348100Y-6223000D02*
X9448100Y-6223000D01*
X9398100Y-7189000D02*
X9398100Y-7289000D01*
X9348100Y-7239000D02*
X9448100Y-7239000D01*
X9652100Y-6173000D02*
X9652100Y-6273000D01*
X9602100Y-6223000D02*
X9702100Y-6223000D01*
X9652100Y-7189000D02*
X9652100Y-7289000D01*
X9602100Y-7239000D02*
X9702100Y-7239000D01*
X9906100Y-6173000D02*
X9906100Y-6273000D01*
X9856100Y-6223000D02*
X9956100Y-6223000D01*
X9906100Y-7189000D02*
X9906100Y-7289000D01*
X9856100Y-7239000D02*
X9956100Y-7239000D01*
X10160100Y-2871000D02*
X10160100Y-2971000D01*
X10110100Y-2921000D02*
X10210100Y-2921000D01*
X10160100Y-3125000D02*
X10160100Y-3225000D01*
X10110100Y-3175000D02*
X10210100Y-3175000D01*
X10160100Y-3379000D02*
X10160100Y-3479000D01*
X10110100Y-3429000D02*
X10210100Y-3429000D01*
X10160100Y-3633000D02*
X10160100Y-3733000D01*
X10110100Y-3683000D02*
X10210100Y-3683000D01*
X10160100Y-3887000D02*
X10160100Y-3987000D01*
X10110100Y-3937000D02*
X10210100Y-3937000D01*
X10160100Y-4141000D02*
X10160100Y-4241000D01*
X10110100Y-4191000D02*
X10210100Y-4191000D01*
X10160100Y-4395000D02*
X10160100Y-4495000D01*
X10110100Y-4445000D02*
X10210100Y-4445000D01*
X10160100Y-4649000D02*
X10160100Y-4749000D01*
X10110100Y-4699000D02*
X10210100Y-4699000D01*
X10160100Y-4903000D02*
X10160100Y-5003000D01*
X10110100Y-4953000D02*
X10210100Y-4953000D01*
X10160100Y-5157000D02*
X10160100Y-5257000D01*
X10110100Y-5207000D02*
X10210100Y-5207000D01*
X10160100Y-6173000D02*
X10160100Y-6273000D01*
X10110100Y-6223000D02*
X10210100Y-6223000D01*
X10160100Y-7189000D02*
X10160100Y-7289000D01*
X10110100Y-7239000D02*
X10210100Y-7239000D01*
X10668000Y-3379000D02*
X10668000Y-3479000D01*
X10618000Y-3429000D02*
X10718000Y-3429000D01*
X10668000Y-3633000D02*
X10668000Y-3733000D01*
X10618000Y-3683000D02*
X10718000Y-3683000D01*
X10668000Y-3887000D02*
X10668000Y-3987000D01*
X10618000Y-3937000D02*
X10718000Y-3937000D01*
X10668000Y-4141000D02*
X10668000Y-4241000D01*
X10618000Y-4191000D02*
X10718000Y-4191000D01*
X10668000Y-4395000D02*
X10668000Y-4495000D01*
X10618000Y-4445000D02*
X10718000Y-4445000D01*
X10668000Y-4649000D02*
X10668000Y-4749000D01*
X10618000Y-4699000D02*
X10718000Y-4699000D01*
X10668000Y-4903000D02*
X10668000Y-5003000D01*
X10618000Y-4953000D02*
X10718000Y-4953000D01*
X10668000Y-5157000D02*
X10668000Y-5257000D01*
X10618000Y-5207000D02*
X10718000Y-5207000D01*
X10668000Y-5411000D02*
X10668000Y-5511000D01*
X10618000Y-5461000D02*
X10718000Y-5461000D01*
X10668000Y-5665000D02*
X10668000Y-5765000D01*
X10618000Y-5715000D02*
X10718000Y-5715000D01*
X10668000Y-5919000D02*
X10668000Y-6019000D01*
X10618000Y-5969000D02*
X10718000Y-5969000D01*
X10668000Y-6173000D02*
X10668000Y-6273000D01*
X10618000Y-6223000D02*
X10718000Y-6223000D01*
X10668000Y-6427000D02*
X10668000Y-6527000D01*
X10618000Y-6477000D02*
X10718000Y-6477000D01*
X10668000Y-6681000D02*
X10668000Y-6781000D01*
X10618000Y-6731000D02*
X10718000Y-6731000D01*
X10668000Y-6935000D02*
X10668000Y-7035000D01*
X10618000Y-6985000D02*
X10718000Y-6985000D01*
X10668000Y-7189000D02*
X10668000Y-7289000D01*
X10618000Y-7239000D02*
X10718000Y-7239000D01*
X10668000Y-7443000D02*
X10668000Y-7543000D01*
X10618000Y-7493000D02*
X10718000Y-7493000D01*
X10668000Y-7697000D02*
X10668000Y-7797000D01*
X10618000Y-7747000D02*
X10718000Y-7747000D01*
X10668000Y-7951000D02*
X10668000Y-8051000D01*
X10618000Y-8001000D02*
X10718000Y-8001000D01*
X13208000Y-3379000D02*
X13208000Y-3479000D01*
X13158000Y-3429000D02*
X13258000Y-3429000D01*
X13208000Y-3633000D02*
X13208000Y-3733000D01*
X13158000Y-3683000D02*
X13258000Y-3683000D01*
X13208000Y-3887000D02*
X13208000Y-3987000D01*
X13158000Y-3937000D02*
X13258000Y-3937000D01*
X13208000Y-4141000D02*
X13208000Y-4241000D01*
X13158000Y-4191000D02*
X13258000Y-4191000D01*
X13208000Y-4395000D02*
X13208000Y-4495000D01*
X13158000Y-4445000D02*
X13258000Y-4445000D01*
X13208000Y-4649000D02*
X13208000Y-4749000D01*
X13158000Y-4699000D02*
X13258000Y-4699000D01*
X13208000Y-4903000D02*
X13208000Y-5003000D01*
X13158000Y-4953000D02*
X13258000Y-4953000D01*
X13208000Y-5157000D02*
X13208000Y-5257000D01*
X13158000Y-5207000D02*
X13258000Y-5207000D01*
X13208000Y-5411000D02*
X13208000Y-5511000D01*
X13158000Y-5461000D02*
X13258000Y-5461000D01*
X13208000Y-5665000D02*
X13208000Y-5765000D01*
X13158000Y-5715000D02*
X13258000Y-5715000D01*
X13208000Y-5919000D02*
X13208000Y-6019000D01*
X13158000Y-5969000D02*
X13258000Y-5969000D01*
X13208000Y-6173000D02*
X13208000Y-6273000D01*
X13158000Y-6223000D02*
X13258000Y-6223000D01*
X13208000Y-6427000D02*
X13208000Y-6527000D01*
X13158000Y-6477000D02*
X13258000Y-6477000D01*
X13208000Y-6681000D02*
X13208000Y-6781000D01*
X13158000Y-6731000D02*
X13258000Y-6731000D01*
X13208000Y-6935000D02*
X13208000Y-7035000D01*
X13158000Y-6985000D02*
X13258000Y-6985000D01*
X13208000Y-7189000D02*
X13208000Y-7289000D01*
X13158000Y-7239000D02*
X13258000Y-7239000D01*
X13208000Y-7443000D02*
X13208000Y-7543000D01*
X13158000Y-7493000D02*
X13258000Y-7493000D01*
X13208000Y-7697000D02*
X13208000Y-7797000D01*
X13158000Y-7747000D02*
X13258000Y-7747000D01*
X13208000Y-7951000D02*
X13208000Y-8051000D01*
X13158000Y-8001000D02*
X13258000Y-8001000D01*
X14097100Y-4522000D02*
X14097100Y-4622000D01*
X14047100Y-4572000D02*
X14147100Y-4572000D01*
X14097100Y-4776000D02*
X14097100Y-4876000D01*
X14047100Y-4826000D02*
X14147100Y-4826000D01*
X14097100Y-5030000D02*
X14097100Y-5130000D01*
X14047100Y-5080000D02*
X14147100Y-5080000D01*
X14097100Y-6808000D02*
X14097100Y-6908000D01*
X14047100Y-6858000D02*
X14147100Y-6858000D01*
X14097100Y-7062000D02*
X14097100Y-7162000D01*
X14047100Y-7112000D02*
X14147100Y-7112000D01*
X14097100Y-7316000D02*
X14097100Y-7416000D01*
X14047100Y-7366000D02*
X14147100Y-7366000D01*
D13*
X8166638Y-2959538D02*
X8166638Y-2882462D01*
X8089562Y-2882462D01*
X8089562Y-2959538D01*
X8166638Y-2959538D01*
X8166638Y-3213538D02*
X8166638Y-3136462D01*
X8089562Y-3136462D01*
X8089562Y-3213538D01*
X8166638Y-3213538D01*
X8166638Y-3467538D02*
X8166638Y-3390462D01*
X8089562Y-3390462D01*
X8089562Y-3467538D01*
X8166638Y-3467538D01*
X8166638Y-4102538D02*
X8166638Y-4025462D01*
X8089562Y-4025462D01*
X8089562Y-4102538D01*
X8166638Y-4102538D01*
X8166638Y-4356538D02*
X8166638Y-4279462D01*
X8089562Y-4279462D01*
X8089562Y-4356538D01*
X8166638Y-4356538D01*
X8166638Y-4610538D02*
X8166638Y-4533462D01*
X8089562Y-4533462D01*
X8089562Y-4610538D01*
X8166638Y-4610538D01*
X8166638Y-5245538D02*
X8166638Y-5168462D01*
X8089562Y-5168462D01*
X8089562Y-5245538D01*
X8166638Y-5245538D01*
X8166638Y-5499538D02*
X8166638Y-5422462D01*
X8089562Y-5422462D01*
X8089562Y-5499538D01*
X8166638Y-5499538D01*
X8166638Y-5753538D02*
X8166638Y-5676462D01*
X8089562Y-5676462D01*
X8089562Y-5753538D01*
X8166638Y-5753538D01*
X8166638Y-6388538D02*
X8166638Y-6311462D01*
X8089562Y-6311462D01*
X8089562Y-6388538D01*
X8166638Y-6388538D01*
X8166638Y-6642538D02*
X8166638Y-6565462D01*
X8089562Y-6565462D01*
X8089562Y-6642538D01*
X8166638Y-6642538D01*
X8166638Y-6896538D02*
X8166638Y-6819462D01*
X8089562Y-6819462D01*
X8089562Y-6896538D01*
X8166638Y-6896538D01*
X8166638Y-7150538D02*
X8166638Y-7073462D01*
X8089562Y-7073462D01*
X8089562Y-7150538D01*
X8166638Y-7150538D01*
X8166638Y-7785538D02*
X8166638Y-7708462D01*
X8089562Y-7708462D01*
X8089562Y-7785538D01*
X8166638Y-7785538D01*
X8166638Y-8039538D02*
X8166638Y-7962462D01*
X8089562Y-7962462D01*
X8089562Y-8039538D01*
X8166638Y-8039538D01*
X8928638Y-8547538D02*
X8928638Y-8470462D01*
X8851562Y-8470462D01*
X8851562Y-8547538D01*
X8928638Y-8547538D01*
X9182638Y-8547538D02*
X9182638Y-8470462D01*
X9105562Y-8470462D01*
X9105562Y-8547538D01*
X9182638Y-8547538D01*
X9817638Y-8547538D02*
X9817638Y-8470462D01*
X9740562Y-8470462D01*
X9740562Y-8547538D01*
X9817638Y-8547538D01*
X10071638Y-8547538D02*
X10071638Y-8470462D01*
X9994562Y-8470462D01*
X9994562Y-8547538D01*
X10071638Y-8547538D01*
X15088138Y-2959538D02*
X15088138Y-2882462D01*
X15011062Y-2882462D01*
X15011062Y-2959538D01*
X15088138Y-2959538D01*
X15088138Y-3213538D02*
X15088138Y-3136462D01*
X15011062Y-3136462D01*
X15011062Y-3213538D01*
X15088138Y-3213538D01*
X15088138Y-3467538D02*
X15088138Y-3390462D01*
X15011062Y-3390462D01*
X15011062Y-3467538D01*
X15088138Y-3467538D01*
X15088138Y-3721538D02*
X15088138Y-3644462D01*
X15011062Y-3644462D01*
X15011062Y-3721538D01*
X15088138Y-3721538D01*
X15088138Y-4356538D02*
X15088138Y-4279462D01*
X15011062Y-4279462D01*
X15011062Y-4356538D01*
X15088138Y-4356538D01*
X15088138Y-4610538D02*
X15088138Y-4533462D01*
X15011062Y-4533462D01*
X15011062Y-4610538D01*
X15088138Y-4610538D01*
X15088138Y-4864538D02*
X15088138Y-4787462D01*
X15011062Y-4787462D01*
X15011062Y-4864538D01*
X15088138Y-4864538D01*
X15088138Y-5118538D02*
X15088138Y-5041462D01*
X15011062Y-5041462D01*
X15011062Y-5118538D01*
X15088138Y-5118538D01*
X15088138Y-5753538D02*
X15088138Y-5676462D01*
X15011062Y-5676462D01*
X15011062Y-5753538D01*
X15088138Y-5753538D01*
X15088138Y-6007538D02*
X15088138Y-5930462D01*
X15011062Y-5930462D01*
X15011062Y-6007538D01*
X15088138Y-6007538D01*
X15088138Y-6261538D02*
X15088138Y-6184462D01*
X15011062Y-6184462D01*
X15011062Y-6261538D01*
X15088138Y-6261538D01*
X15088138Y-6515538D02*
X15088138Y-6438462D01*
X15011062Y-6438462D01*
X15011062Y-6515538D01*
X15088138Y-6515538D01*
X15088138Y-7150538D02*
X15088138Y-7073462D01*
X15011062Y-7073462D01*
X15011062Y-7150538D01*
X15088138Y-7150538D01*
X15088138Y-7404538D02*
X15088138Y-7327462D01*
X15011062Y-7327462D01*
X15011062Y-7404538D01*
X15088138Y-7404538D01*
X15088138Y-7658538D02*
X15088138Y-7581462D01*
X15011062Y-7581462D01*
X15011062Y-7658538D01*
X15088138Y-7658538D01*
X15088138Y-7912538D02*
X15088138Y-7835462D01*
X15011062Y-7835462D01*
X15011062Y-7912538D01*
X15088138Y-7912538D01*
X15088138Y-8547538D02*
X15088138Y-8470462D01*
X15011062Y-8470462D01*
X15011062Y-8547538D01*
X15088138Y-8547538D01*
X15088138Y-8801538D02*
X15088138Y-8724462D01*
X15011062Y-8724462D01*
X15011062Y-8801538D01*
X15088138Y-8801538D01*
D14*
X8881000Y-7965000D02*
X9056000Y-7790000D01*
X8881000Y-7615000D01*
X8706000Y-7790000D01*
X8881000Y-7965000D01*
X14281000Y-3465000D02*
X14456000Y-3290000D01*
X14281000Y-3115000D01*
X14106000Y-3290000D01*
X14281000Y-3465000D01*
D11*
X7739277Y-9403984D02*
X7739277Y-9203984D01*
X7739277Y-9203984D02*
X7786896Y-9203984D01*
X7786896Y-9203984D02*
X7815467Y-9213508D01*
X7815467Y-9213508D02*
X7834515Y-9232555D01*
X7834515Y-9232555D02*
X7844039Y-9251603D01*
X7844039Y-9251603D02*
X7853562Y-9289698D01*
X7853562Y-9289698D02*
X7853562Y-9318270D01*
X7853562Y-9318270D02*
X7844039Y-9356365D01*
X7844039Y-9356365D02*
X7834515Y-9375412D01*
X7834515Y-9375412D02*
X7815467Y-9394460D01*
X7815467Y-9394460D02*
X7786896Y-9403984D01*
X7786896Y-9403984D02*
X7739277Y-9403984D01*
X7939277Y-9403984D02*
X7939277Y-9270650D01*
X7939277Y-9308746D02*
X7948801Y-9289698D01*
X7948801Y-9289698D02*
X7958324Y-9280174D01*
X7958324Y-9280174D02*
X7977372Y-9270650D01*
X7977372Y-9270650D02*
X7996420Y-9270650D01*
X8063086Y-9403984D02*
X8063086Y-9270650D01*
X8063086Y-9203984D02*
X8053562Y-9213508D01*
X8053562Y-9213508D02*
X8063086Y-9223031D01*
X8063086Y-9223031D02*
X8072610Y-9213508D01*
X8072610Y-9213508D02*
X8063086Y-9203984D01*
X8063086Y-9203984D02*
X8063086Y-9223031D01*
X8186896Y-9403984D02*
X8167848Y-9394460D01*
X8167848Y-9394460D02*
X8158324Y-9375412D01*
X8158324Y-9375412D02*
X8158324Y-9203984D01*
X8291658Y-9403984D02*
X8272610Y-9394460D01*
X8272610Y-9394460D02*
X8263086Y-9375412D01*
X8263086Y-9375412D02*
X8263086Y-9203984D01*
X8520229Y-9403984D02*
X8520229Y-9203984D01*
X8520229Y-9203984D02*
X8586896Y-9346841D01*
X8586896Y-9346841D02*
X8653563Y-9203984D01*
X8653563Y-9203984D02*
X8653563Y-9403984D01*
X8834515Y-9403984D02*
X8834515Y-9299222D01*
X8834515Y-9299222D02*
X8824991Y-9280174D01*
X8824991Y-9280174D02*
X8805944Y-9270650D01*
X8805944Y-9270650D02*
X8767848Y-9270650D01*
X8767848Y-9270650D02*
X8748801Y-9280174D01*
X8834515Y-9394460D02*
X8815467Y-9403984D01*
X8815467Y-9403984D02*
X8767848Y-9403984D01*
X8767848Y-9403984D02*
X8748801Y-9394460D01*
X8748801Y-9394460D02*
X8739277Y-9375412D01*
X8739277Y-9375412D02*
X8739277Y-9356365D01*
X8739277Y-9356365D02*
X8748801Y-9337317D01*
X8748801Y-9337317D02*
X8767848Y-9327793D01*
X8767848Y-9327793D02*
X8815467Y-9327793D01*
X8815467Y-9327793D02*
X8834515Y-9318270D01*
X8929753Y-9270650D02*
X8929753Y-9470650D01*
X8929753Y-9280174D02*
X8948801Y-9270650D01*
X8948801Y-9270650D02*
X8986896Y-9270650D01*
X8986896Y-9270650D02*
X9005944Y-9280174D01*
X9005944Y-9280174D02*
X9015467Y-9289698D01*
X9015467Y-9289698D02*
X9024991Y-9308746D01*
X9024991Y-9308746D02*
X9024991Y-9365889D01*
X9024991Y-9365889D02*
X9015467Y-9384936D01*
X9015467Y-9384936D02*
X9005944Y-9394460D01*
X9005944Y-9394460D02*
X8986896Y-9403984D01*
X8986896Y-9403984D02*
X8948801Y-9403984D01*
X8948801Y-9403984D02*
X8929753Y-9394460D01*
X9110705Y-9384936D02*
X9120229Y-9394460D01*
X9120229Y-9394460D02*
X9110705Y-9403984D01*
X9110705Y-9403984D02*
X9101182Y-9394460D01*
X9101182Y-9394460D02*
X9110705Y-9384936D01*
X9110705Y-9384936D02*
X9110705Y-9403984D01*
X9110705Y-9280174D02*
X9120229Y-9289698D01*
X9120229Y-9289698D02*
X9110705Y-9299222D01*
X9110705Y-9299222D02*
X9101182Y-9289698D01*
X9101182Y-9289698D02*
X9110705Y-9280174D01*
X9110705Y-9280174D02*
X9110705Y-9299222D01*
D12*
X7438500Y-9712500D02*
X7478500Y-9752500D01*
X7478500Y-9712500D02*
X7438500Y-9752500D01*
D11*
X7777372Y-9623984D02*
X7796420Y-9623984D01*
X7796420Y-9623984D02*
X7815467Y-9633508D01*
X7815467Y-9633508D02*
X7824991Y-9643031D01*
X7824991Y-9643031D02*
X7834515Y-9662079D01*
X7834515Y-9662079D02*
X7844039Y-9700174D01*
X7844039Y-9700174D02*
X7844039Y-9747793D01*
X7844039Y-9747793D02*
X7834515Y-9785889D01*
X7834515Y-9785889D02*
X7824991Y-9804936D01*
X7824991Y-9804936D02*
X7815467Y-9814460D01*
X7815467Y-9814460D02*
X7796420Y-9823984D01*
X7796420Y-9823984D02*
X7777372Y-9823984D01*
X7777372Y-9823984D02*
X7758324Y-9814460D01*
X7758324Y-9814460D02*
X7748801Y-9804936D01*
X7748801Y-9804936D02*
X7739277Y-9785889D01*
X7739277Y-9785889D02*
X7729753Y-9747793D01*
X7729753Y-9747793D02*
X7729753Y-9700174D01*
X7729753Y-9700174D02*
X7739277Y-9662079D01*
X7739277Y-9662079D02*
X7748801Y-9643031D01*
X7748801Y-9643031D02*
X7758324Y-9633508D01*
X7758324Y-9633508D02*
X7777372Y-9623984D01*
X7929753Y-9804936D02*
X7939277Y-9814460D01*
X7939277Y-9814460D02*
X7929753Y-9823984D01*
X7929753Y-9823984D02*
X7920229Y-9814460D01*
X7920229Y-9814460D02*
X7929753Y-9804936D01*
X7929753Y-9804936D02*
X7929753Y-9823984D01*
X8110705Y-9690650D02*
X8110705Y-9823984D01*
X8063086Y-9614460D02*
X8015467Y-9757317D01*
X8015467Y-9757317D02*
X8139277Y-9757317D01*
X8253562Y-9623984D02*
X8272610Y-9623984D01*
X8272610Y-9623984D02*
X8291658Y-9633508D01*
X8291658Y-9633508D02*
X8301182Y-9643031D01*
X8301182Y-9643031D02*
X8310705Y-9662079D01*
X8310705Y-9662079D02*
X8320229Y-9700174D01*
X8320229Y-9700174D02*
X8320229Y-9747793D01*
X8320229Y-9747793D02*
X8310705Y-9785889D01*
X8310705Y-9785889D02*
X8301182Y-9804936D01*
X8301182Y-9804936D02*
X8291658Y-9814460D01*
X8291658Y-9814460D02*
X8272610Y-9823984D01*
X8272610Y-9823984D02*
X8253562Y-9823984D01*
X8253562Y-9823984D02*
X8234515Y-9814460D01*
X8234515Y-9814460D02*
X8224991Y-9804936D01*
X8224991Y-9804936D02*
X8215467Y-9785889D01*
X8215467Y-9785889D02*
X8205943Y-9747793D01*
X8205943Y-9747793D02*
X8205943Y-9700174D01*
X8205943Y-9700174D02*
X8215467Y-9662079D01*
X8215467Y-9662079D02*
X8224991Y-9643031D01*
X8224991Y-9643031D02*
X8234515Y-9633508D01*
X8234515Y-9633508D02*
X8253562Y-9623984D01*
X8444039Y-9623984D02*
X8463086Y-9623984D01*
X8463086Y-9623984D02*
X8482134Y-9633508D01*
X8482134Y-9633508D02*
X8491658Y-9643031D01*
X8491658Y-9643031D02*
X8501182Y-9662079D01*
X8501182Y-9662079D02*
X8510705Y-9700174D01*
X8510705Y-9700174D02*
X8510705Y-9747793D01*
X8510705Y-9747793D02*
X8501182Y-9785889D01*
X8501182Y-9785889D02*
X8491658Y-9804936D01*
X8491658Y-9804936D02*
X8482134Y-9814460D01*
X8482134Y-9814460D02*
X8463086Y-9823984D01*
X8463086Y-9823984D02*
X8444039Y-9823984D01*
X8444039Y-9823984D02*
X8424991Y-9814460D01*
X8424991Y-9814460D02*
X8415467Y-9804936D01*
X8415467Y-9804936D02*
X8405944Y-9785889D01*
X8405944Y-9785889D02*
X8396420Y-9747793D01*
X8396420Y-9747793D02*
X8396420Y-9700174D01*
X8396420Y-9700174D02*
X8405944Y-9662079D01*
X8405944Y-9662079D02*
X8415467Y-9643031D01*
X8415467Y-9643031D02*
X8424991Y-9633508D01*
X8424991Y-9633508D02*
X8444039Y-9623984D01*
X8596420Y-9823984D02*
X8596420Y-9690650D01*
X8596420Y-9709698D02*
X8605944Y-9700174D01*
X8605944Y-9700174D02*
X8624991Y-9690650D01*
X8624991Y-9690650D02*
X8653563Y-9690650D01*
X8653563Y-9690650D02*
X8672610Y-9700174D01*
X8672610Y-9700174D02*
X8682134Y-9719222D01*
X8682134Y-9719222D02*
X8682134Y-9823984D01*
X8682134Y-9719222D02*
X8691658Y-9700174D01*
X8691658Y-9700174D02*
X8710705Y-9690650D01*
X8710705Y-9690650D02*
X8739277Y-9690650D01*
X8739277Y-9690650D02*
X8758325Y-9700174D01*
X8758325Y-9700174D02*
X8767848Y-9719222D01*
X8767848Y-9719222D02*
X8767848Y-9823984D01*
X8863086Y-9823984D02*
X8863086Y-9690650D01*
X8863086Y-9709698D02*
X8872610Y-9700174D01*
X8872610Y-9700174D02*
X8891658Y-9690650D01*
X8891658Y-9690650D02*
X8920229Y-9690650D01*
X8920229Y-9690650D02*
X8939277Y-9700174D01*
X8939277Y-9700174D02*
X8948801Y-9719222D01*
X8948801Y-9719222D02*
X8948801Y-9823984D01*
X8948801Y-9719222D02*
X8958325Y-9700174D01*
X8958325Y-9700174D02*
X8977372Y-9690650D01*
X8977372Y-9690650D02*
X9005944Y-9690650D01*
X9005944Y-9690650D02*
X9024991Y-9700174D01*
X9024991Y-9700174D02*
X9034515Y-9719222D01*
X9034515Y-9719222D02*
X9034515Y-9823984D01*
X9424991Y-9614460D02*
X9253563Y-9871603D01*
X9682134Y-9623984D02*
X9701182Y-9623984D01*
X9701182Y-9623984D02*
X9720229Y-9633508D01*
X9720229Y-9633508D02*
X9729753Y-9643031D01*
X9729753Y-9643031D02*
X9739277Y-9662079D01*
X9739277Y-9662079D02*
X9748801Y-9700174D01*
X9748801Y-9700174D02*
X9748801Y-9747793D01*
X9748801Y-9747793D02*
X9739277Y-9785889D01*
X9739277Y-9785889D02*
X9729753Y-9804936D01*
X9729753Y-9804936D02*
X9720229Y-9814460D01*
X9720229Y-9814460D02*
X9701182Y-9823984D01*
X9701182Y-9823984D02*
X9682134Y-9823984D01*
X9682134Y-9823984D02*
X9663087Y-9814460D01*
X9663087Y-9814460D02*
X9653563Y-9804936D01*
X9653563Y-9804936D02*
X9644039Y-9785889D01*
X9644039Y-9785889D02*
X9634515Y-9747793D01*
X9634515Y-9747793D02*
X9634515Y-9700174D01*
X9634515Y-9700174D02*
X9644039Y-9662079D01*
X9644039Y-9662079D02*
X9653563Y-9643031D01*
X9653563Y-9643031D02*
X9663087Y-9633508D01*
X9663087Y-9633508D02*
X9682134Y-9623984D01*
X9834515Y-9804936D02*
X9844039Y-9814460D01*
X9844039Y-9814460D02*
X9834515Y-9823984D01*
X9834515Y-9823984D02*
X9824991Y-9814460D01*
X9824991Y-9814460D02*
X9834515Y-9804936D01*
X9834515Y-9804936D02*
X9834515Y-9823984D01*
X9967848Y-9623984D02*
X9986896Y-9623984D01*
X9986896Y-9623984D02*
X10005944Y-9633508D01*
X10005944Y-9633508D02*
X10015468Y-9643031D01*
X10015468Y-9643031D02*
X10024991Y-9662079D01*
X10024991Y-9662079D02*
X10034515Y-9700174D01*
X10034515Y-9700174D02*
X10034515Y-9747793D01*
X10034515Y-9747793D02*
X10024991Y-9785889D01*
X10024991Y-9785889D02*
X10015468Y-9804936D01*
X10015468Y-9804936D02*
X10005944Y-9814460D01*
X10005944Y-9814460D02*
X9986896Y-9823984D01*
X9986896Y-9823984D02*
X9967848Y-9823984D01*
X9967848Y-9823984D02*
X9948801Y-9814460D01*
X9948801Y-9814460D02*
X9939277Y-9804936D01*
X9939277Y-9804936D02*
X9929753Y-9785889D01*
X9929753Y-9785889D02*
X9920229Y-9747793D01*
X9920229Y-9747793D02*
X9920229Y-9700174D01*
X9920229Y-9700174D02*
X9929753Y-9662079D01*
X9929753Y-9662079D02*
X9939277Y-9643031D01*
X9939277Y-9643031D02*
X9948801Y-9633508D01*
X9948801Y-9633508D02*
X9967848Y-9623984D01*
X10224991Y-9823984D02*
X10110706Y-9823984D01*
X10167848Y-9823984D02*
X10167848Y-9623984D01*
X10167848Y-9623984D02*
X10148801Y-9652555D01*
X10148801Y-9652555D02*
X10129753Y-9671603D01*
X10129753Y-9671603D02*
X10110706Y-9681127D01*
X10405944Y-9623984D02*
X10310706Y-9623984D01*
X10310706Y-9623984D02*
X10301182Y-9719222D01*
X10301182Y-9719222D02*
X10310706Y-9709698D01*
X10310706Y-9709698D02*
X10329753Y-9700174D01*
X10329753Y-9700174D02*
X10377372Y-9700174D01*
X10377372Y-9700174D02*
X10396420Y-9709698D01*
X10396420Y-9709698D02*
X10405944Y-9719222D01*
X10405944Y-9719222D02*
X10415468Y-9738270D01*
X10415468Y-9738270D02*
X10415468Y-9785889D01*
X10415468Y-9785889D02*
X10405944Y-9804936D01*
X10405944Y-9804936D02*
X10396420Y-9814460D01*
X10396420Y-9814460D02*
X10377372Y-9823984D01*
X10377372Y-9823984D02*
X10329753Y-9823984D01*
X10329753Y-9823984D02*
X10310706Y-9814460D01*
X10310706Y-9814460D02*
X10301182Y-9804936D01*
X10482134Y-9623984D02*
X10615468Y-9623984D01*
X10615468Y-9623984D02*
X10529753Y-9823984D01*
X10682134Y-9623984D02*
X10682134Y-9662079D01*
X10758325Y-9623984D02*
X10758325Y-9662079D01*
X11053563Y-9900174D02*
X11044039Y-9890650D01*
X11044039Y-9890650D02*
X11024991Y-9862079D01*
X11024991Y-9862079D02*
X11015468Y-9843031D01*
X11015468Y-9843031D02*
X11005944Y-9814460D01*
X11005944Y-9814460D02*
X10996420Y-9766841D01*
X10996420Y-9766841D02*
X10996420Y-9728746D01*
X10996420Y-9728746D02*
X11005944Y-9681127D01*
X11005944Y-9681127D02*
X11015468Y-9652555D01*
X11015468Y-9652555D02*
X11024991Y-9633508D01*
X11024991Y-9633508D02*
X11044039Y-9604936D01*
X11044039Y-9604936D02*
X11053563Y-9595412D01*
X11110706Y-9623984D02*
X11234515Y-9623984D01*
X11234515Y-9623984D02*
X11167849Y-9700174D01*
X11167849Y-9700174D02*
X11196420Y-9700174D01*
X11196420Y-9700174D02*
X11215468Y-9709698D01*
X11215468Y-9709698D02*
X11224991Y-9719222D01*
X11224991Y-9719222D02*
X11234515Y-9738270D01*
X11234515Y-9738270D02*
X11234515Y-9785889D01*
X11234515Y-9785889D02*
X11224991Y-9804936D01*
X11224991Y-9804936D02*
X11215468Y-9814460D01*
X11215468Y-9814460D02*
X11196420Y-9823984D01*
X11196420Y-9823984D02*
X11139277Y-9823984D01*
X11139277Y-9823984D02*
X11120230Y-9814460D01*
X11120230Y-9814460D02*
X11110706Y-9804936D01*
X11301182Y-9623984D02*
X11434515Y-9623984D01*
X11434515Y-9623984D02*
X11348801Y-9823984D01*
X11663087Y-9823984D02*
X11663087Y-9623984D01*
X11748801Y-9823984D02*
X11748801Y-9719222D01*
X11748801Y-9719222D02*
X11739277Y-9700174D01*
X11739277Y-9700174D02*
X11720230Y-9690650D01*
X11720230Y-9690650D02*
X11691658Y-9690650D01*
X11691658Y-9690650D02*
X11672610Y-9700174D01*
X11672610Y-9700174D02*
X11663087Y-9709698D01*
X11872610Y-9823984D02*
X11853563Y-9814460D01*
X11853563Y-9814460D02*
X11844039Y-9804936D01*
X11844039Y-9804936D02*
X11834515Y-9785889D01*
X11834515Y-9785889D02*
X11834515Y-9728746D01*
X11834515Y-9728746D02*
X11844039Y-9709698D01*
X11844039Y-9709698D02*
X11853563Y-9700174D01*
X11853563Y-9700174D02*
X11872610Y-9690650D01*
X11872610Y-9690650D02*
X11901182Y-9690650D01*
X11901182Y-9690650D02*
X11920230Y-9700174D01*
X11920230Y-9700174D02*
X11929753Y-9709698D01*
X11929753Y-9709698D02*
X11939277Y-9728746D01*
X11939277Y-9728746D02*
X11939277Y-9785889D01*
X11939277Y-9785889D02*
X11929753Y-9804936D01*
X11929753Y-9804936D02*
X11920230Y-9814460D01*
X11920230Y-9814460D02*
X11901182Y-9823984D01*
X11901182Y-9823984D02*
X11872610Y-9823984D01*
X12053563Y-9823984D02*
X12034515Y-9814460D01*
X12034515Y-9814460D02*
X12024991Y-9795412D01*
X12024991Y-9795412D02*
X12024991Y-9623984D01*
X12205944Y-9814460D02*
X12186896Y-9823984D01*
X12186896Y-9823984D02*
X12148801Y-9823984D01*
X12148801Y-9823984D02*
X12129753Y-9814460D01*
X12129753Y-9814460D02*
X12120230Y-9795412D01*
X12120230Y-9795412D02*
X12120230Y-9719222D01*
X12120230Y-9719222D02*
X12129753Y-9700174D01*
X12129753Y-9700174D02*
X12148801Y-9690650D01*
X12148801Y-9690650D02*
X12186896Y-9690650D01*
X12186896Y-9690650D02*
X12205944Y-9700174D01*
X12205944Y-9700174D02*
X12215468Y-9719222D01*
X12215468Y-9719222D02*
X12215468Y-9738270D01*
X12215468Y-9738270D02*
X12120230Y-9757317D01*
X12291658Y-9814460D02*
X12310706Y-9823984D01*
X12310706Y-9823984D02*
X12348801Y-9823984D01*
X12348801Y-9823984D02*
X12367849Y-9814460D01*
X12367849Y-9814460D02*
X12377372Y-9795412D01*
X12377372Y-9795412D02*
X12377372Y-9785889D01*
X12377372Y-9785889D02*
X12367849Y-9766841D01*
X12367849Y-9766841D02*
X12348801Y-9757317D01*
X12348801Y-9757317D02*
X12320230Y-9757317D01*
X12320230Y-9757317D02*
X12301182Y-9747793D01*
X12301182Y-9747793D02*
X12291658Y-9728746D01*
X12291658Y-9728746D02*
X12291658Y-9719222D01*
X12291658Y-9719222D02*
X12301182Y-9700174D01*
X12301182Y-9700174D02*
X12320230Y-9690650D01*
X12320230Y-9690650D02*
X12348801Y-9690650D01*
X12348801Y-9690650D02*
X12367849Y-9700174D01*
X12444039Y-9900174D02*
X12453563Y-9890650D01*
X12453563Y-9890650D02*
X12472611Y-9862079D01*
X12472611Y-9862079D02*
X12482134Y-9843031D01*
X12482134Y-9843031D02*
X12491658Y-9814460D01*
X12491658Y-9814460D02*
X12501182Y-9766841D01*
X12501182Y-9766841D02*
X12501182Y-9728746D01*
X12501182Y-9728746D02*
X12491658Y-9681127D01*
X12491658Y-9681127D02*
X12482134Y-9652555D01*
X12482134Y-9652555D02*
X12472611Y-9633508D01*
X12472611Y-9633508D02*
X12453563Y-9604936D01*
X12453563Y-9604936D02*
X12444039Y-9595412D01*
D12*
X7478500Y-9996500D02*
G75*
G02*
X7398500Y-9996500I-40000J0D01*
G01*
X7398500Y-9996500D02*
G75*
G02*
X7478500Y-9996500I40000J0D01*
G01*
D11*
X7777372Y-9887984D02*
X7796420Y-9887984D01*
X7796420Y-9887984D02*
X7815467Y-9897508D01*
X7815467Y-9897508D02*
X7824991Y-9907031D01*
X7824991Y-9907031D02*
X7834515Y-9926079D01*
X7834515Y-9926079D02*
X7844039Y-9964174D01*
X7844039Y-9964174D02*
X7844039Y-10011793D01*
X7844039Y-10011793D02*
X7834515Y-10049889D01*
X7834515Y-10049889D02*
X7824991Y-10068936D01*
X7824991Y-10068936D02*
X7815467Y-10078460D01*
X7815467Y-10078460D02*
X7796420Y-10087984D01*
X7796420Y-10087984D02*
X7777372Y-10087984D01*
X7777372Y-10087984D02*
X7758324Y-10078460D01*
X7758324Y-10078460D02*
X7748801Y-10068936D01*
X7748801Y-10068936D02*
X7739277Y-10049889D01*
X7739277Y-10049889D02*
X7729753Y-10011793D01*
X7729753Y-10011793D02*
X7729753Y-9964174D01*
X7729753Y-9964174D02*
X7739277Y-9926079D01*
X7739277Y-9926079D02*
X7748801Y-9907031D01*
X7748801Y-9907031D02*
X7758324Y-9897508D01*
X7758324Y-9897508D02*
X7777372Y-9887984D01*
X7929753Y-10068936D02*
X7939277Y-10078460D01*
X7939277Y-10078460D02*
X7929753Y-10087984D01*
X7929753Y-10087984D02*
X7920229Y-10078460D01*
X7920229Y-10078460D02*
X7929753Y-10068936D01*
X7929753Y-10068936D02*
X7929753Y-10087984D01*
X8053562Y-9973698D02*
X8034515Y-9964174D01*
X8034515Y-9964174D02*
X8024991Y-9954650D01*
X8024991Y-9954650D02*
X8015467Y-9935603D01*
X8015467Y-9935603D02*
X8015467Y-9926079D01*
X8015467Y-9926079D02*
X8024991Y-9907031D01*
X8024991Y-9907031D02*
X8034515Y-9897508D01*
X8034515Y-9897508D02*
X8053562Y-9887984D01*
X8053562Y-9887984D02*
X8091658Y-9887984D01*
X8091658Y-9887984D02*
X8110705Y-9897508D01*
X8110705Y-9897508D02*
X8120229Y-9907031D01*
X8120229Y-9907031D02*
X8129753Y-9926079D01*
X8129753Y-9926079D02*
X8129753Y-9935603D01*
X8129753Y-9935603D02*
X8120229Y-9954650D01*
X8120229Y-9954650D02*
X8110705Y-9964174D01*
X8110705Y-9964174D02*
X8091658Y-9973698D01*
X8091658Y-9973698D02*
X8053562Y-9973698D01*
X8053562Y-9973698D02*
X8034515Y-9983222D01*
X8034515Y-9983222D02*
X8024991Y-9992746D01*
X8024991Y-9992746D02*
X8015467Y-10011793D01*
X8015467Y-10011793D02*
X8015467Y-10049889D01*
X8015467Y-10049889D02*
X8024991Y-10068936D01*
X8024991Y-10068936D02*
X8034515Y-10078460D01*
X8034515Y-10078460D02*
X8053562Y-10087984D01*
X8053562Y-10087984D02*
X8091658Y-10087984D01*
X8091658Y-10087984D02*
X8110705Y-10078460D01*
X8110705Y-10078460D02*
X8120229Y-10068936D01*
X8120229Y-10068936D02*
X8129753Y-10049889D01*
X8129753Y-10049889D02*
X8129753Y-10011793D01*
X8129753Y-10011793D02*
X8120229Y-9992746D01*
X8120229Y-9992746D02*
X8110705Y-9983222D01*
X8110705Y-9983222D02*
X8091658Y-9973698D01*
X8253562Y-9887984D02*
X8272610Y-9887984D01*
X8272610Y-9887984D02*
X8291658Y-9897508D01*
X8291658Y-9897508D02*
X8301182Y-9907031D01*
X8301182Y-9907031D02*
X8310705Y-9926079D01*
X8310705Y-9926079D02*
X8320229Y-9964174D01*
X8320229Y-9964174D02*
X8320229Y-10011793D01*
X8320229Y-10011793D02*
X8310705Y-10049889D01*
X8310705Y-10049889D02*
X8301182Y-10068936D01*
X8301182Y-10068936D02*
X8291658Y-10078460D01*
X8291658Y-10078460D02*
X8272610Y-10087984D01*
X8272610Y-10087984D02*
X8253562Y-10087984D01*
X8253562Y-10087984D02*
X8234515Y-10078460D01*
X8234515Y-10078460D02*
X8224991Y-10068936D01*
X8224991Y-10068936D02*
X8215467Y-10049889D01*
X8215467Y-10049889D02*
X8205943Y-10011793D01*
X8205943Y-10011793D02*
X8205943Y-9964174D01*
X8205943Y-9964174D02*
X8215467Y-9926079D01*
X8215467Y-9926079D02*
X8224991Y-9907031D01*
X8224991Y-9907031D02*
X8234515Y-9897508D01*
X8234515Y-9897508D02*
X8253562Y-9887984D01*
X8444039Y-9887984D02*
X8463086Y-9887984D01*
X8463086Y-9887984D02*
X8482134Y-9897508D01*
X8482134Y-9897508D02*
X8491658Y-9907031D01*
X8491658Y-9907031D02*
X8501182Y-9926079D01*
X8501182Y-9926079D02*
X8510705Y-9964174D01*
X8510705Y-9964174D02*
X8510705Y-10011793D01*
X8510705Y-10011793D02*
X8501182Y-10049889D01*
X8501182Y-10049889D02*
X8491658Y-10068936D01*
X8491658Y-10068936D02*
X8482134Y-10078460D01*
X8482134Y-10078460D02*
X8463086Y-10087984D01*
X8463086Y-10087984D02*
X8444039Y-10087984D01*
X8444039Y-10087984D02*
X8424991Y-10078460D01*
X8424991Y-10078460D02*
X8415467Y-10068936D01*
X8415467Y-10068936D02*
X8405944Y-10049889D01*
X8405944Y-10049889D02*
X8396420Y-10011793D01*
X8396420Y-10011793D02*
X8396420Y-9964174D01*
X8396420Y-9964174D02*
X8405944Y-9926079D01*
X8405944Y-9926079D02*
X8415467Y-9907031D01*
X8415467Y-9907031D02*
X8424991Y-9897508D01*
X8424991Y-9897508D02*
X8444039Y-9887984D01*
X8596420Y-10087984D02*
X8596420Y-9954650D01*
X8596420Y-9973698D02*
X8605944Y-9964174D01*
X8605944Y-9964174D02*
X8624991Y-9954650D01*
X8624991Y-9954650D02*
X8653563Y-9954650D01*
X8653563Y-9954650D02*
X8672610Y-9964174D01*
X8672610Y-9964174D02*
X8682134Y-9983222D01*
X8682134Y-9983222D02*
X8682134Y-10087984D01*
X8682134Y-9983222D02*
X8691658Y-9964174D01*
X8691658Y-9964174D02*
X8710705Y-9954650D01*
X8710705Y-9954650D02*
X8739277Y-9954650D01*
X8739277Y-9954650D02*
X8758325Y-9964174D01*
X8758325Y-9964174D02*
X8767848Y-9983222D01*
X8767848Y-9983222D02*
X8767848Y-10087984D01*
X8863086Y-10087984D02*
X8863086Y-9954650D01*
X8863086Y-9973698D02*
X8872610Y-9964174D01*
X8872610Y-9964174D02*
X8891658Y-9954650D01*
X8891658Y-9954650D02*
X8920229Y-9954650D01*
X8920229Y-9954650D02*
X8939277Y-9964174D01*
X8939277Y-9964174D02*
X8948801Y-9983222D01*
X8948801Y-9983222D02*
X8948801Y-10087984D01*
X8948801Y-9983222D02*
X8958325Y-9964174D01*
X8958325Y-9964174D02*
X8977372Y-9954650D01*
X8977372Y-9954650D02*
X9005944Y-9954650D01*
X9005944Y-9954650D02*
X9024991Y-9964174D01*
X9024991Y-9964174D02*
X9034515Y-9983222D01*
X9034515Y-9983222D02*
X9034515Y-10087984D01*
X9424991Y-9878460D02*
X9253563Y-10135603D01*
X9682134Y-9887984D02*
X9701182Y-9887984D01*
X9701182Y-9887984D02*
X9720229Y-9897508D01*
X9720229Y-9897508D02*
X9729753Y-9907031D01*
X9729753Y-9907031D02*
X9739277Y-9926079D01*
X9739277Y-9926079D02*
X9748801Y-9964174D01*
X9748801Y-9964174D02*
X9748801Y-10011793D01*
X9748801Y-10011793D02*
X9739277Y-10049889D01*
X9739277Y-10049889D02*
X9729753Y-10068936D01*
X9729753Y-10068936D02*
X9720229Y-10078460D01*
X9720229Y-10078460D02*
X9701182Y-10087984D01*
X9701182Y-10087984D02*
X9682134Y-10087984D01*
X9682134Y-10087984D02*
X9663087Y-10078460D01*
X9663087Y-10078460D02*
X9653563Y-10068936D01*
X9653563Y-10068936D02*
X9644039Y-10049889D01*
X9644039Y-10049889D02*
X9634515Y-10011793D01*
X9634515Y-10011793D02*
X9634515Y-9964174D01*
X9634515Y-9964174D02*
X9644039Y-9926079D01*
X9644039Y-9926079D02*
X9653563Y-9907031D01*
X9653563Y-9907031D02*
X9663087Y-9897508D01*
X9663087Y-9897508D02*
X9682134Y-9887984D01*
X9834515Y-10068936D02*
X9844039Y-10078460D01*
X9844039Y-10078460D02*
X9834515Y-10087984D01*
X9834515Y-10087984D02*
X9824991Y-10078460D01*
X9824991Y-10078460D02*
X9834515Y-10068936D01*
X9834515Y-10068936D02*
X9834515Y-10087984D01*
X9967848Y-9887984D02*
X9986896Y-9887984D01*
X9986896Y-9887984D02*
X10005944Y-9897508D01*
X10005944Y-9897508D02*
X10015468Y-9907031D01*
X10015468Y-9907031D02*
X10024991Y-9926079D01*
X10024991Y-9926079D02*
X10034515Y-9964174D01*
X10034515Y-9964174D02*
X10034515Y-10011793D01*
X10034515Y-10011793D02*
X10024991Y-10049889D01*
X10024991Y-10049889D02*
X10015468Y-10068936D01*
X10015468Y-10068936D02*
X10005944Y-10078460D01*
X10005944Y-10078460D02*
X9986896Y-10087984D01*
X9986896Y-10087984D02*
X9967848Y-10087984D01*
X9967848Y-10087984D02*
X9948801Y-10078460D01*
X9948801Y-10078460D02*
X9939277Y-10068936D01*
X9939277Y-10068936D02*
X9929753Y-10049889D01*
X9929753Y-10049889D02*
X9920229Y-10011793D01*
X9920229Y-10011793D02*
X9920229Y-9964174D01*
X9920229Y-9964174D02*
X9929753Y-9926079D01*
X9929753Y-9926079D02*
X9939277Y-9907031D01*
X9939277Y-9907031D02*
X9948801Y-9897508D01*
X9948801Y-9897508D02*
X9967848Y-9887984D01*
X10101182Y-9887984D02*
X10224991Y-9887984D01*
X10224991Y-9887984D02*
X10158325Y-9964174D01*
X10158325Y-9964174D02*
X10186896Y-9964174D01*
X10186896Y-9964174D02*
X10205944Y-9973698D01*
X10205944Y-9973698D02*
X10215468Y-9983222D01*
X10215468Y-9983222D02*
X10224991Y-10002270D01*
X10224991Y-10002270D02*
X10224991Y-10049889D01*
X10224991Y-10049889D02*
X10215468Y-10068936D01*
X10215468Y-10068936D02*
X10205944Y-10078460D01*
X10205944Y-10078460D02*
X10186896Y-10087984D01*
X10186896Y-10087984D02*
X10129753Y-10087984D01*
X10129753Y-10087984D02*
X10110706Y-10078460D01*
X10110706Y-10078460D02*
X10101182Y-10068936D01*
X10415468Y-10087984D02*
X10301182Y-10087984D01*
X10358325Y-10087984D02*
X10358325Y-9887984D01*
X10358325Y-9887984D02*
X10339277Y-9916555D01*
X10339277Y-9916555D02*
X10320229Y-9935603D01*
X10320229Y-9935603D02*
X10301182Y-9945127D01*
X10596420Y-9887984D02*
X10501182Y-9887984D01*
X10501182Y-9887984D02*
X10491658Y-9983222D01*
X10491658Y-9983222D02*
X10501182Y-9973698D01*
X10501182Y-9973698D02*
X10520229Y-9964174D01*
X10520229Y-9964174D02*
X10567849Y-9964174D01*
X10567849Y-9964174D02*
X10586896Y-9973698D01*
X10586896Y-9973698D02*
X10596420Y-9983222D01*
X10596420Y-9983222D02*
X10605944Y-10002270D01*
X10605944Y-10002270D02*
X10605944Y-10049889D01*
X10605944Y-10049889D02*
X10596420Y-10068936D01*
X10596420Y-10068936D02*
X10586896Y-10078460D01*
X10586896Y-10078460D02*
X10567849Y-10087984D01*
X10567849Y-10087984D02*
X10520229Y-10087984D01*
X10520229Y-10087984D02*
X10501182Y-10078460D01*
X10501182Y-10078460D02*
X10491658Y-10068936D01*
X10682134Y-9887984D02*
X10682134Y-9926079D01*
X10758325Y-9887984D02*
X10758325Y-9926079D01*
X11053563Y-10164174D02*
X11044039Y-10154650D01*
X11044039Y-10154650D02*
X11024991Y-10126079D01*
X11024991Y-10126079D02*
X11015468Y-10107031D01*
X11015468Y-10107031D02*
X11005944Y-10078460D01*
X11005944Y-10078460D02*
X10996420Y-10030841D01*
X10996420Y-10030841D02*
X10996420Y-9992746D01*
X10996420Y-9992746D02*
X11005944Y-9945127D01*
X11005944Y-9945127D02*
X11015468Y-9916555D01*
X11015468Y-9916555D02*
X11024991Y-9897508D01*
X11024991Y-9897508D02*
X11044039Y-9868936D01*
X11044039Y-9868936D02*
X11053563Y-9859412D01*
X11120230Y-9907031D02*
X11129753Y-9897508D01*
X11129753Y-9897508D02*
X11148801Y-9887984D01*
X11148801Y-9887984D02*
X11196420Y-9887984D01*
X11196420Y-9887984D02*
X11215468Y-9897508D01*
X11215468Y-9897508D02*
X11224991Y-9907031D01*
X11224991Y-9907031D02*
X11234515Y-9926079D01*
X11234515Y-9926079D02*
X11234515Y-9945127D01*
X11234515Y-9945127D02*
X11224991Y-9973698D01*
X11224991Y-9973698D02*
X11110706Y-10087984D01*
X11110706Y-10087984D02*
X11234515Y-10087984D01*
X11358325Y-9887984D02*
X11377372Y-9887984D01*
X11377372Y-9887984D02*
X11396420Y-9897508D01*
X11396420Y-9897508D02*
X11405944Y-9907031D01*
X11405944Y-9907031D02*
X11415468Y-9926079D01*
X11415468Y-9926079D02*
X11424991Y-9964174D01*
X11424991Y-9964174D02*
X11424991Y-10011793D01*
X11424991Y-10011793D02*
X11415468Y-10049889D01*
X11415468Y-10049889D02*
X11405944Y-10068936D01*
X11405944Y-10068936D02*
X11396420Y-10078460D01*
X11396420Y-10078460D02*
X11377372Y-10087984D01*
X11377372Y-10087984D02*
X11358325Y-10087984D01*
X11358325Y-10087984D02*
X11339277Y-10078460D01*
X11339277Y-10078460D02*
X11329753Y-10068936D01*
X11329753Y-10068936D02*
X11320229Y-10049889D01*
X11320229Y-10049889D02*
X11310706Y-10011793D01*
X11310706Y-10011793D02*
X11310706Y-9964174D01*
X11310706Y-9964174D02*
X11320229Y-9926079D01*
X11320229Y-9926079D02*
X11329753Y-9907031D01*
X11329753Y-9907031D02*
X11339277Y-9897508D01*
X11339277Y-9897508D02*
X11358325Y-9887984D01*
X11663087Y-10087984D02*
X11663087Y-9887984D01*
X11748801Y-10087984D02*
X11748801Y-9983222D01*
X11748801Y-9983222D02*
X11739277Y-9964174D01*
X11739277Y-9964174D02*
X11720230Y-9954650D01*
X11720230Y-9954650D02*
X11691658Y-9954650D01*
X11691658Y-9954650D02*
X11672610Y-9964174D01*
X11672610Y-9964174D02*
X11663087Y-9973698D01*
X11872610Y-10087984D02*
X11853563Y-10078460D01*
X11853563Y-10078460D02*
X11844039Y-10068936D01*
X11844039Y-10068936D02*
X11834515Y-10049889D01*
X11834515Y-10049889D02*
X11834515Y-9992746D01*
X11834515Y-9992746D02*
X11844039Y-9973698D01*
X11844039Y-9973698D02*
X11853563Y-9964174D01*
X11853563Y-9964174D02*
X11872610Y-9954650D01*
X11872610Y-9954650D02*
X11901182Y-9954650D01*
X11901182Y-9954650D02*
X11920230Y-9964174D01*
X11920230Y-9964174D02*
X11929753Y-9973698D01*
X11929753Y-9973698D02*
X11939277Y-9992746D01*
X11939277Y-9992746D02*
X11939277Y-10049889D01*
X11939277Y-10049889D02*
X11929753Y-10068936D01*
X11929753Y-10068936D02*
X11920230Y-10078460D01*
X11920230Y-10078460D02*
X11901182Y-10087984D01*
X11901182Y-10087984D02*
X11872610Y-10087984D01*
X12053563Y-10087984D02*
X12034515Y-10078460D01*
X12034515Y-10078460D02*
X12024991Y-10059412D01*
X12024991Y-10059412D02*
X12024991Y-9887984D01*
X12205944Y-10078460D02*
X12186896Y-10087984D01*
X12186896Y-10087984D02*
X12148801Y-10087984D01*
X12148801Y-10087984D02*
X12129753Y-10078460D01*
X12129753Y-10078460D02*
X12120230Y-10059412D01*
X12120230Y-10059412D02*
X12120230Y-9983222D01*
X12120230Y-9983222D02*
X12129753Y-9964174D01*
X12129753Y-9964174D02*
X12148801Y-9954650D01*
X12148801Y-9954650D02*
X12186896Y-9954650D01*
X12186896Y-9954650D02*
X12205944Y-9964174D01*
X12205944Y-9964174D02*
X12215468Y-9983222D01*
X12215468Y-9983222D02*
X12215468Y-10002270D01*
X12215468Y-10002270D02*
X12120230Y-10021317D01*
X12291658Y-10078460D02*
X12310706Y-10087984D01*
X12310706Y-10087984D02*
X12348801Y-10087984D01*
X12348801Y-10087984D02*
X12367849Y-10078460D01*
X12367849Y-10078460D02*
X12377372Y-10059412D01*
X12377372Y-10059412D02*
X12377372Y-10049889D01*
X12377372Y-10049889D02*
X12367849Y-10030841D01*
X12367849Y-10030841D02*
X12348801Y-10021317D01*
X12348801Y-10021317D02*
X12320230Y-10021317D01*
X12320230Y-10021317D02*
X12301182Y-10011793D01*
X12301182Y-10011793D02*
X12291658Y-9992746D01*
X12291658Y-9992746D02*
X12291658Y-9983222D01*
X12291658Y-9983222D02*
X12301182Y-9964174D01*
X12301182Y-9964174D02*
X12320230Y-9954650D01*
X12320230Y-9954650D02*
X12348801Y-9954650D01*
X12348801Y-9954650D02*
X12367849Y-9964174D01*
X12444039Y-10164174D02*
X12453563Y-10154650D01*
X12453563Y-10154650D02*
X12472611Y-10126079D01*
X12472611Y-10126079D02*
X12482134Y-10107031D01*
X12482134Y-10107031D02*
X12491658Y-10078460D01*
X12491658Y-10078460D02*
X12501182Y-10030841D01*
X12501182Y-10030841D02*
X12501182Y-9992746D01*
X12501182Y-9992746D02*
X12491658Y-9945127D01*
X12491658Y-9945127D02*
X12482134Y-9916555D01*
X12482134Y-9916555D02*
X12472611Y-9897508D01*
X12472611Y-9897508D02*
X12453563Y-9868936D01*
X12453563Y-9868936D02*
X12444039Y-9859412D01*
D12*
X7428500Y-10210500D02*
X7428500Y-10310500D01*
X7378500Y-10260500D02*
X7478500Y-10260500D01*
D11*
X7844039Y-10351984D02*
X7729753Y-10351984D01*
X7786896Y-10351984D02*
X7786896Y-10151984D01*
X7786896Y-10151984D02*
X7767848Y-10180555D01*
X7767848Y-10180555D02*
X7748801Y-10199603D01*
X7748801Y-10199603D02*
X7729753Y-10209127D01*
X7929753Y-10332936D02*
X7939277Y-10342460D01*
X7939277Y-10342460D02*
X7929753Y-10351984D01*
X7929753Y-10351984D02*
X7920229Y-10342460D01*
X7920229Y-10342460D02*
X7929753Y-10332936D01*
X7929753Y-10332936D02*
X7929753Y-10351984D01*
X8063086Y-10151984D02*
X8082134Y-10151984D01*
X8082134Y-10151984D02*
X8101182Y-10161508D01*
X8101182Y-10161508D02*
X8110705Y-10171031D01*
X8110705Y-10171031D02*
X8120229Y-10190079D01*
X8120229Y-10190079D02*
X8129753Y-10228174D01*
X8129753Y-10228174D02*
X8129753Y-10275793D01*
X8129753Y-10275793D02*
X8120229Y-10313889D01*
X8120229Y-10313889D02*
X8110705Y-10332936D01*
X8110705Y-10332936D02*
X8101182Y-10342460D01*
X8101182Y-10342460D02*
X8082134Y-10351984D01*
X8082134Y-10351984D02*
X8063086Y-10351984D01*
X8063086Y-10351984D02*
X8044039Y-10342460D01*
X8044039Y-10342460D02*
X8034515Y-10332936D01*
X8034515Y-10332936D02*
X8024991Y-10313889D01*
X8024991Y-10313889D02*
X8015467Y-10275793D01*
X8015467Y-10275793D02*
X8015467Y-10228174D01*
X8015467Y-10228174D02*
X8024991Y-10190079D01*
X8024991Y-10190079D02*
X8034515Y-10171031D01*
X8034515Y-10171031D02*
X8044039Y-10161508D01*
X8044039Y-10161508D02*
X8063086Y-10151984D01*
X8253562Y-10151984D02*
X8272610Y-10151984D01*
X8272610Y-10151984D02*
X8291658Y-10161508D01*
X8291658Y-10161508D02*
X8301182Y-10171031D01*
X8301182Y-10171031D02*
X8310705Y-10190079D01*
X8310705Y-10190079D02*
X8320229Y-10228174D01*
X8320229Y-10228174D02*
X8320229Y-10275793D01*
X8320229Y-10275793D02*
X8310705Y-10313889D01*
X8310705Y-10313889D02*
X8301182Y-10332936D01*
X8301182Y-10332936D02*
X8291658Y-10342460D01*
X8291658Y-10342460D02*
X8272610Y-10351984D01*
X8272610Y-10351984D02*
X8253562Y-10351984D01*
X8253562Y-10351984D02*
X8234515Y-10342460D01*
X8234515Y-10342460D02*
X8224991Y-10332936D01*
X8224991Y-10332936D02*
X8215467Y-10313889D01*
X8215467Y-10313889D02*
X8205943Y-10275793D01*
X8205943Y-10275793D02*
X8205943Y-10228174D01*
X8205943Y-10228174D02*
X8215467Y-10190079D01*
X8215467Y-10190079D02*
X8224991Y-10171031D01*
X8224991Y-10171031D02*
X8234515Y-10161508D01*
X8234515Y-10161508D02*
X8253562Y-10151984D01*
X8444039Y-10151984D02*
X8463086Y-10151984D01*
X8463086Y-10151984D02*
X8482134Y-10161508D01*
X8482134Y-10161508D02*
X8491658Y-10171031D01*
X8491658Y-10171031D02*
X8501182Y-10190079D01*
X8501182Y-10190079D02*
X8510705Y-10228174D01*
X8510705Y-10228174D02*
X8510705Y-10275793D01*
X8510705Y-10275793D02*
X8501182Y-10313889D01*
X8501182Y-10313889D02*
X8491658Y-10332936D01*
X8491658Y-10332936D02*
X8482134Y-10342460D01*
X8482134Y-10342460D02*
X8463086Y-10351984D01*
X8463086Y-10351984D02*
X8444039Y-10351984D01*
X8444039Y-10351984D02*
X8424991Y-10342460D01*
X8424991Y-10342460D02*
X8415467Y-10332936D01*
X8415467Y-10332936D02*
X8405944Y-10313889D01*
X8405944Y-10313889D02*
X8396420Y-10275793D01*
X8396420Y-10275793D02*
X8396420Y-10228174D01*
X8396420Y-10228174D02*
X8405944Y-10190079D01*
X8405944Y-10190079D02*
X8415467Y-10171031D01*
X8415467Y-10171031D02*
X8424991Y-10161508D01*
X8424991Y-10161508D02*
X8444039Y-10151984D01*
X8596420Y-10351984D02*
X8596420Y-10218650D01*
X8596420Y-10237698D02*
X8605944Y-10228174D01*
X8605944Y-10228174D02*
X8624991Y-10218650D01*
X8624991Y-10218650D02*
X8653563Y-10218650D01*
X8653563Y-10218650D02*
X8672610Y-10228174D01*
X8672610Y-10228174D02*
X8682134Y-10247222D01*
X8682134Y-10247222D02*
X8682134Y-10351984D01*
X8682134Y-10247222D02*
X8691658Y-10228174D01*
X8691658Y-10228174D02*
X8710705Y-10218650D01*
X8710705Y-10218650D02*
X8739277Y-10218650D01*
X8739277Y-10218650D02*
X8758325Y-10228174D01*
X8758325Y-10228174D02*
X8767848Y-10247222D01*
X8767848Y-10247222D02*
X8767848Y-10351984D01*
X8863086Y-10351984D02*
X8863086Y-10218650D01*
X8863086Y-10237698D02*
X8872610Y-10228174D01*
X8872610Y-10228174D02*
X8891658Y-10218650D01*
X8891658Y-10218650D02*
X8920229Y-10218650D01*
X8920229Y-10218650D02*
X8939277Y-10228174D01*
X8939277Y-10228174D02*
X8948801Y-10247222D01*
X8948801Y-10247222D02*
X8948801Y-10351984D01*
X8948801Y-10247222D02*
X8958325Y-10228174D01*
X8958325Y-10228174D02*
X8977372Y-10218650D01*
X8977372Y-10218650D02*
X9005944Y-10218650D01*
X9005944Y-10218650D02*
X9024991Y-10228174D01*
X9024991Y-10228174D02*
X9034515Y-10247222D01*
X9034515Y-10247222D02*
X9034515Y-10351984D01*
X9424991Y-10142460D02*
X9253563Y-10399603D01*
X9682134Y-10151984D02*
X9701182Y-10151984D01*
X9701182Y-10151984D02*
X9720229Y-10161508D01*
X9720229Y-10161508D02*
X9729753Y-10171031D01*
X9729753Y-10171031D02*
X9739277Y-10190079D01*
X9739277Y-10190079D02*
X9748801Y-10228174D01*
X9748801Y-10228174D02*
X9748801Y-10275793D01*
X9748801Y-10275793D02*
X9739277Y-10313889D01*
X9739277Y-10313889D02*
X9729753Y-10332936D01*
X9729753Y-10332936D02*
X9720229Y-10342460D01*
X9720229Y-10342460D02*
X9701182Y-10351984D01*
X9701182Y-10351984D02*
X9682134Y-10351984D01*
X9682134Y-10351984D02*
X9663087Y-10342460D01*
X9663087Y-10342460D02*
X9653563Y-10332936D01*
X9653563Y-10332936D02*
X9644039Y-10313889D01*
X9644039Y-10313889D02*
X9634515Y-10275793D01*
X9634515Y-10275793D02*
X9634515Y-10228174D01*
X9634515Y-10228174D02*
X9644039Y-10190079D01*
X9644039Y-10190079D02*
X9653563Y-10171031D01*
X9653563Y-10171031D02*
X9663087Y-10161508D01*
X9663087Y-10161508D02*
X9682134Y-10151984D01*
X9834515Y-10332936D02*
X9844039Y-10342460D01*
X9844039Y-10342460D02*
X9834515Y-10351984D01*
X9834515Y-10351984D02*
X9824991Y-10342460D01*
X9824991Y-10342460D02*
X9834515Y-10332936D01*
X9834515Y-10332936D02*
X9834515Y-10351984D01*
X9967848Y-10151984D02*
X9986896Y-10151984D01*
X9986896Y-10151984D02*
X10005944Y-10161508D01*
X10005944Y-10161508D02*
X10015468Y-10171031D01*
X10015468Y-10171031D02*
X10024991Y-10190079D01*
X10024991Y-10190079D02*
X10034515Y-10228174D01*
X10034515Y-10228174D02*
X10034515Y-10275793D01*
X10034515Y-10275793D02*
X10024991Y-10313889D01*
X10024991Y-10313889D02*
X10015468Y-10332936D01*
X10015468Y-10332936D02*
X10005944Y-10342460D01*
X10005944Y-10342460D02*
X9986896Y-10351984D01*
X9986896Y-10351984D02*
X9967848Y-10351984D01*
X9967848Y-10351984D02*
X9948801Y-10342460D01*
X9948801Y-10342460D02*
X9939277Y-10332936D01*
X9939277Y-10332936D02*
X9929753Y-10313889D01*
X9929753Y-10313889D02*
X9920229Y-10275793D01*
X9920229Y-10275793D02*
X9920229Y-10228174D01*
X9920229Y-10228174D02*
X9929753Y-10190079D01*
X9929753Y-10190079D02*
X9939277Y-10171031D01*
X9939277Y-10171031D02*
X9948801Y-10161508D01*
X9948801Y-10161508D02*
X9967848Y-10151984D01*
X10101182Y-10151984D02*
X10224991Y-10151984D01*
X10224991Y-10151984D02*
X10158325Y-10228174D01*
X10158325Y-10228174D02*
X10186896Y-10228174D01*
X10186896Y-10228174D02*
X10205944Y-10237698D01*
X10205944Y-10237698D02*
X10215468Y-10247222D01*
X10215468Y-10247222D02*
X10224991Y-10266270D01*
X10224991Y-10266270D02*
X10224991Y-10313889D01*
X10224991Y-10313889D02*
X10215468Y-10332936D01*
X10215468Y-10332936D02*
X10205944Y-10342460D01*
X10205944Y-10342460D02*
X10186896Y-10351984D01*
X10186896Y-10351984D02*
X10129753Y-10351984D01*
X10129753Y-10351984D02*
X10110706Y-10342460D01*
X10110706Y-10342460D02*
X10101182Y-10332936D01*
X10320229Y-10351984D02*
X10358325Y-10351984D01*
X10358325Y-10351984D02*
X10377372Y-10342460D01*
X10377372Y-10342460D02*
X10386896Y-10332936D01*
X10386896Y-10332936D02*
X10405944Y-10304365D01*
X10405944Y-10304365D02*
X10415468Y-10266270D01*
X10415468Y-10266270D02*
X10415468Y-10190079D01*
X10415468Y-10190079D02*
X10405944Y-10171031D01*
X10405944Y-10171031D02*
X10396420Y-10161508D01*
X10396420Y-10161508D02*
X10377372Y-10151984D01*
X10377372Y-10151984D02*
X10339277Y-10151984D01*
X10339277Y-10151984D02*
X10320229Y-10161508D01*
X10320229Y-10161508D02*
X10310706Y-10171031D01*
X10310706Y-10171031D02*
X10301182Y-10190079D01*
X10301182Y-10190079D02*
X10301182Y-10237698D01*
X10301182Y-10237698D02*
X10310706Y-10256746D01*
X10310706Y-10256746D02*
X10320229Y-10266270D01*
X10320229Y-10266270D02*
X10339277Y-10275793D01*
X10339277Y-10275793D02*
X10377372Y-10275793D01*
X10377372Y-10275793D02*
X10396420Y-10266270D01*
X10396420Y-10266270D02*
X10405944Y-10256746D01*
X10405944Y-10256746D02*
X10415468Y-10237698D01*
X10586896Y-10218650D02*
X10586896Y-10351984D01*
X10539277Y-10142460D02*
X10491658Y-10285317D01*
X10491658Y-10285317D02*
X10615468Y-10285317D01*
X10682134Y-10151984D02*
X10682134Y-10190079D01*
X10758325Y-10151984D02*
X10758325Y-10190079D01*
X11053563Y-10428174D02*
X11044039Y-10418650D01*
X11044039Y-10418650D02*
X11024991Y-10390079D01*
X11024991Y-10390079D02*
X11015468Y-10371031D01*
X11015468Y-10371031D02*
X11005944Y-10342460D01*
X11005944Y-10342460D02*
X10996420Y-10294841D01*
X10996420Y-10294841D02*
X10996420Y-10256746D01*
X10996420Y-10256746D02*
X11005944Y-10209127D01*
X11005944Y-10209127D02*
X11015468Y-10180555D01*
X11015468Y-10180555D02*
X11024991Y-10161508D01*
X11024991Y-10161508D02*
X11044039Y-10132936D01*
X11044039Y-10132936D02*
X11053563Y-10123412D01*
X11215468Y-10151984D02*
X11177372Y-10151984D01*
X11177372Y-10151984D02*
X11158325Y-10161508D01*
X11158325Y-10161508D02*
X11148801Y-10171031D01*
X11148801Y-10171031D02*
X11129753Y-10199603D01*
X11129753Y-10199603D02*
X11120230Y-10237698D01*
X11120230Y-10237698D02*
X11120230Y-10313889D01*
X11120230Y-10313889D02*
X11129753Y-10332936D01*
X11129753Y-10332936D02*
X11139277Y-10342460D01*
X11139277Y-10342460D02*
X11158325Y-10351984D01*
X11158325Y-10351984D02*
X11196420Y-10351984D01*
X11196420Y-10351984D02*
X11215468Y-10342460D01*
X11215468Y-10342460D02*
X11224991Y-10332936D01*
X11224991Y-10332936D02*
X11234515Y-10313889D01*
X11234515Y-10313889D02*
X11234515Y-10266270D01*
X11234515Y-10266270D02*
X11224991Y-10247222D01*
X11224991Y-10247222D02*
X11215468Y-10237698D01*
X11215468Y-10237698D02*
X11196420Y-10228174D01*
X11196420Y-10228174D02*
X11158325Y-10228174D01*
X11158325Y-10228174D02*
X11139277Y-10237698D01*
X11139277Y-10237698D02*
X11129753Y-10247222D01*
X11129753Y-10247222D02*
X11120230Y-10266270D01*
X11405944Y-10151984D02*
X11367848Y-10151984D01*
X11367848Y-10151984D02*
X11348801Y-10161508D01*
X11348801Y-10161508D02*
X11339277Y-10171031D01*
X11339277Y-10171031D02*
X11320229Y-10199603D01*
X11320229Y-10199603D02*
X11310706Y-10237698D01*
X11310706Y-10237698D02*
X11310706Y-10313889D01*
X11310706Y-10313889D02*
X11320229Y-10332936D01*
X11320229Y-10332936D02*
X11329753Y-10342460D01*
X11329753Y-10342460D02*
X11348801Y-10351984D01*
X11348801Y-10351984D02*
X11386896Y-10351984D01*
X11386896Y-10351984D02*
X11405944Y-10342460D01*
X11405944Y-10342460D02*
X11415468Y-10332936D01*
X11415468Y-10332936D02*
X11424991Y-10313889D01*
X11424991Y-10313889D02*
X11424991Y-10266270D01*
X11424991Y-10266270D02*
X11415468Y-10247222D01*
X11415468Y-10247222D02*
X11405944Y-10237698D01*
X11405944Y-10237698D02*
X11386896Y-10228174D01*
X11386896Y-10228174D02*
X11348801Y-10228174D01*
X11348801Y-10228174D02*
X11329753Y-10237698D01*
X11329753Y-10237698D02*
X11320229Y-10247222D01*
X11320229Y-10247222D02*
X11310706Y-10266270D01*
X11663087Y-10351984D02*
X11663087Y-10151984D01*
X11748801Y-10351984D02*
X11748801Y-10247222D01*
X11748801Y-10247222D02*
X11739277Y-10228174D01*
X11739277Y-10228174D02*
X11720230Y-10218650D01*
X11720230Y-10218650D02*
X11691658Y-10218650D01*
X11691658Y-10218650D02*
X11672610Y-10228174D01*
X11672610Y-10228174D02*
X11663087Y-10237698D01*
X11872610Y-10351984D02*
X11853563Y-10342460D01*
X11853563Y-10342460D02*
X11844039Y-10332936D01*
X11844039Y-10332936D02*
X11834515Y-10313889D01*
X11834515Y-10313889D02*
X11834515Y-10256746D01*
X11834515Y-10256746D02*
X11844039Y-10237698D01*
X11844039Y-10237698D02*
X11853563Y-10228174D01*
X11853563Y-10228174D02*
X11872610Y-10218650D01*
X11872610Y-10218650D02*
X11901182Y-10218650D01*
X11901182Y-10218650D02*
X11920230Y-10228174D01*
X11920230Y-10228174D02*
X11929753Y-10237698D01*
X11929753Y-10237698D02*
X11939277Y-10256746D01*
X11939277Y-10256746D02*
X11939277Y-10313889D01*
X11939277Y-10313889D02*
X11929753Y-10332936D01*
X11929753Y-10332936D02*
X11920230Y-10342460D01*
X11920230Y-10342460D02*
X11901182Y-10351984D01*
X11901182Y-10351984D02*
X11872610Y-10351984D01*
X12053563Y-10351984D02*
X12034515Y-10342460D01*
X12034515Y-10342460D02*
X12024991Y-10323412D01*
X12024991Y-10323412D02*
X12024991Y-10151984D01*
X12205944Y-10342460D02*
X12186896Y-10351984D01*
X12186896Y-10351984D02*
X12148801Y-10351984D01*
X12148801Y-10351984D02*
X12129753Y-10342460D01*
X12129753Y-10342460D02*
X12120230Y-10323412D01*
X12120230Y-10323412D02*
X12120230Y-10247222D01*
X12120230Y-10247222D02*
X12129753Y-10228174D01*
X12129753Y-10228174D02*
X12148801Y-10218650D01*
X12148801Y-10218650D02*
X12186896Y-10218650D01*
X12186896Y-10218650D02*
X12205944Y-10228174D01*
X12205944Y-10228174D02*
X12215468Y-10247222D01*
X12215468Y-10247222D02*
X12215468Y-10266270D01*
X12215468Y-10266270D02*
X12120230Y-10285317D01*
X12291658Y-10342460D02*
X12310706Y-10351984D01*
X12310706Y-10351984D02*
X12348801Y-10351984D01*
X12348801Y-10351984D02*
X12367849Y-10342460D01*
X12367849Y-10342460D02*
X12377372Y-10323412D01*
X12377372Y-10323412D02*
X12377372Y-10313889D01*
X12377372Y-10313889D02*
X12367849Y-10294841D01*
X12367849Y-10294841D02*
X12348801Y-10285317D01*
X12348801Y-10285317D02*
X12320230Y-10285317D01*
X12320230Y-10285317D02*
X12301182Y-10275793D01*
X12301182Y-10275793D02*
X12291658Y-10256746D01*
X12291658Y-10256746D02*
X12291658Y-10247222D01*
X12291658Y-10247222D02*
X12301182Y-10228174D01*
X12301182Y-10228174D02*
X12320230Y-10218650D01*
X12320230Y-10218650D02*
X12348801Y-10218650D01*
X12348801Y-10218650D02*
X12367849Y-10228174D01*
X12444039Y-10428174D02*
X12453563Y-10418650D01*
X12453563Y-10418650D02*
X12472611Y-10390079D01*
X12472611Y-10390079D02*
X12482134Y-10371031D01*
X12482134Y-10371031D02*
X12491658Y-10342460D01*
X12491658Y-10342460D02*
X12501182Y-10294841D01*
X12501182Y-10294841D02*
X12501182Y-10256746D01*
X12501182Y-10256746D02*
X12491658Y-10209127D01*
X12491658Y-10209127D02*
X12482134Y-10180555D01*
X12482134Y-10180555D02*
X12472611Y-10161508D01*
X12472611Y-10161508D02*
X12453563Y-10132936D01*
X12453563Y-10132936D02*
X12444039Y-10123412D01*
D13*
X7462538Y-10563038D02*
X7462538Y-10485962D01*
X7385462Y-10485962D01*
X7385462Y-10563038D01*
X7462538Y-10563038D01*
D11*
X7844039Y-10615984D02*
X7729753Y-10615984D01*
X7786896Y-10615984D02*
X7786896Y-10415984D01*
X7786896Y-10415984D02*
X7767848Y-10444555D01*
X7767848Y-10444555D02*
X7748801Y-10463603D01*
X7748801Y-10463603D02*
X7729753Y-10473127D01*
X7929753Y-10596936D02*
X7939277Y-10606460D01*
X7939277Y-10606460D02*
X7929753Y-10615984D01*
X7929753Y-10615984D02*
X7920229Y-10606460D01*
X7920229Y-10606460D02*
X7929753Y-10596936D01*
X7929753Y-10596936D02*
X7929753Y-10615984D01*
X8063086Y-10415984D02*
X8082134Y-10415984D01*
X8082134Y-10415984D02*
X8101182Y-10425508D01*
X8101182Y-10425508D02*
X8110705Y-10435031D01*
X8110705Y-10435031D02*
X8120229Y-10454079D01*
X8120229Y-10454079D02*
X8129753Y-10492174D01*
X8129753Y-10492174D02*
X8129753Y-10539793D01*
X8129753Y-10539793D02*
X8120229Y-10577889D01*
X8120229Y-10577889D02*
X8110705Y-10596936D01*
X8110705Y-10596936D02*
X8101182Y-10606460D01*
X8101182Y-10606460D02*
X8082134Y-10615984D01*
X8082134Y-10615984D02*
X8063086Y-10615984D01*
X8063086Y-10615984D02*
X8044039Y-10606460D01*
X8044039Y-10606460D02*
X8034515Y-10596936D01*
X8034515Y-10596936D02*
X8024991Y-10577889D01*
X8024991Y-10577889D02*
X8015467Y-10539793D01*
X8015467Y-10539793D02*
X8015467Y-10492174D01*
X8015467Y-10492174D02*
X8024991Y-10454079D01*
X8024991Y-10454079D02*
X8034515Y-10435031D01*
X8034515Y-10435031D02*
X8044039Y-10425508D01*
X8044039Y-10425508D02*
X8063086Y-10415984D01*
X8224991Y-10615984D02*
X8263086Y-10615984D01*
X8263086Y-10615984D02*
X8282134Y-10606460D01*
X8282134Y-10606460D02*
X8291658Y-10596936D01*
X8291658Y-10596936D02*
X8310705Y-10568365D01*
X8310705Y-10568365D02*
X8320229Y-10530270D01*
X8320229Y-10530270D02*
X8320229Y-10454079D01*
X8320229Y-10454079D02*
X8310705Y-10435031D01*
X8310705Y-10435031D02*
X8301182Y-10425508D01*
X8301182Y-10425508D02*
X8282134Y-10415984D01*
X8282134Y-10415984D02*
X8244039Y-10415984D01*
X8244039Y-10415984D02*
X8224991Y-10425508D01*
X8224991Y-10425508D02*
X8215467Y-10435031D01*
X8215467Y-10435031D02*
X8205943Y-10454079D01*
X8205943Y-10454079D02*
X8205943Y-10501698D01*
X8205943Y-10501698D02*
X8215467Y-10520746D01*
X8215467Y-10520746D02*
X8224991Y-10530270D01*
X8224991Y-10530270D02*
X8244039Y-10539793D01*
X8244039Y-10539793D02*
X8282134Y-10539793D01*
X8282134Y-10539793D02*
X8301182Y-10530270D01*
X8301182Y-10530270D02*
X8310705Y-10520746D01*
X8310705Y-10520746D02*
X8320229Y-10501698D01*
X8444039Y-10415984D02*
X8463086Y-10415984D01*
X8463086Y-10415984D02*
X8482134Y-10425508D01*
X8482134Y-10425508D02*
X8491658Y-10435031D01*
X8491658Y-10435031D02*
X8501182Y-10454079D01*
X8501182Y-10454079D02*
X8510705Y-10492174D01*
X8510705Y-10492174D02*
X8510705Y-10539793D01*
X8510705Y-10539793D02*
X8501182Y-10577889D01*
X8501182Y-10577889D02*
X8491658Y-10596936D01*
X8491658Y-10596936D02*
X8482134Y-10606460D01*
X8482134Y-10606460D02*
X8463086Y-10615984D01*
X8463086Y-10615984D02*
X8444039Y-10615984D01*
X8444039Y-10615984D02*
X8424991Y-10606460D01*
X8424991Y-10606460D02*
X8415467Y-10596936D01*
X8415467Y-10596936D02*
X8405944Y-10577889D01*
X8405944Y-10577889D02*
X8396420Y-10539793D01*
X8396420Y-10539793D02*
X8396420Y-10492174D01*
X8396420Y-10492174D02*
X8405944Y-10454079D01*
X8405944Y-10454079D02*
X8415467Y-10435031D01*
X8415467Y-10435031D02*
X8424991Y-10425508D01*
X8424991Y-10425508D02*
X8444039Y-10415984D01*
X8596420Y-10615984D02*
X8596420Y-10482650D01*
X8596420Y-10501698D02*
X8605944Y-10492174D01*
X8605944Y-10492174D02*
X8624991Y-10482650D01*
X8624991Y-10482650D02*
X8653563Y-10482650D01*
X8653563Y-10482650D02*
X8672610Y-10492174D01*
X8672610Y-10492174D02*
X8682134Y-10511222D01*
X8682134Y-10511222D02*
X8682134Y-10615984D01*
X8682134Y-10511222D02*
X8691658Y-10492174D01*
X8691658Y-10492174D02*
X8710705Y-10482650D01*
X8710705Y-10482650D02*
X8739277Y-10482650D01*
X8739277Y-10482650D02*
X8758325Y-10492174D01*
X8758325Y-10492174D02*
X8767848Y-10511222D01*
X8767848Y-10511222D02*
X8767848Y-10615984D01*
X8863086Y-10615984D02*
X8863086Y-10482650D01*
X8863086Y-10501698D02*
X8872610Y-10492174D01*
X8872610Y-10492174D02*
X8891658Y-10482650D01*
X8891658Y-10482650D02*
X8920229Y-10482650D01*
X8920229Y-10482650D02*
X8939277Y-10492174D01*
X8939277Y-10492174D02*
X8948801Y-10511222D01*
X8948801Y-10511222D02*
X8948801Y-10615984D01*
X8948801Y-10511222D02*
X8958325Y-10492174D01*
X8958325Y-10492174D02*
X8977372Y-10482650D01*
X8977372Y-10482650D02*
X9005944Y-10482650D01*
X9005944Y-10482650D02*
X9024991Y-10492174D01*
X9024991Y-10492174D02*
X9034515Y-10511222D01*
X9034515Y-10511222D02*
X9034515Y-10615984D01*
X9424991Y-10406460D02*
X9253563Y-10663603D01*
X9682134Y-10415984D02*
X9701182Y-10415984D01*
X9701182Y-10415984D02*
X9720229Y-10425508D01*
X9720229Y-10425508D02*
X9729753Y-10435031D01*
X9729753Y-10435031D02*
X9739277Y-10454079D01*
X9739277Y-10454079D02*
X9748801Y-10492174D01*
X9748801Y-10492174D02*
X9748801Y-10539793D01*
X9748801Y-10539793D02*
X9739277Y-10577889D01*
X9739277Y-10577889D02*
X9729753Y-10596936D01*
X9729753Y-10596936D02*
X9720229Y-10606460D01*
X9720229Y-10606460D02*
X9701182Y-10615984D01*
X9701182Y-10615984D02*
X9682134Y-10615984D01*
X9682134Y-10615984D02*
X9663087Y-10606460D01*
X9663087Y-10606460D02*
X9653563Y-10596936D01*
X9653563Y-10596936D02*
X9644039Y-10577889D01*
X9644039Y-10577889D02*
X9634515Y-10539793D01*
X9634515Y-10539793D02*
X9634515Y-10492174D01*
X9634515Y-10492174D02*
X9644039Y-10454079D01*
X9644039Y-10454079D02*
X9653563Y-10435031D01*
X9653563Y-10435031D02*
X9663087Y-10425508D01*
X9663087Y-10425508D02*
X9682134Y-10415984D01*
X9834515Y-10596936D02*
X9844039Y-10606460D01*
X9844039Y-10606460D02*
X9834515Y-10615984D01*
X9834515Y-10615984D02*
X9824991Y-10606460D01*
X9824991Y-10606460D02*
X9834515Y-10596936D01*
X9834515Y-10596936D02*
X9834515Y-10615984D01*
X9967848Y-10415984D02*
X9986896Y-10415984D01*
X9986896Y-10415984D02*
X10005944Y-10425508D01*
X10005944Y-10425508D02*
X10015468Y-10435031D01*
X10015468Y-10435031D02*
X10024991Y-10454079D01*
X10024991Y-10454079D02*
X10034515Y-10492174D01*
X10034515Y-10492174D02*
X10034515Y-10539793D01*
X10034515Y-10539793D02*
X10024991Y-10577889D01*
X10024991Y-10577889D02*
X10015468Y-10596936D01*
X10015468Y-10596936D02*
X10005944Y-10606460D01*
X10005944Y-10606460D02*
X9986896Y-10615984D01*
X9986896Y-10615984D02*
X9967848Y-10615984D01*
X9967848Y-10615984D02*
X9948801Y-10606460D01*
X9948801Y-10606460D02*
X9939277Y-10596936D01*
X9939277Y-10596936D02*
X9929753Y-10577889D01*
X9929753Y-10577889D02*
X9920229Y-10539793D01*
X9920229Y-10539793D02*
X9920229Y-10492174D01*
X9920229Y-10492174D02*
X9929753Y-10454079D01*
X9929753Y-10454079D02*
X9939277Y-10435031D01*
X9939277Y-10435031D02*
X9948801Y-10425508D01*
X9948801Y-10425508D02*
X9967848Y-10415984D01*
X10205944Y-10482650D02*
X10205944Y-10615984D01*
X10158325Y-10406460D02*
X10110706Y-10549317D01*
X10110706Y-10549317D02*
X10234515Y-10549317D01*
X10301182Y-10435031D02*
X10310706Y-10425508D01*
X10310706Y-10425508D02*
X10329753Y-10415984D01*
X10329753Y-10415984D02*
X10377372Y-10415984D01*
X10377372Y-10415984D02*
X10396420Y-10425508D01*
X10396420Y-10425508D02*
X10405944Y-10435031D01*
X10405944Y-10435031D02*
X10415468Y-10454079D01*
X10415468Y-10454079D02*
X10415468Y-10473127D01*
X10415468Y-10473127D02*
X10405944Y-10501698D01*
X10405944Y-10501698D02*
X10291658Y-10615984D01*
X10291658Y-10615984D02*
X10415468Y-10615984D01*
X10510706Y-10615984D02*
X10548801Y-10615984D01*
X10548801Y-10615984D02*
X10567849Y-10606460D01*
X10567849Y-10606460D02*
X10577372Y-10596936D01*
X10577372Y-10596936D02*
X10596420Y-10568365D01*
X10596420Y-10568365D02*
X10605944Y-10530270D01*
X10605944Y-10530270D02*
X10605944Y-10454079D01*
X10605944Y-10454079D02*
X10596420Y-10435031D01*
X10596420Y-10435031D02*
X10586896Y-10425508D01*
X10586896Y-10425508D02*
X10567849Y-10415984D01*
X10567849Y-10415984D02*
X10529753Y-10415984D01*
X10529753Y-10415984D02*
X10510706Y-10425508D01*
X10510706Y-10425508D02*
X10501182Y-10435031D01*
X10501182Y-10435031D02*
X10491658Y-10454079D01*
X10491658Y-10454079D02*
X10491658Y-10501698D01*
X10491658Y-10501698D02*
X10501182Y-10520746D01*
X10501182Y-10520746D02*
X10510706Y-10530270D01*
X10510706Y-10530270D02*
X10529753Y-10539793D01*
X10529753Y-10539793D02*
X10567849Y-10539793D01*
X10567849Y-10539793D02*
X10586896Y-10530270D01*
X10586896Y-10530270D02*
X10596420Y-10520746D01*
X10596420Y-10520746D02*
X10605944Y-10501698D01*
X10682134Y-10415984D02*
X10682134Y-10454079D01*
X10758325Y-10415984D02*
X10758325Y-10454079D01*
X11053563Y-10692174D02*
X11044039Y-10682650D01*
X11044039Y-10682650D02*
X11024991Y-10654079D01*
X11024991Y-10654079D02*
X11015468Y-10635031D01*
X11015468Y-10635031D02*
X11005944Y-10606460D01*
X11005944Y-10606460D02*
X10996420Y-10558841D01*
X10996420Y-10558841D02*
X10996420Y-10520746D01*
X10996420Y-10520746D02*
X11005944Y-10473127D01*
X11005944Y-10473127D02*
X11015468Y-10444555D01*
X11015468Y-10444555D02*
X11024991Y-10425508D01*
X11024991Y-10425508D02*
X11044039Y-10396936D01*
X11044039Y-10396936D02*
X11053563Y-10387412D01*
X11110706Y-10415984D02*
X11234515Y-10415984D01*
X11234515Y-10415984D02*
X11167849Y-10492174D01*
X11167849Y-10492174D02*
X11196420Y-10492174D01*
X11196420Y-10492174D02*
X11215468Y-10501698D01*
X11215468Y-10501698D02*
X11224991Y-10511222D01*
X11224991Y-10511222D02*
X11234515Y-10530270D01*
X11234515Y-10530270D02*
X11234515Y-10577889D01*
X11234515Y-10577889D02*
X11224991Y-10596936D01*
X11224991Y-10596936D02*
X11215468Y-10606460D01*
X11215468Y-10606460D02*
X11196420Y-10615984D01*
X11196420Y-10615984D02*
X11139277Y-10615984D01*
X11139277Y-10615984D02*
X11120230Y-10606460D01*
X11120230Y-10606460D02*
X11110706Y-10596936D01*
X11301182Y-10415984D02*
X11434515Y-10415984D01*
X11434515Y-10415984D02*
X11348801Y-10615984D01*
X11663087Y-10615984D02*
X11663087Y-10415984D01*
X11748801Y-10615984D02*
X11748801Y-10511222D01*
X11748801Y-10511222D02*
X11739277Y-10492174D01*
X11739277Y-10492174D02*
X11720230Y-10482650D01*
X11720230Y-10482650D02*
X11691658Y-10482650D01*
X11691658Y-10482650D02*
X11672610Y-10492174D01*
X11672610Y-10492174D02*
X11663087Y-10501698D01*
X11872610Y-10615984D02*
X11853563Y-10606460D01*
X11853563Y-10606460D02*
X11844039Y-10596936D01*
X11844039Y-10596936D02*
X11834515Y-10577889D01*
X11834515Y-10577889D02*
X11834515Y-10520746D01*
X11834515Y-10520746D02*
X11844039Y-10501698D01*
X11844039Y-10501698D02*
X11853563Y-10492174D01*
X11853563Y-10492174D02*
X11872610Y-10482650D01*
X11872610Y-10482650D02*
X11901182Y-10482650D01*
X11901182Y-10482650D02*
X11920230Y-10492174D01*
X11920230Y-10492174D02*
X11929753Y-10501698D01*
X11929753Y-10501698D02*
X11939277Y-10520746D01*
X11939277Y-10520746D02*
X11939277Y-10577889D01*
X11939277Y-10577889D02*
X11929753Y-10596936D01*
X11929753Y-10596936D02*
X11920230Y-10606460D01*
X11920230Y-10606460D02*
X11901182Y-10615984D01*
X11901182Y-10615984D02*
X11872610Y-10615984D01*
X12053563Y-10615984D02*
X12034515Y-10606460D01*
X12034515Y-10606460D02*
X12024991Y-10587412D01*
X12024991Y-10587412D02*
X12024991Y-10415984D01*
X12205944Y-10606460D02*
X12186896Y-10615984D01*
X12186896Y-10615984D02*
X12148801Y-10615984D01*
X12148801Y-10615984D02*
X12129753Y-10606460D01*
X12129753Y-10606460D02*
X12120230Y-10587412D01*
X12120230Y-10587412D02*
X12120230Y-10511222D01*
X12120230Y-10511222D02*
X12129753Y-10492174D01*
X12129753Y-10492174D02*
X12148801Y-10482650D01*
X12148801Y-10482650D02*
X12186896Y-10482650D01*
X12186896Y-10482650D02*
X12205944Y-10492174D01*
X12205944Y-10492174D02*
X12215468Y-10511222D01*
X12215468Y-10511222D02*
X12215468Y-10530270D01*
X12215468Y-10530270D02*
X12120230Y-10549317D01*
X12291658Y-10606460D02*
X12310706Y-10615984D01*
X12310706Y-10615984D02*
X12348801Y-10615984D01*
X12348801Y-10615984D02*
X12367849Y-10606460D01*
X12367849Y-10606460D02*
X12377372Y-10587412D01*
X12377372Y-10587412D02*
X12377372Y-10577889D01*
X12377372Y-10577889D02*
X12367849Y-10558841D01*
X12367849Y-10558841D02*
X12348801Y-10549317D01*
X12348801Y-10549317D02*
X12320230Y-10549317D01*
X12320230Y-10549317D02*
X12301182Y-10539793D01*
X12301182Y-10539793D02*
X12291658Y-10520746D01*
X12291658Y-10520746D02*
X12291658Y-10511222D01*
X12291658Y-10511222D02*
X12301182Y-10492174D01*
X12301182Y-10492174D02*
X12320230Y-10482650D01*
X12320230Y-10482650D02*
X12348801Y-10482650D01*
X12348801Y-10482650D02*
X12367849Y-10492174D01*
X12444039Y-10692174D02*
X12453563Y-10682650D01*
X12453563Y-10682650D02*
X12472611Y-10654079D01*
X12472611Y-10654079D02*
X12482134Y-10635031D01*
X12482134Y-10635031D02*
X12491658Y-10606460D01*
X12491658Y-10606460D02*
X12501182Y-10558841D01*
X12501182Y-10558841D02*
X12501182Y-10520746D01*
X12501182Y-10520746D02*
X12491658Y-10473127D01*
X12491658Y-10473127D02*
X12482134Y-10444555D01*
X12482134Y-10444555D02*
X12472611Y-10425508D01*
X12472611Y-10425508D02*
X12453563Y-10396936D01*
X12453563Y-10396936D02*
X12444039Y-10387412D01*
X7378500Y-10888500D02*
X7478500Y-10788500D01*
X7378500Y-10688500D01*
X7278500Y-10788500D01*
X7378500Y-10888500D01*
X7720229Y-10679984D02*
X7844039Y-10679984D01*
X7844039Y-10679984D02*
X7777372Y-10756174D01*
X7777372Y-10756174D02*
X7805943Y-10756174D01*
X7805943Y-10756174D02*
X7824991Y-10765698D01*
X7824991Y-10765698D02*
X7834515Y-10775222D01*
X7834515Y-10775222D02*
X7844039Y-10794270D01*
X7844039Y-10794270D02*
X7844039Y-10841889D01*
X7844039Y-10841889D02*
X7834515Y-10860936D01*
X7834515Y-10860936D02*
X7824991Y-10870460D01*
X7824991Y-10870460D02*
X7805943Y-10879984D01*
X7805943Y-10879984D02*
X7748801Y-10879984D01*
X7748801Y-10879984D02*
X7729753Y-10870460D01*
X7729753Y-10870460D02*
X7720229Y-10860936D01*
X7929753Y-10860936D02*
X7939277Y-10870460D01*
X7939277Y-10870460D02*
X7929753Y-10879984D01*
X7929753Y-10879984D02*
X7920229Y-10870460D01*
X7920229Y-10870460D02*
X7929753Y-10860936D01*
X7929753Y-10860936D02*
X7929753Y-10879984D01*
X8120229Y-10679984D02*
X8024991Y-10679984D01*
X8024991Y-10679984D02*
X8015467Y-10775222D01*
X8015467Y-10775222D02*
X8024991Y-10765698D01*
X8024991Y-10765698D02*
X8044039Y-10756174D01*
X8044039Y-10756174D02*
X8091658Y-10756174D01*
X8091658Y-10756174D02*
X8110705Y-10765698D01*
X8110705Y-10765698D02*
X8120229Y-10775222D01*
X8120229Y-10775222D02*
X8129753Y-10794270D01*
X8129753Y-10794270D02*
X8129753Y-10841889D01*
X8129753Y-10841889D02*
X8120229Y-10860936D01*
X8120229Y-10860936D02*
X8110705Y-10870460D01*
X8110705Y-10870460D02*
X8091658Y-10879984D01*
X8091658Y-10879984D02*
X8044039Y-10879984D01*
X8044039Y-10879984D02*
X8024991Y-10870460D01*
X8024991Y-10870460D02*
X8015467Y-10860936D01*
X8253562Y-10679984D02*
X8272610Y-10679984D01*
X8272610Y-10679984D02*
X8291658Y-10689508D01*
X8291658Y-10689508D02*
X8301182Y-10699031D01*
X8301182Y-10699031D02*
X8310705Y-10718079D01*
X8310705Y-10718079D02*
X8320229Y-10756174D01*
X8320229Y-10756174D02*
X8320229Y-10803793D01*
X8320229Y-10803793D02*
X8310705Y-10841889D01*
X8310705Y-10841889D02*
X8301182Y-10860936D01*
X8301182Y-10860936D02*
X8291658Y-10870460D01*
X8291658Y-10870460D02*
X8272610Y-10879984D01*
X8272610Y-10879984D02*
X8253562Y-10879984D01*
X8253562Y-10879984D02*
X8234515Y-10870460D01*
X8234515Y-10870460D02*
X8224991Y-10860936D01*
X8224991Y-10860936D02*
X8215467Y-10841889D01*
X8215467Y-10841889D02*
X8205943Y-10803793D01*
X8205943Y-10803793D02*
X8205943Y-10756174D01*
X8205943Y-10756174D02*
X8215467Y-10718079D01*
X8215467Y-10718079D02*
X8224991Y-10699031D01*
X8224991Y-10699031D02*
X8234515Y-10689508D01*
X8234515Y-10689508D02*
X8253562Y-10679984D01*
X8444039Y-10679984D02*
X8463086Y-10679984D01*
X8463086Y-10679984D02*
X8482134Y-10689508D01*
X8482134Y-10689508D02*
X8491658Y-10699031D01*
X8491658Y-10699031D02*
X8501182Y-10718079D01*
X8501182Y-10718079D02*
X8510705Y-10756174D01*
X8510705Y-10756174D02*
X8510705Y-10803793D01*
X8510705Y-10803793D02*
X8501182Y-10841889D01*
X8501182Y-10841889D02*
X8491658Y-10860936D01*
X8491658Y-10860936D02*
X8482134Y-10870460D01*
X8482134Y-10870460D02*
X8463086Y-10879984D01*
X8463086Y-10879984D02*
X8444039Y-10879984D01*
X8444039Y-10879984D02*
X8424991Y-10870460D01*
X8424991Y-10870460D02*
X8415467Y-10860936D01*
X8415467Y-10860936D02*
X8405944Y-10841889D01*
X8405944Y-10841889D02*
X8396420Y-10803793D01*
X8396420Y-10803793D02*
X8396420Y-10756174D01*
X8396420Y-10756174D02*
X8405944Y-10718079D01*
X8405944Y-10718079D02*
X8415467Y-10699031D01*
X8415467Y-10699031D02*
X8424991Y-10689508D01*
X8424991Y-10689508D02*
X8444039Y-10679984D01*
X8596420Y-10879984D02*
X8596420Y-10746650D01*
X8596420Y-10765698D02*
X8605944Y-10756174D01*
X8605944Y-10756174D02*
X8624991Y-10746650D01*
X8624991Y-10746650D02*
X8653563Y-10746650D01*
X8653563Y-10746650D02*
X8672610Y-10756174D01*
X8672610Y-10756174D02*
X8682134Y-10775222D01*
X8682134Y-10775222D02*
X8682134Y-10879984D01*
X8682134Y-10775222D02*
X8691658Y-10756174D01*
X8691658Y-10756174D02*
X8710705Y-10746650D01*
X8710705Y-10746650D02*
X8739277Y-10746650D01*
X8739277Y-10746650D02*
X8758325Y-10756174D01*
X8758325Y-10756174D02*
X8767848Y-10775222D01*
X8767848Y-10775222D02*
X8767848Y-10879984D01*
X8863086Y-10879984D02*
X8863086Y-10746650D01*
X8863086Y-10765698D02*
X8872610Y-10756174D01*
X8872610Y-10756174D02*
X8891658Y-10746650D01*
X8891658Y-10746650D02*
X8920229Y-10746650D01*
X8920229Y-10746650D02*
X8939277Y-10756174D01*
X8939277Y-10756174D02*
X8948801Y-10775222D01*
X8948801Y-10775222D02*
X8948801Y-10879984D01*
X8948801Y-10775222D02*
X8958325Y-10756174D01*
X8958325Y-10756174D02*
X8977372Y-10746650D01*
X8977372Y-10746650D02*
X9005944Y-10746650D01*
X9005944Y-10746650D02*
X9024991Y-10756174D01*
X9024991Y-10756174D02*
X9034515Y-10775222D01*
X9034515Y-10775222D02*
X9034515Y-10879984D01*
X9424991Y-10670460D02*
X9253563Y-10927603D01*
X9682134Y-10679984D02*
X9701182Y-10679984D01*
X9701182Y-10679984D02*
X9720229Y-10689508D01*
X9720229Y-10689508D02*
X9729753Y-10699031D01*
X9729753Y-10699031D02*
X9739277Y-10718079D01*
X9739277Y-10718079D02*
X9748801Y-10756174D01*
X9748801Y-10756174D02*
X9748801Y-10803793D01*
X9748801Y-10803793D02*
X9739277Y-10841889D01*
X9739277Y-10841889D02*
X9729753Y-10860936D01*
X9729753Y-10860936D02*
X9720229Y-10870460D01*
X9720229Y-10870460D02*
X9701182Y-10879984D01*
X9701182Y-10879984D02*
X9682134Y-10879984D01*
X9682134Y-10879984D02*
X9663087Y-10870460D01*
X9663087Y-10870460D02*
X9653563Y-10860936D01*
X9653563Y-10860936D02*
X9644039Y-10841889D01*
X9644039Y-10841889D02*
X9634515Y-10803793D01*
X9634515Y-10803793D02*
X9634515Y-10756174D01*
X9634515Y-10756174D02*
X9644039Y-10718079D01*
X9644039Y-10718079D02*
X9653563Y-10699031D01*
X9653563Y-10699031D02*
X9663087Y-10689508D01*
X9663087Y-10689508D02*
X9682134Y-10679984D01*
X9834515Y-10860936D02*
X9844039Y-10870460D01*
X9844039Y-10870460D02*
X9834515Y-10879984D01*
X9834515Y-10879984D02*
X9824991Y-10870460D01*
X9824991Y-10870460D02*
X9834515Y-10860936D01*
X9834515Y-10860936D02*
X9834515Y-10879984D01*
X10034515Y-10879984D02*
X9920229Y-10879984D01*
X9977372Y-10879984D02*
X9977372Y-10679984D01*
X9977372Y-10679984D02*
X9958325Y-10708555D01*
X9958325Y-10708555D02*
X9939277Y-10727603D01*
X9939277Y-10727603D02*
X9920229Y-10737127D01*
X10101182Y-10679984D02*
X10224991Y-10679984D01*
X10224991Y-10679984D02*
X10158325Y-10756174D01*
X10158325Y-10756174D02*
X10186896Y-10756174D01*
X10186896Y-10756174D02*
X10205944Y-10765698D01*
X10205944Y-10765698D02*
X10215468Y-10775222D01*
X10215468Y-10775222D02*
X10224991Y-10794270D01*
X10224991Y-10794270D02*
X10224991Y-10841889D01*
X10224991Y-10841889D02*
X10215468Y-10860936D01*
X10215468Y-10860936D02*
X10205944Y-10870460D01*
X10205944Y-10870460D02*
X10186896Y-10879984D01*
X10186896Y-10879984D02*
X10129753Y-10879984D01*
X10129753Y-10879984D02*
X10110706Y-10870460D01*
X10110706Y-10870460D02*
X10101182Y-10860936D01*
X10291658Y-10679984D02*
X10424991Y-10679984D01*
X10424991Y-10679984D02*
X10339277Y-10879984D01*
X10529753Y-10765698D02*
X10510706Y-10756174D01*
X10510706Y-10756174D02*
X10501182Y-10746650D01*
X10501182Y-10746650D02*
X10491658Y-10727603D01*
X10491658Y-10727603D02*
X10491658Y-10718079D01*
X10491658Y-10718079D02*
X10501182Y-10699031D01*
X10501182Y-10699031D02*
X10510706Y-10689508D01*
X10510706Y-10689508D02*
X10529753Y-10679984D01*
X10529753Y-10679984D02*
X10567849Y-10679984D01*
X10567849Y-10679984D02*
X10586896Y-10689508D01*
X10586896Y-10689508D02*
X10596420Y-10699031D01*
X10596420Y-10699031D02*
X10605944Y-10718079D01*
X10605944Y-10718079D02*
X10605944Y-10727603D01*
X10605944Y-10727603D02*
X10596420Y-10746650D01*
X10596420Y-10746650D02*
X10586896Y-10756174D01*
X10586896Y-10756174D02*
X10567849Y-10765698D01*
X10567849Y-10765698D02*
X10529753Y-10765698D01*
X10529753Y-10765698D02*
X10510706Y-10775222D01*
X10510706Y-10775222D02*
X10501182Y-10784746D01*
X10501182Y-10784746D02*
X10491658Y-10803793D01*
X10491658Y-10803793D02*
X10491658Y-10841889D01*
X10491658Y-10841889D02*
X10501182Y-10860936D01*
X10501182Y-10860936D02*
X10510706Y-10870460D01*
X10510706Y-10870460D02*
X10529753Y-10879984D01*
X10529753Y-10879984D02*
X10567849Y-10879984D01*
X10567849Y-10879984D02*
X10586896Y-10870460D01*
X10586896Y-10870460D02*
X10596420Y-10860936D01*
X10596420Y-10860936D02*
X10605944Y-10841889D01*
X10605944Y-10841889D02*
X10605944Y-10803793D01*
X10605944Y-10803793D02*
X10596420Y-10784746D01*
X10596420Y-10784746D02*
X10586896Y-10775222D01*
X10586896Y-10775222D02*
X10567849Y-10765698D01*
X10682134Y-10679984D02*
X10682134Y-10718079D01*
X10758325Y-10679984D02*
X10758325Y-10718079D01*
X11053563Y-10956174D02*
X11044039Y-10946650D01*
X11044039Y-10946650D02*
X11024991Y-10918079D01*
X11024991Y-10918079D02*
X11015468Y-10899031D01*
X11015468Y-10899031D02*
X11005944Y-10870460D01*
X11005944Y-10870460D02*
X10996420Y-10822841D01*
X10996420Y-10822841D02*
X10996420Y-10784746D01*
X10996420Y-10784746D02*
X11005944Y-10737127D01*
X11005944Y-10737127D02*
X11015468Y-10708555D01*
X11015468Y-10708555D02*
X11024991Y-10689508D01*
X11024991Y-10689508D02*
X11044039Y-10660936D01*
X11044039Y-10660936D02*
X11053563Y-10651412D01*
X11120230Y-10699031D02*
X11129753Y-10689508D01*
X11129753Y-10689508D02*
X11148801Y-10679984D01*
X11148801Y-10679984D02*
X11196420Y-10679984D01*
X11196420Y-10679984D02*
X11215468Y-10689508D01*
X11215468Y-10689508D02*
X11224991Y-10699031D01*
X11224991Y-10699031D02*
X11234515Y-10718079D01*
X11234515Y-10718079D02*
X11234515Y-10737127D01*
X11234515Y-10737127D02*
X11224991Y-10765698D01*
X11224991Y-10765698D02*
X11110706Y-10879984D01*
X11110706Y-10879984D02*
X11234515Y-10879984D01*
X11472610Y-10879984D02*
X11472610Y-10679984D01*
X11558325Y-10879984D02*
X11558325Y-10775222D01*
X11558325Y-10775222D02*
X11548801Y-10756174D01*
X11548801Y-10756174D02*
X11529753Y-10746650D01*
X11529753Y-10746650D02*
X11501182Y-10746650D01*
X11501182Y-10746650D02*
X11482134Y-10756174D01*
X11482134Y-10756174D02*
X11472610Y-10765698D01*
X11682134Y-10879984D02*
X11663087Y-10870460D01*
X11663087Y-10870460D02*
X11653563Y-10860936D01*
X11653563Y-10860936D02*
X11644039Y-10841889D01*
X11644039Y-10841889D02*
X11644039Y-10784746D01*
X11644039Y-10784746D02*
X11653563Y-10765698D01*
X11653563Y-10765698D02*
X11663087Y-10756174D01*
X11663087Y-10756174D02*
X11682134Y-10746650D01*
X11682134Y-10746650D02*
X11710706Y-10746650D01*
X11710706Y-10746650D02*
X11729753Y-10756174D01*
X11729753Y-10756174D02*
X11739277Y-10765698D01*
X11739277Y-10765698D02*
X11748801Y-10784746D01*
X11748801Y-10784746D02*
X11748801Y-10841889D01*
X11748801Y-10841889D02*
X11739277Y-10860936D01*
X11739277Y-10860936D02*
X11729753Y-10870460D01*
X11729753Y-10870460D02*
X11710706Y-10879984D01*
X11710706Y-10879984D02*
X11682134Y-10879984D01*
X11863087Y-10879984D02*
X11844039Y-10870460D01*
X11844039Y-10870460D02*
X11834515Y-10851412D01*
X11834515Y-10851412D02*
X11834515Y-10679984D01*
X12015468Y-10870460D02*
X11996420Y-10879984D01*
X11996420Y-10879984D02*
X11958325Y-10879984D01*
X11958325Y-10879984D02*
X11939277Y-10870460D01*
X11939277Y-10870460D02*
X11929753Y-10851412D01*
X11929753Y-10851412D02*
X11929753Y-10775222D01*
X11929753Y-10775222D02*
X11939277Y-10756174D01*
X11939277Y-10756174D02*
X11958325Y-10746650D01*
X11958325Y-10746650D02*
X11996420Y-10746650D01*
X11996420Y-10746650D02*
X12015468Y-10756174D01*
X12015468Y-10756174D02*
X12024991Y-10775222D01*
X12024991Y-10775222D02*
X12024991Y-10794270D01*
X12024991Y-10794270D02*
X11929753Y-10813317D01*
X12101182Y-10870460D02*
X12120230Y-10879984D01*
X12120230Y-10879984D02*
X12158325Y-10879984D01*
X12158325Y-10879984D02*
X12177372Y-10870460D01*
X12177372Y-10870460D02*
X12186896Y-10851412D01*
X12186896Y-10851412D02*
X12186896Y-10841889D01*
X12186896Y-10841889D02*
X12177372Y-10822841D01*
X12177372Y-10822841D02*
X12158325Y-10813317D01*
X12158325Y-10813317D02*
X12129753Y-10813317D01*
X12129753Y-10813317D02*
X12110706Y-10803793D01*
X12110706Y-10803793D02*
X12101182Y-10784746D01*
X12101182Y-10784746D02*
X12101182Y-10775222D01*
X12101182Y-10775222D02*
X12110706Y-10756174D01*
X12110706Y-10756174D02*
X12129753Y-10746650D01*
X12129753Y-10746650D02*
X12158325Y-10746650D01*
X12158325Y-10746650D02*
X12177372Y-10756174D01*
X12253563Y-10956174D02*
X12263087Y-10946650D01*
X12263087Y-10946650D02*
X12282134Y-10918079D01*
X12282134Y-10918079D02*
X12291658Y-10899031D01*
X12291658Y-10899031D02*
X12301182Y-10870460D01*
X12301182Y-10870460D02*
X12310706Y-10822841D01*
X12310706Y-10822841D02*
X12310706Y-10784746D01*
X12310706Y-10784746D02*
X12301182Y-10737127D01*
X12301182Y-10737127D02*
X12291658Y-10708555D01*
X12291658Y-10708555D02*
X12282134Y-10689508D01*
X12282134Y-10689508D02*
X12263087Y-10660936D01*
X12263087Y-10660936D02*
X12253563Y-10651412D01*
M02*
