%TF.GenerationSoftware,KiCad,Pcbnew,8.0.1*%
%TF.CreationDate,2024-08-10T06:45:48+02:00*%
%TF.ProjectId,2024-05-23 RC PCB,32303234-2d30-4352-9d32-332052432050,rev?*%
%TF.SameCoordinates,Original*%
%TF.FileFunction,Drillmap*%
%TF.FilePolarity,Positive*%
%FSLAX45Y45*%
G04 Gerber Fmt 4.5, Leading zero omitted, Abs format (unit mm)*
G04 Created by KiCad (PCBNEW 8.0.1) date 2024-08-10 06:45:48*
%MOMM*%
%LPD*%
G01*
G04 APERTURE LIST*
%ADD10C,0.050000*%
%ADD11C,0.200000*%
G04 APERTURE END LIST*
D10*
X7481000Y-2590000D02*
X15681000Y-2590000D01*
X15681000Y-9090000D01*
X7481000Y-9090000D01*
X7481000Y-2590000D01*
D11*
X7739277Y-9403984D02*
X7739277Y-9203984D01*
X7739277Y-9203984D02*
X7786896Y-9203984D01*
X7786896Y-9203984D02*
X7815467Y-9213508D01*
X7815467Y-9213508D02*
X7834515Y-9232555D01*
X7834515Y-9232555D02*
X7844039Y-9251603D01*
X7844039Y-9251603D02*
X7853562Y-9289698D01*
X7853562Y-9289698D02*
X7853562Y-9318270D01*
X7853562Y-9318270D02*
X7844039Y-9356365D01*
X7844039Y-9356365D02*
X7834515Y-9375412D01*
X7834515Y-9375412D02*
X7815467Y-9394460D01*
X7815467Y-9394460D02*
X7786896Y-9403984D01*
X7786896Y-9403984D02*
X7739277Y-9403984D01*
X7939277Y-9403984D02*
X7939277Y-9270650D01*
X7939277Y-9308746D02*
X7948801Y-9289698D01*
X7948801Y-9289698D02*
X7958324Y-9280174D01*
X7958324Y-9280174D02*
X7977372Y-9270650D01*
X7977372Y-9270650D02*
X7996420Y-9270650D01*
X8063086Y-9403984D02*
X8063086Y-9270650D01*
X8063086Y-9203984D02*
X8053562Y-9213508D01*
X8053562Y-9213508D02*
X8063086Y-9223031D01*
X8063086Y-9223031D02*
X8072610Y-9213508D01*
X8072610Y-9213508D02*
X8063086Y-9203984D01*
X8063086Y-9203984D02*
X8063086Y-9223031D01*
X8186896Y-9403984D02*
X8167848Y-9394460D01*
X8167848Y-9394460D02*
X8158324Y-9375412D01*
X8158324Y-9375412D02*
X8158324Y-9203984D01*
X8291658Y-9403984D02*
X8272610Y-9394460D01*
X8272610Y-9394460D02*
X8263086Y-9375412D01*
X8263086Y-9375412D02*
X8263086Y-9203984D01*
X8520229Y-9403984D02*
X8520229Y-9203984D01*
X8520229Y-9203984D02*
X8586896Y-9346841D01*
X8586896Y-9346841D02*
X8653563Y-9203984D01*
X8653563Y-9203984D02*
X8653563Y-9403984D01*
X8834515Y-9403984D02*
X8834515Y-9299222D01*
X8834515Y-9299222D02*
X8824991Y-9280174D01*
X8824991Y-9280174D02*
X8805944Y-9270650D01*
X8805944Y-9270650D02*
X8767848Y-9270650D01*
X8767848Y-9270650D02*
X8748801Y-9280174D01*
X8834515Y-9394460D02*
X8815467Y-9403984D01*
X8815467Y-9403984D02*
X8767848Y-9403984D01*
X8767848Y-9403984D02*
X8748801Y-9394460D01*
X8748801Y-9394460D02*
X8739277Y-9375412D01*
X8739277Y-9375412D02*
X8739277Y-9356365D01*
X8739277Y-9356365D02*
X8748801Y-9337317D01*
X8748801Y-9337317D02*
X8767848Y-9327793D01*
X8767848Y-9327793D02*
X8815467Y-9327793D01*
X8815467Y-9327793D02*
X8834515Y-9318270D01*
X8929753Y-9270650D02*
X8929753Y-9470650D01*
X8929753Y-9280174D02*
X8948801Y-9270650D01*
X8948801Y-9270650D02*
X8986896Y-9270650D01*
X8986896Y-9270650D02*
X9005944Y-9280174D01*
X9005944Y-9280174D02*
X9015467Y-9289698D01*
X9015467Y-9289698D02*
X9024991Y-9308746D01*
X9024991Y-9308746D02*
X9024991Y-9365889D01*
X9024991Y-9365889D02*
X9015467Y-9384936D01*
X9015467Y-9384936D02*
X9005944Y-9394460D01*
X9005944Y-9394460D02*
X8986896Y-9403984D01*
X8986896Y-9403984D02*
X8948801Y-9403984D01*
X8948801Y-9403984D02*
X8929753Y-9394460D01*
X9110705Y-9384936D02*
X9120229Y-9394460D01*
X9120229Y-9394460D02*
X9110705Y-9403984D01*
X9110705Y-9403984D02*
X9101182Y-9394460D01*
X9101182Y-9394460D02*
X9110705Y-9384936D01*
X9110705Y-9384936D02*
X9110705Y-9403984D01*
X9110705Y-9280174D02*
X9120229Y-9289698D01*
X9120229Y-9289698D02*
X9110705Y-9299222D01*
X9110705Y-9299222D02*
X9101182Y-9289698D01*
X9101182Y-9289698D02*
X9110705Y-9280174D01*
X9110705Y-9280174D02*
X9110705Y-9299222D01*
M02*
