%TF.GenerationSoftware,KiCad,Pcbnew,8.0.1*%
%TF.CreationDate,2024-08-10T06:45:53+02:00*%
%TF.ProjectId,2024-05-23 RC PCB,32303234-2d30-4352-9d32-332052432050,rev?*%
%TF.SameCoordinates,Original*%
%TF.FileFunction,Legend,Top*%
%TF.FilePolarity,Positive*%
%FSLAX46Y46*%
G04 Gerber Fmt 4.6, Leading zero omitted, Abs format (unit mm)*
G04 Created by KiCad (PCBNEW 8.0.1) date 2024-08-10 06:45:53*
%MOMM*%
%LPD*%
G01*
G04 APERTURE LIST*
%ADD10C,0.150000*%
%ADD11C,0.300000*%
%ADD12C,0.120000*%
%ADD13C,0.100000*%
G04 APERTURE END LIST*
D10*
X144015819Y-82324411D02*
X144015819Y-82895839D01*
X144015819Y-82610125D02*
X143015819Y-82610125D01*
X143015819Y-82610125D02*
X143158676Y-82705363D01*
X143158676Y-82705363D02*
X143253914Y-82800601D01*
X143253914Y-82800601D02*
X143301533Y-82895839D01*
X143015819Y-81705363D02*
X143015819Y-81610125D01*
X143015819Y-81610125D02*
X143063438Y-81514887D01*
X143063438Y-81514887D02*
X143111057Y-81467268D01*
X143111057Y-81467268D02*
X143206295Y-81419649D01*
X143206295Y-81419649D02*
X143396771Y-81372030D01*
X143396771Y-81372030D02*
X143634866Y-81372030D01*
X143634866Y-81372030D02*
X143825342Y-81419649D01*
X143825342Y-81419649D02*
X143920580Y-81467268D01*
X143920580Y-81467268D02*
X143968200Y-81514887D01*
X143968200Y-81514887D02*
X144015819Y-81610125D01*
X144015819Y-81610125D02*
X144015819Y-81705363D01*
X144015819Y-81705363D02*
X143968200Y-81800601D01*
X143968200Y-81800601D02*
X143920580Y-81848220D01*
X143920580Y-81848220D02*
X143825342Y-81895839D01*
X143825342Y-81895839D02*
X143634866Y-81943458D01*
X143634866Y-81943458D02*
X143396771Y-81943458D01*
X143396771Y-81943458D02*
X143206295Y-81895839D01*
X143206295Y-81895839D02*
X143111057Y-81848220D01*
X143111057Y-81848220D02*
X143063438Y-81800601D01*
X143063438Y-81800601D02*
X143015819Y-81705363D01*
X143349152Y-80943458D02*
X144349152Y-80943458D01*
X143872961Y-80467268D02*
X143968200Y-80419649D01*
X143968200Y-80419649D02*
X144015819Y-80324411D01*
X143872961Y-80943458D02*
X143968200Y-80895839D01*
X143968200Y-80895839D02*
X144015819Y-80800601D01*
X144015819Y-80800601D02*
X144015819Y-80610125D01*
X144015819Y-80610125D02*
X143968200Y-80514887D01*
X143968200Y-80514887D02*
X143872961Y-80467268D01*
X143872961Y-80467268D02*
X143349152Y-80467268D01*
X143492009Y-79562506D02*
X143492009Y-79895839D01*
X144015819Y-79895839D02*
X143015819Y-79895839D01*
X143015819Y-79895839D02*
X143015819Y-79419649D01*
X145387588Y-26858145D02*
X145292350Y-26810526D01*
X145292350Y-26810526D02*
X145149493Y-26810526D01*
X145149493Y-26810526D02*
X145006636Y-26858145D01*
X145006636Y-26858145D02*
X144911398Y-26953383D01*
X144911398Y-26953383D02*
X144863779Y-27048621D01*
X144863779Y-27048621D02*
X144816160Y-27239097D01*
X144816160Y-27239097D02*
X144816160Y-27381954D01*
X144816160Y-27381954D02*
X144863779Y-27572430D01*
X144863779Y-27572430D02*
X144911398Y-27667668D01*
X144911398Y-27667668D02*
X145006636Y-27762907D01*
X145006636Y-27762907D02*
X145149493Y-27810526D01*
X145149493Y-27810526D02*
X145244731Y-27810526D01*
X145244731Y-27810526D02*
X145387588Y-27762907D01*
X145387588Y-27762907D02*
X145435207Y-27715287D01*
X145435207Y-27715287D02*
X145435207Y-27381954D01*
X145435207Y-27381954D02*
X145244731Y-27381954D01*
X145863779Y-27810526D02*
X145863779Y-26810526D01*
X145863779Y-26810526D02*
X146435207Y-27810526D01*
X146435207Y-27810526D02*
X146435207Y-26810526D01*
X146911398Y-27810526D02*
X146911398Y-26810526D01*
X146911398Y-26810526D02*
X147149493Y-26810526D01*
X147149493Y-26810526D02*
X147292350Y-26858145D01*
X147292350Y-26858145D02*
X147387588Y-26953383D01*
X147387588Y-26953383D02*
X147435207Y-27048621D01*
X147435207Y-27048621D02*
X147482826Y-27239097D01*
X147482826Y-27239097D02*
X147482826Y-27381954D01*
X147482826Y-27381954D02*
X147435207Y-27572430D01*
X147435207Y-27572430D02*
X147387588Y-27667668D01*
X147387588Y-27667668D02*
X147292350Y-27762907D01*
X147292350Y-27762907D02*
X147149493Y-27810526D01*
X147149493Y-27810526D02*
X146911398Y-27810526D01*
X113318453Y-77070764D02*
X113366072Y-77023145D01*
X113366072Y-77023145D02*
X113461310Y-76975526D01*
X113461310Y-76975526D02*
X113699405Y-76975526D01*
X113699405Y-76975526D02*
X113794643Y-77023145D01*
X113794643Y-77023145D02*
X113842262Y-77070764D01*
X113842262Y-77070764D02*
X113889881Y-77166002D01*
X113889881Y-77166002D02*
X113889881Y-77261240D01*
X113889881Y-77261240D02*
X113842262Y-77404097D01*
X113842262Y-77404097D02*
X113270834Y-77975526D01*
X113270834Y-77975526D02*
X113889881Y-77975526D01*
X114270834Y-77070764D02*
X114318453Y-77023145D01*
X114318453Y-77023145D02*
X114413691Y-76975526D01*
X114413691Y-76975526D02*
X114651786Y-76975526D01*
X114651786Y-76975526D02*
X114747024Y-77023145D01*
X114747024Y-77023145D02*
X114794643Y-77070764D01*
X114794643Y-77070764D02*
X114842262Y-77166002D01*
X114842262Y-77166002D02*
X114842262Y-77261240D01*
X114842262Y-77261240D02*
X114794643Y-77404097D01*
X114794643Y-77404097D02*
X114223215Y-77975526D01*
X114223215Y-77975526D02*
X114842262Y-77975526D01*
X115270834Y-77308859D02*
X115270834Y-78308859D01*
X115747024Y-77832668D02*
X115794643Y-77927907D01*
X115794643Y-77927907D02*
X115889881Y-77975526D01*
X115270834Y-77832668D02*
X115318453Y-77927907D01*
X115318453Y-77927907D02*
X115413691Y-77975526D01*
X115413691Y-77975526D02*
X115604167Y-77975526D01*
X115604167Y-77975526D02*
X115699405Y-77927907D01*
X115699405Y-77927907D02*
X115747024Y-77832668D01*
X115747024Y-77832668D02*
X115747024Y-77308859D01*
X116651786Y-77451716D02*
X116318453Y-77451716D01*
X116318453Y-77975526D02*
X116318453Y-76975526D01*
X116318453Y-76975526D02*
X116794643Y-76975526D01*
X146935112Y-59893737D02*
X146935112Y-60369927D01*
X146935112Y-60369927D02*
X145935112Y-60369927D01*
X146411302Y-59560403D02*
X146411302Y-59227070D01*
X146935112Y-59084213D02*
X146935112Y-59560403D01*
X146935112Y-59560403D02*
X145935112Y-59560403D01*
X145935112Y-59560403D02*
X145935112Y-59084213D01*
X146935112Y-58655641D02*
X145935112Y-58655641D01*
X145935112Y-58655641D02*
X145935112Y-58417546D01*
X145935112Y-58417546D02*
X145982731Y-58274689D01*
X145982731Y-58274689D02*
X146077969Y-58179451D01*
X146077969Y-58179451D02*
X146173207Y-58131832D01*
X146173207Y-58131832D02*
X146363683Y-58084213D01*
X146363683Y-58084213D02*
X146506540Y-58084213D01*
X146506540Y-58084213D02*
X146697016Y-58131832D01*
X146697016Y-58131832D02*
X146792254Y-58179451D01*
X146792254Y-58179451D02*
X146887493Y-58274689D01*
X146887493Y-58274689D02*
X146935112Y-58417546D01*
X146935112Y-58417546D02*
X146935112Y-58655641D01*
X104031283Y-82458819D02*
X103983664Y-82601676D01*
X103983664Y-82601676D02*
X103936045Y-82649295D01*
X103936045Y-82649295D02*
X103840807Y-82696914D01*
X103840807Y-82696914D02*
X103697950Y-82696914D01*
X103697950Y-82696914D02*
X103602712Y-82649295D01*
X103602712Y-82649295D02*
X103555093Y-82601676D01*
X103555093Y-82601676D02*
X103507473Y-82506438D01*
X103507473Y-82506438D02*
X103507473Y-82125486D01*
X103507473Y-82125486D02*
X104507473Y-82125486D01*
X104507473Y-82125486D02*
X104507473Y-82458819D01*
X104507473Y-82458819D02*
X104459854Y-82554057D01*
X104459854Y-82554057D02*
X104412235Y-82601676D01*
X104412235Y-82601676D02*
X104316997Y-82649295D01*
X104316997Y-82649295D02*
X104221759Y-82649295D01*
X104221759Y-82649295D02*
X104126521Y-82601676D01*
X104126521Y-82601676D02*
X104078902Y-82554057D01*
X104078902Y-82554057D02*
X104031283Y-82458819D01*
X104031283Y-82458819D02*
X104031283Y-82125486D01*
X103793188Y-83077867D02*
X103793188Y-83554057D01*
X103507473Y-82982629D02*
X104507473Y-83315962D01*
X104507473Y-83315962D02*
X103507473Y-83649295D01*
X104507473Y-83839772D02*
X104507473Y-84411200D01*
X103507473Y-84125486D02*
X104507473Y-84125486D01*
X104507473Y-84601677D02*
X104507473Y-85173105D01*
X103507473Y-84887391D02*
X104507473Y-84887391D01*
X103412235Y-85268344D02*
X103412235Y-86030248D01*
X103602712Y-86839772D02*
X103555093Y-86792153D01*
X103555093Y-86792153D02*
X103507473Y-86649296D01*
X103507473Y-86649296D02*
X103507473Y-86554058D01*
X103507473Y-86554058D02*
X103555093Y-86411201D01*
X103555093Y-86411201D02*
X103650331Y-86315963D01*
X103650331Y-86315963D02*
X103745569Y-86268344D01*
X103745569Y-86268344D02*
X103936045Y-86220725D01*
X103936045Y-86220725D02*
X104078902Y-86220725D01*
X104078902Y-86220725D02*
X104269378Y-86268344D01*
X104269378Y-86268344D02*
X104364616Y-86315963D01*
X104364616Y-86315963D02*
X104459854Y-86411201D01*
X104459854Y-86411201D02*
X104507473Y-86554058D01*
X104507473Y-86554058D02*
X104507473Y-86649296D01*
X104507473Y-86649296D02*
X104459854Y-86792153D01*
X104459854Y-86792153D02*
X104412235Y-86839772D01*
X103507473Y-87411201D02*
X103555093Y-87315963D01*
X103555093Y-87315963D02*
X103602712Y-87268344D01*
X103602712Y-87268344D02*
X103697950Y-87220725D01*
X103697950Y-87220725D02*
X103983664Y-87220725D01*
X103983664Y-87220725D02*
X104078902Y-87268344D01*
X104078902Y-87268344D02*
X104126521Y-87315963D01*
X104126521Y-87315963D02*
X104174140Y-87411201D01*
X104174140Y-87411201D02*
X104174140Y-87554058D01*
X104174140Y-87554058D02*
X104126521Y-87649296D01*
X104126521Y-87649296D02*
X104078902Y-87696915D01*
X104078902Y-87696915D02*
X103983664Y-87744534D01*
X103983664Y-87744534D02*
X103697950Y-87744534D01*
X103697950Y-87744534D02*
X103602712Y-87696915D01*
X103602712Y-87696915D02*
X103555093Y-87649296D01*
X103555093Y-87649296D02*
X103507473Y-87554058D01*
X103507473Y-87554058D02*
X103507473Y-87411201D01*
X104174140Y-88173106D02*
X103507473Y-88173106D01*
X104078902Y-88173106D02*
X104126521Y-88220725D01*
X104126521Y-88220725D02*
X104174140Y-88315963D01*
X104174140Y-88315963D02*
X104174140Y-88458820D01*
X104174140Y-88458820D02*
X104126521Y-88554058D01*
X104126521Y-88554058D02*
X104031283Y-88601677D01*
X104031283Y-88601677D02*
X103507473Y-88601677D01*
X104174140Y-89077868D02*
X103507473Y-89077868D01*
X104078902Y-89077868D02*
X104126521Y-89125487D01*
X104126521Y-89125487D02*
X104174140Y-89220725D01*
X104174140Y-89220725D02*
X104174140Y-89363582D01*
X104174140Y-89363582D02*
X104126521Y-89458820D01*
X104126521Y-89458820D02*
X104031283Y-89506439D01*
X104031283Y-89506439D02*
X103507473Y-89506439D01*
X145387588Y-70545438D02*
X145292350Y-70497819D01*
X145292350Y-70497819D02*
X145149493Y-70497819D01*
X145149493Y-70497819D02*
X145006636Y-70545438D01*
X145006636Y-70545438D02*
X144911398Y-70640676D01*
X144911398Y-70640676D02*
X144863779Y-70735914D01*
X144863779Y-70735914D02*
X144816160Y-70926390D01*
X144816160Y-70926390D02*
X144816160Y-71069247D01*
X144816160Y-71069247D02*
X144863779Y-71259723D01*
X144863779Y-71259723D02*
X144911398Y-71354961D01*
X144911398Y-71354961D02*
X145006636Y-71450200D01*
X145006636Y-71450200D02*
X145149493Y-71497819D01*
X145149493Y-71497819D02*
X145244731Y-71497819D01*
X145244731Y-71497819D02*
X145387588Y-71450200D01*
X145387588Y-71450200D02*
X145435207Y-71402580D01*
X145435207Y-71402580D02*
X145435207Y-71069247D01*
X145435207Y-71069247D02*
X145244731Y-71069247D01*
X145863779Y-71497819D02*
X145863779Y-70497819D01*
X145863779Y-70497819D02*
X146435207Y-71497819D01*
X146435207Y-71497819D02*
X146435207Y-70497819D01*
X146911398Y-71497819D02*
X146911398Y-70497819D01*
X146911398Y-70497819D02*
X147149493Y-70497819D01*
X147149493Y-70497819D02*
X147292350Y-70545438D01*
X147292350Y-70545438D02*
X147387588Y-70640676D01*
X147387588Y-70640676D02*
X147435207Y-70735914D01*
X147435207Y-70735914D02*
X147482826Y-70926390D01*
X147482826Y-70926390D02*
X147482826Y-71069247D01*
X147482826Y-71069247D02*
X147435207Y-71259723D01*
X147435207Y-71259723D02*
X147387588Y-71354961D01*
X147387588Y-71354961D02*
X147292350Y-71450200D01*
X147292350Y-71450200D02*
X147149493Y-71497819D01*
X147149493Y-71497819D02*
X146911398Y-71497819D01*
X75696180Y-30816779D02*
X76696180Y-30816779D01*
X76696180Y-30816779D02*
X76696180Y-31197731D01*
X76696180Y-31197731D02*
X76648561Y-31292969D01*
X76648561Y-31292969D02*
X76600942Y-31340588D01*
X76600942Y-31340588D02*
X76505704Y-31388207D01*
X76505704Y-31388207D02*
X76362847Y-31388207D01*
X76362847Y-31388207D02*
X76267609Y-31340588D01*
X76267609Y-31340588D02*
X76219990Y-31292969D01*
X76219990Y-31292969D02*
X76172371Y-31197731D01*
X76172371Y-31197731D02*
X76172371Y-30816779D01*
X75696180Y-31959636D02*
X75743800Y-31864398D01*
X75743800Y-31864398D02*
X75791419Y-31816779D01*
X75791419Y-31816779D02*
X75886657Y-31769160D01*
X75886657Y-31769160D02*
X76172371Y-31769160D01*
X76172371Y-31769160D02*
X76267609Y-31816779D01*
X76267609Y-31816779D02*
X76315228Y-31864398D01*
X76315228Y-31864398D02*
X76362847Y-31959636D01*
X76362847Y-31959636D02*
X76362847Y-32102493D01*
X76362847Y-32102493D02*
X76315228Y-32197731D01*
X76315228Y-32197731D02*
X76267609Y-32245350D01*
X76267609Y-32245350D02*
X76172371Y-32292969D01*
X76172371Y-32292969D02*
X75886657Y-32292969D01*
X75886657Y-32292969D02*
X75791419Y-32245350D01*
X75791419Y-32245350D02*
X75743800Y-32197731D01*
X75743800Y-32197731D02*
X75696180Y-32102493D01*
X75696180Y-32102493D02*
X75696180Y-31959636D01*
X76362847Y-32578684D02*
X76362847Y-32959636D01*
X76696180Y-32721541D02*
X75839038Y-32721541D01*
X75839038Y-32721541D02*
X75743800Y-32769160D01*
X75743800Y-32769160D02*
X75696180Y-32864398D01*
X75696180Y-32864398D02*
X75696180Y-32959636D01*
X75696180Y-33292970D02*
X76362847Y-33292970D01*
X76696180Y-33292970D02*
X76648561Y-33245351D01*
X76648561Y-33245351D02*
X76600942Y-33292970D01*
X76600942Y-33292970D02*
X76648561Y-33340589D01*
X76648561Y-33340589D02*
X76696180Y-33292970D01*
X76696180Y-33292970D02*
X76600942Y-33292970D01*
X85586180Y-49771541D02*
X85586180Y-50390588D01*
X85586180Y-50390588D02*
X85205228Y-50057255D01*
X85205228Y-50057255D02*
X85205228Y-50200112D01*
X85205228Y-50200112D02*
X85157609Y-50295350D01*
X85157609Y-50295350D02*
X85109990Y-50342969D01*
X85109990Y-50342969D02*
X85014752Y-50390588D01*
X85014752Y-50390588D02*
X84776657Y-50390588D01*
X84776657Y-50390588D02*
X84681419Y-50342969D01*
X84681419Y-50342969D02*
X84633800Y-50295350D01*
X84633800Y-50295350D02*
X84586180Y-50200112D01*
X84586180Y-50200112D02*
X84586180Y-49914398D01*
X84586180Y-49914398D02*
X84633800Y-49819160D01*
X84633800Y-49819160D02*
X84681419Y-49771541D01*
X85586180Y-50676303D02*
X84586180Y-51009636D01*
X84586180Y-51009636D02*
X85586180Y-51342969D01*
X85586180Y-51581065D02*
X85586180Y-52200112D01*
X85586180Y-52200112D02*
X85205228Y-51866779D01*
X85205228Y-51866779D02*
X85205228Y-52009636D01*
X85205228Y-52009636D02*
X85157609Y-52104874D01*
X85157609Y-52104874D02*
X85109990Y-52152493D01*
X85109990Y-52152493D02*
X85014752Y-52200112D01*
X85014752Y-52200112D02*
X84776657Y-52200112D01*
X84776657Y-52200112D02*
X84681419Y-52152493D01*
X84681419Y-52152493D02*
X84633800Y-52104874D01*
X84633800Y-52104874D02*
X84586180Y-52009636D01*
X84586180Y-52009636D02*
X84586180Y-51723922D01*
X84586180Y-51723922D02*
X84633800Y-51628684D01*
X84633800Y-51628684D02*
X84681419Y-51581065D01*
X88358152Y-36318649D02*
X89024819Y-36318649D01*
X87977200Y-36556744D02*
X88691485Y-36794839D01*
X88691485Y-36794839D02*
X88691485Y-36175792D01*
X88024819Y-35890077D02*
X88024819Y-35223411D01*
X88024819Y-35223411D02*
X89024819Y-35651982D01*
X89024819Y-34842458D02*
X88024819Y-34842458D01*
X88643866Y-34747220D02*
X89024819Y-34461506D01*
X88358152Y-34461506D02*
X88739104Y-34842458D01*
X120686160Y-53829057D02*
X120733779Y-53781438D01*
X120733779Y-53781438D02*
X120829017Y-53733819D01*
X120829017Y-53733819D02*
X121067112Y-53733819D01*
X121067112Y-53733819D02*
X121162350Y-53781438D01*
X121162350Y-53781438D02*
X121209969Y-53829057D01*
X121209969Y-53829057D02*
X121257588Y-53924295D01*
X121257588Y-53924295D02*
X121257588Y-54019533D01*
X121257588Y-54019533D02*
X121209969Y-54162390D01*
X121209969Y-54162390D02*
X120638541Y-54733819D01*
X120638541Y-54733819D02*
X121257588Y-54733819D01*
X121638541Y-53829057D02*
X121686160Y-53781438D01*
X121686160Y-53781438D02*
X121781398Y-53733819D01*
X121781398Y-53733819D02*
X122019493Y-53733819D01*
X122019493Y-53733819D02*
X122114731Y-53781438D01*
X122114731Y-53781438D02*
X122162350Y-53829057D01*
X122162350Y-53829057D02*
X122209969Y-53924295D01*
X122209969Y-53924295D02*
X122209969Y-54019533D01*
X122209969Y-54019533D02*
X122162350Y-54162390D01*
X122162350Y-54162390D02*
X121590922Y-54733819D01*
X121590922Y-54733819D02*
X122209969Y-54733819D01*
X122829017Y-53733819D02*
X122924255Y-53733819D01*
X122924255Y-53733819D02*
X123019493Y-53781438D01*
X123019493Y-53781438D02*
X123067112Y-53829057D01*
X123067112Y-53829057D02*
X123114731Y-53924295D01*
X123114731Y-53924295D02*
X123162350Y-54114771D01*
X123162350Y-54114771D02*
X123162350Y-54352866D01*
X123162350Y-54352866D02*
X123114731Y-54543342D01*
X123114731Y-54543342D02*
X123067112Y-54638580D01*
X123067112Y-54638580D02*
X123019493Y-54686200D01*
X123019493Y-54686200D02*
X122924255Y-54733819D01*
X122924255Y-54733819D02*
X122829017Y-54733819D01*
X122829017Y-54733819D02*
X122733779Y-54686200D01*
X122733779Y-54686200D02*
X122686160Y-54638580D01*
X122686160Y-54638580D02*
X122638541Y-54543342D01*
X122638541Y-54543342D02*
X122590922Y-54352866D01*
X122590922Y-54352866D02*
X122590922Y-54114771D01*
X122590922Y-54114771D02*
X122638541Y-53924295D01*
X122638541Y-53924295D02*
X122686160Y-53829057D01*
X122686160Y-53829057D02*
X122733779Y-53781438D01*
X122733779Y-53781438D02*
X122829017Y-53733819D01*
X85538561Y-34515588D02*
X85586180Y-34420350D01*
X85586180Y-34420350D02*
X85586180Y-34277493D01*
X85586180Y-34277493D02*
X85538561Y-34134636D01*
X85538561Y-34134636D02*
X85443323Y-34039398D01*
X85443323Y-34039398D02*
X85348085Y-33991779D01*
X85348085Y-33991779D02*
X85157609Y-33944160D01*
X85157609Y-33944160D02*
X85014752Y-33944160D01*
X85014752Y-33944160D02*
X84824276Y-33991779D01*
X84824276Y-33991779D02*
X84729038Y-34039398D01*
X84729038Y-34039398D02*
X84633800Y-34134636D01*
X84633800Y-34134636D02*
X84586180Y-34277493D01*
X84586180Y-34277493D02*
X84586180Y-34372731D01*
X84586180Y-34372731D02*
X84633800Y-34515588D01*
X84633800Y-34515588D02*
X84681419Y-34563207D01*
X84681419Y-34563207D02*
X85014752Y-34563207D01*
X85014752Y-34563207D02*
X85014752Y-34372731D01*
X84586180Y-34991779D02*
X85586180Y-34991779D01*
X85586180Y-34991779D02*
X84586180Y-35563207D01*
X84586180Y-35563207D02*
X85586180Y-35563207D01*
X84586180Y-36039398D02*
X85586180Y-36039398D01*
X85586180Y-36039398D02*
X85586180Y-36277493D01*
X85586180Y-36277493D02*
X85538561Y-36420350D01*
X85538561Y-36420350D02*
X85443323Y-36515588D01*
X85443323Y-36515588D02*
X85348085Y-36563207D01*
X85348085Y-36563207D02*
X85157609Y-36610826D01*
X85157609Y-36610826D02*
X85014752Y-36610826D01*
X85014752Y-36610826D02*
X84824276Y-36563207D01*
X84824276Y-36563207D02*
X84729038Y-36515588D01*
X84729038Y-36515588D02*
X84633800Y-36420350D01*
X84633800Y-36420350D02*
X84586180Y-36277493D01*
X84586180Y-36277493D02*
X84586180Y-36039398D01*
X75743800Y-77251160D02*
X75696180Y-77394017D01*
X75696180Y-77394017D02*
X75696180Y-77632112D01*
X75696180Y-77632112D02*
X75743800Y-77727350D01*
X75743800Y-77727350D02*
X75791419Y-77774969D01*
X75791419Y-77774969D02*
X75886657Y-77822588D01*
X75886657Y-77822588D02*
X75981895Y-77822588D01*
X75981895Y-77822588D02*
X76077133Y-77774969D01*
X76077133Y-77774969D02*
X76124752Y-77727350D01*
X76124752Y-77727350D02*
X76172371Y-77632112D01*
X76172371Y-77632112D02*
X76219990Y-77441636D01*
X76219990Y-77441636D02*
X76267609Y-77346398D01*
X76267609Y-77346398D02*
X76315228Y-77298779D01*
X76315228Y-77298779D02*
X76410466Y-77251160D01*
X76410466Y-77251160D02*
X76505704Y-77251160D01*
X76505704Y-77251160D02*
X76600942Y-77298779D01*
X76600942Y-77298779D02*
X76648561Y-77346398D01*
X76648561Y-77346398D02*
X76696180Y-77441636D01*
X76696180Y-77441636D02*
X76696180Y-77679731D01*
X76696180Y-77679731D02*
X76648561Y-77822588D01*
X76696180Y-78155922D02*
X75696180Y-78394017D01*
X75696180Y-78394017D02*
X76410466Y-78584493D01*
X76410466Y-78584493D02*
X75696180Y-78774969D01*
X75696180Y-78774969D02*
X76696180Y-79013065D01*
X75600942Y-79155922D02*
X75600942Y-79917826D01*
X75696180Y-80632112D02*
X75696180Y-80155922D01*
X75696180Y-80155922D02*
X76696180Y-80155922D01*
X145387588Y-75879438D02*
X145292350Y-75831819D01*
X145292350Y-75831819D02*
X145149493Y-75831819D01*
X145149493Y-75831819D02*
X145006636Y-75879438D01*
X145006636Y-75879438D02*
X144911398Y-75974676D01*
X144911398Y-75974676D02*
X144863779Y-76069914D01*
X144863779Y-76069914D02*
X144816160Y-76260390D01*
X144816160Y-76260390D02*
X144816160Y-76403247D01*
X144816160Y-76403247D02*
X144863779Y-76593723D01*
X144863779Y-76593723D02*
X144911398Y-76688961D01*
X144911398Y-76688961D02*
X145006636Y-76784200D01*
X145006636Y-76784200D02*
X145149493Y-76831819D01*
X145149493Y-76831819D02*
X145244731Y-76831819D01*
X145244731Y-76831819D02*
X145387588Y-76784200D01*
X145387588Y-76784200D02*
X145435207Y-76736580D01*
X145435207Y-76736580D02*
X145435207Y-76403247D01*
X145435207Y-76403247D02*
X145244731Y-76403247D01*
X145863779Y-76831819D02*
X145863779Y-75831819D01*
X145863779Y-75831819D02*
X146435207Y-76831819D01*
X146435207Y-76831819D02*
X146435207Y-75831819D01*
X146911398Y-76831819D02*
X146911398Y-75831819D01*
X146911398Y-75831819D02*
X147149493Y-75831819D01*
X147149493Y-75831819D02*
X147292350Y-75879438D01*
X147292350Y-75879438D02*
X147387588Y-75974676D01*
X147387588Y-75974676D02*
X147435207Y-76069914D01*
X147435207Y-76069914D02*
X147482826Y-76260390D01*
X147482826Y-76260390D02*
X147482826Y-76403247D01*
X147482826Y-76403247D02*
X147435207Y-76593723D01*
X147435207Y-76593723D02*
X147387588Y-76688961D01*
X147387588Y-76688961D02*
X147292350Y-76784200D01*
X147292350Y-76784200D02*
X147149493Y-76831819D01*
X147149493Y-76831819D02*
X146911398Y-76831819D01*
X75696180Y-66344969D02*
X75696180Y-65868779D01*
X75696180Y-65868779D02*
X76696180Y-65868779D01*
X75791419Y-67249731D02*
X75743800Y-67202112D01*
X75743800Y-67202112D02*
X75696180Y-67059255D01*
X75696180Y-67059255D02*
X75696180Y-66964017D01*
X75696180Y-66964017D02*
X75743800Y-66821160D01*
X75743800Y-66821160D02*
X75839038Y-66725922D01*
X75839038Y-66725922D02*
X75934276Y-66678303D01*
X75934276Y-66678303D02*
X76124752Y-66630684D01*
X76124752Y-66630684D02*
X76267609Y-66630684D01*
X76267609Y-66630684D02*
X76458085Y-66678303D01*
X76458085Y-66678303D02*
X76553323Y-66725922D01*
X76553323Y-66725922D02*
X76648561Y-66821160D01*
X76648561Y-66821160D02*
X76696180Y-66964017D01*
X76696180Y-66964017D02*
X76696180Y-67059255D01*
X76696180Y-67059255D02*
X76648561Y-67202112D01*
X76648561Y-67202112D02*
X76600942Y-67249731D01*
X75696180Y-67678303D02*
X76696180Y-67678303D01*
X76696180Y-67678303D02*
X76696180Y-67916398D01*
X76696180Y-67916398D02*
X76648561Y-68059255D01*
X76648561Y-68059255D02*
X76553323Y-68154493D01*
X76553323Y-68154493D02*
X76458085Y-68202112D01*
X76458085Y-68202112D02*
X76267609Y-68249731D01*
X76267609Y-68249731D02*
X76124752Y-68249731D01*
X76124752Y-68249731D02*
X75934276Y-68202112D01*
X75934276Y-68202112D02*
X75839038Y-68154493D01*
X75839038Y-68154493D02*
X75743800Y-68059255D01*
X75743800Y-68059255D02*
X75696180Y-67916398D01*
X75696180Y-67916398D02*
X75696180Y-67678303D01*
X110526160Y-53829057D02*
X110573779Y-53781438D01*
X110573779Y-53781438D02*
X110669017Y-53733819D01*
X110669017Y-53733819D02*
X110907112Y-53733819D01*
X110907112Y-53733819D02*
X111002350Y-53781438D01*
X111002350Y-53781438D02*
X111049969Y-53829057D01*
X111049969Y-53829057D02*
X111097588Y-53924295D01*
X111097588Y-53924295D02*
X111097588Y-54019533D01*
X111097588Y-54019533D02*
X111049969Y-54162390D01*
X111049969Y-54162390D02*
X110478541Y-54733819D01*
X110478541Y-54733819D02*
X111097588Y-54733819D01*
X111478541Y-53829057D02*
X111526160Y-53781438D01*
X111526160Y-53781438D02*
X111621398Y-53733819D01*
X111621398Y-53733819D02*
X111859493Y-53733819D01*
X111859493Y-53733819D02*
X111954731Y-53781438D01*
X111954731Y-53781438D02*
X112002350Y-53829057D01*
X112002350Y-53829057D02*
X112049969Y-53924295D01*
X112049969Y-53924295D02*
X112049969Y-54019533D01*
X112049969Y-54019533D02*
X112002350Y-54162390D01*
X112002350Y-54162390D02*
X111430922Y-54733819D01*
X111430922Y-54733819D02*
X112049969Y-54733819D01*
X112669017Y-53733819D02*
X112764255Y-53733819D01*
X112764255Y-53733819D02*
X112859493Y-53781438D01*
X112859493Y-53781438D02*
X112907112Y-53829057D01*
X112907112Y-53829057D02*
X112954731Y-53924295D01*
X112954731Y-53924295D02*
X113002350Y-54114771D01*
X113002350Y-54114771D02*
X113002350Y-54352866D01*
X113002350Y-54352866D02*
X112954731Y-54543342D01*
X112954731Y-54543342D02*
X112907112Y-54638580D01*
X112907112Y-54638580D02*
X112859493Y-54686200D01*
X112859493Y-54686200D02*
X112764255Y-54733819D01*
X112764255Y-54733819D02*
X112669017Y-54733819D01*
X112669017Y-54733819D02*
X112573779Y-54686200D01*
X112573779Y-54686200D02*
X112526160Y-54638580D01*
X112526160Y-54638580D02*
X112478541Y-54543342D01*
X112478541Y-54543342D02*
X112430922Y-54352866D01*
X112430922Y-54352866D02*
X112430922Y-54114771D01*
X112430922Y-54114771D02*
X112478541Y-53924295D01*
X112478541Y-53924295D02*
X112526160Y-53829057D01*
X112526160Y-53829057D02*
X112573779Y-53781438D01*
X112573779Y-53781438D02*
X112669017Y-53733819D01*
X85721112Y-88563927D02*
X84721112Y-88563927D01*
X84721112Y-88563927D02*
X84721112Y-88182975D01*
X84721112Y-88182975D02*
X84768731Y-88087737D01*
X84768731Y-88087737D02*
X84816350Y-88040118D01*
X84816350Y-88040118D02*
X84911588Y-87992499D01*
X84911588Y-87992499D02*
X85054445Y-87992499D01*
X85054445Y-87992499D02*
X85149683Y-88040118D01*
X85149683Y-88040118D02*
X85197302Y-88087737D01*
X85197302Y-88087737D02*
X85244921Y-88182975D01*
X85244921Y-88182975D02*
X85244921Y-88563927D01*
X84721112Y-87659165D02*
X85721112Y-87421070D01*
X85721112Y-87421070D02*
X85006826Y-87230594D01*
X85006826Y-87230594D02*
X85721112Y-87040118D01*
X85721112Y-87040118D02*
X84721112Y-86802023D01*
X85721112Y-85849642D02*
X85244921Y-86182975D01*
X85721112Y-86421070D02*
X84721112Y-86421070D01*
X84721112Y-86421070D02*
X84721112Y-86040118D01*
X84721112Y-86040118D02*
X84768731Y-85944880D01*
X84768731Y-85944880D02*
X84816350Y-85897261D01*
X84816350Y-85897261D02*
X84911588Y-85849642D01*
X84911588Y-85849642D02*
X85054445Y-85849642D01*
X85054445Y-85849642D02*
X85149683Y-85897261D01*
X85149683Y-85897261D02*
X85197302Y-85944880D01*
X85197302Y-85944880D02*
X85244921Y-86040118D01*
X85244921Y-86040118D02*
X85244921Y-86421070D01*
X85816350Y-85659166D02*
X85816350Y-84897261D01*
X85673493Y-84706784D02*
X85721112Y-84563927D01*
X85721112Y-84563927D02*
X85721112Y-84325832D01*
X85721112Y-84325832D02*
X85673493Y-84230594D01*
X85673493Y-84230594D02*
X85625873Y-84182975D01*
X85625873Y-84182975D02*
X85530635Y-84135356D01*
X85530635Y-84135356D02*
X85435397Y-84135356D01*
X85435397Y-84135356D02*
X85340159Y-84182975D01*
X85340159Y-84182975D02*
X85292540Y-84230594D01*
X85292540Y-84230594D02*
X85244921Y-84325832D01*
X85244921Y-84325832D02*
X85197302Y-84516308D01*
X85197302Y-84516308D02*
X85149683Y-84611546D01*
X85149683Y-84611546D02*
X85102064Y-84659165D01*
X85102064Y-84659165D02*
X85006826Y-84706784D01*
X85006826Y-84706784D02*
X84911588Y-84706784D01*
X84911588Y-84706784D02*
X84816350Y-84659165D01*
X84816350Y-84659165D02*
X84768731Y-84611546D01*
X84768731Y-84611546D02*
X84721112Y-84516308D01*
X84721112Y-84516308D02*
X84721112Y-84278213D01*
X84721112Y-84278213D02*
X84768731Y-84135356D01*
X84721112Y-83802022D02*
X85721112Y-83563927D01*
X85721112Y-83563927D02*
X85006826Y-83373451D01*
X85006826Y-83373451D02*
X85721112Y-83182975D01*
X85721112Y-83182975D02*
X84721112Y-82944880D01*
X115606160Y-53829057D02*
X115653779Y-53781438D01*
X115653779Y-53781438D02*
X115749017Y-53733819D01*
X115749017Y-53733819D02*
X115987112Y-53733819D01*
X115987112Y-53733819D02*
X116082350Y-53781438D01*
X116082350Y-53781438D02*
X116129969Y-53829057D01*
X116129969Y-53829057D02*
X116177588Y-53924295D01*
X116177588Y-53924295D02*
X116177588Y-54019533D01*
X116177588Y-54019533D02*
X116129969Y-54162390D01*
X116129969Y-54162390D02*
X115558541Y-54733819D01*
X115558541Y-54733819D02*
X116177588Y-54733819D01*
X116558541Y-53829057D02*
X116606160Y-53781438D01*
X116606160Y-53781438D02*
X116701398Y-53733819D01*
X116701398Y-53733819D02*
X116939493Y-53733819D01*
X116939493Y-53733819D02*
X117034731Y-53781438D01*
X117034731Y-53781438D02*
X117082350Y-53829057D01*
X117082350Y-53829057D02*
X117129969Y-53924295D01*
X117129969Y-53924295D02*
X117129969Y-54019533D01*
X117129969Y-54019533D02*
X117082350Y-54162390D01*
X117082350Y-54162390D02*
X116510922Y-54733819D01*
X116510922Y-54733819D02*
X117129969Y-54733819D01*
X117749017Y-53733819D02*
X117844255Y-53733819D01*
X117844255Y-53733819D02*
X117939493Y-53781438D01*
X117939493Y-53781438D02*
X117987112Y-53829057D01*
X117987112Y-53829057D02*
X118034731Y-53924295D01*
X118034731Y-53924295D02*
X118082350Y-54114771D01*
X118082350Y-54114771D02*
X118082350Y-54352866D01*
X118082350Y-54352866D02*
X118034731Y-54543342D01*
X118034731Y-54543342D02*
X117987112Y-54638580D01*
X117987112Y-54638580D02*
X117939493Y-54686200D01*
X117939493Y-54686200D02*
X117844255Y-54733819D01*
X117844255Y-54733819D02*
X117749017Y-54733819D01*
X117749017Y-54733819D02*
X117653779Y-54686200D01*
X117653779Y-54686200D02*
X117606160Y-54638580D01*
X117606160Y-54638580D02*
X117558541Y-54543342D01*
X117558541Y-54543342D02*
X117510922Y-54352866D01*
X117510922Y-54352866D02*
X117510922Y-54114771D01*
X117510922Y-54114771D02*
X117558541Y-53924295D01*
X117558541Y-53924295D02*
X117606160Y-53829057D01*
X117606160Y-53829057D02*
X117653779Y-53781438D01*
X117653779Y-53781438D02*
X117749017Y-53733819D01*
X97787866Y-81578927D02*
X97787866Y-80817023D01*
X98168819Y-81197975D02*
X97406914Y-81197975D01*
X97645009Y-80007499D02*
X97692628Y-79864642D01*
X97692628Y-79864642D02*
X97740247Y-79817023D01*
X97740247Y-79817023D02*
X97835485Y-79769404D01*
X97835485Y-79769404D02*
X97978342Y-79769404D01*
X97978342Y-79769404D02*
X98073580Y-79817023D01*
X98073580Y-79817023D02*
X98121200Y-79864642D01*
X98121200Y-79864642D02*
X98168819Y-79959880D01*
X98168819Y-79959880D02*
X98168819Y-80340832D01*
X98168819Y-80340832D02*
X97168819Y-80340832D01*
X97168819Y-80340832D02*
X97168819Y-80007499D01*
X97168819Y-80007499D02*
X97216438Y-79912261D01*
X97216438Y-79912261D02*
X97264057Y-79864642D01*
X97264057Y-79864642D02*
X97359295Y-79817023D01*
X97359295Y-79817023D02*
X97454533Y-79817023D01*
X97454533Y-79817023D02*
X97549771Y-79864642D01*
X97549771Y-79864642D02*
X97597390Y-79912261D01*
X97597390Y-79912261D02*
X97645009Y-80007499D01*
X97645009Y-80007499D02*
X97645009Y-80340832D01*
X97883104Y-79388451D02*
X97883104Y-78912261D01*
X98168819Y-79483689D02*
X97168819Y-79150356D01*
X97168819Y-79150356D02*
X98168819Y-78817023D01*
X97168819Y-78626546D02*
X97168819Y-78055118D01*
X98168819Y-78340832D02*
X97168819Y-78340832D01*
X97168819Y-77864641D02*
X97168819Y-77293213D01*
X98168819Y-77578927D02*
X97168819Y-77578927D01*
X155555302Y-34635887D02*
X155602921Y-34493030D01*
X155602921Y-34493030D02*
X155650540Y-34445411D01*
X155650540Y-34445411D02*
X155745778Y-34397792D01*
X155745778Y-34397792D02*
X155888635Y-34397792D01*
X155888635Y-34397792D02*
X155983873Y-34445411D01*
X155983873Y-34445411D02*
X156031493Y-34493030D01*
X156031493Y-34493030D02*
X156079112Y-34588268D01*
X156079112Y-34588268D02*
X156079112Y-34969220D01*
X156079112Y-34969220D02*
X155079112Y-34969220D01*
X155079112Y-34969220D02*
X155079112Y-34635887D01*
X155079112Y-34635887D02*
X155126731Y-34540649D01*
X155126731Y-34540649D02*
X155174350Y-34493030D01*
X155174350Y-34493030D02*
X155269588Y-34445411D01*
X155269588Y-34445411D02*
X155364826Y-34445411D01*
X155364826Y-34445411D02*
X155460064Y-34493030D01*
X155460064Y-34493030D02*
X155507683Y-34540649D01*
X155507683Y-34540649D02*
X155555302Y-34635887D01*
X155555302Y-34635887D02*
X155555302Y-34969220D01*
X155079112Y-34112077D02*
X155079112Y-33540649D01*
X156079112Y-33826363D02*
X155079112Y-33826363D01*
X156174350Y-33445411D02*
X156174350Y-32683506D01*
X155079112Y-32445410D02*
X155888635Y-32445410D01*
X155888635Y-32445410D02*
X155983873Y-32397791D01*
X155983873Y-32397791D02*
X156031493Y-32350172D01*
X156031493Y-32350172D02*
X156079112Y-32254934D01*
X156079112Y-32254934D02*
X156079112Y-32064458D01*
X156079112Y-32064458D02*
X156031493Y-31969220D01*
X156031493Y-31969220D02*
X155983873Y-31921601D01*
X155983873Y-31921601D02*
X155888635Y-31873982D01*
X155888635Y-31873982D02*
X155079112Y-31873982D01*
X156079112Y-30826363D02*
X155602921Y-31159696D01*
X156079112Y-31397791D02*
X155079112Y-31397791D01*
X155079112Y-31397791D02*
X155079112Y-31016839D01*
X155079112Y-31016839D02*
X155126731Y-30921601D01*
X155126731Y-30921601D02*
X155174350Y-30873982D01*
X155174350Y-30873982D02*
X155269588Y-30826363D01*
X155269588Y-30826363D02*
X155412445Y-30826363D01*
X155412445Y-30826363D02*
X155507683Y-30873982D01*
X155507683Y-30873982D02*
X155555302Y-30921601D01*
X155555302Y-30921601D02*
X155602921Y-31016839D01*
X155602921Y-31016839D02*
X155602921Y-31397791D01*
X156031493Y-87975839D02*
X156079112Y-87832982D01*
X156079112Y-87832982D02*
X156079112Y-87594887D01*
X156079112Y-87594887D02*
X156031493Y-87499649D01*
X156031493Y-87499649D02*
X155983873Y-87452030D01*
X155983873Y-87452030D02*
X155888635Y-87404411D01*
X155888635Y-87404411D02*
X155793397Y-87404411D01*
X155793397Y-87404411D02*
X155698159Y-87452030D01*
X155698159Y-87452030D02*
X155650540Y-87499649D01*
X155650540Y-87499649D02*
X155602921Y-87594887D01*
X155602921Y-87594887D02*
X155555302Y-87785363D01*
X155555302Y-87785363D02*
X155507683Y-87880601D01*
X155507683Y-87880601D02*
X155460064Y-87928220D01*
X155460064Y-87928220D02*
X155364826Y-87975839D01*
X155364826Y-87975839D02*
X155269588Y-87975839D01*
X155269588Y-87975839D02*
X155174350Y-87928220D01*
X155174350Y-87928220D02*
X155126731Y-87880601D01*
X155126731Y-87880601D02*
X155079112Y-87785363D01*
X155079112Y-87785363D02*
X155079112Y-87547268D01*
X155079112Y-87547268D02*
X155126731Y-87404411D01*
X155079112Y-87071077D02*
X156079112Y-86832982D01*
X156079112Y-86832982D02*
X155364826Y-86642506D01*
X155364826Y-86642506D02*
X156079112Y-86452030D01*
X156079112Y-86452030D02*
X155079112Y-86213935D01*
X156174350Y-86071078D02*
X156174350Y-85309173D01*
X156079112Y-84499649D02*
X155602921Y-84832982D01*
X156079112Y-85071077D02*
X155079112Y-85071077D01*
X155079112Y-85071077D02*
X155079112Y-84690125D01*
X155079112Y-84690125D02*
X155126731Y-84594887D01*
X155126731Y-84594887D02*
X155174350Y-84547268D01*
X155174350Y-84547268D02*
X155269588Y-84499649D01*
X155269588Y-84499649D02*
X155412445Y-84499649D01*
X155412445Y-84499649D02*
X155507683Y-84547268D01*
X155507683Y-84547268D02*
X155555302Y-84594887D01*
X155555302Y-84594887D02*
X155602921Y-84690125D01*
X155602921Y-84690125D02*
X155602921Y-85071077D01*
X146213112Y-78848009D02*
X146355969Y-78895628D01*
X146355969Y-78895628D02*
X146403588Y-78943247D01*
X146403588Y-78943247D02*
X146451207Y-79038485D01*
X146451207Y-79038485D02*
X146451207Y-79181342D01*
X146451207Y-79181342D02*
X146403588Y-79276580D01*
X146403588Y-79276580D02*
X146355969Y-79324200D01*
X146355969Y-79324200D02*
X146260731Y-79371819D01*
X146260731Y-79371819D02*
X145879779Y-79371819D01*
X145879779Y-79371819D02*
X145879779Y-78371819D01*
X145879779Y-78371819D02*
X146213112Y-78371819D01*
X146213112Y-78371819D02*
X146308350Y-78419438D01*
X146308350Y-78419438D02*
X146355969Y-78467057D01*
X146355969Y-78467057D02*
X146403588Y-78562295D01*
X146403588Y-78562295D02*
X146403588Y-78657533D01*
X146403588Y-78657533D02*
X146355969Y-78752771D01*
X146355969Y-78752771D02*
X146308350Y-78800390D01*
X146308350Y-78800390D02*
X146213112Y-78848009D01*
X146213112Y-78848009D02*
X145879779Y-78848009D01*
X146736922Y-78371819D02*
X147308350Y-78371819D01*
X147022636Y-79371819D02*
X147022636Y-78371819D01*
X76696180Y-53708493D02*
X75981895Y-53708493D01*
X75981895Y-53708493D02*
X75839038Y-53660874D01*
X75839038Y-53660874D02*
X75743800Y-53565636D01*
X75743800Y-53565636D02*
X75696180Y-53422779D01*
X75696180Y-53422779D02*
X75696180Y-53327541D01*
X75696180Y-54327541D02*
X75743800Y-54232303D01*
X75743800Y-54232303D02*
X75791419Y-54184684D01*
X75791419Y-54184684D02*
X75886657Y-54137065D01*
X75886657Y-54137065D02*
X76172371Y-54137065D01*
X76172371Y-54137065D02*
X76267609Y-54184684D01*
X76267609Y-54184684D02*
X76315228Y-54232303D01*
X76315228Y-54232303D02*
X76362847Y-54327541D01*
X76362847Y-54327541D02*
X76362847Y-54470398D01*
X76362847Y-54470398D02*
X76315228Y-54565636D01*
X76315228Y-54565636D02*
X76267609Y-54613255D01*
X76267609Y-54613255D02*
X76172371Y-54660874D01*
X76172371Y-54660874D02*
X75886657Y-54660874D01*
X75886657Y-54660874D02*
X75791419Y-54613255D01*
X75791419Y-54613255D02*
X75743800Y-54565636D01*
X75743800Y-54565636D02*
X75696180Y-54470398D01*
X75696180Y-54470398D02*
X75696180Y-54327541D01*
X76362847Y-54994208D02*
X75696180Y-55232303D01*
X76362847Y-55470398D02*
X75696180Y-55232303D01*
X75696180Y-55232303D02*
X75458085Y-55137065D01*
X75458085Y-55137065D02*
X75410466Y-55089446D01*
X75410466Y-55089446D02*
X75362847Y-54994208D01*
X75696180Y-56422779D02*
X76172371Y-56089446D01*
X75696180Y-55851351D02*
X76696180Y-55851351D01*
X76696180Y-55851351D02*
X76696180Y-56232303D01*
X76696180Y-56232303D02*
X76648561Y-56327541D01*
X76648561Y-56327541D02*
X76600942Y-56375160D01*
X76600942Y-56375160D02*
X76505704Y-56422779D01*
X76505704Y-56422779D02*
X76362847Y-56422779D01*
X76362847Y-56422779D02*
X76267609Y-56375160D01*
X76267609Y-56375160D02*
X76219990Y-56327541D01*
X76219990Y-56327541D02*
X76172371Y-56232303D01*
X76172371Y-56232303D02*
X76172371Y-55851351D01*
X145387588Y-47939438D02*
X145292350Y-47891819D01*
X145292350Y-47891819D02*
X145149493Y-47891819D01*
X145149493Y-47891819D02*
X145006636Y-47939438D01*
X145006636Y-47939438D02*
X144911398Y-48034676D01*
X144911398Y-48034676D02*
X144863779Y-48129914D01*
X144863779Y-48129914D02*
X144816160Y-48320390D01*
X144816160Y-48320390D02*
X144816160Y-48463247D01*
X144816160Y-48463247D02*
X144863779Y-48653723D01*
X144863779Y-48653723D02*
X144911398Y-48748961D01*
X144911398Y-48748961D02*
X145006636Y-48844200D01*
X145006636Y-48844200D02*
X145149493Y-48891819D01*
X145149493Y-48891819D02*
X145244731Y-48891819D01*
X145244731Y-48891819D02*
X145387588Y-48844200D01*
X145387588Y-48844200D02*
X145435207Y-48796580D01*
X145435207Y-48796580D02*
X145435207Y-48463247D01*
X145435207Y-48463247D02*
X145244731Y-48463247D01*
X145863779Y-48891819D02*
X145863779Y-47891819D01*
X145863779Y-47891819D02*
X146435207Y-48891819D01*
X146435207Y-48891819D02*
X146435207Y-47891819D01*
X146911398Y-48891819D02*
X146911398Y-47891819D01*
X146911398Y-47891819D02*
X147149493Y-47891819D01*
X147149493Y-47891819D02*
X147292350Y-47939438D01*
X147292350Y-47939438D02*
X147387588Y-48034676D01*
X147387588Y-48034676D02*
X147435207Y-48129914D01*
X147435207Y-48129914D02*
X147482826Y-48320390D01*
X147482826Y-48320390D02*
X147482826Y-48463247D01*
X147482826Y-48463247D02*
X147435207Y-48653723D01*
X147435207Y-48653723D02*
X147387588Y-48748961D01*
X147387588Y-48748961D02*
X147292350Y-48844200D01*
X147292350Y-48844200D02*
X147149493Y-48891819D01*
X147149493Y-48891819D02*
X146911398Y-48891819D01*
X84364160Y-68910200D02*
X84507017Y-68957819D01*
X84507017Y-68957819D02*
X84745112Y-68957819D01*
X84745112Y-68957819D02*
X84840350Y-68910200D01*
X84840350Y-68910200D02*
X84887969Y-68862580D01*
X84887969Y-68862580D02*
X84935588Y-68767342D01*
X84935588Y-68767342D02*
X84935588Y-68672104D01*
X84935588Y-68672104D02*
X84887969Y-68576866D01*
X84887969Y-68576866D02*
X84840350Y-68529247D01*
X84840350Y-68529247D02*
X84745112Y-68481628D01*
X84745112Y-68481628D02*
X84554636Y-68434009D01*
X84554636Y-68434009D02*
X84459398Y-68386390D01*
X84459398Y-68386390D02*
X84411779Y-68338771D01*
X84411779Y-68338771D02*
X84364160Y-68243533D01*
X84364160Y-68243533D02*
X84364160Y-68148295D01*
X84364160Y-68148295D02*
X84411779Y-68053057D01*
X84411779Y-68053057D02*
X84459398Y-68005438D01*
X84459398Y-68005438D02*
X84554636Y-67957819D01*
X84554636Y-67957819D02*
X84792731Y-67957819D01*
X84792731Y-67957819D02*
X84935588Y-68005438D01*
X85364160Y-68957819D02*
X85364160Y-67957819D01*
X85364160Y-67957819D02*
X85602255Y-67957819D01*
X85602255Y-67957819D02*
X85745112Y-68005438D01*
X85745112Y-68005438D02*
X85840350Y-68100676D01*
X85840350Y-68100676D02*
X85887969Y-68195914D01*
X85887969Y-68195914D02*
X85935588Y-68386390D01*
X85935588Y-68386390D02*
X85935588Y-68529247D01*
X85935588Y-68529247D02*
X85887969Y-68719723D01*
X85887969Y-68719723D02*
X85840350Y-68814961D01*
X85840350Y-68814961D02*
X85745112Y-68910200D01*
X85745112Y-68910200D02*
X85602255Y-68957819D01*
X85602255Y-68957819D02*
X85364160Y-68957819D01*
X86316541Y-68672104D02*
X86792731Y-68672104D01*
X86221303Y-68957819D02*
X86554636Y-67957819D01*
X86554636Y-67957819D02*
X86887969Y-68957819D01*
X84935588Y-65465438D02*
X84840350Y-65417819D01*
X84840350Y-65417819D02*
X84697493Y-65417819D01*
X84697493Y-65417819D02*
X84554636Y-65465438D01*
X84554636Y-65465438D02*
X84459398Y-65560676D01*
X84459398Y-65560676D02*
X84411779Y-65655914D01*
X84411779Y-65655914D02*
X84364160Y-65846390D01*
X84364160Y-65846390D02*
X84364160Y-65989247D01*
X84364160Y-65989247D02*
X84411779Y-66179723D01*
X84411779Y-66179723D02*
X84459398Y-66274961D01*
X84459398Y-66274961D02*
X84554636Y-66370200D01*
X84554636Y-66370200D02*
X84697493Y-66417819D01*
X84697493Y-66417819D02*
X84792731Y-66417819D01*
X84792731Y-66417819D02*
X84935588Y-66370200D01*
X84935588Y-66370200D02*
X84983207Y-66322580D01*
X84983207Y-66322580D02*
X84983207Y-65989247D01*
X84983207Y-65989247D02*
X84792731Y-65989247D01*
X85411779Y-66417819D02*
X85411779Y-65417819D01*
X85411779Y-65417819D02*
X85983207Y-66417819D01*
X85983207Y-66417819D02*
X85983207Y-65417819D01*
X86459398Y-66417819D02*
X86459398Y-65417819D01*
X86459398Y-65417819D02*
X86697493Y-65417819D01*
X86697493Y-65417819D02*
X86840350Y-65465438D01*
X86840350Y-65465438D02*
X86935588Y-65560676D01*
X86935588Y-65560676D02*
X86983207Y-65655914D01*
X86983207Y-65655914D02*
X87030826Y-65846390D01*
X87030826Y-65846390D02*
X87030826Y-65989247D01*
X87030826Y-65989247D02*
X86983207Y-66179723D01*
X86983207Y-66179723D02*
X86935588Y-66274961D01*
X86935588Y-66274961D02*
X86840350Y-66370200D01*
X86840350Y-66370200D02*
X86697493Y-66417819D01*
X86697493Y-66417819D02*
X86459398Y-66417819D01*
X85395969Y-62877819D02*
X84919779Y-62877819D01*
X84919779Y-62877819D02*
X84872160Y-63354009D01*
X84872160Y-63354009D02*
X84919779Y-63306390D01*
X84919779Y-63306390D02*
X85015017Y-63258771D01*
X85015017Y-63258771D02*
X85253112Y-63258771D01*
X85253112Y-63258771D02*
X85348350Y-63306390D01*
X85348350Y-63306390D02*
X85395969Y-63354009D01*
X85395969Y-63354009D02*
X85443588Y-63449247D01*
X85443588Y-63449247D02*
X85443588Y-63687342D01*
X85443588Y-63687342D02*
X85395969Y-63782580D01*
X85395969Y-63782580D02*
X85348350Y-63830200D01*
X85348350Y-63830200D02*
X85253112Y-63877819D01*
X85253112Y-63877819D02*
X85015017Y-63877819D01*
X85015017Y-63877819D02*
X84919779Y-63830200D01*
X84919779Y-63830200D02*
X84872160Y-63782580D01*
X85729303Y-62877819D02*
X86062636Y-63877819D01*
X86062636Y-63877819D02*
X86395969Y-62877819D01*
X84871895Y-30515160D02*
X84871895Y-30991350D01*
X84586180Y-30419922D02*
X85586180Y-30753255D01*
X85586180Y-30753255D02*
X84586180Y-31086588D01*
X84586180Y-31419922D02*
X85586180Y-31419922D01*
X84586180Y-31896112D02*
X85586180Y-31896112D01*
X85586180Y-31896112D02*
X84586180Y-32467540D01*
X84586180Y-32467540D02*
X85586180Y-32467540D01*
X143111057Y-41620839D02*
X143063438Y-41573220D01*
X143063438Y-41573220D02*
X143015819Y-41477982D01*
X143015819Y-41477982D02*
X143015819Y-41239887D01*
X143015819Y-41239887D02*
X143063438Y-41144649D01*
X143063438Y-41144649D02*
X143111057Y-41097030D01*
X143111057Y-41097030D02*
X143206295Y-41049411D01*
X143206295Y-41049411D02*
X143301533Y-41049411D01*
X143301533Y-41049411D02*
X143444390Y-41097030D01*
X143444390Y-41097030D02*
X144015819Y-41668458D01*
X144015819Y-41668458D02*
X144015819Y-41049411D01*
X143111057Y-40668458D02*
X143063438Y-40620839D01*
X143063438Y-40620839D02*
X143015819Y-40525601D01*
X143015819Y-40525601D02*
X143015819Y-40287506D01*
X143015819Y-40287506D02*
X143063438Y-40192268D01*
X143063438Y-40192268D02*
X143111057Y-40144649D01*
X143111057Y-40144649D02*
X143206295Y-40097030D01*
X143206295Y-40097030D02*
X143301533Y-40097030D01*
X143301533Y-40097030D02*
X143444390Y-40144649D01*
X143444390Y-40144649D02*
X144015819Y-40716077D01*
X144015819Y-40716077D02*
X144015819Y-40097030D01*
X143349152Y-39668458D02*
X144349152Y-39668458D01*
X143872961Y-39192268D02*
X143968200Y-39144649D01*
X143968200Y-39144649D02*
X144015819Y-39049411D01*
X143872961Y-39668458D02*
X143968200Y-39620839D01*
X143968200Y-39620839D02*
X144015819Y-39525601D01*
X144015819Y-39525601D02*
X144015819Y-39335125D01*
X144015819Y-39335125D02*
X143968200Y-39239887D01*
X143968200Y-39239887D02*
X143872961Y-39192268D01*
X143872961Y-39192268D02*
X143349152Y-39192268D01*
X143492009Y-38287506D02*
X143492009Y-38620839D01*
X144015819Y-38620839D02*
X143015819Y-38620839D01*
X143015819Y-38620839D02*
X143015819Y-38144649D01*
X94484112Y-57321927D02*
X93484112Y-57321927D01*
X93579350Y-56893356D02*
X93531731Y-56845737D01*
X93531731Y-56845737D02*
X93484112Y-56750499D01*
X93484112Y-56750499D02*
X93484112Y-56512404D01*
X93484112Y-56512404D02*
X93531731Y-56417166D01*
X93531731Y-56417166D02*
X93579350Y-56369547D01*
X93579350Y-56369547D02*
X93674588Y-56321928D01*
X93674588Y-56321928D02*
X93769826Y-56321928D01*
X93769826Y-56321928D02*
X93912683Y-56369547D01*
X93912683Y-56369547D02*
X94484112Y-56940975D01*
X94484112Y-56940975D02*
X94484112Y-56321928D01*
X94388873Y-55321928D02*
X94436493Y-55369547D01*
X94436493Y-55369547D02*
X94484112Y-55512404D01*
X94484112Y-55512404D02*
X94484112Y-55607642D01*
X94484112Y-55607642D02*
X94436493Y-55750499D01*
X94436493Y-55750499D02*
X94341254Y-55845737D01*
X94341254Y-55845737D02*
X94246016Y-55893356D01*
X94246016Y-55893356D02*
X94055540Y-55940975D01*
X94055540Y-55940975D02*
X93912683Y-55940975D01*
X93912683Y-55940975D02*
X93722207Y-55893356D01*
X93722207Y-55893356D02*
X93626969Y-55845737D01*
X93626969Y-55845737D02*
X93531731Y-55750499D01*
X93531731Y-55750499D02*
X93484112Y-55607642D01*
X93484112Y-55607642D02*
X93484112Y-55512404D01*
X93484112Y-55512404D02*
X93531731Y-55369547D01*
X93531731Y-55369547D02*
X93579350Y-55321928D01*
X93484112Y-53655261D02*
X93484112Y-54131451D01*
X93484112Y-54131451D02*
X93960302Y-54179070D01*
X93960302Y-54179070D02*
X93912683Y-54131451D01*
X93912683Y-54131451D02*
X93865064Y-54036213D01*
X93865064Y-54036213D02*
X93865064Y-53798118D01*
X93865064Y-53798118D02*
X93912683Y-53702880D01*
X93912683Y-53702880D02*
X93960302Y-53655261D01*
X93960302Y-53655261D02*
X94055540Y-53607642D01*
X94055540Y-53607642D02*
X94293635Y-53607642D01*
X94293635Y-53607642D02*
X94388873Y-53655261D01*
X94388873Y-53655261D02*
X94436493Y-53702880D01*
X94436493Y-53702880D02*
X94484112Y-53798118D01*
X94484112Y-53798118D02*
X94484112Y-54036213D01*
X94484112Y-54036213D02*
X94436493Y-54131451D01*
X94436493Y-54131451D02*
X94388873Y-54179070D01*
X93484112Y-53321927D02*
X94484112Y-52988594D01*
X94484112Y-52988594D02*
X93484112Y-52655261D01*
X94484112Y-51560022D02*
X93484112Y-51560022D01*
X93484112Y-51560022D02*
X93484112Y-51179070D01*
X93484112Y-51179070D02*
X93531731Y-51083832D01*
X93531731Y-51083832D02*
X93579350Y-51036213D01*
X93579350Y-51036213D02*
X93674588Y-50988594D01*
X93674588Y-50988594D02*
X93817445Y-50988594D01*
X93817445Y-50988594D02*
X93912683Y-51036213D01*
X93912683Y-51036213D02*
X93960302Y-51083832D01*
X93960302Y-51083832D02*
X94007921Y-51179070D01*
X94007921Y-51179070D02*
X94007921Y-51560022D01*
X93817445Y-50131451D02*
X94484112Y-50131451D01*
X93817445Y-50560022D02*
X94341254Y-50560022D01*
X94341254Y-50560022D02*
X94436493Y-50512403D01*
X94436493Y-50512403D02*
X94484112Y-50417165D01*
X94484112Y-50417165D02*
X94484112Y-50274308D01*
X94484112Y-50274308D02*
X94436493Y-50179070D01*
X94436493Y-50179070D02*
X94388873Y-50131451D01*
X94484112Y-49512403D02*
X94436493Y-49607641D01*
X94436493Y-49607641D02*
X94341254Y-49655260D01*
X94341254Y-49655260D02*
X93484112Y-49655260D01*
X94484112Y-48988593D02*
X94436493Y-49083831D01*
X94436493Y-49083831D02*
X94341254Y-49131450D01*
X94341254Y-49131450D02*
X93484112Y-49131450D01*
X93817445Y-48179069D02*
X94484112Y-48179069D01*
X93817445Y-48607640D02*
X94341254Y-48607640D01*
X94341254Y-48607640D02*
X94436493Y-48560021D01*
X94436493Y-48560021D02*
X94484112Y-48464783D01*
X94484112Y-48464783D02*
X94484112Y-48321926D01*
X94484112Y-48321926D02*
X94436493Y-48226688D01*
X94436493Y-48226688D02*
X94388873Y-48179069D01*
X93817445Y-47702878D02*
X94817445Y-47702878D01*
X93865064Y-47702878D02*
X93817445Y-47607640D01*
X93817445Y-47607640D02*
X93817445Y-47417164D01*
X93817445Y-47417164D02*
X93865064Y-47321926D01*
X93865064Y-47321926D02*
X93912683Y-47274307D01*
X93912683Y-47274307D02*
X94007921Y-47226688D01*
X94007921Y-47226688D02*
X94293635Y-47226688D01*
X94293635Y-47226688D02*
X94388873Y-47274307D01*
X94388873Y-47274307D02*
X94436493Y-47321926D01*
X94436493Y-47321926D02*
X94484112Y-47417164D01*
X94484112Y-47417164D02*
X94484112Y-47607640D01*
X94484112Y-47607640D02*
X94436493Y-47702878D01*
X145593969Y-46097819D02*
X145117779Y-46097819D01*
X145117779Y-46097819D02*
X145117779Y-45097819D01*
X145927303Y-45574009D02*
X146260636Y-45574009D01*
X146403493Y-46097819D02*
X145927303Y-46097819D01*
X145927303Y-46097819D02*
X145927303Y-45097819D01*
X145927303Y-45097819D02*
X146403493Y-45097819D01*
X146832065Y-46097819D02*
X146832065Y-45097819D01*
X146832065Y-45097819D02*
X147070160Y-45097819D01*
X147070160Y-45097819D02*
X147213017Y-45145438D01*
X147213017Y-45145438D02*
X147308255Y-45240676D01*
X147308255Y-45240676D02*
X147355874Y-45335914D01*
X147355874Y-45335914D02*
X147403493Y-45526390D01*
X147403493Y-45526390D02*
X147403493Y-45669247D01*
X147403493Y-45669247D02*
X147355874Y-45859723D01*
X147355874Y-45859723D02*
X147308255Y-45954961D01*
X147308255Y-45954961D02*
X147213017Y-46050200D01*
X147213017Y-46050200D02*
X147070160Y-46097819D01*
X147070160Y-46097819D02*
X146832065Y-46097819D01*
X145593969Y-29587819D02*
X145117779Y-29587819D01*
X145117779Y-29587819D02*
X145117779Y-28587819D01*
X145927303Y-29064009D02*
X146260636Y-29064009D01*
X146403493Y-29587819D02*
X145927303Y-29587819D01*
X145927303Y-29587819D02*
X145927303Y-28587819D01*
X145927303Y-28587819D02*
X146403493Y-28587819D01*
X146832065Y-29587819D02*
X146832065Y-28587819D01*
X146832065Y-28587819D02*
X147070160Y-28587819D01*
X147070160Y-28587819D02*
X147213017Y-28635438D01*
X147213017Y-28635438D02*
X147308255Y-28730676D01*
X147308255Y-28730676D02*
X147355874Y-28825914D01*
X147355874Y-28825914D02*
X147403493Y-29016390D01*
X147403493Y-29016390D02*
X147403493Y-29159247D01*
X147403493Y-29159247D02*
X147355874Y-29349723D01*
X147355874Y-29349723D02*
X147308255Y-29444961D01*
X147308255Y-29444961D02*
X147213017Y-29540200D01*
X147213017Y-29540200D02*
X147070160Y-29587819D01*
X147070160Y-29587819D02*
X146832065Y-29587819D01*
X125766160Y-53829057D02*
X125813779Y-53781438D01*
X125813779Y-53781438D02*
X125909017Y-53733819D01*
X125909017Y-53733819D02*
X126147112Y-53733819D01*
X126147112Y-53733819D02*
X126242350Y-53781438D01*
X126242350Y-53781438D02*
X126289969Y-53829057D01*
X126289969Y-53829057D02*
X126337588Y-53924295D01*
X126337588Y-53924295D02*
X126337588Y-54019533D01*
X126337588Y-54019533D02*
X126289969Y-54162390D01*
X126289969Y-54162390D02*
X125718541Y-54733819D01*
X125718541Y-54733819D02*
X126337588Y-54733819D01*
X126718541Y-53829057D02*
X126766160Y-53781438D01*
X126766160Y-53781438D02*
X126861398Y-53733819D01*
X126861398Y-53733819D02*
X127099493Y-53733819D01*
X127099493Y-53733819D02*
X127194731Y-53781438D01*
X127194731Y-53781438D02*
X127242350Y-53829057D01*
X127242350Y-53829057D02*
X127289969Y-53924295D01*
X127289969Y-53924295D02*
X127289969Y-54019533D01*
X127289969Y-54019533D02*
X127242350Y-54162390D01*
X127242350Y-54162390D02*
X126670922Y-54733819D01*
X126670922Y-54733819D02*
X127289969Y-54733819D01*
X127909017Y-53733819D02*
X128004255Y-53733819D01*
X128004255Y-53733819D02*
X128099493Y-53781438D01*
X128099493Y-53781438D02*
X128147112Y-53829057D01*
X128147112Y-53829057D02*
X128194731Y-53924295D01*
X128194731Y-53924295D02*
X128242350Y-54114771D01*
X128242350Y-54114771D02*
X128242350Y-54352866D01*
X128242350Y-54352866D02*
X128194731Y-54543342D01*
X128194731Y-54543342D02*
X128147112Y-54638580D01*
X128147112Y-54638580D02*
X128099493Y-54686200D01*
X128099493Y-54686200D02*
X128004255Y-54733819D01*
X128004255Y-54733819D02*
X127909017Y-54733819D01*
X127909017Y-54733819D02*
X127813779Y-54686200D01*
X127813779Y-54686200D02*
X127766160Y-54638580D01*
X127766160Y-54638580D02*
X127718541Y-54543342D01*
X127718541Y-54543342D02*
X127670922Y-54352866D01*
X127670922Y-54352866D02*
X127670922Y-54114771D01*
X127670922Y-54114771D02*
X127718541Y-53924295D01*
X127718541Y-53924295D02*
X127766160Y-53829057D01*
X127766160Y-53829057D02*
X127813779Y-53781438D01*
X127813779Y-53781438D02*
X127909017Y-53733819D01*
X85538561Y-57375588D02*
X85586180Y-57280350D01*
X85586180Y-57280350D02*
X85586180Y-57137493D01*
X85586180Y-57137493D02*
X85538561Y-56994636D01*
X85538561Y-56994636D02*
X85443323Y-56899398D01*
X85443323Y-56899398D02*
X85348085Y-56851779D01*
X85348085Y-56851779D02*
X85157609Y-56804160D01*
X85157609Y-56804160D02*
X85014752Y-56804160D01*
X85014752Y-56804160D02*
X84824276Y-56851779D01*
X84824276Y-56851779D02*
X84729038Y-56899398D01*
X84729038Y-56899398D02*
X84633800Y-56994636D01*
X84633800Y-56994636D02*
X84586180Y-57137493D01*
X84586180Y-57137493D02*
X84586180Y-57232731D01*
X84586180Y-57232731D02*
X84633800Y-57375588D01*
X84633800Y-57375588D02*
X84681419Y-57423207D01*
X84681419Y-57423207D02*
X85014752Y-57423207D01*
X85014752Y-57423207D02*
X85014752Y-57232731D01*
X84586180Y-57851779D02*
X85586180Y-57851779D01*
X85586180Y-57851779D02*
X84586180Y-58423207D01*
X84586180Y-58423207D02*
X85586180Y-58423207D01*
X84586180Y-58899398D02*
X85586180Y-58899398D01*
X85586180Y-58899398D02*
X85586180Y-59137493D01*
X85586180Y-59137493D02*
X85538561Y-59280350D01*
X85538561Y-59280350D02*
X85443323Y-59375588D01*
X85443323Y-59375588D02*
X85348085Y-59423207D01*
X85348085Y-59423207D02*
X85157609Y-59470826D01*
X85157609Y-59470826D02*
X85014752Y-59470826D01*
X85014752Y-59470826D02*
X84824276Y-59423207D01*
X84824276Y-59423207D02*
X84729038Y-59375588D01*
X84729038Y-59375588D02*
X84633800Y-59280350D01*
X84633800Y-59280350D02*
X84586180Y-59137493D01*
X84586180Y-59137493D02*
X84586180Y-58899398D01*
X145387588Y-42605438D02*
X145292350Y-42557819D01*
X145292350Y-42557819D02*
X145149493Y-42557819D01*
X145149493Y-42557819D02*
X145006636Y-42605438D01*
X145006636Y-42605438D02*
X144911398Y-42700676D01*
X144911398Y-42700676D02*
X144863779Y-42795914D01*
X144863779Y-42795914D02*
X144816160Y-42986390D01*
X144816160Y-42986390D02*
X144816160Y-43129247D01*
X144816160Y-43129247D02*
X144863779Y-43319723D01*
X144863779Y-43319723D02*
X144911398Y-43414961D01*
X144911398Y-43414961D02*
X145006636Y-43510200D01*
X145006636Y-43510200D02*
X145149493Y-43557819D01*
X145149493Y-43557819D02*
X145244731Y-43557819D01*
X145244731Y-43557819D02*
X145387588Y-43510200D01*
X145387588Y-43510200D02*
X145435207Y-43462580D01*
X145435207Y-43462580D02*
X145435207Y-43129247D01*
X145435207Y-43129247D02*
X145244731Y-43129247D01*
X145863779Y-43557819D02*
X145863779Y-42557819D01*
X145863779Y-42557819D02*
X146435207Y-43557819D01*
X146435207Y-43557819D02*
X146435207Y-42557819D01*
X146911398Y-43557819D02*
X146911398Y-42557819D01*
X146911398Y-42557819D02*
X147149493Y-42557819D01*
X147149493Y-42557819D02*
X147292350Y-42605438D01*
X147292350Y-42605438D02*
X147387588Y-42700676D01*
X147387588Y-42700676D02*
X147435207Y-42795914D01*
X147435207Y-42795914D02*
X147482826Y-42986390D01*
X147482826Y-42986390D02*
X147482826Y-43129247D01*
X147482826Y-43129247D02*
X147435207Y-43319723D01*
X147435207Y-43319723D02*
X147387588Y-43414961D01*
X147387588Y-43414961D02*
X147292350Y-43510200D01*
X147292350Y-43510200D02*
X147149493Y-43557819D01*
X147149493Y-43557819D02*
X146911398Y-43557819D01*
X85586180Y-38341541D02*
X85586180Y-38960588D01*
X85586180Y-38960588D02*
X85205228Y-38627255D01*
X85205228Y-38627255D02*
X85205228Y-38770112D01*
X85205228Y-38770112D02*
X85157609Y-38865350D01*
X85157609Y-38865350D02*
X85109990Y-38912969D01*
X85109990Y-38912969D02*
X85014752Y-38960588D01*
X85014752Y-38960588D02*
X84776657Y-38960588D01*
X84776657Y-38960588D02*
X84681419Y-38912969D01*
X84681419Y-38912969D02*
X84633800Y-38865350D01*
X84633800Y-38865350D02*
X84586180Y-38770112D01*
X84586180Y-38770112D02*
X84586180Y-38484398D01*
X84586180Y-38484398D02*
X84633800Y-38389160D01*
X84633800Y-38389160D02*
X84681419Y-38341541D01*
X85586180Y-39246303D02*
X84586180Y-39579636D01*
X84586180Y-39579636D02*
X85586180Y-39912969D01*
X85586180Y-40151065D02*
X85586180Y-40770112D01*
X85586180Y-40770112D02*
X85205228Y-40436779D01*
X85205228Y-40436779D02*
X85205228Y-40579636D01*
X85205228Y-40579636D02*
X85157609Y-40674874D01*
X85157609Y-40674874D02*
X85109990Y-40722493D01*
X85109990Y-40722493D02*
X85014752Y-40770112D01*
X85014752Y-40770112D02*
X84776657Y-40770112D01*
X84776657Y-40770112D02*
X84681419Y-40722493D01*
X84681419Y-40722493D02*
X84633800Y-40674874D01*
X84633800Y-40674874D02*
X84586180Y-40579636D01*
X84586180Y-40579636D02*
X84586180Y-40293922D01*
X84586180Y-40293922D02*
X84633800Y-40198684D01*
X84633800Y-40198684D02*
X84681419Y-40151065D01*
X155555302Y-76545887D02*
X155602921Y-76403030D01*
X155602921Y-76403030D02*
X155650540Y-76355411D01*
X155650540Y-76355411D02*
X155745778Y-76307792D01*
X155745778Y-76307792D02*
X155888635Y-76307792D01*
X155888635Y-76307792D02*
X155983873Y-76355411D01*
X155983873Y-76355411D02*
X156031493Y-76403030D01*
X156031493Y-76403030D02*
X156079112Y-76498268D01*
X156079112Y-76498268D02*
X156079112Y-76879220D01*
X156079112Y-76879220D02*
X155079112Y-76879220D01*
X155079112Y-76879220D02*
X155079112Y-76545887D01*
X155079112Y-76545887D02*
X155126731Y-76450649D01*
X155126731Y-76450649D02*
X155174350Y-76403030D01*
X155174350Y-76403030D02*
X155269588Y-76355411D01*
X155269588Y-76355411D02*
X155364826Y-76355411D01*
X155364826Y-76355411D02*
X155460064Y-76403030D01*
X155460064Y-76403030D02*
X155507683Y-76450649D01*
X155507683Y-76450649D02*
X155555302Y-76545887D01*
X155555302Y-76545887D02*
X155555302Y-76879220D01*
X155079112Y-76022077D02*
X155079112Y-75450649D01*
X156079112Y-75736363D02*
X155079112Y-75736363D01*
X156174350Y-75355411D02*
X156174350Y-74593506D01*
X155079112Y-74355410D02*
X155888635Y-74355410D01*
X155888635Y-74355410D02*
X155983873Y-74307791D01*
X155983873Y-74307791D02*
X156031493Y-74260172D01*
X156031493Y-74260172D02*
X156079112Y-74164934D01*
X156079112Y-74164934D02*
X156079112Y-73974458D01*
X156079112Y-73974458D02*
X156031493Y-73879220D01*
X156031493Y-73879220D02*
X155983873Y-73831601D01*
X155983873Y-73831601D02*
X155888635Y-73783982D01*
X155888635Y-73783982D02*
X155079112Y-73783982D01*
X156079112Y-72831601D02*
X156079112Y-73307791D01*
X156079112Y-73307791D02*
X155079112Y-73307791D01*
X98788057Y-38826839D02*
X98740438Y-38779220D01*
X98740438Y-38779220D02*
X98692819Y-38683982D01*
X98692819Y-38683982D02*
X98692819Y-38445887D01*
X98692819Y-38445887D02*
X98740438Y-38350649D01*
X98740438Y-38350649D02*
X98788057Y-38303030D01*
X98788057Y-38303030D02*
X98883295Y-38255411D01*
X98883295Y-38255411D02*
X98978533Y-38255411D01*
X98978533Y-38255411D02*
X99121390Y-38303030D01*
X99121390Y-38303030D02*
X99692819Y-38874458D01*
X99692819Y-38874458D02*
X99692819Y-38255411D01*
X98788057Y-37874458D02*
X98740438Y-37826839D01*
X98740438Y-37826839D02*
X98692819Y-37731601D01*
X98692819Y-37731601D02*
X98692819Y-37493506D01*
X98692819Y-37493506D02*
X98740438Y-37398268D01*
X98740438Y-37398268D02*
X98788057Y-37350649D01*
X98788057Y-37350649D02*
X98883295Y-37303030D01*
X98883295Y-37303030D02*
X98978533Y-37303030D01*
X98978533Y-37303030D02*
X99121390Y-37350649D01*
X99121390Y-37350649D02*
X99692819Y-37922077D01*
X99692819Y-37922077D02*
X99692819Y-37303030D01*
X99692819Y-36874458D02*
X98692819Y-36874458D01*
X99311866Y-36779220D02*
X99692819Y-36493506D01*
X99026152Y-36493506D02*
X99407104Y-36874458D01*
X84871895Y-53629160D02*
X84871895Y-54105350D01*
X84586180Y-53533922D02*
X85586180Y-53867255D01*
X85586180Y-53867255D02*
X84586180Y-54200588D01*
X84586180Y-54533922D02*
X85586180Y-54533922D01*
X84586180Y-55010112D02*
X85586180Y-55010112D01*
X85586180Y-55010112D02*
X84586180Y-55581540D01*
X84586180Y-55581540D02*
X85586180Y-55581540D01*
X76696180Y-42278493D02*
X75981895Y-42278493D01*
X75981895Y-42278493D02*
X75839038Y-42230874D01*
X75839038Y-42230874D02*
X75743800Y-42135636D01*
X75743800Y-42135636D02*
X75696180Y-41992779D01*
X75696180Y-41992779D02*
X75696180Y-41897541D01*
X75696180Y-42897541D02*
X75743800Y-42802303D01*
X75743800Y-42802303D02*
X75791419Y-42754684D01*
X75791419Y-42754684D02*
X75886657Y-42707065D01*
X75886657Y-42707065D02*
X76172371Y-42707065D01*
X76172371Y-42707065D02*
X76267609Y-42754684D01*
X76267609Y-42754684D02*
X76315228Y-42802303D01*
X76315228Y-42802303D02*
X76362847Y-42897541D01*
X76362847Y-42897541D02*
X76362847Y-43040398D01*
X76362847Y-43040398D02*
X76315228Y-43135636D01*
X76315228Y-43135636D02*
X76267609Y-43183255D01*
X76267609Y-43183255D02*
X76172371Y-43230874D01*
X76172371Y-43230874D02*
X75886657Y-43230874D01*
X75886657Y-43230874D02*
X75791419Y-43183255D01*
X75791419Y-43183255D02*
X75743800Y-43135636D01*
X75743800Y-43135636D02*
X75696180Y-43040398D01*
X75696180Y-43040398D02*
X75696180Y-42897541D01*
X76362847Y-43564208D02*
X75696180Y-43802303D01*
X76362847Y-44040398D02*
X75696180Y-43802303D01*
X75696180Y-43802303D02*
X75458085Y-43707065D01*
X75458085Y-43707065D02*
X75410466Y-43659446D01*
X75410466Y-43659446D02*
X75362847Y-43564208D01*
X75696180Y-44897541D02*
X75696180Y-44421351D01*
X75696180Y-44421351D02*
X76696180Y-44421351D01*
X85586180Y-26911541D02*
X85586180Y-27530588D01*
X85586180Y-27530588D02*
X85205228Y-27197255D01*
X85205228Y-27197255D02*
X85205228Y-27340112D01*
X85205228Y-27340112D02*
X85157609Y-27435350D01*
X85157609Y-27435350D02*
X85109990Y-27482969D01*
X85109990Y-27482969D02*
X85014752Y-27530588D01*
X85014752Y-27530588D02*
X84776657Y-27530588D01*
X84776657Y-27530588D02*
X84681419Y-27482969D01*
X84681419Y-27482969D02*
X84633800Y-27435350D01*
X84633800Y-27435350D02*
X84586180Y-27340112D01*
X84586180Y-27340112D02*
X84586180Y-27054398D01*
X84586180Y-27054398D02*
X84633800Y-26959160D01*
X84633800Y-26959160D02*
X84681419Y-26911541D01*
X85586180Y-27816303D02*
X84586180Y-28149636D01*
X84586180Y-28149636D02*
X85586180Y-28482969D01*
X85586180Y-28721065D02*
X85586180Y-29340112D01*
X85586180Y-29340112D02*
X85205228Y-29006779D01*
X85205228Y-29006779D02*
X85205228Y-29149636D01*
X85205228Y-29149636D02*
X85157609Y-29244874D01*
X85157609Y-29244874D02*
X85109990Y-29292493D01*
X85109990Y-29292493D02*
X85014752Y-29340112D01*
X85014752Y-29340112D02*
X84776657Y-29340112D01*
X84776657Y-29340112D02*
X84681419Y-29292493D01*
X84681419Y-29292493D02*
X84633800Y-29244874D01*
X84633800Y-29244874D02*
X84586180Y-29149636D01*
X84586180Y-29149636D02*
X84586180Y-28863922D01*
X84586180Y-28863922D02*
X84633800Y-28768684D01*
X84633800Y-28768684D02*
X84681419Y-28721065D01*
X113875779Y-70481819D02*
X113875779Y-69481819D01*
X114304350Y-69577057D02*
X114351969Y-69529438D01*
X114351969Y-69529438D02*
X114447207Y-69481819D01*
X114447207Y-69481819D02*
X114685302Y-69481819D01*
X114685302Y-69481819D02*
X114780540Y-69529438D01*
X114780540Y-69529438D02*
X114828159Y-69577057D01*
X114828159Y-69577057D02*
X114875778Y-69672295D01*
X114875778Y-69672295D02*
X114875778Y-69767533D01*
X114875778Y-69767533D02*
X114828159Y-69910390D01*
X114828159Y-69910390D02*
X114256731Y-70481819D01*
X114256731Y-70481819D02*
X114875778Y-70481819D01*
X115875778Y-70386580D02*
X115828159Y-70434200D01*
X115828159Y-70434200D02*
X115685302Y-70481819D01*
X115685302Y-70481819D02*
X115590064Y-70481819D01*
X115590064Y-70481819D02*
X115447207Y-70434200D01*
X115447207Y-70434200D02*
X115351969Y-70338961D01*
X115351969Y-70338961D02*
X115304350Y-70243723D01*
X115304350Y-70243723D02*
X115256731Y-70053247D01*
X115256731Y-70053247D02*
X115256731Y-69910390D01*
X115256731Y-69910390D02*
X115304350Y-69719914D01*
X115304350Y-69719914D02*
X115351969Y-69624676D01*
X115351969Y-69624676D02*
X115447207Y-69529438D01*
X115447207Y-69529438D02*
X115590064Y-69481819D01*
X115590064Y-69481819D02*
X115685302Y-69481819D01*
X115685302Y-69481819D02*
X115828159Y-69529438D01*
X115828159Y-69529438D02*
X115875778Y-69577057D01*
X116971017Y-69481819D02*
X117590064Y-69481819D01*
X117590064Y-69481819D02*
X117256731Y-69862771D01*
X117256731Y-69862771D02*
X117399588Y-69862771D01*
X117399588Y-69862771D02*
X117494826Y-69910390D01*
X117494826Y-69910390D02*
X117542445Y-69958009D01*
X117542445Y-69958009D02*
X117590064Y-70053247D01*
X117590064Y-70053247D02*
X117590064Y-70291342D01*
X117590064Y-70291342D02*
X117542445Y-70386580D01*
X117542445Y-70386580D02*
X117494826Y-70434200D01*
X117494826Y-70434200D02*
X117399588Y-70481819D01*
X117399588Y-70481819D02*
X117113874Y-70481819D01*
X117113874Y-70481819D02*
X117018636Y-70434200D01*
X117018636Y-70434200D02*
X116971017Y-70386580D01*
X117875779Y-69481819D02*
X118209112Y-70481819D01*
X118209112Y-70481819D02*
X118542445Y-69481819D01*
X118780541Y-69481819D02*
X119399588Y-69481819D01*
X119399588Y-69481819D02*
X119066255Y-69862771D01*
X119066255Y-69862771D02*
X119209112Y-69862771D01*
X119209112Y-69862771D02*
X119304350Y-69910390D01*
X119304350Y-69910390D02*
X119351969Y-69958009D01*
X119351969Y-69958009D02*
X119399588Y-70053247D01*
X119399588Y-70053247D02*
X119399588Y-70291342D01*
X119399588Y-70291342D02*
X119351969Y-70386580D01*
X119351969Y-70386580D02*
X119304350Y-70434200D01*
X119304350Y-70434200D02*
X119209112Y-70481819D01*
X119209112Y-70481819D02*
X118923398Y-70481819D01*
X118923398Y-70481819D02*
X118828160Y-70434200D01*
X118828160Y-70434200D02*
X118780541Y-70386580D01*
X120590065Y-70481819D02*
X120590065Y-69481819D01*
X120590065Y-69481819D02*
X120971017Y-69481819D01*
X120971017Y-69481819D02*
X121066255Y-69529438D01*
X121066255Y-69529438D02*
X121113874Y-69577057D01*
X121113874Y-69577057D02*
X121161493Y-69672295D01*
X121161493Y-69672295D02*
X121161493Y-69815152D01*
X121161493Y-69815152D02*
X121113874Y-69910390D01*
X121113874Y-69910390D02*
X121066255Y-69958009D01*
X121066255Y-69958009D02*
X120971017Y-70005628D01*
X120971017Y-70005628D02*
X120590065Y-70005628D01*
X122018636Y-69815152D02*
X122018636Y-70481819D01*
X121590065Y-69815152D02*
X121590065Y-70338961D01*
X121590065Y-70338961D02*
X121637684Y-70434200D01*
X121637684Y-70434200D02*
X121732922Y-70481819D01*
X121732922Y-70481819D02*
X121875779Y-70481819D01*
X121875779Y-70481819D02*
X121971017Y-70434200D01*
X121971017Y-70434200D02*
X122018636Y-70386580D01*
X122637684Y-70481819D02*
X122542446Y-70434200D01*
X122542446Y-70434200D02*
X122494827Y-70338961D01*
X122494827Y-70338961D02*
X122494827Y-69481819D01*
X123161494Y-70481819D02*
X123066256Y-70434200D01*
X123066256Y-70434200D02*
X123018637Y-70338961D01*
X123018637Y-70338961D02*
X123018637Y-69481819D01*
X123971018Y-69815152D02*
X123971018Y-70481819D01*
X123542447Y-69815152D02*
X123542447Y-70338961D01*
X123542447Y-70338961D02*
X123590066Y-70434200D01*
X123590066Y-70434200D02*
X123685304Y-70481819D01*
X123685304Y-70481819D02*
X123828161Y-70481819D01*
X123828161Y-70481819D02*
X123923399Y-70434200D01*
X123923399Y-70434200D02*
X123971018Y-70386580D01*
X124447209Y-69815152D02*
X124447209Y-70815152D01*
X124447209Y-69862771D02*
X124542447Y-69815152D01*
X124542447Y-69815152D02*
X124732923Y-69815152D01*
X124732923Y-69815152D02*
X124828161Y-69862771D01*
X124828161Y-69862771D02*
X124875780Y-69910390D01*
X124875780Y-69910390D02*
X124923399Y-70005628D01*
X124923399Y-70005628D02*
X124923399Y-70291342D01*
X124923399Y-70291342D02*
X124875780Y-70386580D01*
X124875780Y-70386580D02*
X124828161Y-70434200D01*
X124828161Y-70434200D02*
X124732923Y-70481819D01*
X124732923Y-70481819D02*
X124542447Y-70481819D01*
X124542447Y-70481819D02*
X124447209Y-70434200D01*
X146411302Y-67148594D02*
X146458921Y-67005737D01*
X146458921Y-67005737D02*
X146506540Y-66958118D01*
X146506540Y-66958118D02*
X146601778Y-66910499D01*
X146601778Y-66910499D02*
X146744635Y-66910499D01*
X146744635Y-66910499D02*
X146839873Y-66958118D01*
X146839873Y-66958118D02*
X146887493Y-67005737D01*
X146887493Y-67005737D02*
X146935112Y-67100975D01*
X146935112Y-67100975D02*
X146935112Y-67481927D01*
X146935112Y-67481927D02*
X145935112Y-67481927D01*
X145935112Y-67481927D02*
X145935112Y-67148594D01*
X145935112Y-67148594D02*
X145982731Y-67053356D01*
X145982731Y-67053356D02*
X146030350Y-67005737D01*
X146030350Y-67005737D02*
X146125588Y-66958118D01*
X146125588Y-66958118D02*
X146220826Y-66958118D01*
X146220826Y-66958118D02*
X146316064Y-67005737D01*
X146316064Y-67005737D02*
X146363683Y-67053356D01*
X146363683Y-67053356D02*
X146411302Y-67148594D01*
X146411302Y-67148594D02*
X146411302Y-67481927D01*
X145935112Y-66624784D02*
X145935112Y-66053356D01*
X146935112Y-66339070D02*
X145935112Y-66339070D01*
X145593969Y-74037819D02*
X145117779Y-74037819D01*
X145117779Y-74037819D02*
X145117779Y-73037819D01*
X145927303Y-73514009D02*
X146260636Y-73514009D01*
X146403493Y-74037819D02*
X145927303Y-74037819D01*
X145927303Y-74037819D02*
X145927303Y-73037819D01*
X145927303Y-73037819D02*
X146403493Y-73037819D01*
X146832065Y-74037819D02*
X146832065Y-73037819D01*
X146832065Y-73037819D02*
X147070160Y-73037819D01*
X147070160Y-73037819D02*
X147213017Y-73085438D01*
X147213017Y-73085438D02*
X147308255Y-73180676D01*
X147308255Y-73180676D02*
X147355874Y-73275914D01*
X147355874Y-73275914D02*
X147403493Y-73466390D01*
X147403493Y-73466390D02*
X147403493Y-73609247D01*
X147403493Y-73609247D02*
X147355874Y-73799723D01*
X147355874Y-73799723D02*
X147308255Y-73894961D01*
X147308255Y-73894961D02*
X147213017Y-73990200D01*
X147213017Y-73990200D02*
X147070160Y-74037819D01*
X147070160Y-74037819D02*
X146832065Y-74037819D01*
X145387588Y-36255438D02*
X145292350Y-36207819D01*
X145292350Y-36207819D02*
X145149493Y-36207819D01*
X145149493Y-36207819D02*
X145006636Y-36255438D01*
X145006636Y-36255438D02*
X144911398Y-36350676D01*
X144911398Y-36350676D02*
X144863779Y-36445914D01*
X144863779Y-36445914D02*
X144816160Y-36636390D01*
X144816160Y-36636390D02*
X144816160Y-36779247D01*
X144816160Y-36779247D02*
X144863779Y-36969723D01*
X144863779Y-36969723D02*
X144911398Y-37064961D01*
X144911398Y-37064961D02*
X145006636Y-37160200D01*
X145006636Y-37160200D02*
X145149493Y-37207819D01*
X145149493Y-37207819D02*
X145244731Y-37207819D01*
X145244731Y-37207819D02*
X145387588Y-37160200D01*
X145387588Y-37160200D02*
X145435207Y-37112580D01*
X145435207Y-37112580D02*
X145435207Y-36779247D01*
X145435207Y-36779247D02*
X145244731Y-36779247D01*
X145863779Y-37207819D02*
X145863779Y-36207819D01*
X145863779Y-36207819D02*
X146435207Y-37207819D01*
X146435207Y-37207819D02*
X146435207Y-36207819D01*
X146911398Y-37207819D02*
X146911398Y-36207819D01*
X146911398Y-36207819D02*
X147149493Y-36207819D01*
X147149493Y-36207819D02*
X147292350Y-36255438D01*
X147292350Y-36255438D02*
X147387588Y-36350676D01*
X147387588Y-36350676D02*
X147435207Y-36445914D01*
X147435207Y-36445914D02*
X147482826Y-36636390D01*
X147482826Y-36636390D02*
X147482826Y-36779247D01*
X147482826Y-36779247D02*
X147435207Y-36969723D01*
X147435207Y-36969723D02*
X147387588Y-37064961D01*
X147387588Y-37064961D02*
X147292350Y-37160200D01*
X147292350Y-37160200D02*
X147149493Y-37207819D01*
X147149493Y-37207819D02*
X146911398Y-37207819D01*
X143744350Y-64989546D02*
X143696731Y-64941927D01*
X143696731Y-64941927D02*
X143649112Y-64846689D01*
X143649112Y-64846689D02*
X143649112Y-64608594D01*
X143649112Y-64608594D02*
X143696731Y-64513356D01*
X143696731Y-64513356D02*
X143744350Y-64465737D01*
X143744350Y-64465737D02*
X143839588Y-64418118D01*
X143839588Y-64418118D02*
X143934826Y-64418118D01*
X143934826Y-64418118D02*
X144077683Y-64465737D01*
X144077683Y-64465737D02*
X144649112Y-65037165D01*
X144649112Y-65037165D02*
X144649112Y-64418118D01*
X143744350Y-64037165D02*
X143696731Y-63989546D01*
X143696731Y-63989546D02*
X143649112Y-63894308D01*
X143649112Y-63894308D02*
X143649112Y-63656213D01*
X143649112Y-63656213D02*
X143696731Y-63560975D01*
X143696731Y-63560975D02*
X143744350Y-63513356D01*
X143744350Y-63513356D02*
X143839588Y-63465737D01*
X143839588Y-63465737D02*
X143934826Y-63465737D01*
X143934826Y-63465737D02*
X144077683Y-63513356D01*
X144077683Y-63513356D02*
X144649112Y-64084784D01*
X144649112Y-64084784D02*
X144649112Y-63465737D01*
X143982445Y-63037165D02*
X144982445Y-63037165D01*
X144506254Y-62560975D02*
X144601493Y-62513356D01*
X144601493Y-62513356D02*
X144649112Y-62418118D01*
X144506254Y-63037165D02*
X144601493Y-62989546D01*
X144601493Y-62989546D02*
X144649112Y-62894308D01*
X144649112Y-62894308D02*
X144649112Y-62703832D01*
X144649112Y-62703832D02*
X144601493Y-62608594D01*
X144601493Y-62608594D02*
X144506254Y-62560975D01*
X144506254Y-62560975D02*
X143982445Y-62560975D01*
X144125302Y-61656213D02*
X144125302Y-61989546D01*
X144649112Y-61989546D02*
X143649112Y-61989546D01*
X143649112Y-61989546D02*
X143649112Y-61513356D01*
X144649112Y-59592118D02*
X144649112Y-60163546D01*
X144649112Y-59877832D02*
X143649112Y-59877832D01*
X143649112Y-59877832D02*
X143791969Y-59973070D01*
X143791969Y-59973070D02*
X143887207Y-60068308D01*
X143887207Y-60068308D02*
X143934826Y-60163546D01*
X143649112Y-58973070D02*
X143649112Y-58877832D01*
X143649112Y-58877832D02*
X143696731Y-58782594D01*
X143696731Y-58782594D02*
X143744350Y-58734975D01*
X143744350Y-58734975D02*
X143839588Y-58687356D01*
X143839588Y-58687356D02*
X144030064Y-58639737D01*
X144030064Y-58639737D02*
X144268159Y-58639737D01*
X144268159Y-58639737D02*
X144458635Y-58687356D01*
X144458635Y-58687356D02*
X144553873Y-58734975D01*
X144553873Y-58734975D02*
X144601493Y-58782594D01*
X144601493Y-58782594D02*
X144649112Y-58877832D01*
X144649112Y-58877832D02*
X144649112Y-58973070D01*
X144649112Y-58973070D02*
X144601493Y-59068308D01*
X144601493Y-59068308D02*
X144553873Y-59115927D01*
X144553873Y-59115927D02*
X144458635Y-59163546D01*
X144458635Y-59163546D02*
X144268159Y-59211165D01*
X144268159Y-59211165D02*
X144030064Y-59211165D01*
X144030064Y-59211165D02*
X143839588Y-59163546D01*
X143839588Y-59163546D02*
X143744350Y-59115927D01*
X143744350Y-59115927D02*
X143696731Y-59068308D01*
X143696731Y-59068308D02*
X143649112Y-58973070D01*
X143982445Y-58211165D02*
X144982445Y-58211165D01*
X144506254Y-57734975D02*
X144601493Y-57687356D01*
X144601493Y-57687356D02*
X144649112Y-57592118D01*
X144506254Y-58211165D02*
X144601493Y-58163546D01*
X144601493Y-58163546D02*
X144649112Y-58068308D01*
X144649112Y-58068308D02*
X144649112Y-57877832D01*
X144649112Y-57877832D02*
X144601493Y-57782594D01*
X144601493Y-57782594D02*
X144506254Y-57734975D01*
X144506254Y-57734975D02*
X143982445Y-57734975D01*
X144125302Y-56830213D02*
X144125302Y-57163546D01*
X144649112Y-57163546D02*
X143649112Y-57163546D01*
X143649112Y-57163546D02*
X143649112Y-56687356D01*
X113254881Y-81785526D02*
X112683453Y-81785526D01*
X112969167Y-81785526D02*
X112969167Y-80785526D01*
X112969167Y-80785526D02*
X112873929Y-80928383D01*
X112873929Y-80928383D02*
X112778691Y-81023621D01*
X112778691Y-81023621D02*
X112683453Y-81071240D01*
X113873929Y-80785526D02*
X113969167Y-80785526D01*
X113969167Y-80785526D02*
X114064405Y-80833145D01*
X114064405Y-80833145D02*
X114112024Y-80880764D01*
X114112024Y-80880764D02*
X114159643Y-80976002D01*
X114159643Y-80976002D02*
X114207262Y-81166478D01*
X114207262Y-81166478D02*
X114207262Y-81404573D01*
X114207262Y-81404573D02*
X114159643Y-81595049D01*
X114159643Y-81595049D02*
X114112024Y-81690287D01*
X114112024Y-81690287D02*
X114064405Y-81737907D01*
X114064405Y-81737907D02*
X113969167Y-81785526D01*
X113969167Y-81785526D02*
X113873929Y-81785526D01*
X113873929Y-81785526D02*
X113778691Y-81737907D01*
X113778691Y-81737907D02*
X113731072Y-81690287D01*
X113731072Y-81690287D02*
X113683453Y-81595049D01*
X113683453Y-81595049D02*
X113635834Y-81404573D01*
X113635834Y-81404573D02*
X113635834Y-81166478D01*
X113635834Y-81166478D02*
X113683453Y-80976002D01*
X113683453Y-80976002D02*
X113731072Y-80880764D01*
X113731072Y-80880764D02*
X113778691Y-80833145D01*
X113778691Y-80833145D02*
X113873929Y-80785526D01*
X114826310Y-80785526D02*
X114921548Y-80785526D01*
X114921548Y-80785526D02*
X115016786Y-80833145D01*
X115016786Y-80833145D02*
X115064405Y-80880764D01*
X115064405Y-80880764D02*
X115112024Y-80976002D01*
X115112024Y-80976002D02*
X115159643Y-81166478D01*
X115159643Y-81166478D02*
X115159643Y-81404573D01*
X115159643Y-81404573D02*
X115112024Y-81595049D01*
X115112024Y-81595049D02*
X115064405Y-81690287D01*
X115064405Y-81690287D02*
X115016786Y-81737907D01*
X115016786Y-81737907D02*
X114921548Y-81785526D01*
X114921548Y-81785526D02*
X114826310Y-81785526D01*
X114826310Y-81785526D02*
X114731072Y-81737907D01*
X114731072Y-81737907D02*
X114683453Y-81690287D01*
X114683453Y-81690287D02*
X114635834Y-81595049D01*
X114635834Y-81595049D02*
X114588215Y-81404573D01*
X114588215Y-81404573D02*
X114588215Y-81166478D01*
X114588215Y-81166478D02*
X114635834Y-80976002D01*
X114635834Y-80976002D02*
X114683453Y-80880764D01*
X114683453Y-80880764D02*
X114731072Y-80833145D01*
X114731072Y-80833145D02*
X114826310Y-80785526D01*
X115588215Y-81118859D02*
X115588215Y-81785526D01*
X115588215Y-81214097D02*
X115635834Y-81166478D01*
X115635834Y-81166478D02*
X115731072Y-81118859D01*
X115731072Y-81118859D02*
X115873929Y-81118859D01*
X115873929Y-81118859D02*
X115969167Y-81166478D01*
X115969167Y-81166478D02*
X116016786Y-81261716D01*
X116016786Y-81261716D02*
X116016786Y-81785526D01*
X116826310Y-81261716D02*
X116492977Y-81261716D01*
X116492977Y-81785526D02*
X116492977Y-80785526D01*
X116492977Y-80785526D02*
X116969167Y-80785526D01*
X155555302Y-48859887D02*
X155602921Y-48717030D01*
X155602921Y-48717030D02*
X155650540Y-48669411D01*
X155650540Y-48669411D02*
X155745778Y-48621792D01*
X155745778Y-48621792D02*
X155888635Y-48621792D01*
X155888635Y-48621792D02*
X155983873Y-48669411D01*
X155983873Y-48669411D02*
X156031493Y-48717030D01*
X156031493Y-48717030D02*
X156079112Y-48812268D01*
X156079112Y-48812268D02*
X156079112Y-49193220D01*
X156079112Y-49193220D02*
X155079112Y-49193220D01*
X155079112Y-49193220D02*
X155079112Y-48859887D01*
X155079112Y-48859887D02*
X155126731Y-48764649D01*
X155126731Y-48764649D02*
X155174350Y-48717030D01*
X155174350Y-48717030D02*
X155269588Y-48669411D01*
X155269588Y-48669411D02*
X155364826Y-48669411D01*
X155364826Y-48669411D02*
X155460064Y-48717030D01*
X155460064Y-48717030D02*
X155507683Y-48764649D01*
X155507683Y-48764649D02*
X155555302Y-48859887D01*
X155555302Y-48859887D02*
X155555302Y-49193220D01*
X155079112Y-48336077D02*
X155079112Y-47764649D01*
X156079112Y-48050363D02*
X155079112Y-48050363D01*
X156174350Y-47669411D02*
X156174350Y-46907506D01*
X156079112Y-46193220D02*
X156079112Y-46669410D01*
X156079112Y-46669410D02*
X155079112Y-46669410D01*
X156079112Y-45288458D02*
X155602921Y-45621791D01*
X156079112Y-45859886D02*
X155079112Y-45859886D01*
X155079112Y-45859886D02*
X155079112Y-45478934D01*
X155079112Y-45478934D02*
X155126731Y-45383696D01*
X155126731Y-45383696D02*
X155174350Y-45336077D01*
X155174350Y-45336077D02*
X155269588Y-45288458D01*
X155269588Y-45288458D02*
X155412445Y-45288458D01*
X155412445Y-45288458D02*
X155507683Y-45336077D01*
X155507683Y-45336077D02*
X155555302Y-45383696D01*
X155555302Y-45383696D02*
X155602921Y-45478934D01*
X155602921Y-45478934D02*
X155602921Y-45859886D01*
X100326159Y-81578927D02*
X100326159Y-80817023D01*
X100183302Y-80007499D02*
X100230921Y-79864642D01*
X100230921Y-79864642D02*
X100278540Y-79817023D01*
X100278540Y-79817023D02*
X100373778Y-79769404D01*
X100373778Y-79769404D02*
X100516635Y-79769404D01*
X100516635Y-79769404D02*
X100611873Y-79817023D01*
X100611873Y-79817023D02*
X100659493Y-79864642D01*
X100659493Y-79864642D02*
X100707112Y-79959880D01*
X100707112Y-79959880D02*
X100707112Y-80340832D01*
X100707112Y-80340832D02*
X99707112Y-80340832D01*
X99707112Y-80340832D02*
X99707112Y-80007499D01*
X99707112Y-80007499D02*
X99754731Y-79912261D01*
X99754731Y-79912261D02*
X99802350Y-79864642D01*
X99802350Y-79864642D02*
X99897588Y-79817023D01*
X99897588Y-79817023D02*
X99992826Y-79817023D01*
X99992826Y-79817023D02*
X100088064Y-79864642D01*
X100088064Y-79864642D02*
X100135683Y-79912261D01*
X100135683Y-79912261D02*
X100183302Y-80007499D01*
X100183302Y-80007499D02*
X100183302Y-80340832D01*
X100421397Y-79388451D02*
X100421397Y-78912261D01*
X100707112Y-79483689D02*
X99707112Y-79150356D01*
X99707112Y-79150356D02*
X100707112Y-78817023D01*
X99707112Y-78626546D02*
X99707112Y-78055118D01*
X100707112Y-78340832D02*
X99707112Y-78340832D01*
X99707112Y-77864641D02*
X99707112Y-77293213D01*
X100707112Y-77578927D02*
X99707112Y-77578927D01*
X145982731Y-64164118D02*
X145935112Y-64259356D01*
X145935112Y-64259356D02*
X145935112Y-64402213D01*
X145935112Y-64402213D02*
X145982731Y-64545070D01*
X145982731Y-64545070D02*
X146077969Y-64640308D01*
X146077969Y-64640308D02*
X146173207Y-64687927D01*
X146173207Y-64687927D02*
X146363683Y-64735546D01*
X146363683Y-64735546D02*
X146506540Y-64735546D01*
X146506540Y-64735546D02*
X146697016Y-64687927D01*
X146697016Y-64687927D02*
X146792254Y-64640308D01*
X146792254Y-64640308D02*
X146887493Y-64545070D01*
X146887493Y-64545070D02*
X146935112Y-64402213D01*
X146935112Y-64402213D02*
X146935112Y-64306975D01*
X146935112Y-64306975D02*
X146887493Y-64164118D01*
X146887493Y-64164118D02*
X146839873Y-64116499D01*
X146839873Y-64116499D02*
X146506540Y-64116499D01*
X146506540Y-64116499D02*
X146506540Y-64306975D01*
X146935112Y-63687927D02*
X145935112Y-63687927D01*
X145935112Y-63687927D02*
X146935112Y-63116499D01*
X146935112Y-63116499D02*
X145935112Y-63116499D01*
X146935112Y-62640308D02*
X145935112Y-62640308D01*
X145935112Y-62640308D02*
X145935112Y-62402213D01*
X145935112Y-62402213D02*
X145982731Y-62259356D01*
X145982731Y-62259356D02*
X146077969Y-62164118D01*
X146077969Y-62164118D02*
X146173207Y-62116499D01*
X146173207Y-62116499D02*
X146363683Y-62068880D01*
X146363683Y-62068880D02*
X146506540Y-62068880D01*
X146506540Y-62068880D02*
X146697016Y-62116499D01*
X146697016Y-62116499D02*
X146792254Y-62164118D01*
X146792254Y-62164118D02*
X146887493Y-62259356D01*
X146887493Y-62259356D02*
X146935112Y-62402213D01*
X146935112Y-62402213D02*
X146935112Y-62640308D01*
X146213112Y-50908009D02*
X146355969Y-50955628D01*
X146355969Y-50955628D02*
X146403588Y-51003247D01*
X146403588Y-51003247D02*
X146451207Y-51098485D01*
X146451207Y-51098485D02*
X146451207Y-51241342D01*
X146451207Y-51241342D02*
X146403588Y-51336580D01*
X146403588Y-51336580D02*
X146355969Y-51384200D01*
X146355969Y-51384200D02*
X146260731Y-51431819D01*
X146260731Y-51431819D02*
X145879779Y-51431819D01*
X145879779Y-51431819D02*
X145879779Y-50431819D01*
X145879779Y-50431819D02*
X146213112Y-50431819D01*
X146213112Y-50431819D02*
X146308350Y-50479438D01*
X146308350Y-50479438D02*
X146355969Y-50527057D01*
X146355969Y-50527057D02*
X146403588Y-50622295D01*
X146403588Y-50622295D02*
X146403588Y-50717533D01*
X146403588Y-50717533D02*
X146355969Y-50812771D01*
X146355969Y-50812771D02*
X146308350Y-50860390D01*
X146308350Y-50860390D02*
X146213112Y-50908009D01*
X146213112Y-50908009D02*
X145879779Y-50908009D01*
X146736922Y-50431819D02*
X147308350Y-50431819D01*
X147022636Y-51431819D02*
X147022636Y-50431819D01*
X146213112Y-38716716D02*
X146355969Y-38764335D01*
X146355969Y-38764335D02*
X146403588Y-38811954D01*
X146403588Y-38811954D02*
X146451207Y-38907192D01*
X146451207Y-38907192D02*
X146451207Y-39050049D01*
X146451207Y-39050049D02*
X146403588Y-39145287D01*
X146403588Y-39145287D02*
X146355969Y-39192907D01*
X146355969Y-39192907D02*
X146260731Y-39240526D01*
X146260731Y-39240526D02*
X145879779Y-39240526D01*
X145879779Y-39240526D02*
X145879779Y-38240526D01*
X145879779Y-38240526D02*
X146213112Y-38240526D01*
X146213112Y-38240526D02*
X146308350Y-38288145D01*
X146308350Y-38288145D02*
X146355969Y-38335764D01*
X146355969Y-38335764D02*
X146403588Y-38431002D01*
X146403588Y-38431002D02*
X146403588Y-38526240D01*
X146403588Y-38526240D02*
X146355969Y-38621478D01*
X146355969Y-38621478D02*
X146308350Y-38669097D01*
X146308350Y-38669097D02*
X146213112Y-38716716D01*
X146213112Y-38716716D02*
X145879779Y-38716716D01*
X146736922Y-38240526D02*
X147308350Y-38240526D01*
X147022636Y-39240526D02*
X147022636Y-38240526D01*
X155555302Y-62575887D02*
X155602921Y-62433030D01*
X155602921Y-62433030D02*
X155650540Y-62385411D01*
X155650540Y-62385411D02*
X155745778Y-62337792D01*
X155745778Y-62337792D02*
X155888635Y-62337792D01*
X155888635Y-62337792D02*
X155983873Y-62385411D01*
X155983873Y-62385411D02*
X156031493Y-62433030D01*
X156031493Y-62433030D02*
X156079112Y-62528268D01*
X156079112Y-62528268D02*
X156079112Y-62909220D01*
X156079112Y-62909220D02*
X155079112Y-62909220D01*
X155079112Y-62909220D02*
X155079112Y-62575887D01*
X155079112Y-62575887D02*
X155126731Y-62480649D01*
X155126731Y-62480649D02*
X155174350Y-62433030D01*
X155174350Y-62433030D02*
X155269588Y-62385411D01*
X155269588Y-62385411D02*
X155364826Y-62385411D01*
X155364826Y-62385411D02*
X155460064Y-62433030D01*
X155460064Y-62433030D02*
X155507683Y-62480649D01*
X155507683Y-62480649D02*
X155555302Y-62575887D01*
X155555302Y-62575887D02*
X155555302Y-62909220D01*
X155079112Y-62052077D02*
X155079112Y-61480649D01*
X156079112Y-61766363D02*
X155079112Y-61766363D01*
X156174350Y-61385411D02*
X156174350Y-60623506D01*
X156079112Y-59909220D02*
X156079112Y-60385410D01*
X156079112Y-60385410D02*
X155079112Y-60385410D01*
X156079112Y-59099696D02*
X156079112Y-59575886D01*
X156079112Y-59575886D02*
X155079112Y-59575886D01*
X85538561Y-45945588D02*
X85586180Y-45850350D01*
X85586180Y-45850350D02*
X85586180Y-45707493D01*
X85586180Y-45707493D02*
X85538561Y-45564636D01*
X85538561Y-45564636D02*
X85443323Y-45469398D01*
X85443323Y-45469398D02*
X85348085Y-45421779D01*
X85348085Y-45421779D02*
X85157609Y-45374160D01*
X85157609Y-45374160D02*
X85014752Y-45374160D01*
X85014752Y-45374160D02*
X84824276Y-45421779D01*
X84824276Y-45421779D02*
X84729038Y-45469398D01*
X84729038Y-45469398D02*
X84633800Y-45564636D01*
X84633800Y-45564636D02*
X84586180Y-45707493D01*
X84586180Y-45707493D02*
X84586180Y-45802731D01*
X84586180Y-45802731D02*
X84633800Y-45945588D01*
X84633800Y-45945588D02*
X84681419Y-45993207D01*
X84681419Y-45993207D02*
X85014752Y-45993207D01*
X85014752Y-45993207D02*
X85014752Y-45802731D01*
X84586180Y-46421779D02*
X85586180Y-46421779D01*
X85586180Y-46421779D02*
X84586180Y-46993207D01*
X84586180Y-46993207D02*
X85586180Y-46993207D01*
X84586180Y-47469398D02*
X85586180Y-47469398D01*
X85586180Y-47469398D02*
X85586180Y-47707493D01*
X85586180Y-47707493D02*
X85538561Y-47850350D01*
X85538561Y-47850350D02*
X85443323Y-47945588D01*
X85443323Y-47945588D02*
X85348085Y-47993207D01*
X85348085Y-47993207D02*
X85157609Y-48040826D01*
X85157609Y-48040826D02*
X85014752Y-48040826D01*
X85014752Y-48040826D02*
X84824276Y-47993207D01*
X84824276Y-47993207D02*
X84729038Y-47945588D01*
X84729038Y-47945588D02*
X84633800Y-47850350D01*
X84633800Y-47850350D02*
X84586180Y-47707493D01*
X84586180Y-47707493D02*
X84586180Y-47469398D01*
X84871895Y-42199160D02*
X84871895Y-42675350D01*
X84586180Y-42103922D02*
X85586180Y-42437255D01*
X85586180Y-42437255D02*
X84586180Y-42770588D01*
X84586180Y-43103922D02*
X85586180Y-43103922D01*
X84586180Y-43580112D02*
X85586180Y-43580112D01*
X85586180Y-43580112D02*
X84586180Y-44151540D01*
X84586180Y-44151540D02*
X85586180Y-44151540D01*
X145982731Y-56036118D02*
X145935112Y-56131356D01*
X145935112Y-56131356D02*
X145935112Y-56274213D01*
X145935112Y-56274213D02*
X145982731Y-56417070D01*
X145982731Y-56417070D02*
X146077969Y-56512308D01*
X146077969Y-56512308D02*
X146173207Y-56559927D01*
X146173207Y-56559927D02*
X146363683Y-56607546D01*
X146363683Y-56607546D02*
X146506540Y-56607546D01*
X146506540Y-56607546D02*
X146697016Y-56559927D01*
X146697016Y-56559927D02*
X146792254Y-56512308D01*
X146792254Y-56512308D02*
X146887493Y-56417070D01*
X146887493Y-56417070D02*
X146935112Y-56274213D01*
X146935112Y-56274213D02*
X146935112Y-56178975D01*
X146935112Y-56178975D02*
X146887493Y-56036118D01*
X146887493Y-56036118D02*
X146839873Y-55988499D01*
X146839873Y-55988499D02*
X146506540Y-55988499D01*
X146506540Y-55988499D02*
X146506540Y-56178975D01*
X146935112Y-55559927D02*
X145935112Y-55559927D01*
X145935112Y-55559927D02*
X146935112Y-54988499D01*
X146935112Y-54988499D02*
X145935112Y-54988499D01*
X146935112Y-54512308D02*
X145935112Y-54512308D01*
X145935112Y-54512308D02*
X145935112Y-54274213D01*
X145935112Y-54274213D02*
X145982731Y-54131356D01*
X145982731Y-54131356D02*
X146077969Y-54036118D01*
X146077969Y-54036118D02*
X146173207Y-53988499D01*
X146173207Y-53988499D02*
X146363683Y-53940880D01*
X146363683Y-53940880D02*
X146506540Y-53940880D01*
X146506540Y-53940880D02*
X146697016Y-53988499D01*
X146697016Y-53988499D02*
X146792254Y-54036118D01*
X146792254Y-54036118D02*
X146887493Y-54131356D01*
X146887493Y-54131356D02*
X146935112Y-54274213D01*
X146935112Y-54274213D02*
X146935112Y-54512308D01*
X84364160Y-71450200D02*
X84507017Y-71497819D01*
X84507017Y-71497819D02*
X84745112Y-71497819D01*
X84745112Y-71497819D02*
X84840350Y-71450200D01*
X84840350Y-71450200D02*
X84887969Y-71402580D01*
X84887969Y-71402580D02*
X84935588Y-71307342D01*
X84935588Y-71307342D02*
X84935588Y-71212104D01*
X84935588Y-71212104D02*
X84887969Y-71116866D01*
X84887969Y-71116866D02*
X84840350Y-71069247D01*
X84840350Y-71069247D02*
X84745112Y-71021628D01*
X84745112Y-71021628D02*
X84554636Y-70974009D01*
X84554636Y-70974009D02*
X84459398Y-70926390D01*
X84459398Y-70926390D02*
X84411779Y-70878771D01*
X84411779Y-70878771D02*
X84364160Y-70783533D01*
X84364160Y-70783533D02*
X84364160Y-70688295D01*
X84364160Y-70688295D02*
X84411779Y-70593057D01*
X84411779Y-70593057D02*
X84459398Y-70545438D01*
X84459398Y-70545438D02*
X84554636Y-70497819D01*
X84554636Y-70497819D02*
X84792731Y-70497819D01*
X84792731Y-70497819D02*
X84935588Y-70545438D01*
X85935588Y-71402580D02*
X85887969Y-71450200D01*
X85887969Y-71450200D02*
X85745112Y-71497819D01*
X85745112Y-71497819D02*
X85649874Y-71497819D01*
X85649874Y-71497819D02*
X85507017Y-71450200D01*
X85507017Y-71450200D02*
X85411779Y-71354961D01*
X85411779Y-71354961D02*
X85364160Y-71259723D01*
X85364160Y-71259723D02*
X85316541Y-71069247D01*
X85316541Y-71069247D02*
X85316541Y-70926390D01*
X85316541Y-70926390D02*
X85364160Y-70735914D01*
X85364160Y-70735914D02*
X85411779Y-70640676D01*
X85411779Y-70640676D02*
X85507017Y-70545438D01*
X85507017Y-70545438D02*
X85649874Y-70497819D01*
X85649874Y-70497819D02*
X85745112Y-70497819D01*
X85745112Y-70497819D02*
X85887969Y-70545438D01*
X85887969Y-70545438D02*
X85935588Y-70593057D01*
X86840350Y-71497819D02*
X86364160Y-71497819D01*
X86364160Y-71497819D02*
X86364160Y-70497819D01*
D11*
X108497415Y-88957161D02*
X108402177Y-89052400D01*
X108402177Y-89052400D02*
X108116463Y-89147638D01*
X108116463Y-89147638D02*
X107925987Y-89147638D01*
X107925987Y-89147638D02*
X107640272Y-89052400D01*
X107640272Y-89052400D02*
X107449796Y-88861923D01*
X107449796Y-88861923D02*
X107354558Y-88671447D01*
X107354558Y-88671447D02*
X107259320Y-88290495D01*
X107259320Y-88290495D02*
X107259320Y-88004780D01*
X107259320Y-88004780D02*
X107354558Y-87623828D01*
X107354558Y-87623828D02*
X107449796Y-87433352D01*
X107449796Y-87433352D02*
X107640272Y-87242876D01*
X107640272Y-87242876D02*
X107925987Y-87147638D01*
X107925987Y-87147638D02*
X108116463Y-87147638D01*
X108116463Y-87147638D02*
X108402177Y-87242876D01*
X108402177Y-87242876D02*
X108497415Y-87338114D01*
X109354558Y-89147638D02*
X109354558Y-87814304D01*
X109354558Y-88195257D02*
X109449796Y-88004780D01*
X109449796Y-88004780D02*
X109545034Y-87909542D01*
X109545034Y-87909542D02*
X109735510Y-87814304D01*
X109735510Y-87814304D02*
X109925987Y-87814304D01*
X111449796Y-89147638D02*
X111449796Y-88100019D01*
X111449796Y-88100019D02*
X111354558Y-87909542D01*
X111354558Y-87909542D02*
X111164082Y-87814304D01*
X111164082Y-87814304D02*
X110783129Y-87814304D01*
X110783129Y-87814304D02*
X110592653Y-87909542D01*
X111449796Y-89052400D02*
X111259320Y-89147638D01*
X111259320Y-89147638D02*
X110783129Y-89147638D01*
X110783129Y-89147638D02*
X110592653Y-89052400D01*
X110592653Y-89052400D02*
X110497415Y-88861923D01*
X110497415Y-88861923D02*
X110497415Y-88671447D01*
X110497415Y-88671447D02*
X110592653Y-88480971D01*
X110592653Y-88480971D02*
X110783129Y-88385733D01*
X110783129Y-88385733D02*
X111259320Y-88385733D01*
X111259320Y-88385733D02*
X111449796Y-88290495D01*
X112211701Y-87814304D02*
X112592653Y-89147638D01*
X112592653Y-89147638D02*
X112973606Y-88195257D01*
X112973606Y-88195257D02*
X113354558Y-89147638D01*
X113354558Y-89147638D02*
X113735510Y-87814304D01*
X114783129Y-89147638D02*
X114592653Y-89052400D01*
X114592653Y-89052400D02*
X114497415Y-88861923D01*
X114497415Y-88861923D02*
X114497415Y-87147638D01*
X116306939Y-89052400D02*
X116116463Y-89147638D01*
X116116463Y-89147638D02*
X115735510Y-89147638D01*
X115735510Y-89147638D02*
X115545034Y-89052400D01*
X115545034Y-89052400D02*
X115449796Y-88861923D01*
X115449796Y-88861923D02*
X115449796Y-88100019D01*
X115449796Y-88100019D02*
X115545034Y-87909542D01*
X115545034Y-87909542D02*
X115735510Y-87814304D01*
X115735510Y-87814304D02*
X116116463Y-87814304D01*
X116116463Y-87814304D02*
X116306939Y-87909542D01*
X116306939Y-87909542D02*
X116402177Y-88100019D01*
X116402177Y-88100019D02*
X116402177Y-88290495D01*
X116402177Y-88290495D02*
X115449796Y-88480971D01*
X117259320Y-89147638D02*
X117259320Y-87814304D01*
X117259320Y-88195257D02*
X117354558Y-88004780D01*
X117354558Y-88004780D02*
X117449796Y-87909542D01*
X117449796Y-87909542D02*
X117640272Y-87814304D01*
X117640272Y-87814304D02*
X117830749Y-87814304D01*
X119735511Y-87147638D02*
X120402177Y-89147638D01*
X120402177Y-89147638D02*
X121068844Y-87147638D01*
X122687892Y-87147638D02*
X121735511Y-87147638D01*
X121735511Y-87147638D02*
X121640273Y-88100019D01*
X121640273Y-88100019D02*
X121735511Y-88004780D01*
X121735511Y-88004780D02*
X121925987Y-87909542D01*
X121925987Y-87909542D02*
X122402178Y-87909542D01*
X122402178Y-87909542D02*
X122592654Y-88004780D01*
X122592654Y-88004780D02*
X122687892Y-88100019D01*
X122687892Y-88100019D02*
X122783130Y-88290495D01*
X122783130Y-88290495D02*
X122783130Y-88766685D01*
X122783130Y-88766685D02*
X122687892Y-88957161D01*
X122687892Y-88957161D02*
X122592654Y-89052400D01*
X122592654Y-89052400D02*
X122402178Y-89147638D01*
X122402178Y-89147638D02*
X121925987Y-89147638D01*
X121925987Y-89147638D02*
X121735511Y-89052400D01*
X121735511Y-89052400D02*
X121640273Y-88957161D01*
X126306940Y-89147638D02*
X125640273Y-88195257D01*
X125164083Y-89147638D02*
X125164083Y-87147638D01*
X125164083Y-87147638D02*
X125925988Y-87147638D01*
X125925988Y-87147638D02*
X126116464Y-87242876D01*
X126116464Y-87242876D02*
X126211702Y-87338114D01*
X126211702Y-87338114D02*
X126306940Y-87528590D01*
X126306940Y-87528590D02*
X126306940Y-87814304D01*
X126306940Y-87814304D02*
X126211702Y-88004780D01*
X126211702Y-88004780D02*
X126116464Y-88100019D01*
X126116464Y-88100019D02*
X125925988Y-88195257D01*
X125925988Y-88195257D02*
X125164083Y-88195257D01*
X128306940Y-88957161D02*
X128211702Y-89052400D01*
X128211702Y-89052400D02*
X127925988Y-89147638D01*
X127925988Y-89147638D02*
X127735512Y-89147638D01*
X127735512Y-89147638D02*
X127449797Y-89052400D01*
X127449797Y-89052400D02*
X127259321Y-88861923D01*
X127259321Y-88861923D02*
X127164083Y-88671447D01*
X127164083Y-88671447D02*
X127068845Y-88290495D01*
X127068845Y-88290495D02*
X127068845Y-88004780D01*
X127068845Y-88004780D02*
X127164083Y-87623828D01*
X127164083Y-87623828D02*
X127259321Y-87433352D01*
X127259321Y-87433352D02*
X127449797Y-87242876D01*
X127449797Y-87242876D02*
X127735512Y-87147638D01*
X127735512Y-87147638D02*
X127925988Y-87147638D01*
X127925988Y-87147638D02*
X128211702Y-87242876D01*
X128211702Y-87242876D02*
X128306940Y-87338114D01*
X130687893Y-89147638D02*
X130687893Y-87147638D01*
X130687893Y-87147638D02*
X131449798Y-87147638D01*
X131449798Y-87147638D02*
X131640274Y-87242876D01*
X131640274Y-87242876D02*
X131735512Y-87338114D01*
X131735512Y-87338114D02*
X131830750Y-87528590D01*
X131830750Y-87528590D02*
X131830750Y-87814304D01*
X131830750Y-87814304D02*
X131735512Y-88004780D01*
X131735512Y-88004780D02*
X131640274Y-88100019D01*
X131640274Y-88100019D02*
X131449798Y-88195257D01*
X131449798Y-88195257D02*
X130687893Y-88195257D01*
X133830750Y-88957161D02*
X133735512Y-89052400D01*
X133735512Y-89052400D02*
X133449798Y-89147638D01*
X133449798Y-89147638D02*
X133259322Y-89147638D01*
X133259322Y-89147638D02*
X132973607Y-89052400D01*
X132973607Y-89052400D02*
X132783131Y-88861923D01*
X132783131Y-88861923D02*
X132687893Y-88671447D01*
X132687893Y-88671447D02*
X132592655Y-88290495D01*
X132592655Y-88290495D02*
X132592655Y-88004780D01*
X132592655Y-88004780D02*
X132687893Y-87623828D01*
X132687893Y-87623828D02*
X132783131Y-87433352D01*
X132783131Y-87433352D02*
X132973607Y-87242876D01*
X132973607Y-87242876D02*
X133259322Y-87147638D01*
X133259322Y-87147638D02*
X133449798Y-87147638D01*
X133449798Y-87147638D02*
X133735512Y-87242876D01*
X133735512Y-87242876D02*
X133830750Y-87338114D01*
X135354560Y-88100019D02*
X135640274Y-88195257D01*
X135640274Y-88195257D02*
X135735512Y-88290495D01*
X135735512Y-88290495D02*
X135830750Y-88480971D01*
X135830750Y-88480971D02*
X135830750Y-88766685D01*
X135830750Y-88766685D02*
X135735512Y-88957161D01*
X135735512Y-88957161D02*
X135640274Y-89052400D01*
X135640274Y-89052400D02*
X135449798Y-89147638D01*
X135449798Y-89147638D02*
X134687893Y-89147638D01*
X134687893Y-89147638D02*
X134687893Y-87147638D01*
X134687893Y-87147638D02*
X135354560Y-87147638D01*
X135354560Y-87147638D02*
X135545036Y-87242876D01*
X135545036Y-87242876D02*
X135640274Y-87338114D01*
X135640274Y-87338114D02*
X135735512Y-87528590D01*
X135735512Y-87528590D02*
X135735512Y-87719066D01*
X135735512Y-87719066D02*
X135640274Y-87909542D01*
X135640274Y-87909542D02*
X135545036Y-88004780D01*
X135545036Y-88004780D02*
X135354560Y-88100019D01*
X135354560Y-88100019D02*
X134687893Y-88100019D01*
X137925989Y-87147638D02*
X138592655Y-89147638D01*
X138592655Y-89147638D02*
X139259322Y-87147638D01*
X140973608Y-89147638D02*
X139830751Y-89147638D01*
X140402179Y-89147638D02*
X140402179Y-87147638D01*
X140402179Y-87147638D02*
X140211703Y-87433352D01*
X140211703Y-87433352D02*
X140021227Y-87623828D01*
X140021227Y-87623828D02*
X139830751Y-87719066D01*
X141830751Y-88957161D02*
X141925989Y-89052400D01*
X141925989Y-89052400D02*
X141830751Y-89147638D01*
X141830751Y-89147638D02*
X141735513Y-89052400D01*
X141735513Y-89052400D02*
X141830751Y-88957161D01*
X141830751Y-88957161D02*
X141830751Y-89147638D01*
X143830751Y-89147638D02*
X142687894Y-89147638D01*
X143259322Y-89147638D02*
X143259322Y-87147638D01*
X143259322Y-87147638D02*
X143068846Y-87433352D01*
X143068846Y-87433352D02*
X142878370Y-87623828D01*
X142878370Y-87623828D02*
X142687894Y-87719066D01*
D10*
X138790580Y-81446666D02*
X138838200Y-81494285D01*
X138838200Y-81494285D02*
X138885819Y-81637142D01*
X138885819Y-81637142D02*
X138885819Y-81732380D01*
X138885819Y-81732380D02*
X138838200Y-81875237D01*
X138838200Y-81875237D02*
X138742961Y-81970475D01*
X138742961Y-81970475D02*
X138647723Y-82018094D01*
X138647723Y-82018094D02*
X138457247Y-82065713D01*
X138457247Y-82065713D02*
X138314390Y-82065713D01*
X138314390Y-82065713D02*
X138123914Y-82018094D01*
X138123914Y-82018094D02*
X138028676Y-81970475D01*
X138028676Y-81970475D02*
X137933438Y-81875237D01*
X137933438Y-81875237D02*
X137885819Y-81732380D01*
X137885819Y-81732380D02*
X137885819Y-81637142D01*
X137885819Y-81637142D02*
X137933438Y-81494285D01*
X137933438Y-81494285D02*
X137981057Y-81446666D01*
X137885819Y-81113332D02*
X137885819Y-80494285D01*
X137885819Y-80494285D02*
X138266771Y-80827618D01*
X138266771Y-80827618D02*
X138266771Y-80684761D01*
X138266771Y-80684761D02*
X138314390Y-80589523D01*
X138314390Y-80589523D02*
X138362009Y-80541904D01*
X138362009Y-80541904D02*
X138457247Y-80494285D01*
X138457247Y-80494285D02*
X138695342Y-80494285D01*
X138695342Y-80494285D02*
X138790580Y-80541904D01*
X138790580Y-80541904D02*
X138838200Y-80589523D01*
X138838200Y-80589523D02*
X138885819Y-80684761D01*
X138885819Y-80684761D02*
X138885819Y-80970475D01*
X138885819Y-80970475D02*
X138838200Y-81065713D01*
X138838200Y-81065713D02*
X138790580Y-81113332D01*
X136075080Y-63412666D02*
X136122700Y-63460285D01*
X136122700Y-63460285D02*
X136170319Y-63603142D01*
X136170319Y-63603142D02*
X136170319Y-63698380D01*
X136170319Y-63698380D02*
X136122700Y-63841237D01*
X136122700Y-63841237D02*
X136027461Y-63936475D01*
X136027461Y-63936475D02*
X135932223Y-63984094D01*
X135932223Y-63984094D02*
X135741747Y-64031713D01*
X135741747Y-64031713D02*
X135598890Y-64031713D01*
X135598890Y-64031713D02*
X135408414Y-63984094D01*
X135408414Y-63984094D02*
X135313176Y-63936475D01*
X135313176Y-63936475D02*
X135217938Y-63841237D01*
X135217938Y-63841237D02*
X135170319Y-63698380D01*
X135170319Y-63698380D02*
X135170319Y-63603142D01*
X135170319Y-63603142D02*
X135217938Y-63460285D01*
X135217938Y-63460285D02*
X135265557Y-63412666D01*
X136170319Y-62460285D02*
X136170319Y-63031713D01*
X136170319Y-62745999D02*
X135170319Y-62745999D01*
X135170319Y-62745999D02*
X135313176Y-62841237D01*
X135313176Y-62841237D02*
X135408414Y-62936475D01*
X135408414Y-62936475D02*
X135456033Y-63031713D01*
X117295819Y-45886666D02*
X116819628Y-46219999D01*
X117295819Y-46458094D02*
X116295819Y-46458094D01*
X116295819Y-46458094D02*
X116295819Y-46077142D01*
X116295819Y-46077142D02*
X116343438Y-45981904D01*
X116343438Y-45981904D02*
X116391057Y-45934285D01*
X116391057Y-45934285D02*
X116486295Y-45886666D01*
X116486295Y-45886666D02*
X116629152Y-45886666D01*
X116629152Y-45886666D02*
X116724390Y-45934285D01*
X116724390Y-45934285D02*
X116772009Y-45981904D01*
X116772009Y-45981904D02*
X116819628Y-46077142D01*
X116819628Y-46077142D02*
X116819628Y-46458094D01*
X116629152Y-45029523D02*
X117295819Y-45029523D01*
X116248200Y-45267618D02*
X116962485Y-45505713D01*
X116962485Y-45505713D02*
X116962485Y-44886666D01*
X97096819Y-53347857D02*
X96620628Y-53681190D01*
X97096819Y-53919285D02*
X96096819Y-53919285D01*
X96096819Y-53919285D02*
X96096819Y-53538333D01*
X96096819Y-53538333D02*
X96144438Y-53443095D01*
X96144438Y-53443095D02*
X96192057Y-53395476D01*
X96192057Y-53395476D02*
X96287295Y-53347857D01*
X96287295Y-53347857D02*
X96430152Y-53347857D01*
X96430152Y-53347857D02*
X96525390Y-53395476D01*
X96525390Y-53395476D02*
X96573009Y-53443095D01*
X96573009Y-53443095D02*
X96620628Y-53538333D01*
X96620628Y-53538333D02*
X96620628Y-53919285D01*
X97096819Y-52395476D02*
X97096819Y-52966904D01*
X97096819Y-52681190D02*
X96096819Y-52681190D01*
X96096819Y-52681190D02*
X96239676Y-52776428D01*
X96239676Y-52776428D02*
X96334914Y-52871666D01*
X96334914Y-52871666D02*
X96382533Y-52966904D01*
X96096819Y-51776428D02*
X96096819Y-51681190D01*
X96096819Y-51681190D02*
X96144438Y-51585952D01*
X96144438Y-51585952D02*
X96192057Y-51538333D01*
X96192057Y-51538333D02*
X96287295Y-51490714D01*
X96287295Y-51490714D02*
X96477771Y-51443095D01*
X96477771Y-51443095D02*
X96715866Y-51443095D01*
X96715866Y-51443095D02*
X96906342Y-51490714D01*
X96906342Y-51490714D02*
X97001580Y-51538333D01*
X97001580Y-51538333D02*
X97049200Y-51585952D01*
X97049200Y-51585952D02*
X97096819Y-51681190D01*
X97096819Y-51681190D02*
X97096819Y-51776428D01*
X97096819Y-51776428D02*
X97049200Y-51871666D01*
X97049200Y-51871666D02*
X97001580Y-51919285D01*
X97001580Y-51919285D02*
X96906342Y-51966904D01*
X96906342Y-51966904D02*
X96715866Y-52014523D01*
X96715866Y-52014523D02*
X96477771Y-52014523D01*
X96477771Y-52014523D02*
X96287295Y-51966904D01*
X96287295Y-51966904D02*
X96192057Y-51919285D01*
X96192057Y-51919285D02*
X96144438Y-51871666D01*
X96144438Y-51871666D02*
X96096819Y-51776428D01*
X91762819Y-52871666D02*
X91286628Y-53204999D01*
X91762819Y-53443094D02*
X90762819Y-53443094D01*
X90762819Y-53443094D02*
X90762819Y-53062142D01*
X90762819Y-53062142D02*
X90810438Y-52966904D01*
X90810438Y-52966904D02*
X90858057Y-52919285D01*
X90858057Y-52919285D02*
X90953295Y-52871666D01*
X90953295Y-52871666D02*
X91096152Y-52871666D01*
X91096152Y-52871666D02*
X91191390Y-52919285D01*
X91191390Y-52919285D02*
X91239009Y-52966904D01*
X91239009Y-52966904D02*
X91286628Y-53062142D01*
X91286628Y-53062142D02*
X91286628Y-53443094D01*
X91762819Y-52395475D02*
X91762819Y-52204999D01*
X91762819Y-52204999D02*
X91715200Y-52109761D01*
X91715200Y-52109761D02*
X91667580Y-52062142D01*
X91667580Y-52062142D02*
X91524723Y-51966904D01*
X91524723Y-51966904D02*
X91334247Y-51919285D01*
X91334247Y-51919285D02*
X90953295Y-51919285D01*
X90953295Y-51919285D02*
X90858057Y-51966904D01*
X90858057Y-51966904D02*
X90810438Y-52014523D01*
X90810438Y-52014523D02*
X90762819Y-52109761D01*
X90762819Y-52109761D02*
X90762819Y-52300237D01*
X90762819Y-52300237D02*
X90810438Y-52395475D01*
X90810438Y-52395475D02*
X90858057Y-52443094D01*
X90858057Y-52443094D02*
X90953295Y-52490713D01*
X90953295Y-52490713D02*
X91191390Y-52490713D01*
X91191390Y-52490713D02*
X91286628Y-52443094D01*
X91286628Y-52443094D02*
X91334247Y-52395475D01*
X91334247Y-52395475D02*
X91381866Y-52300237D01*
X91381866Y-52300237D02*
X91381866Y-52109761D01*
X91381866Y-52109761D02*
X91334247Y-52014523D01*
X91334247Y-52014523D02*
X91286628Y-51966904D01*
X91286628Y-51966904D02*
X91191390Y-51919285D01*
X79287180Y-54022666D02*
X78572895Y-54022666D01*
X78572895Y-54022666D02*
X78430038Y-53975047D01*
X78430038Y-53975047D02*
X78334800Y-53879809D01*
X78334800Y-53879809D02*
X78287180Y-53736952D01*
X78287180Y-53736952D02*
X78287180Y-53641714D01*
X79287180Y-54403619D02*
X79287180Y-55022666D01*
X79287180Y-55022666D02*
X78906228Y-54689333D01*
X78906228Y-54689333D02*
X78906228Y-54832190D01*
X78906228Y-54832190D02*
X78858609Y-54927428D01*
X78858609Y-54927428D02*
X78810990Y-54975047D01*
X78810990Y-54975047D02*
X78715752Y-55022666D01*
X78715752Y-55022666D02*
X78477657Y-55022666D01*
X78477657Y-55022666D02*
X78382419Y-54975047D01*
X78382419Y-54975047D02*
X78334800Y-54927428D01*
X78334800Y-54927428D02*
X78287180Y-54832190D01*
X78287180Y-54832190D02*
X78287180Y-54546476D01*
X78287180Y-54546476D02*
X78334800Y-54451238D01*
X78334800Y-54451238D02*
X78382419Y-54403619D01*
X122375819Y-45886666D02*
X121899628Y-46219999D01*
X122375819Y-46458094D02*
X121375819Y-46458094D01*
X121375819Y-46458094D02*
X121375819Y-46077142D01*
X121375819Y-46077142D02*
X121423438Y-45981904D01*
X121423438Y-45981904D02*
X121471057Y-45934285D01*
X121471057Y-45934285D02*
X121566295Y-45886666D01*
X121566295Y-45886666D02*
X121709152Y-45886666D01*
X121709152Y-45886666D02*
X121804390Y-45934285D01*
X121804390Y-45934285D02*
X121852009Y-45981904D01*
X121852009Y-45981904D02*
X121899628Y-46077142D01*
X121899628Y-46077142D02*
X121899628Y-46458094D01*
X121375819Y-44981904D02*
X121375819Y-45458094D01*
X121375819Y-45458094D02*
X121852009Y-45505713D01*
X121852009Y-45505713D02*
X121804390Y-45458094D01*
X121804390Y-45458094D02*
X121756771Y-45362856D01*
X121756771Y-45362856D02*
X121756771Y-45124761D01*
X121756771Y-45124761D02*
X121804390Y-45029523D01*
X121804390Y-45029523D02*
X121852009Y-44981904D01*
X121852009Y-44981904D02*
X121947247Y-44934285D01*
X121947247Y-44934285D02*
X122185342Y-44934285D01*
X122185342Y-44934285D02*
X122280580Y-44981904D01*
X122280580Y-44981904D02*
X122328200Y-45029523D01*
X122328200Y-45029523D02*
X122375819Y-45124761D01*
X122375819Y-45124761D02*
X122375819Y-45362856D01*
X122375819Y-45362856D02*
X122328200Y-45458094D01*
X122328200Y-45458094D02*
X122280580Y-45505713D01*
X119093333Y-73352819D02*
X118760000Y-72876628D01*
X118521905Y-73352819D02*
X118521905Y-72352819D01*
X118521905Y-72352819D02*
X118902857Y-72352819D01*
X118902857Y-72352819D02*
X118998095Y-72400438D01*
X118998095Y-72400438D02*
X119045714Y-72448057D01*
X119045714Y-72448057D02*
X119093333Y-72543295D01*
X119093333Y-72543295D02*
X119093333Y-72686152D01*
X119093333Y-72686152D02*
X119045714Y-72781390D01*
X119045714Y-72781390D02*
X118998095Y-72829009D01*
X118998095Y-72829009D02*
X118902857Y-72876628D01*
X118902857Y-72876628D02*
X118521905Y-72876628D01*
X119426667Y-72352819D02*
X120093333Y-72352819D01*
X120093333Y-72352819D02*
X119664762Y-73352819D01*
X139025819Y-73881904D02*
X138025819Y-73881904D01*
X138025819Y-73881904D02*
X138025819Y-73643809D01*
X138025819Y-73643809D02*
X138073438Y-73500952D01*
X138073438Y-73500952D02*
X138168676Y-73405714D01*
X138168676Y-73405714D02*
X138263914Y-73358095D01*
X138263914Y-73358095D02*
X138454390Y-73310476D01*
X138454390Y-73310476D02*
X138597247Y-73310476D01*
X138597247Y-73310476D02*
X138787723Y-73358095D01*
X138787723Y-73358095D02*
X138882961Y-73405714D01*
X138882961Y-73405714D02*
X138978200Y-73500952D01*
X138978200Y-73500952D02*
X139025819Y-73643809D01*
X139025819Y-73643809D02*
X139025819Y-73881904D01*
X138930580Y-72310476D02*
X138978200Y-72358095D01*
X138978200Y-72358095D02*
X139025819Y-72500952D01*
X139025819Y-72500952D02*
X139025819Y-72596190D01*
X139025819Y-72596190D02*
X138978200Y-72739047D01*
X138978200Y-72739047D02*
X138882961Y-72834285D01*
X138882961Y-72834285D02*
X138787723Y-72881904D01*
X138787723Y-72881904D02*
X138597247Y-72929523D01*
X138597247Y-72929523D02*
X138454390Y-72929523D01*
X138454390Y-72929523D02*
X138263914Y-72881904D01*
X138263914Y-72881904D02*
X138168676Y-72834285D01*
X138168676Y-72834285D02*
X138073438Y-72739047D01*
X138073438Y-72739047D02*
X138025819Y-72596190D01*
X138025819Y-72596190D02*
X138025819Y-72500952D01*
X138025819Y-72500952D02*
X138073438Y-72358095D01*
X138073438Y-72358095D02*
X138121057Y-72310476D01*
X137978200Y-71167619D02*
X139263914Y-72024761D01*
X139025819Y-70834285D02*
X138025819Y-70834285D01*
X138025819Y-70834285D02*
X138025819Y-70596190D01*
X138025819Y-70596190D02*
X138073438Y-70453333D01*
X138073438Y-70453333D02*
X138168676Y-70358095D01*
X138168676Y-70358095D02*
X138263914Y-70310476D01*
X138263914Y-70310476D02*
X138454390Y-70262857D01*
X138454390Y-70262857D02*
X138597247Y-70262857D01*
X138597247Y-70262857D02*
X138787723Y-70310476D01*
X138787723Y-70310476D02*
X138882961Y-70358095D01*
X138882961Y-70358095D02*
X138978200Y-70453333D01*
X138978200Y-70453333D02*
X139025819Y-70596190D01*
X139025819Y-70596190D02*
X139025819Y-70834285D01*
X138930580Y-69262857D02*
X138978200Y-69310476D01*
X138978200Y-69310476D02*
X139025819Y-69453333D01*
X139025819Y-69453333D02*
X139025819Y-69548571D01*
X139025819Y-69548571D02*
X138978200Y-69691428D01*
X138978200Y-69691428D02*
X138882961Y-69786666D01*
X138882961Y-69786666D02*
X138787723Y-69834285D01*
X138787723Y-69834285D02*
X138597247Y-69881904D01*
X138597247Y-69881904D02*
X138454390Y-69881904D01*
X138454390Y-69881904D02*
X138263914Y-69834285D01*
X138263914Y-69834285D02*
X138168676Y-69786666D01*
X138168676Y-69786666D02*
X138073438Y-69691428D01*
X138073438Y-69691428D02*
X138025819Y-69548571D01*
X138025819Y-69548571D02*
X138025819Y-69453333D01*
X138025819Y-69453333D02*
X138073438Y-69310476D01*
X138073438Y-69310476D02*
X138121057Y-69262857D01*
X139025819Y-68310476D02*
X139025819Y-68881904D01*
X139025819Y-68596190D02*
X138025819Y-68596190D01*
X138025819Y-68596190D02*
X138168676Y-68691428D01*
X138168676Y-68691428D02*
X138263914Y-68786666D01*
X138263914Y-68786666D02*
X138311533Y-68881904D01*
X136522819Y-75895030D02*
X136522819Y-76371220D01*
X136522819Y-76371220D02*
X135522819Y-76371220D01*
X136522819Y-75561696D02*
X135522819Y-75561696D01*
X135522819Y-75561696D02*
X136237104Y-75228363D01*
X136237104Y-75228363D02*
X135522819Y-74895030D01*
X135522819Y-74895030D02*
X136522819Y-74895030D01*
X135999009Y-74418839D02*
X135999009Y-74085506D01*
X136522819Y-73942649D02*
X136522819Y-74418839D01*
X136522819Y-74418839D02*
X135522819Y-74418839D01*
X135522819Y-74418839D02*
X135522819Y-73942649D01*
X135522819Y-73609315D02*
X135522819Y-72942649D01*
X135522819Y-72942649D02*
X136522819Y-73371220D01*
X135951390Y-72418839D02*
X135903771Y-72514077D01*
X135903771Y-72514077D02*
X135856152Y-72561696D01*
X135856152Y-72561696D02*
X135760914Y-72609315D01*
X135760914Y-72609315D02*
X135713295Y-72609315D01*
X135713295Y-72609315D02*
X135618057Y-72561696D01*
X135618057Y-72561696D02*
X135570438Y-72514077D01*
X135570438Y-72514077D02*
X135522819Y-72418839D01*
X135522819Y-72418839D02*
X135522819Y-72228363D01*
X135522819Y-72228363D02*
X135570438Y-72133125D01*
X135570438Y-72133125D02*
X135618057Y-72085506D01*
X135618057Y-72085506D02*
X135713295Y-72037887D01*
X135713295Y-72037887D02*
X135760914Y-72037887D01*
X135760914Y-72037887D02*
X135856152Y-72085506D01*
X135856152Y-72085506D02*
X135903771Y-72133125D01*
X135903771Y-72133125D02*
X135951390Y-72228363D01*
X135951390Y-72228363D02*
X135951390Y-72418839D01*
X135951390Y-72418839D02*
X135999009Y-72514077D01*
X135999009Y-72514077D02*
X136046628Y-72561696D01*
X136046628Y-72561696D02*
X136141866Y-72609315D01*
X136141866Y-72609315D02*
X136332342Y-72609315D01*
X136332342Y-72609315D02*
X136427580Y-72561696D01*
X136427580Y-72561696D02*
X136475200Y-72514077D01*
X136475200Y-72514077D02*
X136522819Y-72418839D01*
X136522819Y-72418839D02*
X136522819Y-72228363D01*
X136522819Y-72228363D02*
X136475200Y-72133125D01*
X136475200Y-72133125D02*
X136427580Y-72085506D01*
X136427580Y-72085506D02*
X136332342Y-72037887D01*
X136332342Y-72037887D02*
X136141866Y-72037887D01*
X136141866Y-72037887D02*
X136046628Y-72085506D01*
X136046628Y-72085506D02*
X135999009Y-72133125D01*
X135999009Y-72133125D02*
X135951390Y-72228363D01*
X136618057Y-71847411D02*
X136618057Y-71085506D01*
X135522819Y-70656934D02*
X135522819Y-70561696D01*
X135522819Y-70561696D02*
X135570438Y-70466458D01*
X135570438Y-70466458D02*
X135618057Y-70418839D01*
X135618057Y-70418839D02*
X135713295Y-70371220D01*
X135713295Y-70371220D02*
X135903771Y-70323601D01*
X135903771Y-70323601D02*
X136141866Y-70323601D01*
X136141866Y-70323601D02*
X136332342Y-70371220D01*
X136332342Y-70371220D02*
X136427580Y-70418839D01*
X136427580Y-70418839D02*
X136475200Y-70466458D01*
X136475200Y-70466458D02*
X136522819Y-70561696D01*
X136522819Y-70561696D02*
X136522819Y-70656934D01*
X136522819Y-70656934D02*
X136475200Y-70752172D01*
X136475200Y-70752172D02*
X136427580Y-70799791D01*
X136427580Y-70799791D02*
X136332342Y-70847410D01*
X136332342Y-70847410D02*
X136141866Y-70895029D01*
X136141866Y-70895029D02*
X135903771Y-70895029D01*
X135903771Y-70895029D02*
X135713295Y-70847410D01*
X135713295Y-70847410D02*
X135618057Y-70799791D01*
X135618057Y-70799791D02*
X135570438Y-70752172D01*
X135570438Y-70752172D02*
X135522819Y-70656934D01*
X135522819Y-69990267D02*
X135522819Y-69371220D01*
X135522819Y-69371220D02*
X135903771Y-69704553D01*
X135903771Y-69704553D02*
X135903771Y-69561696D01*
X135903771Y-69561696D02*
X135951390Y-69466458D01*
X135951390Y-69466458D02*
X135999009Y-69418839D01*
X135999009Y-69418839D02*
X136094247Y-69371220D01*
X136094247Y-69371220D02*
X136332342Y-69371220D01*
X136332342Y-69371220D02*
X136427580Y-69418839D01*
X136427580Y-69418839D02*
X136475200Y-69466458D01*
X136475200Y-69466458D02*
X136522819Y-69561696D01*
X136522819Y-69561696D02*
X136522819Y-69847410D01*
X136522819Y-69847410D02*
X136475200Y-69942648D01*
X136475200Y-69942648D02*
X136427580Y-69990267D01*
X136141866Y-68942648D02*
X136141866Y-68180744D01*
X136522819Y-67180744D02*
X136522819Y-67752172D01*
X136522819Y-67466458D02*
X135522819Y-67466458D01*
X135522819Y-67466458D02*
X135665676Y-67561696D01*
X135665676Y-67561696D02*
X135760914Y-67656934D01*
X135760914Y-67656934D02*
X135808533Y-67752172D01*
X136427580Y-66752172D02*
X136475200Y-66704553D01*
X136475200Y-66704553D02*
X136522819Y-66752172D01*
X136522819Y-66752172D02*
X136475200Y-66799791D01*
X136475200Y-66799791D02*
X136427580Y-66752172D01*
X136427580Y-66752172D02*
X136522819Y-66752172D01*
X135522819Y-66085506D02*
X135522819Y-65990268D01*
X135522819Y-65990268D02*
X135570438Y-65895030D01*
X135570438Y-65895030D02*
X135618057Y-65847411D01*
X135618057Y-65847411D02*
X135713295Y-65799792D01*
X135713295Y-65799792D02*
X135903771Y-65752173D01*
X135903771Y-65752173D02*
X136141866Y-65752173D01*
X136141866Y-65752173D02*
X136332342Y-65799792D01*
X136332342Y-65799792D02*
X136427580Y-65847411D01*
X136427580Y-65847411D02*
X136475200Y-65895030D01*
X136475200Y-65895030D02*
X136522819Y-65990268D01*
X136522819Y-65990268D02*
X136522819Y-66085506D01*
X136522819Y-66085506D02*
X136475200Y-66180744D01*
X136475200Y-66180744D02*
X136427580Y-66228363D01*
X136427580Y-66228363D02*
X136332342Y-66275982D01*
X136332342Y-66275982D02*
X136141866Y-66323601D01*
X136141866Y-66323601D02*
X135903771Y-66323601D01*
X135903771Y-66323601D02*
X135713295Y-66275982D01*
X135713295Y-66275982D02*
X135618057Y-66228363D01*
X135618057Y-66228363D02*
X135570438Y-66180744D01*
X135570438Y-66180744D02*
X135522819Y-66085506D01*
X127455819Y-45886666D02*
X126979628Y-46219999D01*
X127455819Y-46458094D02*
X126455819Y-46458094D01*
X126455819Y-46458094D02*
X126455819Y-46077142D01*
X126455819Y-46077142D02*
X126503438Y-45981904D01*
X126503438Y-45981904D02*
X126551057Y-45934285D01*
X126551057Y-45934285D02*
X126646295Y-45886666D01*
X126646295Y-45886666D02*
X126789152Y-45886666D01*
X126789152Y-45886666D02*
X126884390Y-45934285D01*
X126884390Y-45934285D02*
X126932009Y-45981904D01*
X126932009Y-45981904D02*
X126979628Y-46077142D01*
X126979628Y-46077142D02*
X126979628Y-46458094D01*
X126455819Y-45029523D02*
X126455819Y-45219999D01*
X126455819Y-45219999D02*
X126503438Y-45315237D01*
X126503438Y-45315237D02*
X126551057Y-45362856D01*
X126551057Y-45362856D02*
X126693914Y-45458094D01*
X126693914Y-45458094D02*
X126884390Y-45505713D01*
X126884390Y-45505713D02*
X127265342Y-45505713D01*
X127265342Y-45505713D02*
X127360580Y-45458094D01*
X127360580Y-45458094D02*
X127408200Y-45410475D01*
X127408200Y-45410475D02*
X127455819Y-45315237D01*
X127455819Y-45315237D02*
X127455819Y-45124761D01*
X127455819Y-45124761D02*
X127408200Y-45029523D01*
X127408200Y-45029523D02*
X127360580Y-44981904D01*
X127360580Y-44981904D02*
X127265342Y-44934285D01*
X127265342Y-44934285D02*
X127027247Y-44934285D01*
X127027247Y-44934285D02*
X126932009Y-44981904D01*
X126932009Y-44981904D02*
X126884390Y-45029523D01*
X126884390Y-45029523D02*
X126836771Y-45124761D01*
X126836771Y-45124761D02*
X126836771Y-45315237D01*
X126836771Y-45315237D02*
X126884390Y-45410475D01*
X126884390Y-45410475D02*
X126932009Y-45458094D01*
X126932009Y-45458094D02*
X127027247Y-45505713D01*
X152226819Y-86693333D02*
X152941104Y-86693333D01*
X152941104Y-86693333D02*
X153083961Y-86740952D01*
X153083961Y-86740952D02*
X153179200Y-86836190D01*
X153179200Y-86836190D02*
X153226819Y-86979047D01*
X153226819Y-86979047D02*
X153226819Y-87074285D01*
X152226819Y-85788571D02*
X152226819Y-85979047D01*
X152226819Y-85979047D02*
X152274438Y-86074285D01*
X152274438Y-86074285D02*
X152322057Y-86121904D01*
X152322057Y-86121904D02*
X152464914Y-86217142D01*
X152464914Y-86217142D02*
X152655390Y-86264761D01*
X152655390Y-86264761D02*
X153036342Y-86264761D01*
X153036342Y-86264761D02*
X153131580Y-86217142D01*
X153131580Y-86217142D02*
X153179200Y-86169523D01*
X153179200Y-86169523D02*
X153226819Y-86074285D01*
X153226819Y-86074285D02*
X153226819Y-85883809D01*
X153226819Y-85883809D02*
X153179200Y-85788571D01*
X153179200Y-85788571D02*
X153131580Y-85740952D01*
X153131580Y-85740952D02*
X153036342Y-85693333D01*
X153036342Y-85693333D02*
X152798247Y-85693333D01*
X152798247Y-85693333D02*
X152703009Y-85740952D01*
X152703009Y-85740952D02*
X152655390Y-85788571D01*
X152655390Y-85788571D02*
X152607771Y-85883809D01*
X152607771Y-85883809D02*
X152607771Y-86074285D01*
X152607771Y-86074285D02*
X152655390Y-86169523D01*
X152655390Y-86169523D02*
X152703009Y-86217142D01*
X152703009Y-86217142D02*
X152798247Y-86264761D01*
X152226819Y-75263333D02*
X152941104Y-75263333D01*
X152941104Y-75263333D02*
X153083961Y-75310952D01*
X153083961Y-75310952D02*
X153179200Y-75406190D01*
X153179200Y-75406190D02*
X153226819Y-75549047D01*
X153226819Y-75549047D02*
X153226819Y-75644285D01*
X153226819Y-74739523D02*
X153226819Y-74549047D01*
X153226819Y-74549047D02*
X153179200Y-74453809D01*
X153179200Y-74453809D02*
X153131580Y-74406190D01*
X153131580Y-74406190D02*
X152988723Y-74310952D01*
X152988723Y-74310952D02*
X152798247Y-74263333D01*
X152798247Y-74263333D02*
X152417295Y-74263333D01*
X152417295Y-74263333D02*
X152322057Y-74310952D01*
X152322057Y-74310952D02*
X152274438Y-74358571D01*
X152274438Y-74358571D02*
X152226819Y-74453809D01*
X152226819Y-74453809D02*
X152226819Y-74644285D01*
X152226819Y-74644285D02*
X152274438Y-74739523D01*
X152274438Y-74739523D02*
X152322057Y-74787142D01*
X152322057Y-74787142D02*
X152417295Y-74834761D01*
X152417295Y-74834761D02*
X152655390Y-74834761D01*
X152655390Y-74834761D02*
X152750628Y-74787142D01*
X152750628Y-74787142D02*
X152798247Y-74739523D01*
X152798247Y-74739523D02*
X152845866Y-74644285D01*
X152845866Y-74644285D02*
X152845866Y-74453809D01*
X152845866Y-74453809D02*
X152798247Y-74358571D01*
X152798247Y-74358571D02*
X152750628Y-74310952D01*
X152750628Y-74310952D02*
X152655390Y-74263333D01*
X112215819Y-45886666D02*
X111739628Y-46219999D01*
X112215819Y-46458094D02*
X111215819Y-46458094D01*
X111215819Y-46458094D02*
X111215819Y-46077142D01*
X111215819Y-46077142D02*
X111263438Y-45981904D01*
X111263438Y-45981904D02*
X111311057Y-45934285D01*
X111311057Y-45934285D02*
X111406295Y-45886666D01*
X111406295Y-45886666D02*
X111549152Y-45886666D01*
X111549152Y-45886666D02*
X111644390Y-45934285D01*
X111644390Y-45934285D02*
X111692009Y-45981904D01*
X111692009Y-45981904D02*
X111739628Y-46077142D01*
X111739628Y-46077142D02*
X111739628Y-46458094D01*
X111215819Y-45553332D02*
X111215819Y-44934285D01*
X111215819Y-44934285D02*
X111596771Y-45267618D01*
X111596771Y-45267618D02*
X111596771Y-45124761D01*
X111596771Y-45124761D02*
X111644390Y-45029523D01*
X111644390Y-45029523D02*
X111692009Y-44981904D01*
X111692009Y-44981904D02*
X111787247Y-44934285D01*
X111787247Y-44934285D02*
X112025342Y-44934285D01*
X112025342Y-44934285D02*
X112120580Y-44981904D01*
X112120580Y-44981904D02*
X112168200Y-45029523D01*
X112168200Y-45029523D02*
X112215819Y-45124761D01*
X112215819Y-45124761D02*
X112215819Y-45410475D01*
X112215819Y-45410475D02*
X112168200Y-45505713D01*
X112168200Y-45505713D02*
X112120580Y-45553332D01*
X130148458Y-81160180D02*
X129529411Y-81160180D01*
X129529411Y-81160180D02*
X129862744Y-80779228D01*
X129862744Y-80779228D02*
X129719887Y-80779228D01*
X129719887Y-80779228D02*
X129624649Y-80731609D01*
X129624649Y-80731609D02*
X129577030Y-80683990D01*
X129577030Y-80683990D02*
X129529411Y-80588752D01*
X129529411Y-80588752D02*
X129529411Y-80350657D01*
X129529411Y-80350657D02*
X129577030Y-80255419D01*
X129577030Y-80255419D02*
X129624649Y-80207800D01*
X129624649Y-80207800D02*
X129719887Y-80160180D01*
X129719887Y-80160180D02*
X130005601Y-80160180D01*
X130005601Y-80160180D02*
X130100839Y-80207800D01*
X130100839Y-80207800D02*
X130148458Y-80255419D01*
X129243696Y-81160180D02*
X128910363Y-80160180D01*
X128910363Y-80160180D02*
X128577030Y-81160180D01*
X128338934Y-81160180D02*
X127719887Y-81160180D01*
X127719887Y-81160180D02*
X128053220Y-80779228D01*
X128053220Y-80779228D02*
X127910363Y-80779228D01*
X127910363Y-80779228D02*
X127815125Y-80731609D01*
X127815125Y-80731609D02*
X127767506Y-80683990D01*
X127767506Y-80683990D02*
X127719887Y-80588752D01*
X127719887Y-80588752D02*
X127719887Y-80350657D01*
X127719887Y-80350657D02*
X127767506Y-80255419D01*
X127767506Y-80255419D02*
X127815125Y-80207800D01*
X127815125Y-80207800D02*
X127910363Y-80160180D01*
X127910363Y-80160180D02*
X128196077Y-80160180D01*
X128196077Y-80160180D02*
X128291315Y-80207800D01*
X128291315Y-80207800D02*
X128338934Y-80255419D01*
X120694220Y-33642180D02*
X120694220Y-32832657D01*
X120694220Y-32832657D02*
X120646601Y-32737419D01*
X120646601Y-32737419D02*
X120598982Y-32689800D01*
X120598982Y-32689800D02*
X120503744Y-32642180D01*
X120503744Y-32642180D02*
X120313268Y-32642180D01*
X120313268Y-32642180D02*
X120218030Y-32689800D01*
X120218030Y-32689800D02*
X120170411Y-32737419D01*
X120170411Y-32737419D02*
X120122792Y-32832657D01*
X120122792Y-32832657D02*
X120122792Y-33642180D01*
X119694220Y-32689800D02*
X119551363Y-32642180D01*
X119551363Y-32642180D02*
X119313268Y-32642180D01*
X119313268Y-32642180D02*
X119218030Y-32689800D01*
X119218030Y-32689800D02*
X119170411Y-32737419D01*
X119170411Y-32737419D02*
X119122792Y-32832657D01*
X119122792Y-32832657D02*
X119122792Y-32927895D01*
X119122792Y-32927895D02*
X119170411Y-33023133D01*
X119170411Y-33023133D02*
X119218030Y-33070752D01*
X119218030Y-33070752D02*
X119313268Y-33118371D01*
X119313268Y-33118371D02*
X119503744Y-33165990D01*
X119503744Y-33165990D02*
X119598982Y-33213609D01*
X119598982Y-33213609D02*
X119646601Y-33261228D01*
X119646601Y-33261228D02*
X119694220Y-33356466D01*
X119694220Y-33356466D02*
X119694220Y-33451704D01*
X119694220Y-33451704D02*
X119646601Y-33546942D01*
X119646601Y-33546942D02*
X119598982Y-33594561D01*
X119598982Y-33594561D02*
X119503744Y-33642180D01*
X119503744Y-33642180D02*
X119265649Y-33642180D01*
X119265649Y-33642180D02*
X119122792Y-33594561D01*
X118360887Y-33165990D02*
X118218030Y-33118371D01*
X118218030Y-33118371D02*
X118170411Y-33070752D01*
X118170411Y-33070752D02*
X118122792Y-32975514D01*
X118122792Y-32975514D02*
X118122792Y-32832657D01*
X118122792Y-32832657D02*
X118170411Y-32737419D01*
X118170411Y-32737419D02*
X118218030Y-32689800D01*
X118218030Y-32689800D02*
X118313268Y-32642180D01*
X118313268Y-32642180D02*
X118694220Y-32642180D01*
X118694220Y-32642180D02*
X118694220Y-33642180D01*
X118694220Y-33642180D02*
X118360887Y-33642180D01*
X118360887Y-33642180D02*
X118265649Y-33594561D01*
X118265649Y-33594561D02*
X118218030Y-33546942D01*
X118218030Y-33546942D02*
X118170411Y-33451704D01*
X118170411Y-33451704D02*
X118170411Y-33356466D01*
X118170411Y-33356466D02*
X118218030Y-33261228D01*
X118218030Y-33261228D02*
X118265649Y-33213609D01*
X118265649Y-33213609D02*
X118360887Y-33165990D01*
X118360887Y-33165990D02*
X118694220Y-33165990D01*
X110529411Y-81092561D02*
X110624649Y-81140180D01*
X110624649Y-81140180D02*
X110767506Y-81140180D01*
X110767506Y-81140180D02*
X110910363Y-81092561D01*
X110910363Y-81092561D02*
X111005601Y-80997323D01*
X111005601Y-80997323D02*
X111053220Y-80902085D01*
X111053220Y-80902085D02*
X111100839Y-80711609D01*
X111100839Y-80711609D02*
X111100839Y-80568752D01*
X111100839Y-80568752D02*
X111053220Y-80378276D01*
X111053220Y-80378276D02*
X111005601Y-80283038D01*
X111005601Y-80283038D02*
X110910363Y-80187800D01*
X110910363Y-80187800D02*
X110767506Y-80140180D01*
X110767506Y-80140180D02*
X110672268Y-80140180D01*
X110672268Y-80140180D02*
X110529411Y-80187800D01*
X110529411Y-80187800D02*
X110481792Y-80235419D01*
X110481792Y-80235419D02*
X110481792Y-80568752D01*
X110481792Y-80568752D02*
X110672268Y-80568752D01*
X110053220Y-80140180D02*
X110053220Y-81140180D01*
X110053220Y-81140180D02*
X109481792Y-80140180D01*
X109481792Y-80140180D02*
X109481792Y-81140180D01*
X109005601Y-80140180D02*
X109005601Y-81140180D01*
X109005601Y-81140180D02*
X108767506Y-81140180D01*
X108767506Y-81140180D02*
X108624649Y-81092561D01*
X108624649Y-81092561D02*
X108529411Y-80997323D01*
X108529411Y-80997323D02*
X108481792Y-80902085D01*
X108481792Y-80902085D02*
X108434173Y-80711609D01*
X108434173Y-80711609D02*
X108434173Y-80568752D01*
X108434173Y-80568752D02*
X108481792Y-80378276D01*
X108481792Y-80378276D02*
X108529411Y-80283038D01*
X108529411Y-80283038D02*
X108624649Y-80187800D01*
X108624649Y-80187800D02*
X108767506Y-80140180D01*
X108767506Y-80140180D02*
X109005601Y-80140180D01*
X99938180Y-50739922D02*
X98938180Y-51073255D01*
X98938180Y-51073255D02*
X99938180Y-51406588D01*
X98938180Y-51739922D02*
X99938180Y-51739922D01*
X99938180Y-51739922D02*
X99938180Y-51978017D01*
X99938180Y-51978017D02*
X99890561Y-52120874D01*
X99890561Y-52120874D02*
X99795323Y-52216112D01*
X99795323Y-52216112D02*
X99700085Y-52263731D01*
X99700085Y-52263731D02*
X99509609Y-52311350D01*
X99509609Y-52311350D02*
X99366752Y-52311350D01*
X99366752Y-52311350D02*
X99176276Y-52263731D01*
X99176276Y-52263731D02*
X99081038Y-52216112D01*
X99081038Y-52216112D02*
X98985800Y-52120874D01*
X98985800Y-52120874D02*
X98938180Y-51978017D01*
X98938180Y-51978017D02*
X98938180Y-51739922D01*
X98938180Y-52739922D02*
X99938180Y-52739922D01*
X99938180Y-52739922D02*
X99938180Y-52978017D01*
X99938180Y-52978017D02*
X99890561Y-53120874D01*
X99890561Y-53120874D02*
X99795323Y-53216112D01*
X99795323Y-53216112D02*
X99700085Y-53263731D01*
X99700085Y-53263731D02*
X99509609Y-53311350D01*
X99509609Y-53311350D02*
X99366752Y-53311350D01*
X99366752Y-53311350D02*
X99176276Y-53263731D01*
X99176276Y-53263731D02*
X99081038Y-53216112D01*
X99081038Y-53216112D02*
X98985800Y-53120874D01*
X98985800Y-53120874D02*
X98938180Y-52978017D01*
X98938180Y-52978017D02*
X98938180Y-52739922D01*
X103795895Y-37627160D02*
X103795895Y-38103350D01*
X103510180Y-37531922D02*
X104510180Y-37865255D01*
X104510180Y-37865255D02*
X103510180Y-38198588D01*
X103510180Y-38531922D02*
X104510180Y-38531922D01*
X104510180Y-38531922D02*
X104510180Y-38770017D01*
X104510180Y-38770017D02*
X104462561Y-38912874D01*
X104462561Y-38912874D02*
X104367323Y-39008112D01*
X104367323Y-39008112D02*
X104272085Y-39055731D01*
X104272085Y-39055731D02*
X104081609Y-39103350D01*
X104081609Y-39103350D02*
X103938752Y-39103350D01*
X103938752Y-39103350D02*
X103748276Y-39055731D01*
X103748276Y-39055731D02*
X103653038Y-39008112D01*
X103653038Y-39008112D02*
X103557800Y-38912874D01*
X103557800Y-38912874D02*
X103510180Y-38770017D01*
X103510180Y-38770017D02*
X103510180Y-38531922D01*
X103557800Y-39484303D02*
X103510180Y-39627160D01*
X103510180Y-39627160D02*
X103510180Y-39865255D01*
X103510180Y-39865255D02*
X103557800Y-39960493D01*
X103557800Y-39960493D02*
X103605419Y-40008112D01*
X103605419Y-40008112D02*
X103700657Y-40055731D01*
X103700657Y-40055731D02*
X103795895Y-40055731D01*
X103795895Y-40055731D02*
X103891133Y-40008112D01*
X103891133Y-40008112D02*
X103938752Y-39960493D01*
X103938752Y-39960493D02*
X103986371Y-39865255D01*
X103986371Y-39865255D02*
X104033990Y-39674779D01*
X104033990Y-39674779D02*
X104081609Y-39579541D01*
X104081609Y-39579541D02*
X104129228Y-39531922D01*
X104129228Y-39531922D02*
X104224466Y-39484303D01*
X104224466Y-39484303D02*
X104319704Y-39484303D01*
X104319704Y-39484303D02*
X104414942Y-39531922D01*
X104414942Y-39531922D02*
X104462561Y-39579541D01*
X104462561Y-39579541D02*
X104510180Y-39674779D01*
X104510180Y-39674779D02*
X104510180Y-39912874D01*
X104510180Y-39912874D02*
X104462561Y-40055731D01*
X103510180Y-41008112D02*
X103510180Y-40436684D01*
X103510180Y-40722398D02*
X104510180Y-40722398D01*
X104510180Y-40722398D02*
X104367323Y-40627160D01*
X104367323Y-40627160D02*
X104272085Y-40531922D01*
X104272085Y-40531922D02*
X104224466Y-40436684D01*
X103510180Y-41960493D02*
X103510180Y-41389065D01*
X103510180Y-41674779D02*
X104510180Y-41674779D01*
X104510180Y-41674779D02*
X104367323Y-41579541D01*
X104367323Y-41579541D02*
X104272085Y-41484303D01*
X104272085Y-41484303D02*
X104224466Y-41389065D01*
X103510180Y-42912874D02*
X103510180Y-42341446D01*
X103510180Y-42627160D02*
X104510180Y-42627160D01*
X104510180Y-42627160D02*
X104367323Y-42531922D01*
X104367323Y-42531922D02*
X104272085Y-42436684D01*
X104272085Y-42436684D02*
X104224466Y-42341446D01*
X104510180Y-43817636D02*
X104510180Y-43341446D01*
X104510180Y-43341446D02*
X104033990Y-43293827D01*
X104033990Y-43293827D02*
X104081609Y-43341446D01*
X104081609Y-43341446D02*
X104129228Y-43436684D01*
X104129228Y-43436684D02*
X104129228Y-43674779D01*
X104129228Y-43674779D02*
X104081609Y-43770017D01*
X104081609Y-43770017D02*
X104033990Y-43817636D01*
X104033990Y-43817636D02*
X103938752Y-43865255D01*
X103938752Y-43865255D02*
X103700657Y-43865255D01*
X103700657Y-43865255D02*
X103605419Y-43817636D01*
X103605419Y-43817636D02*
X103557800Y-43770017D01*
X103557800Y-43770017D02*
X103510180Y-43674779D01*
X103510180Y-43674779D02*
X103510180Y-43436684D01*
X103510180Y-43436684D02*
X103557800Y-43341446D01*
X103557800Y-43341446D02*
X103605419Y-43293827D01*
X119214333Y-67764819D02*
X118881000Y-67288628D01*
X118642905Y-67764819D02*
X118642905Y-66764819D01*
X118642905Y-66764819D02*
X119023857Y-66764819D01*
X119023857Y-66764819D02*
X119119095Y-66812438D01*
X119119095Y-66812438D02*
X119166714Y-66860057D01*
X119166714Y-66860057D02*
X119214333Y-66955295D01*
X119214333Y-66955295D02*
X119214333Y-67098152D01*
X119214333Y-67098152D02*
X119166714Y-67193390D01*
X119166714Y-67193390D02*
X119119095Y-67241009D01*
X119119095Y-67241009D02*
X119023857Y-67288628D01*
X119023857Y-67288628D02*
X118642905Y-67288628D01*
X119785762Y-67193390D02*
X119690524Y-67145771D01*
X119690524Y-67145771D02*
X119642905Y-67098152D01*
X119642905Y-67098152D02*
X119595286Y-67002914D01*
X119595286Y-67002914D02*
X119595286Y-66955295D01*
X119595286Y-66955295D02*
X119642905Y-66860057D01*
X119642905Y-66860057D02*
X119690524Y-66812438D01*
X119690524Y-66812438D02*
X119785762Y-66764819D01*
X119785762Y-66764819D02*
X119976238Y-66764819D01*
X119976238Y-66764819D02*
X120071476Y-66812438D01*
X120071476Y-66812438D02*
X120119095Y-66860057D01*
X120119095Y-66860057D02*
X120166714Y-66955295D01*
X120166714Y-66955295D02*
X120166714Y-67002914D01*
X120166714Y-67002914D02*
X120119095Y-67098152D01*
X120119095Y-67098152D02*
X120071476Y-67145771D01*
X120071476Y-67145771D02*
X119976238Y-67193390D01*
X119976238Y-67193390D02*
X119785762Y-67193390D01*
X119785762Y-67193390D02*
X119690524Y-67241009D01*
X119690524Y-67241009D02*
X119642905Y-67288628D01*
X119642905Y-67288628D02*
X119595286Y-67383866D01*
X119595286Y-67383866D02*
X119595286Y-67574342D01*
X119595286Y-67574342D02*
X119642905Y-67669580D01*
X119642905Y-67669580D02*
X119690524Y-67717200D01*
X119690524Y-67717200D02*
X119785762Y-67764819D01*
X119785762Y-67764819D02*
X119976238Y-67764819D01*
X119976238Y-67764819D02*
X120071476Y-67717200D01*
X120071476Y-67717200D02*
X120119095Y-67669580D01*
X120119095Y-67669580D02*
X120166714Y-67574342D01*
X120166714Y-67574342D02*
X120166714Y-67383866D01*
X120166714Y-67383866D02*
X120119095Y-67288628D01*
X120119095Y-67288628D02*
X120071476Y-67241009D01*
X120071476Y-67241009D02*
X119976238Y-67193390D01*
X152226819Y-47799523D02*
X152941104Y-47799523D01*
X152941104Y-47799523D02*
X153083961Y-47847142D01*
X153083961Y-47847142D02*
X153179200Y-47942380D01*
X153179200Y-47942380D02*
X153226819Y-48085237D01*
X153226819Y-48085237D02*
X153226819Y-48180475D01*
X153226819Y-46799523D02*
X153226819Y-47370951D01*
X153226819Y-47085237D02*
X152226819Y-47085237D01*
X152226819Y-47085237D02*
X152369676Y-47180475D01*
X152369676Y-47180475D02*
X152464914Y-47275713D01*
X152464914Y-47275713D02*
X152512533Y-47370951D01*
X153226819Y-45847142D02*
X153226819Y-46418570D01*
X153226819Y-46132856D02*
X152226819Y-46132856D01*
X152226819Y-46132856D02*
X152369676Y-46228094D01*
X152369676Y-46228094D02*
X152464914Y-46323332D01*
X152464914Y-46323332D02*
X152512533Y-46418570D01*
X139961373Y-58587373D02*
X140008993Y-58634992D01*
X140008993Y-58634992D02*
X140056612Y-58777849D01*
X140056612Y-58777849D02*
X140056612Y-58873087D01*
X140056612Y-58873087D02*
X140008993Y-59015944D01*
X140008993Y-59015944D02*
X139913754Y-59111182D01*
X139913754Y-59111182D02*
X139818516Y-59158801D01*
X139818516Y-59158801D02*
X139628040Y-59206420D01*
X139628040Y-59206420D02*
X139485183Y-59206420D01*
X139485183Y-59206420D02*
X139294707Y-59158801D01*
X139294707Y-59158801D02*
X139199469Y-59111182D01*
X139199469Y-59111182D02*
X139104231Y-59015944D01*
X139104231Y-59015944D02*
X139056612Y-58873087D01*
X139056612Y-58873087D02*
X139056612Y-58777849D01*
X139056612Y-58777849D02*
X139104231Y-58634992D01*
X139104231Y-58634992D02*
X139151850Y-58587373D01*
X139389945Y-57730230D02*
X140056612Y-57730230D01*
X139008993Y-57968325D02*
X139723278Y-58206420D01*
X139723278Y-58206420D02*
X139723278Y-57587373D01*
X152353819Y-33829523D02*
X153068104Y-33829523D01*
X153068104Y-33829523D02*
X153210961Y-33877142D01*
X153210961Y-33877142D02*
X153306200Y-33972380D01*
X153306200Y-33972380D02*
X153353819Y-34115237D01*
X153353819Y-34115237D02*
X153353819Y-34210475D01*
X153353819Y-32829523D02*
X153353819Y-33400951D01*
X153353819Y-33115237D02*
X152353819Y-33115237D01*
X152353819Y-33115237D02*
X152496676Y-33210475D01*
X152496676Y-33210475D02*
X152591914Y-33305713D01*
X152591914Y-33305713D02*
X152639533Y-33400951D01*
X152449057Y-32448570D02*
X152401438Y-32400951D01*
X152401438Y-32400951D02*
X152353819Y-32305713D01*
X152353819Y-32305713D02*
X152353819Y-32067618D01*
X152353819Y-32067618D02*
X152401438Y-31972380D01*
X152401438Y-31972380D02*
X152449057Y-31924761D01*
X152449057Y-31924761D02*
X152544295Y-31877142D01*
X152544295Y-31877142D02*
X152639533Y-31877142D01*
X152639533Y-31877142D02*
X152782390Y-31924761D01*
X152782390Y-31924761D02*
X153353819Y-32496189D01*
X153353819Y-32496189D02*
X153353819Y-31877142D01*
X101131180Y-68866779D02*
X102131180Y-68866779D01*
X101654990Y-68866779D02*
X101654990Y-69438207D01*
X101131180Y-69438207D02*
X102131180Y-69438207D01*
X102131180Y-69771541D02*
X101131180Y-70104874D01*
X101131180Y-70104874D02*
X102131180Y-70438207D01*
X101131180Y-71295350D02*
X101131180Y-70723922D01*
X101131180Y-71009636D02*
X102131180Y-71009636D01*
X102131180Y-71009636D02*
X101988323Y-70914398D01*
X101988323Y-70914398D02*
X101893085Y-70819160D01*
X101893085Y-70819160D02*
X101845466Y-70723922D01*
X101131180Y-64242969D02*
X101131180Y-63766779D01*
X101131180Y-63766779D02*
X102131180Y-63766779D01*
X102131180Y-64433446D02*
X101131180Y-64766779D01*
X101131180Y-64766779D02*
X102131180Y-65100112D01*
X101131180Y-65957255D02*
X101131180Y-65385827D01*
X101131180Y-65671541D02*
X102131180Y-65671541D01*
X102131180Y-65671541D02*
X101988323Y-65576303D01*
X101988323Y-65576303D02*
X101893085Y-65481065D01*
X101893085Y-65481065D02*
X101845466Y-65385827D01*
X88270180Y-66842969D02*
X88270180Y-66366779D01*
X88270180Y-66366779D02*
X89270180Y-66366779D01*
X88270180Y-67652493D02*
X88270180Y-67176303D01*
X88270180Y-67176303D02*
X89270180Y-67176303D01*
X88365419Y-68557255D02*
X88317800Y-68509636D01*
X88317800Y-68509636D02*
X88270180Y-68366779D01*
X88270180Y-68366779D02*
X88270180Y-68271541D01*
X88270180Y-68271541D02*
X88317800Y-68128684D01*
X88317800Y-68128684D02*
X88413038Y-68033446D01*
X88413038Y-68033446D02*
X88508276Y-67985827D01*
X88508276Y-67985827D02*
X88698752Y-67938208D01*
X88698752Y-67938208D02*
X88841609Y-67938208D01*
X88841609Y-67938208D02*
X89032085Y-67985827D01*
X89032085Y-67985827D02*
X89127323Y-68033446D01*
X89127323Y-68033446D02*
X89222561Y-68128684D01*
X89222561Y-68128684D02*
X89270180Y-68271541D01*
X89270180Y-68271541D02*
X89270180Y-68366779D01*
X89270180Y-68366779D02*
X89222561Y-68509636D01*
X89222561Y-68509636D02*
X89174942Y-68557255D01*
X79287180Y-31162666D02*
X78572895Y-31162666D01*
X78572895Y-31162666D02*
X78430038Y-31115047D01*
X78430038Y-31115047D02*
X78334800Y-31019809D01*
X78334800Y-31019809D02*
X78287180Y-30876952D01*
X78287180Y-30876952D02*
X78287180Y-30781714D01*
X79287180Y-32115047D02*
X79287180Y-31638857D01*
X79287180Y-31638857D02*
X78810990Y-31591238D01*
X78810990Y-31591238D02*
X78858609Y-31638857D01*
X78858609Y-31638857D02*
X78906228Y-31734095D01*
X78906228Y-31734095D02*
X78906228Y-31972190D01*
X78906228Y-31972190D02*
X78858609Y-32067428D01*
X78858609Y-32067428D02*
X78810990Y-32115047D01*
X78810990Y-32115047D02*
X78715752Y-32162666D01*
X78715752Y-32162666D02*
X78477657Y-32162666D01*
X78477657Y-32162666D02*
X78382419Y-32115047D01*
X78382419Y-32115047D02*
X78334800Y-32067428D01*
X78334800Y-32067428D02*
X78287180Y-31972190D01*
X78287180Y-31972190D02*
X78287180Y-31734095D01*
X78287180Y-31734095D02*
X78334800Y-31638857D01*
X78334800Y-31638857D02*
X78382419Y-31591238D01*
X119213333Y-79679580D02*
X119165714Y-79727200D01*
X119165714Y-79727200D02*
X119022857Y-79774819D01*
X119022857Y-79774819D02*
X118927619Y-79774819D01*
X118927619Y-79774819D02*
X118784762Y-79727200D01*
X118784762Y-79727200D02*
X118689524Y-79631961D01*
X118689524Y-79631961D02*
X118641905Y-79536723D01*
X118641905Y-79536723D02*
X118594286Y-79346247D01*
X118594286Y-79346247D02*
X118594286Y-79203390D01*
X118594286Y-79203390D02*
X118641905Y-79012914D01*
X118641905Y-79012914D02*
X118689524Y-78917676D01*
X118689524Y-78917676D02*
X118784762Y-78822438D01*
X118784762Y-78822438D02*
X118927619Y-78774819D01*
X118927619Y-78774819D02*
X119022857Y-78774819D01*
X119022857Y-78774819D02*
X119165714Y-78822438D01*
X119165714Y-78822438D02*
X119213333Y-78870057D01*
X120118095Y-78774819D02*
X119641905Y-78774819D01*
X119641905Y-78774819D02*
X119594286Y-79251009D01*
X119594286Y-79251009D02*
X119641905Y-79203390D01*
X119641905Y-79203390D02*
X119737143Y-79155771D01*
X119737143Y-79155771D02*
X119975238Y-79155771D01*
X119975238Y-79155771D02*
X120070476Y-79203390D01*
X120070476Y-79203390D02*
X120118095Y-79251009D01*
X120118095Y-79251009D02*
X120165714Y-79346247D01*
X120165714Y-79346247D02*
X120165714Y-79584342D01*
X120165714Y-79584342D02*
X120118095Y-79679580D01*
X120118095Y-79679580D02*
X120070476Y-79727200D01*
X120070476Y-79727200D02*
X119975238Y-79774819D01*
X119975238Y-79774819D02*
X119737143Y-79774819D01*
X119737143Y-79774819D02*
X119641905Y-79727200D01*
X119641905Y-79727200D02*
X119594286Y-79679580D01*
X89837666Y-86965819D02*
X89837666Y-87680104D01*
X89837666Y-87680104D02*
X89790047Y-87822961D01*
X89790047Y-87822961D02*
X89694809Y-87918200D01*
X89694809Y-87918200D02*
X89551952Y-87965819D01*
X89551952Y-87965819D02*
X89456714Y-87965819D01*
X90266238Y-87061057D02*
X90313857Y-87013438D01*
X90313857Y-87013438D02*
X90409095Y-86965819D01*
X90409095Y-86965819D02*
X90647190Y-86965819D01*
X90647190Y-86965819D02*
X90742428Y-87013438D01*
X90742428Y-87013438D02*
X90790047Y-87061057D01*
X90790047Y-87061057D02*
X90837666Y-87156295D01*
X90837666Y-87156295D02*
X90837666Y-87251533D01*
X90837666Y-87251533D02*
X90790047Y-87394390D01*
X90790047Y-87394390D02*
X90218619Y-87965819D01*
X90218619Y-87965819D02*
X90837666Y-87965819D01*
X79287180Y-66722666D02*
X78572895Y-66722666D01*
X78572895Y-66722666D02*
X78430038Y-66675047D01*
X78430038Y-66675047D02*
X78334800Y-66579809D01*
X78334800Y-66579809D02*
X78287180Y-66436952D01*
X78287180Y-66436952D02*
X78287180Y-66341714D01*
X78858609Y-67341714D02*
X78906228Y-67246476D01*
X78906228Y-67246476D02*
X78953847Y-67198857D01*
X78953847Y-67198857D02*
X79049085Y-67151238D01*
X79049085Y-67151238D02*
X79096704Y-67151238D01*
X79096704Y-67151238D02*
X79191942Y-67198857D01*
X79191942Y-67198857D02*
X79239561Y-67246476D01*
X79239561Y-67246476D02*
X79287180Y-67341714D01*
X79287180Y-67341714D02*
X79287180Y-67532190D01*
X79287180Y-67532190D02*
X79239561Y-67627428D01*
X79239561Y-67627428D02*
X79191942Y-67675047D01*
X79191942Y-67675047D02*
X79096704Y-67722666D01*
X79096704Y-67722666D02*
X79049085Y-67722666D01*
X79049085Y-67722666D02*
X78953847Y-67675047D01*
X78953847Y-67675047D02*
X78906228Y-67627428D01*
X78906228Y-67627428D02*
X78858609Y-67532190D01*
X78858609Y-67532190D02*
X78858609Y-67341714D01*
X78858609Y-67341714D02*
X78810990Y-67246476D01*
X78810990Y-67246476D02*
X78763371Y-67198857D01*
X78763371Y-67198857D02*
X78668133Y-67151238D01*
X78668133Y-67151238D02*
X78477657Y-67151238D01*
X78477657Y-67151238D02*
X78382419Y-67198857D01*
X78382419Y-67198857D02*
X78334800Y-67246476D01*
X78334800Y-67246476D02*
X78287180Y-67341714D01*
X78287180Y-67341714D02*
X78287180Y-67532190D01*
X78287180Y-67532190D02*
X78334800Y-67627428D01*
X78334800Y-67627428D02*
X78382419Y-67675047D01*
X78382419Y-67675047D02*
X78477657Y-67722666D01*
X78477657Y-67722666D02*
X78668133Y-67722666D01*
X78668133Y-67722666D02*
X78763371Y-67675047D01*
X78763371Y-67675047D02*
X78810990Y-67627428D01*
X78810990Y-67627428D02*
X78858609Y-67532190D01*
X119213333Y-83319580D02*
X119165714Y-83367200D01*
X119165714Y-83367200D02*
X119022857Y-83414819D01*
X119022857Y-83414819D02*
X118927619Y-83414819D01*
X118927619Y-83414819D02*
X118784762Y-83367200D01*
X118784762Y-83367200D02*
X118689524Y-83271961D01*
X118689524Y-83271961D02*
X118641905Y-83176723D01*
X118641905Y-83176723D02*
X118594286Y-82986247D01*
X118594286Y-82986247D02*
X118594286Y-82843390D01*
X118594286Y-82843390D02*
X118641905Y-82652914D01*
X118641905Y-82652914D02*
X118689524Y-82557676D01*
X118689524Y-82557676D02*
X118784762Y-82462438D01*
X118784762Y-82462438D02*
X118927619Y-82414819D01*
X118927619Y-82414819D02*
X119022857Y-82414819D01*
X119022857Y-82414819D02*
X119165714Y-82462438D01*
X119165714Y-82462438D02*
X119213333Y-82510057D01*
X120070476Y-82414819D02*
X119880000Y-82414819D01*
X119880000Y-82414819D02*
X119784762Y-82462438D01*
X119784762Y-82462438D02*
X119737143Y-82510057D01*
X119737143Y-82510057D02*
X119641905Y-82652914D01*
X119641905Y-82652914D02*
X119594286Y-82843390D01*
X119594286Y-82843390D02*
X119594286Y-83224342D01*
X119594286Y-83224342D02*
X119641905Y-83319580D01*
X119641905Y-83319580D02*
X119689524Y-83367200D01*
X119689524Y-83367200D02*
X119784762Y-83414819D01*
X119784762Y-83414819D02*
X119975238Y-83414819D01*
X119975238Y-83414819D02*
X120070476Y-83367200D01*
X120070476Y-83367200D02*
X120118095Y-83319580D01*
X120118095Y-83319580D02*
X120165714Y-83224342D01*
X120165714Y-83224342D02*
X120165714Y-82986247D01*
X120165714Y-82986247D02*
X120118095Y-82891009D01*
X120118095Y-82891009D02*
X120070476Y-82843390D01*
X120070476Y-82843390D02*
X119975238Y-82795771D01*
X119975238Y-82795771D02*
X119784762Y-82795771D01*
X119784762Y-82795771D02*
X119689524Y-82843390D01*
X119689524Y-82843390D02*
X119641905Y-82891009D01*
X119641905Y-82891009D02*
X119594286Y-82986247D01*
X139025819Y-51021904D02*
X138025819Y-51021904D01*
X138025819Y-51021904D02*
X138025819Y-50783809D01*
X138025819Y-50783809D02*
X138073438Y-50640952D01*
X138073438Y-50640952D02*
X138168676Y-50545714D01*
X138168676Y-50545714D02*
X138263914Y-50498095D01*
X138263914Y-50498095D02*
X138454390Y-50450476D01*
X138454390Y-50450476D02*
X138597247Y-50450476D01*
X138597247Y-50450476D02*
X138787723Y-50498095D01*
X138787723Y-50498095D02*
X138882961Y-50545714D01*
X138882961Y-50545714D02*
X138978200Y-50640952D01*
X138978200Y-50640952D02*
X139025819Y-50783809D01*
X139025819Y-50783809D02*
X139025819Y-51021904D01*
X138930580Y-49450476D02*
X138978200Y-49498095D01*
X138978200Y-49498095D02*
X139025819Y-49640952D01*
X139025819Y-49640952D02*
X139025819Y-49736190D01*
X139025819Y-49736190D02*
X138978200Y-49879047D01*
X138978200Y-49879047D02*
X138882961Y-49974285D01*
X138882961Y-49974285D02*
X138787723Y-50021904D01*
X138787723Y-50021904D02*
X138597247Y-50069523D01*
X138597247Y-50069523D02*
X138454390Y-50069523D01*
X138454390Y-50069523D02*
X138263914Y-50021904D01*
X138263914Y-50021904D02*
X138168676Y-49974285D01*
X138168676Y-49974285D02*
X138073438Y-49879047D01*
X138073438Y-49879047D02*
X138025819Y-49736190D01*
X138025819Y-49736190D02*
X138025819Y-49640952D01*
X138025819Y-49640952D02*
X138073438Y-49498095D01*
X138073438Y-49498095D02*
X138121057Y-49450476D01*
X137978200Y-48307619D02*
X139263914Y-49164761D01*
X139025819Y-47974285D02*
X138025819Y-47974285D01*
X138025819Y-47974285D02*
X138025819Y-47736190D01*
X138025819Y-47736190D02*
X138073438Y-47593333D01*
X138073438Y-47593333D02*
X138168676Y-47498095D01*
X138168676Y-47498095D02*
X138263914Y-47450476D01*
X138263914Y-47450476D02*
X138454390Y-47402857D01*
X138454390Y-47402857D02*
X138597247Y-47402857D01*
X138597247Y-47402857D02*
X138787723Y-47450476D01*
X138787723Y-47450476D02*
X138882961Y-47498095D01*
X138882961Y-47498095D02*
X138978200Y-47593333D01*
X138978200Y-47593333D02*
X139025819Y-47736190D01*
X139025819Y-47736190D02*
X139025819Y-47974285D01*
X138930580Y-46402857D02*
X138978200Y-46450476D01*
X138978200Y-46450476D02*
X139025819Y-46593333D01*
X139025819Y-46593333D02*
X139025819Y-46688571D01*
X139025819Y-46688571D02*
X138978200Y-46831428D01*
X138978200Y-46831428D02*
X138882961Y-46926666D01*
X138882961Y-46926666D02*
X138787723Y-46974285D01*
X138787723Y-46974285D02*
X138597247Y-47021904D01*
X138597247Y-47021904D02*
X138454390Y-47021904D01*
X138454390Y-47021904D02*
X138263914Y-46974285D01*
X138263914Y-46974285D02*
X138168676Y-46926666D01*
X138168676Y-46926666D02*
X138073438Y-46831428D01*
X138073438Y-46831428D02*
X138025819Y-46688571D01*
X138025819Y-46688571D02*
X138025819Y-46593333D01*
X138025819Y-46593333D02*
X138073438Y-46450476D01*
X138073438Y-46450476D02*
X138121057Y-46402857D01*
X138121057Y-46021904D02*
X138073438Y-45974285D01*
X138073438Y-45974285D02*
X138025819Y-45879047D01*
X138025819Y-45879047D02*
X138025819Y-45640952D01*
X138025819Y-45640952D02*
X138073438Y-45545714D01*
X138073438Y-45545714D02*
X138121057Y-45498095D01*
X138121057Y-45498095D02*
X138216295Y-45450476D01*
X138216295Y-45450476D02*
X138311533Y-45450476D01*
X138311533Y-45450476D02*
X138454390Y-45498095D01*
X138454390Y-45498095D02*
X139025819Y-46069523D01*
X139025819Y-46069523D02*
X139025819Y-45450476D01*
X136522819Y-53035030D02*
X136522819Y-53511220D01*
X136522819Y-53511220D02*
X135522819Y-53511220D01*
X136522819Y-52701696D02*
X135522819Y-52701696D01*
X135522819Y-52701696D02*
X136237104Y-52368363D01*
X136237104Y-52368363D02*
X135522819Y-52035030D01*
X135522819Y-52035030D02*
X136522819Y-52035030D01*
X135999009Y-51558839D02*
X135999009Y-51225506D01*
X136522819Y-51082649D02*
X136522819Y-51558839D01*
X136522819Y-51558839D02*
X135522819Y-51558839D01*
X135522819Y-51558839D02*
X135522819Y-51082649D01*
X135522819Y-50749315D02*
X135522819Y-50082649D01*
X135522819Y-50082649D02*
X136522819Y-50511220D01*
X135951390Y-49558839D02*
X135903771Y-49654077D01*
X135903771Y-49654077D02*
X135856152Y-49701696D01*
X135856152Y-49701696D02*
X135760914Y-49749315D01*
X135760914Y-49749315D02*
X135713295Y-49749315D01*
X135713295Y-49749315D02*
X135618057Y-49701696D01*
X135618057Y-49701696D02*
X135570438Y-49654077D01*
X135570438Y-49654077D02*
X135522819Y-49558839D01*
X135522819Y-49558839D02*
X135522819Y-49368363D01*
X135522819Y-49368363D02*
X135570438Y-49273125D01*
X135570438Y-49273125D02*
X135618057Y-49225506D01*
X135618057Y-49225506D02*
X135713295Y-49177887D01*
X135713295Y-49177887D02*
X135760914Y-49177887D01*
X135760914Y-49177887D02*
X135856152Y-49225506D01*
X135856152Y-49225506D02*
X135903771Y-49273125D01*
X135903771Y-49273125D02*
X135951390Y-49368363D01*
X135951390Y-49368363D02*
X135951390Y-49558839D01*
X135951390Y-49558839D02*
X135999009Y-49654077D01*
X135999009Y-49654077D02*
X136046628Y-49701696D01*
X136046628Y-49701696D02*
X136141866Y-49749315D01*
X136141866Y-49749315D02*
X136332342Y-49749315D01*
X136332342Y-49749315D02*
X136427580Y-49701696D01*
X136427580Y-49701696D02*
X136475200Y-49654077D01*
X136475200Y-49654077D02*
X136522819Y-49558839D01*
X136522819Y-49558839D02*
X136522819Y-49368363D01*
X136522819Y-49368363D02*
X136475200Y-49273125D01*
X136475200Y-49273125D02*
X136427580Y-49225506D01*
X136427580Y-49225506D02*
X136332342Y-49177887D01*
X136332342Y-49177887D02*
X136141866Y-49177887D01*
X136141866Y-49177887D02*
X136046628Y-49225506D01*
X136046628Y-49225506D02*
X135999009Y-49273125D01*
X135999009Y-49273125D02*
X135951390Y-49368363D01*
X136618057Y-48987411D02*
X136618057Y-48225506D01*
X135522819Y-47796934D02*
X135522819Y-47701696D01*
X135522819Y-47701696D02*
X135570438Y-47606458D01*
X135570438Y-47606458D02*
X135618057Y-47558839D01*
X135618057Y-47558839D02*
X135713295Y-47511220D01*
X135713295Y-47511220D02*
X135903771Y-47463601D01*
X135903771Y-47463601D02*
X136141866Y-47463601D01*
X136141866Y-47463601D02*
X136332342Y-47511220D01*
X136332342Y-47511220D02*
X136427580Y-47558839D01*
X136427580Y-47558839D02*
X136475200Y-47606458D01*
X136475200Y-47606458D02*
X136522819Y-47701696D01*
X136522819Y-47701696D02*
X136522819Y-47796934D01*
X136522819Y-47796934D02*
X136475200Y-47892172D01*
X136475200Y-47892172D02*
X136427580Y-47939791D01*
X136427580Y-47939791D02*
X136332342Y-47987410D01*
X136332342Y-47987410D02*
X136141866Y-48035029D01*
X136141866Y-48035029D02*
X135903771Y-48035029D01*
X135903771Y-48035029D02*
X135713295Y-47987410D01*
X135713295Y-47987410D02*
X135618057Y-47939791D01*
X135618057Y-47939791D02*
X135570438Y-47892172D01*
X135570438Y-47892172D02*
X135522819Y-47796934D01*
X135522819Y-46558839D02*
X135522819Y-47035029D01*
X135522819Y-47035029D02*
X135999009Y-47082648D01*
X135999009Y-47082648D02*
X135951390Y-47035029D01*
X135951390Y-47035029D02*
X135903771Y-46939791D01*
X135903771Y-46939791D02*
X135903771Y-46701696D01*
X135903771Y-46701696D02*
X135951390Y-46606458D01*
X135951390Y-46606458D02*
X135999009Y-46558839D01*
X135999009Y-46558839D02*
X136094247Y-46511220D01*
X136094247Y-46511220D02*
X136332342Y-46511220D01*
X136332342Y-46511220D02*
X136427580Y-46558839D01*
X136427580Y-46558839D02*
X136475200Y-46606458D01*
X136475200Y-46606458D02*
X136522819Y-46701696D01*
X136522819Y-46701696D02*
X136522819Y-46939791D01*
X136522819Y-46939791D02*
X136475200Y-47035029D01*
X136475200Y-47035029D02*
X136427580Y-47082648D01*
X136141866Y-46082648D02*
X136141866Y-45320744D01*
X136522819Y-44320744D02*
X136522819Y-44892172D01*
X136522819Y-44606458D02*
X135522819Y-44606458D01*
X135522819Y-44606458D02*
X135665676Y-44701696D01*
X135665676Y-44701696D02*
X135760914Y-44796934D01*
X135760914Y-44796934D02*
X135808533Y-44892172D01*
X136427580Y-43892172D02*
X136475200Y-43844553D01*
X136475200Y-43844553D02*
X136522819Y-43892172D01*
X136522819Y-43892172D02*
X136475200Y-43939791D01*
X136475200Y-43939791D02*
X136427580Y-43892172D01*
X136427580Y-43892172D02*
X136522819Y-43892172D01*
X135522819Y-43225506D02*
X135522819Y-43130268D01*
X135522819Y-43130268D02*
X135570438Y-43035030D01*
X135570438Y-43035030D02*
X135618057Y-42987411D01*
X135618057Y-42987411D02*
X135713295Y-42939792D01*
X135713295Y-42939792D02*
X135903771Y-42892173D01*
X135903771Y-42892173D02*
X136141866Y-42892173D01*
X136141866Y-42892173D02*
X136332342Y-42939792D01*
X136332342Y-42939792D02*
X136427580Y-42987411D01*
X136427580Y-42987411D02*
X136475200Y-43035030D01*
X136475200Y-43035030D02*
X136522819Y-43130268D01*
X136522819Y-43130268D02*
X136522819Y-43225506D01*
X136522819Y-43225506D02*
X136475200Y-43320744D01*
X136475200Y-43320744D02*
X136427580Y-43368363D01*
X136427580Y-43368363D02*
X136332342Y-43415982D01*
X136332342Y-43415982D02*
X136141866Y-43463601D01*
X136141866Y-43463601D02*
X135903771Y-43463601D01*
X135903771Y-43463601D02*
X135713295Y-43415982D01*
X135713295Y-43415982D02*
X135618057Y-43368363D01*
X135618057Y-43368363D02*
X135570438Y-43320744D01*
X135570438Y-43320744D02*
X135522819Y-43225506D01*
X97096819Y-35726666D02*
X96620628Y-36059999D01*
X97096819Y-36298094D02*
X96096819Y-36298094D01*
X96096819Y-36298094D02*
X96096819Y-35917142D01*
X96096819Y-35917142D02*
X96144438Y-35821904D01*
X96144438Y-35821904D02*
X96192057Y-35774285D01*
X96192057Y-35774285D02*
X96287295Y-35726666D01*
X96287295Y-35726666D02*
X96430152Y-35726666D01*
X96430152Y-35726666D02*
X96525390Y-35774285D01*
X96525390Y-35774285D02*
X96573009Y-35821904D01*
X96573009Y-35821904D02*
X96620628Y-35917142D01*
X96620628Y-35917142D02*
X96620628Y-36298094D01*
X96192057Y-35345713D02*
X96144438Y-35298094D01*
X96144438Y-35298094D02*
X96096819Y-35202856D01*
X96096819Y-35202856D02*
X96096819Y-34964761D01*
X96096819Y-34964761D02*
X96144438Y-34869523D01*
X96144438Y-34869523D02*
X96192057Y-34821904D01*
X96192057Y-34821904D02*
X96287295Y-34774285D01*
X96287295Y-34774285D02*
X96382533Y-34774285D01*
X96382533Y-34774285D02*
X96525390Y-34821904D01*
X96525390Y-34821904D02*
X97096819Y-35393332D01*
X97096819Y-35393332D02*
X97096819Y-34774285D01*
X98727666Y-86965819D02*
X98727666Y-87680104D01*
X98727666Y-87680104D02*
X98680047Y-87822961D01*
X98680047Y-87822961D02*
X98584809Y-87918200D01*
X98584809Y-87918200D02*
X98441952Y-87965819D01*
X98441952Y-87965819D02*
X98346714Y-87965819D01*
X99727666Y-87965819D02*
X99156238Y-87965819D01*
X99441952Y-87965819D02*
X99441952Y-86965819D01*
X99441952Y-86965819D02*
X99346714Y-87108676D01*
X99346714Y-87108676D02*
X99251476Y-87203914D01*
X99251476Y-87203914D02*
X99156238Y-87251533D01*
X152226819Y-61769523D02*
X152941104Y-61769523D01*
X152941104Y-61769523D02*
X153083961Y-61817142D01*
X153083961Y-61817142D02*
X153179200Y-61912380D01*
X153179200Y-61912380D02*
X153226819Y-62055237D01*
X153226819Y-62055237D02*
X153226819Y-62150475D01*
X153226819Y-60769523D02*
X153226819Y-61340951D01*
X153226819Y-61055237D02*
X152226819Y-61055237D01*
X152226819Y-61055237D02*
X152369676Y-61150475D01*
X152369676Y-61150475D02*
X152464914Y-61245713D01*
X152464914Y-61245713D02*
X152512533Y-61340951D01*
X152226819Y-60150475D02*
X152226819Y-60055237D01*
X152226819Y-60055237D02*
X152274438Y-59959999D01*
X152274438Y-59959999D02*
X152322057Y-59912380D01*
X152322057Y-59912380D02*
X152417295Y-59864761D01*
X152417295Y-59864761D02*
X152607771Y-59817142D01*
X152607771Y-59817142D02*
X152845866Y-59817142D01*
X152845866Y-59817142D02*
X153036342Y-59864761D01*
X153036342Y-59864761D02*
X153131580Y-59912380D01*
X153131580Y-59912380D02*
X153179200Y-59959999D01*
X153179200Y-59959999D02*
X153226819Y-60055237D01*
X153226819Y-60055237D02*
X153226819Y-60150475D01*
X153226819Y-60150475D02*
X153179200Y-60245713D01*
X153179200Y-60245713D02*
X153131580Y-60293332D01*
X153131580Y-60293332D02*
X153036342Y-60340951D01*
X153036342Y-60340951D02*
X152845866Y-60388570D01*
X152845866Y-60388570D02*
X152607771Y-60388570D01*
X152607771Y-60388570D02*
X152417295Y-60340951D01*
X152417295Y-60340951D02*
X152322057Y-60293332D01*
X152322057Y-60293332D02*
X152274438Y-60245713D01*
X152274438Y-60245713D02*
X152226819Y-60150475D01*
X92016819Y-35726666D02*
X91540628Y-36059999D01*
X92016819Y-36298094D02*
X91016819Y-36298094D01*
X91016819Y-36298094D02*
X91016819Y-35917142D01*
X91016819Y-35917142D02*
X91064438Y-35821904D01*
X91064438Y-35821904D02*
X91112057Y-35774285D01*
X91112057Y-35774285D02*
X91207295Y-35726666D01*
X91207295Y-35726666D02*
X91350152Y-35726666D01*
X91350152Y-35726666D02*
X91445390Y-35774285D01*
X91445390Y-35774285D02*
X91493009Y-35821904D01*
X91493009Y-35821904D02*
X91540628Y-35917142D01*
X91540628Y-35917142D02*
X91540628Y-36298094D01*
X92016819Y-34774285D02*
X92016819Y-35345713D01*
X92016819Y-35059999D02*
X91016819Y-35059999D01*
X91016819Y-35059999D02*
X91159676Y-35155237D01*
X91159676Y-35155237D02*
X91254914Y-35250475D01*
X91254914Y-35250475D02*
X91302533Y-35345713D01*
X79287180Y-78152666D02*
X78572895Y-78152666D01*
X78572895Y-78152666D02*
X78430038Y-78105047D01*
X78430038Y-78105047D02*
X78334800Y-78009809D01*
X78334800Y-78009809D02*
X78287180Y-77866952D01*
X78287180Y-77866952D02*
X78287180Y-77771714D01*
X79287180Y-78533619D02*
X79287180Y-79200285D01*
X79287180Y-79200285D02*
X78287180Y-78771714D01*
X136329080Y-40814666D02*
X136376700Y-40862285D01*
X136376700Y-40862285D02*
X136424319Y-41005142D01*
X136424319Y-41005142D02*
X136424319Y-41100380D01*
X136424319Y-41100380D02*
X136376700Y-41243237D01*
X136376700Y-41243237D02*
X136281461Y-41338475D01*
X136281461Y-41338475D02*
X136186223Y-41386094D01*
X136186223Y-41386094D02*
X135995747Y-41433713D01*
X135995747Y-41433713D02*
X135852890Y-41433713D01*
X135852890Y-41433713D02*
X135662414Y-41386094D01*
X135662414Y-41386094D02*
X135567176Y-41338475D01*
X135567176Y-41338475D02*
X135471938Y-41243237D01*
X135471938Y-41243237D02*
X135424319Y-41100380D01*
X135424319Y-41100380D02*
X135424319Y-41005142D01*
X135424319Y-41005142D02*
X135471938Y-40862285D01*
X135471938Y-40862285D02*
X135519557Y-40814666D01*
X135519557Y-40433713D02*
X135471938Y-40386094D01*
X135471938Y-40386094D02*
X135424319Y-40290856D01*
X135424319Y-40290856D02*
X135424319Y-40052761D01*
X135424319Y-40052761D02*
X135471938Y-39957523D01*
X135471938Y-39957523D02*
X135519557Y-39909904D01*
X135519557Y-39909904D02*
X135614795Y-39862285D01*
X135614795Y-39862285D02*
X135710033Y-39862285D01*
X135710033Y-39862285D02*
X135852890Y-39909904D01*
X135852890Y-39909904D02*
X136424319Y-40481332D01*
X136424319Y-40481332D02*
X136424319Y-39862285D01*
X79287180Y-42592666D02*
X78572895Y-42592666D01*
X78572895Y-42592666D02*
X78430038Y-42545047D01*
X78430038Y-42545047D02*
X78334800Y-42449809D01*
X78334800Y-42449809D02*
X78287180Y-42306952D01*
X78287180Y-42306952D02*
X78287180Y-42211714D01*
X78953847Y-43497428D02*
X78287180Y-43497428D01*
X79334800Y-43259333D02*
X78620514Y-43021238D01*
X78620514Y-43021238D02*
X78620514Y-43640285D01*
D12*
%TO.C,C3*%
X139846748Y-78670000D02*
X137015252Y-78670000D01*
X139846748Y-83890000D02*
X137015252Y-83890000D01*
%TO.C,C1*%
X140119752Y-62590000D02*
X138697248Y-62590000D01*
X140119752Y-64410000D02*
X138697248Y-64410000D01*
%TO.C,R4*%
X115120000Y-41100000D02*
X115120000Y-50340000D01*
X115120000Y-50340000D02*
X118560000Y-50340000D01*
X116840000Y-40410000D02*
X116840000Y-41100000D01*
X116840000Y-51030000D02*
X116840000Y-50340000D01*
X118560000Y-41100000D02*
X115120000Y-41100000D01*
X118560000Y-50340000D02*
X118560000Y-41100000D01*
%TO.C,R10*%
X94801000Y-48085000D02*
X94801000Y-57325000D01*
X94801000Y-57325000D02*
X98241000Y-57325000D01*
X96521000Y-47395000D02*
X96521000Y-48085000D01*
X96521000Y-58015000D02*
X96521000Y-57325000D01*
X98241000Y-48085000D02*
X94801000Y-48085000D01*
X98241000Y-57325000D02*
X98241000Y-48085000D01*
%TO.C,R9*%
X89721000Y-48085000D02*
X89721000Y-57325000D01*
X89721000Y-57325000D02*
X93161000Y-57325000D01*
X91441000Y-47395000D02*
X91441000Y-48085000D01*
X91441000Y-58015000D02*
X91441000Y-57325000D01*
X93161000Y-48085000D02*
X89721000Y-48085000D01*
X93161000Y-57325000D02*
X93161000Y-48085000D01*
%TO.C,J3*%
X77121000Y-50690000D02*
X77121000Y-58530000D01*
X77121000Y-58530000D02*
X78621000Y-58530000D01*
X78621000Y-49460000D02*
X78621000Y-50690000D01*
X78621000Y-50690000D02*
X77121000Y-50690000D01*
X78621000Y-58530000D02*
X78621000Y-59760000D01*
X78621000Y-59760000D02*
X79601000Y-59760000D01*
X79601000Y-49460000D02*
X78621000Y-49460000D01*
X79601000Y-49590000D02*
X79601000Y-49460000D01*
X79601000Y-59630000D02*
X81411000Y-59630000D01*
X79601000Y-59760000D02*
X79601000Y-59630000D01*
X81411000Y-49460000D02*
X81411000Y-49590000D01*
X81411000Y-49590000D02*
X79601000Y-49590000D01*
X81411000Y-59630000D02*
X81411000Y-59760000D01*
X81411000Y-59760000D02*
X83941000Y-59760000D01*
X81831000Y-49160000D02*
X84241000Y-49160000D01*
X83941000Y-49460000D02*
X81411000Y-49460000D01*
X83941000Y-59760000D02*
X83941000Y-49460000D01*
X84241000Y-49160000D02*
X84241000Y-51570000D01*
%TO.C,R5*%
X120200000Y-41100000D02*
X120200000Y-50340000D01*
X120200000Y-50340000D02*
X123640000Y-50340000D01*
X121920000Y-40410000D02*
X121920000Y-41100000D01*
X121920000Y-51030000D02*
X121920000Y-50340000D01*
X123640000Y-41100000D02*
X120200000Y-41100000D01*
X123640000Y-50340000D02*
X123640000Y-41100000D01*
%TO.C,R7*%
X113950000Y-72890000D02*
X114640000Y-72890000D01*
X114640000Y-71170000D02*
X114640000Y-74610000D01*
X114640000Y-74610000D02*
X123880000Y-74610000D01*
X123880000Y-71170000D02*
X114640000Y-71170000D01*
X123880000Y-74610000D02*
X123880000Y-71170000D01*
X124570000Y-72890000D02*
X123880000Y-72890000D01*
%TO.C,DC/DC1*%
D13*
X135161000Y-77030000D02*
X143381000Y-77030000D01*
X143381000Y-65210000D01*
X135161000Y-65210000D01*
X135161000Y-77030000D01*
D12*
%TO.C,R6*%
X125280000Y-41100000D02*
X125280000Y-50340000D01*
X125280000Y-50340000D02*
X128720000Y-50340000D01*
X127000000Y-40410000D02*
X127000000Y-41100000D01*
X127000000Y-51030000D02*
X127000000Y-50340000D01*
X128720000Y-41100000D02*
X125280000Y-41100000D01*
X128720000Y-50340000D02*
X128720000Y-41100000D01*
%TO.C,J6*%
X147536000Y-90460000D02*
X147536000Y-88050000D01*
X147836000Y-82560000D02*
X147836000Y-90160000D01*
X147836000Y-90160000D02*
X150366000Y-90160000D01*
X149946000Y-90460000D02*
X147536000Y-90460000D01*
X150366000Y-82560000D02*
X147836000Y-82560000D01*
X150366000Y-82690000D02*
X150366000Y-82560000D01*
X150366000Y-90030000D02*
X152176000Y-90030000D01*
X150366000Y-90160000D02*
X150366000Y-90030000D01*
X152176000Y-82560000D02*
X152176000Y-82690000D01*
X152176000Y-82690000D02*
X150366000Y-82690000D01*
X152176000Y-90030000D02*
X152176000Y-90160000D01*
X152176000Y-90160000D02*
X153156000Y-90160000D01*
X153156000Y-82560000D02*
X152176000Y-82560000D01*
X153156000Y-82820000D02*
X153156000Y-82560000D01*
X153156000Y-89900000D02*
X154656000Y-89900000D01*
X153156000Y-90160000D02*
X153156000Y-89900000D01*
X154656000Y-82820000D02*
X153156000Y-82820000D01*
X154656000Y-89900000D02*
X154656000Y-82820000D01*
%TO.C,J9*%
X147536000Y-81650000D02*
X147536000Y-79240000D01*
X147836000Y-68510000D02*
X147836000Y-81350000D01*
X147836000Y-81350000D02*
X150366000Y-81350000D01*
X149946000Y-81650000D02*
X147536000Y-81650000D01*
X150366000Y-68510000D02*
X147836000Y-68510000D01*
X150366000Y-68640000D02*
X150366000Y-68510000D01*
X150366000Y-81220000D02*
X152176000Y-81220000D01*
X150366000Y-81350000D02*
X150366000Y-81220000D01*
X152176000Y-68510000D02*
X152176000Y-68640000D01*
X152176000Y-68640000D02*
X150366000Y-68640000D01*
X152176000Y-81220000D02*
X152176000Y-81350000D01*
X152176000Y-81350000D02*
X153156000Y-81350000D01*
X153156000Y-68510000D02*
X152176000Y-68510000D01*
X153156000Y-71010000D02*
X153156000Y-68510000D01*
X153156000Y-78850000D02*
X154656000Y-78850000D01*
X153156000Y-81350000D02*
X153156000Y-78850000D01*
X154656000Y-71010000D02*
X153156000Y-71010000D01*
X154656000Y-78850000D02*
X154656000Y-71010000D01*
%TO.C,R3*%
X110040000Y-41100000D02*
X110040000Y-50340000D01*
X110040000Y-50340000D02*
X113480000Y-50340000D01*
X111760000Y-40410000D02*
X111760000Y-41100000D01*
X111760000Y-51030000D02*
X111760000Y-50340000D01*
X113480000Y-41100000D02*
X110040000Y-41100000D01*
X113480000Y-50340000D02*
X113480000Y-41100000D01*
%TO.C,U1*%
D10*
X123190000Y-36830000D02*
X115570000Y-36830000D01*
X115570000Y-29210000D01*
X123190000Y-29210000D01*
X123190000Y-36830000D01*
X133550000Y-84655000D02*
X105210000Y-84655000D01*
X105210000Y-29645000D01*
X133550000Y-29645000D01*
X133550000Y-84655000D01*
D13*
%TO.C,IC1*%
X86161000Y-54810000D02*
X86161000Y-26470000D01*
X86161000Y-54810000D02*
X88701000Y-54810000D01*
X103071000Y-26470000D02*
X86161000Y-26470000D01*
X103071000Y-26470000D02*
X103071000Y-54810000D01*
X103071000Y-54810000D02*
X100531000Y-54810000D01*
D12*
%TO.C,R8*%
X113950000Y-67310707D02*
X114640000Y-67310707D01*
X114640000Y-65590707D02*
X114640000Y-69030707D01*
X114640000Y-69030707D02*
X123880000Y-69030707D01*
X123880000Y-65590707D02*
X114640000Y-65590707D01*
X123880000Y-69030707D02*
X123880000Y-65590707D01*
X124570000Y-67310707D02*
X123880000Y-67310707D01*
%TO.C,J11*%
X147536000Y-53710000D02*
X147536000Y-51300000D01*
X147836000Y-40570000D02*
X147836000Y-53410000D01*
X147836000Y-53410000D02*
X150366000Y-53410000D01*
X149946000Y-53710000D02*
X147536000Y-53710000D01*
X150366000Y-40570000D02*
X147836000Y-40570000D01*
X150366000Y-40700000D02*
X150366000Y-40570000D01*
X150366000Y-53280000D02*
X152176000Y-53280000D01*
X150366000Y-53410000D02*
X150366000Y-53280000D01*
X152176000Y-40570000D02*
X152176000Y-40700000D01*
X152176000Y-40700000D02*
X150366000Y-40700000D01*
X152176000Y-53280000D02*
X152176000Y-53410000D01*
X152176000Y-53410000D02*
X153156000Y-53410000D01*
X153156000Y-40570000D02*
X152176000Y-40570000D01*
X153156000Y-43070000D02*
X153156000Y-40570000D01*
X153156000Y-50910000D02*
X154656000Y-50910000D01*
X153156000Y-53410000D02*
X153156000Y-50910000D01*
X154656000Y-43070000D02*
X153156000Y-43070000D01*
X154656000Y-50910000D02*
X154656000Y-43070000D01*
%TO.C,C4*%
X141017541Y-55810707D02*
X138186045Y-55810707D01*
X141017541Y-61030707D02*
X138186045Y-61030707D01*
%TO.C,J12*%
X147536000Y-39740000D02*
X147536000Y-37330000D01*
X147836000Y-26600000D02*
X147836000Y-39440000D01*
X147836000Y-39440000D02*
X150366000Y-39440000D01*
X149946000Y-39740000D02*
X147536000Y-39740000D01*
X150366000Y-26600000D02*
X147836000Y-26600000D01*
X150366000Y-26730000D02*
X150366000Y-26600000D01*
X150366000Y-39310000D02*
X152176000Y-39310000D01*
X150366000Y-39440000D02*
X150366000Y-39310000D01*
X152176000Y-26600000D02*
X152176000Y-26730000D01*
X152176000Y-26730000D02*
X150366000Y-26730000D01*
X152176000Y-39310000D02*
X152176000Y-39440000D01*
X152176000Y-39440000D02*
X153156000Y-39440000D01*
X153156000Y-26600000D02*
X152176000Y-26600000D01*
X153156000Y-29100000D02*
X153156000Y-26600000D01*
X153156000Y-36940000D02*
X154656000Y-36940000D01*
X153156000Y-39440000D02*
X153156000Y-36940000D01*
X154656000Y-29100000D02*
X153156000Y-29100000D01*
X154656000Y-36940000D02*
X154656000Y-29100000D01*
%TO.C,U2*%
D10*
X103071000Y-60760000D02*
X87431000Y-60760000D01*
X87431000Y-73860000D01*
X103071000Y-73860000D01*
X103071000Y-60760000D01*
D12*
%TO.C,J5*%
X77121000Y-27830000D02*
X77121000Y-35670000D01*
X77121000Y-35670000D02*
X78621000Y-35670000D01*
X78621000Y-26600000D02*
X78621000Y-27830000D01*
X78621000Y-27830000D02*
X77121000Y-27830000D01*
X78621000Y-35670000D02*
X78621000Y-36900000D01*
X78621000Y-36900000D02*
X79601000Y-36900000D01*
X79601000Y-26600000D02*
X78621000Y-26600000D01*
X79601000Y-26730000D02*
X79601000Y-26600000D01*
X79601000Y-36770000D02*
X81411000Y-36770000D01*
X79601000Y-36900000D02*
X79601000Y-36770000D01*
X81411000Y-26600000D02*
X81411000Y-26730000D01*
X81411000Y-26730000D02*
X79601000Y-26730000D01*
X81411000Y-36770000D02*
X81411000Y-36900000D01*
X81411000Y-36900000D02*
X83941000Y-36900000D01*
X81831000Y-26300000D02*
X84241000Y-26300000D01*
X83941000Y-26600000D02*
X81411000Y-26600000D01*
X83941000Y-36900000D02*
X83941000Y-26600000D01*
X84241000Y-26300000D02*
X84241000Y-28710000D01*
%TO.C,C5*%
X120091252Y-76560000D02*
X118668748Y-76560000D01*
X120091252Y-78380000D02*
X118668748Y-78380000D01*
%TO.C,J2*%
X86071000Y-82130000D02*
X88481000Y-82130000D01*
X86071000Y-84540000D02*
X86071000Y-82130000D01*
X86371000Y-82430000D02*
X86371000Y-84960000D01*
X86371000Y-84960000D02*
X86501000Y-84960000D01*
X86371000Y-86770000D02*
X86371000Y-87750000D01*
X86371000Y-87750000D02*
X86631000Y-87750000D01*
X86501000Y-84960000D02*
X86501000Y-86770000D01*
X86501000Y-86770000D02*
X86371000Y-86770000D01*
X86631000Y-87750000D02*
X86631000Y-89250000D01*
X86631000Y-89250000D02*
X93711000Y-89250000D01*
X93711000Y-87750000D02*
X93971000Y-87750000D01*
X93711000Y-89250000D02*
X93711000Y-87750000D01*
X93841000Y-84960000D02*
X93971000Y-84960000D01*
X93841000Y-86770000D02*
X93841000Y-84960000D01*
X93971000Y-82430000D02*
X86371000Y-82430000D01*
X93971000Y-84960000D02*
X93971000Y-82430000D01*
X93971000Y-86770000D02*
X93841000Y-86770000D01*
X93971000Y-87750000D02*
X93971000Y-86770000D01*
%TO.C,J8*%
X77121000Y-63390000D02*
X77121000Y-71230000D01*
X77121000Y-71230000D02*
X78621000Y-71230000D01*
X78621000Y-60890000D02*
X78621000Y-63390000D01*
X78621000Y-63390000D02*
X77121000Y-63390000D01*
X78621000Y-71230000D02*
X78621000Y-73730000D01*
X78621000Y-73730000D02*
X79601000Y-73730000D01*
X79601000Y-60890000D02*
X78621000Y-60890000D01*
X79601000Y-61020000D02*
X79601000Y-60890000D01*
X79601000Y-73600000D02*
X81411000Y-73600000D01*
X79601000Y-73730000D02*
X79601000Y-73600000D01*
X81411000Y-60890000D02*
X81411000Y-61020000D01*
X81411000Y-61020000D02*
X79601000Y-61020000D01*
X81411000Y-73600000D02*
X81411000Y-73730000D01*
X81411000Y-73730000D02*
X83941000Y-73730000D01*
X81831000Y-60590000D02*
X84241000Y-60590000D01*
X83941000Y-60890000D02*
X81411000Y-60890000D01*
X83941000Y-73730000D02*
X83941000Y-60890000D01*
X84241000Y-60590000D02*
X84241000Y-63000000D01*
%TO.C,C6*%
X119641252Y-80545000D02*
X119118748Y-80545000D01*
X119641252Y-82015000D02*
X119118748Y-82015000D01*
%TO.C,DC/DC2*%
D13*
X135161000Y-54170000D02*
X143381000Y-54170000D01*
X143381000Y-42350000D01*
X135161000Y-42350000D01*
X135161000Y-54170000D01*
D12*
%TO.C,R2*%
X94801000Y-30940000D02*
X94801000Y-40180000D01*
X94801000Y-40180000D02*
X98241000Y-40180000D01*
X96521000Y-30250000D02*
X96521000Y-30940000D01*
X96521000Y-40870000D02*
X96521000Y-40180000D01*
X98241000Y-30940000D02*
X94801000Y-30940000D01*
X98241000Y-40180000D02*
X98241000Y-30940000D01*
%TO.C,J1*%
X94961000Y-82130000D02*
X97371000Y-82130000D01*
X94961000Y-84540000D02*
X94961000Y-82130000D01*
X95261000Y-82430000D02*
X95261000Y-84960000D01*
X95261000Y-84960000D02*
X95391000Y-84960000D01*
X95261000Y-86770000D02*
X95261000Y-87750000D01*
X95261000Y-87750000D02*
X95521000Y-87750000D01*
X95391000Y-84960000D02*
X95391000Y-86770000D01*
X95391000Y-86770000D02*
X95261000Y-86770000D01*
X95521000Y-87750000D02*
X95521000Y-89250000D01*
X95521000Y-89250000D02*
X102601000Y-89250000D01*
X102601000Y-87750000D02*
X102861000Y-87750000D01*
X102601000Y-89250000D02*
X102601000Y-87750000D01*
X102731000Y-84960000D02*
X102861000Y-84960000D01*
X102731000Y-86770000D02*
X102731000Y-84960000D01*
X102861000Y-82430000D02*
X95261000Y-82430000D01*
X102861000Y-84960000D02*
X102861000Y-82430000D01*
X102861000Y-86770000D02*
X102731000Y-86770000D01*
X102861000Y-87750000D02*
X102861000Y-86770000D01*
%TO.C,J10*%
X147536000Y-67680000D02*
X147536000Y-65270000D01*
X147836000Y-54540000D02*
X147836000Y-67380000D01*
X147836000Y-67380000D02*
X150366000Y-67380000D01*
X149946000Y-67680000D02*
X147536000Y-67680000D01*
X150366000Y-54540000D02*
X147836000Y-54540000D01*
X150366000Y-54670000D02*
X150366000Y-54540000D01*
X150366000Y-67250000D02*
X152176000Y-67250000D01*
X150366000Y-67380000D02*
X150366000Y-67250000D01*
X152176000Y-54540000D02*
X152176000Y-54670000D01*
X152176000Y-54670000D02*
X150366000Y-54670000D01*
X152176000Y-67250000D02*
X152176000Y-67380000D01*
X152176000Y-67380000D02*
X153156000Y-67380000D01*
X153156000Y-54540000D02*
X152176000Y-54540000D01*
X153156000Y-57040000D02*
X153156000Y-54540000D01*
X153156000Y-64880000D02*
X154656000Y-64880000D01*
X153156000Y-67380000D02*
X153156000Y-64880000D01*
X154656000Y-57040000D02*
X153156000Y-57040000D01*
X154656000Y-64880000D02*
X154656000Y-57040000D01*
%TO.C,R1*%
X89721000Y-30940000D02*
X89721000Y-40180000D01*
X89721000Y-40180000D02*
X93161000Y-40180000D01*
X91441000Y-30250000D02*
X91441000Y-30940000D01*
X91441000Y-40870000D02*
X91441000Y-40180000D01*
X93161000Y-30940000D02*
X89721000Y-30940000D01*
X93161000Y-40180000D02*
X93161000Y-30940000D01*
%TO.C,J7*%
X77121000Y-75200000D02*
X77121000Y-82280000D01*
X77121000Y-82280000D02*
X78621000Y-82280000D01*
X78621000Y-74940000D02*
X78621000Y-75200000D01*
X78621000Y-75200000D02*
X77121000Y-75200000D01*
X78621000Y-82280000D02*
X78621000Y-82540000D01*
X78621000Y-82540000D02*
X79601000Y-82540000D01*
X79601000Y-74940000D02*
X78621000Y-74940000D01*
X79601000Y-75070000D02*
X79601000Y-74940000D01*
X79601000Y-82410000D02*
X81411000Y-82410000D01*
X79601000Y-82540000D02*
X79601000Y-82410000D01*
X81411000Y-74940000D02*
X81411000Y-75070000D01*
X81411000Y-75070000D02*
X79601000Y-75070000D01*
X81411000Y-82410000D02*
X81411000Y-82540000D01*
X81411000Y-82540000D02*
X83941000Y-82540000D01*
X81831000Y-74640000D02*
X84241000Y-74640000D01*
X83941000Y-74940000D02*
X81411000Y-74940000D01*
X83941000Y-82540000D02*
X83941000Y-74940000D01*
X84241000Y-74640000D02*
X84241000Y-77050000D01*
%TO.C,C2*%
X140119752Y-39730000D02*
X138697248Y-39730000D01*
X140119752Y-41550000D02*
X138697248Y-41550000D01*
%TO.C,J4*%
X77121000Y-39260000D02*
X77121000Y-47100000D01*
X77121000Y-47100000D02*
X78621000Y-47100000D01*
X78621000Y-38030000D02*
X78621000Y-39260000D01*
X78621000Y-39260000D02*
X77121000Y-39260000D01*
X78621000Y-47100000D02*
X78621000Y-48330000D01*
X78621000Y-48330000D02*
X79601000Y-48330000D01*
X79601000Y-38030000D02*
X78621000Y-38030000D01*
X79601000Y-38160000D02*
X79601000Y-38030000D01*
X79601000Y-48200000D02*
X81411000Y-48200000D01*
X79601000Y-48330000D02*
X79601000Y-48200000D01*
X81411000Y-38030000D02*
X81411000Y-38160000D01*
X81411000Y-38160000D02*
X79601000Y-38160000D01*
X81411000Y-48200000D02*
X81411000Y-48330000D01*
X81411000Y-48330000D02*
X83941000Y-48330000D01*
X81831000Y-37730000D02*
X84241000Y-37730000D01*
X83941000Y-38030000D02*
X81411000Y-38030000D01*
X83941000Y-48330000D02*
X83941000Y-38030000D01*
X84241000Y-37730000D02*
X84241000Y-40140000D01*
%TD*%
M02*
