M48
; DRILL file {KiCad 8.0.1} date 2024-08-10T06:45:49+0200
; FORMAT={-:-/ absolute / inch / decimal}
; #@! TF.CreationDate,2024-08-10T06:45:49+02:00
; #@! TF.GenerationSoftware,Kicad,Pcbnew,8.0.1
; #@! TF.FileFunction,Plated,1,2,PTH
FMAT,2
INCH
; #@! TA.AperFunction,Plated,PTH,ViaDrill
T1C0.0157
; #@! TA.AperFunction,Plated,PTH,ComponentDrill
T2C0.0315
; #@! TA.AperFunction,Plated,PTH,ComponentDrill
T3C0.0394
; #@! TA.AperFunction,Plated,PTH,ComponentDrill
T4C0.0429
; #@! TA.AperFunction,Plated,PTH,ComponentDrill
T5C0.1378
%
G90
G05
T1
X3.05Y-3.45
X3.05Y-1.45
X3.05Y-1.9
X3.05Y-2.35
X3.05Y-2.9
X3.35Y-1.175
X3.35Y-1.76
X3.42Y-2.12
X3.475Y-3.425
X3.9Y-3.175
X3.91Y-1.2
X3.91Y-1.3
X3.91Y-1.4
X3.95Y-2.375
X4.0Y-2.95
X4.2953Y-2.1
X4.2953Y-2.4
X4.3Y-2.25
X4.3Y-2.75
X4.625Y-1.225
X4.825Y-1.225
X4.875Y-3.075
X5.025Y-1.225
X5.1Y-2.65
X5.11Y-1.4
X5.2Y-3.4
X5.275Y-1.5
X5.29Y-2.2
X5.29Y-2.3
X5.29Y-2.4
X5.29Y-2.5
X5.29Y-2.6
X5.45Y-1.175
X5.6Y-2.99
X5.67Y-2.17
X5.775Y-2.7
X5.775Y-3.45
T2
X3.6Y-1.15
X3.6Y-1.65
X3.6Y-1.825
X3.6Y-2.325
X3.8Y-1.15
X3.8Y-1.65
X3.8Y-1.825
X3.8Y-2.325
X4.4Y-1.55
X4.4Y-2.05
X4.4453Y-2.65
X4.4453Y-2.8697
X4.6Y-1.55
X4.6Y-2.05
X4.8Y-1.55
X4.8Y-2.05
X4.9453Y-2.65
X4.9453Y-2.8697
X5.0Y-1.55
X5.0Y-2.05
T3
X3.5Y-2.45
X3.5Y-2.85
X3.6Y-2.45
X3.6Y-2.85
X3.7Y-2.45
X3.7Y-2.85
X3.8Y-2.45
X3.8Y-2.85
X3.9Y-2.45
X3.9Y-2.85
X4.0Y-1.15
X4.0Y-1.25
X4.0Y-1.35
X4.0Y-1.45
X4.0Y-1.55
X4.0Y-1.65
X4.0Y-1.75
X4.0Y-1.85
X4.0Y-1.95
X4.0Y-2.05
X4.0Y-2.45
X4.0Y-2.85
X4.2Y-1.35
X4.2Y-1.45
X4.2Y-1.55
X4.2Y-1.65
X4.2Y-1.75
X4.2Y-1.85
X4.2Y-1.95
X4.2Y-2.05
X4.2Y-2.15
X4.2Y-2.25
X4.2Y-2.35
X4.2Y-2.45
X4.2Y-2.55
X4.2Y-2.65
X4.2Y-2.75
X4.2Y-2.85
X4.2Y-2.95
X4.2Y-3.05
X4.2Y-3.15
X5.2Y-1.35
X5.2Y-1.45
X5.2Y-1.55
X5.2Y-1.65
X5.2Y-1.75
X5.2Y-1.85
X5.2Y-1.95
X5.2Y-2.05
X5.2Y-2.15
X5.2Y-2.25
X5.2Y-2.35
X5.2Y-2.45
X5.2Y-2.55
X5.2Y-2.65
X5.2Y-2.75
X5.2Y-2.85
X5.2Y-2.95
X5.2Y-3.05
X5.2Y-3.15
X5.55Y-1.8
X5.55Y-1.9
X5.55Y-2.0
X5.55Y-2.7
X5.55Y-2.8
X5.55Y-2.9
T4
X3.2Y-1.15
X3.2Y-1.25
X3.2Y-1.35
X3.2Y-1.6
X3.2Y-1.7
X3.2Y-1.8
X3.2Y-2.05
X3.2Y-2.15
X3.2Y-2.25
X3.2Y-2.5
X3.2Y-2.6
X3.2Y-2.7
X3.2Y-2.8
X3.2Y-3.05
X3.2Y-3.15
X3.5Y-3.35
X3.6Y-3.35
X3.85Y-3.35
X3.95Y-3.35
X5.925Y-1.15
X5.925Y-1.25
X5.925Y-1.35
X5.925Y-1.45
X5.925Y-1.7
X5.925Y-1.8
X5.925Y-1.9
X5.925Y-2.0
X5.925Y-2.25
X5.925Y-2.35
X5.925Y-2.45
X5.925Y-2.55
X5.925Y-2.8
X5.925Y-2.9
X5.925Y-3.0
X5.925Y-3.1
X5.925Y-3.35
X5.925Y-3.45
T5
X3.4965Y-3.0669
X5.6224Y-1.2953
M30
